G04 #@! TF.GenerationSoftware,KiCad,Pcbnew,10.0.3*
G04 #@! TF.CreationDate,2026-06-23T21:20:56+08:00*
G04 #@! TF.ProjectId,current-sense,63757272-656e-4742-9d73-656e73652e6b,rev?*
G04 #@! TF.SameCoordinates,Original*
G04 #@! TF.FileFunction,Copper,L4,Bot*
G04 #@! TF.FilePolarity,Positive*
%FSLAX46Y46*%
G04 Gerber Fmt 4.6, Leading zero omitted, Abs format (unit mm)*
G04 Created by KiCad (PCBNEW 10.0.3) date 2026-06-23 21:20:56*
%MOMM*%
%LPD*%
G01*
G04 APERTURE LIST*
G04 Aperture macros list*
%AMRoundRect*
0 Rectangle with rounded corners*
0 $1 Rounding radius*
0 $2 $3 $4 $5 $6 $7 $8 $9 X,Y pos of 4 corners*
0 Add a 4 corners polygon primitive as box body*
4,1,4,$2,$3,$4,$5,$6,$7,$8,$9,$2,$3,0*
0 Add four circle primitives for the rounded corners*
1,1,$1+$1,$2,$3*
1,1,$1+$1,$4,$5*
1,1,$1+$1,$6,$7*
1,1,$1+$1,$8,$9*
0 Add four rect primitives between the rounded corners*
20,1,$1+$1,$2,$3,$4,$5,0*
20,1,$1+$1,$4,$5,$6,$7,0*
20,1,$1+$1,$6,$7,$8,$9,0*
20,1,$1+$1,$8,$9,$2,$3,0*%
G04 Aperture macros list end*
G04 #@! TA.AperFunction,EtchedComponent*
%ADD10C,0.000000*%
G04 #@! TD*
G04 #@! TA.AperFunction,ComponentPad*
%ADD11C,0.800000*%
G04 #@! TD*
G04 #@! TA.AperFunction,ComponentPad*
%ADD12C,6.400000*%
G04 #@! TD*
G04 #@! TA.AperFunction,ComponentPad*
%ADD13C,2.250000*%
G04 #@! TD*
G04 #@! TA.AperFunction,ComponentPad*
%ADD14R,1.500000X2.500000*%
G04 #@! TD*
G04 #@! TA.AperFunction,ComponentPad*
%ADD15O,1.500000X2.500000*%
G04 #@! TD*
G04 #@! TA.AperFunction,ComponentPad*
%ADD16O,2.200000X3.500000*%
G04 #@! TD*
G04 #@! TA.AperFunction,ComponentPad*
%ADD17C,1.750000*%
G04 #@! TD*
G04 #@! TA.AperFunction,ComponentPad*
%ADD18C,2.100000*%
G04 #@! TD*
G04 #@! TA.AperFunction,ComponentPad*
%ADD19C,1.800000*%
G04 #@! TD*
G04 #@! TA.AperFunction,SMDPad,CuDef*
%ADD20C,0.360000*%
G04 #@! TD*
G04 #@! TA.AperFunction,ComponentPad*
%ADD21RoundRect,0.250000X0.600000X0.750000X-0.600000X0.750000X-0.600000X-0.750000X0.600000X-0.750000X0*%
G04 #@! TD*
G04 #@! TA.AperFunction,ComponentPad*
%ADD22O,1.700000X2.000000*%
G04 #@! TD*
G04 #@! TA.AperFunction,SMDPad,CuDef*
%ADD23C,0.500000*%
G04 #@! TD*
G04 #@! TA.AperFunction,ViaPad*
%ADD24C,0.600000*%
G04 #@! TD*
G04 #@! TA.AperFunction,ViaPad*
%ADD25C,0.800000*%
G04 #@! TD*
G04 #@! TA.AperFunction,Conductor*
%ADD26C,0.360000*%
G04 #@! TD*
G04 #@! TA.AperFunction,Conductor*
%ADD27C,0.160000*%
G04 #@! TD*
G04 #@! TA.AperFunction,Conductor*
%ADD28C,0.240000*%
G04 #@! TD*
G04 #@! TA.AperFunction,Conductor*
%ADD29C,0.640000*%
G04 #@! TD*
G04 #@! TA.AperFunction,Conductor*
%ADD30C,1.000000*%
G04 #@! TD*
G04 APERTURE END LIST*
D10*
G04 #@! TA.AperFunction,EtchedComponent*
G36*
X73880000Y38750000D02*
G01*
X73520000Y38750000D01*
X73520000Y39750000D01*
X73880000Y39750000D01*
X73880000Y38750000D01*
G37*
G04 #@! TD.AperFunction*
D11*
X93250000Y29250000D03*
X94000000Y31000000D03*
X94000000Y27500000D03*
X95750000Y31750000D03*
D12*
X95750000Y29250000D03*
D11*
X95750000Y26750000D03*
X97500000Y31000000D03*
X97500000Y27500000D03*
X98250000Y29250000D03*
X93250000Y45750000D03*
X94000000Y47500000D03*
X94000000Y44000000D03*
X95750000Y48250000D03*
D12*
X95750000Y45750000D03*
D11*
X95750000Y43250000D03*
X97500000Y47500000D03*
X97500000Y44000000D03*
X98250000Y45750000D03*
X6750000Y45750000D03*
X7500000Y47500000D03*
X7500000Y44000000D03*
X9250000Y48250000D03*
D12*
X9250000Y45750000D03*
D11*
X9250000Y43250000D03*
X11000000Y47500000D03*
X11000000Y44000000D03*
X11750000Y45750000D03*
X6750000Y29250000D03*
X7500000Y31000000D03*
X7500000Y27500000D03*
X9250000Y31750000D03*
D12*
X9250000Y29250000D03*
D11*
X9250000Y26750000D03*
X11000000Y31000000D03*
X11000000Y27500000D03*
X11750000Y29250000D03*
D13*
X95750000Y37500000D03*
X93210000Y34960000D03*
X98290000Y34960000D03*
X93210000Y40040000D03*
X98290000Y40040000D03*
D14*
X74500000Y47500000D03*
D15*
X76500000Y47500000D03*
X78500000Y47500000D03*
D16*
X72400000Y47500000D03*
X80600000Y47500000D03*
D17*
X46250000Y47250000D03*
D18*
X52000000Y44760000D03*
D17*
X50750000Y47250000D03*
D18*
X44990000Y44760000D03*
D17*
X60250000Y47250000D03*
D18*
X66000000Y44760000D03*
D17*
X64750000Y47250000D03*
D18*
X58990000Y44760000D03*
D19*
X87000000Y33950000D03*
X35000000Y33950000D03*
D20*
X73700000Y39750000D03*
X73700000Y38750000D03*
D21*
X88500000Y46700000D03*
D22*
X86000000Y46700000D03*
D23*
X55500000Y47000000D03*
X91250000Y26750000D03*
X-8750000Y40750000D03*
D24*
X17300000Y32150000D03*
X24200000Y41150000D03*
X13400000Y42000000D03*
X79000000Y28250000D03*
X-5750000Y41750000D03*
X25150000Y31250000D03*
X-13000000Y40750000D03*
X-14000000Y39500000D03*
X90250000Y35750000D03*
X-7750000Y41750000D03*
X90250000Y41250000D03*
X-11750000Y41750000D03*
X-3250000Y41750000D03*
X81500000Y25750000D03*
X22750000Y26000000D03*
X69750000Y28250000D03*
X-21250000Y39500000D03*
X13350000Y35250000D03*
X34750000Y29500000D03*
X8250000Y33750000D03*
X60250000Y28000000D03*
X-15750000Y35500000D03*
X79000000Y25750000D03*
X15750000Y48750000D03*
X2750000Y41750000D03*
X52500000Y28250000D03*
X-18000000Y39500000D03*
X-5000000Y33250000D03*
X-19500000Y35500000D03*
X90250000Y33750000D03*
X22100000Y36000000D03*
X28950000Y31850000D03*
X-13250000Y34500000D03*
X26600000Y46500000D03*
X46500000Y26000000D03*
X-14750000Y35500000D03*
X-19500000Y39500000D03*
X75000000Y25750000D03*
X2750000Y39250000D03*
X-27940000Y39497000D03*
X-3250000Y35250000D03*
X-23750000Y35500000D03*
X-15500000Y39500000D03*
X66750000Y26000000D03*
X31250000Y26500000D03*
X46500000Y28250000D03*
X-9500000Y33250000D03*
X-21250000Y35500000D03*
X90250000Y31750000D03*
X32750000Y35000000D03*
X90250000Y39750000D03*
X13750000Y27000000D03*
X-16750000Y39500000D03*
X88000000Y28500000D03*
X-2000000Y41750000D03*
X-22500000Y35500000D03*
X41250000Y26000000D03*
X-17000000Y35500000D03*
X-3000000Y33250000D03*
X-13500000Y35500000D03*
X32500000Y36750000D03*
X49500000Y26000000D03*
X39000000Y26000000D03*
X-1250000Y33250000D03*
X21300000Y32150000D03*
X-4500000Y41750000D03*
X20050000Y49300000D03*
X-12500000Y39500000D03*
X8250000Y40500000D03*
X-11000000Y33250000D03*
X3250000Y33250000D03*
X37000000Y26000000D03*
X-9750000Y41750000D03*
X74750000Y28250000D03*
X49500000Y28250000D03*
X-25750000Y39500000D03*
X1000000Y41750000D03*
X52500000Y26000000D03*
X62000000Y26000000D03*
X25700000Y49200000D03*
X33500000Y42500000D03*
X29150000Y36800000D03*
X5750000Y32750000D03*
X44750000Y28250000D03*
X88500000Y26000000D03*
X31500000Y49000000D03*
X28300000Y46450000D03*
X55250000Y26000000D03*
X-22500000Y39500000D03*
X-12250000Y33500000D03*
X85500000Y26250000D03*
X-23750000Y39500000D03*
X23400000Y43500000D03*
X-8750000Y35250000D03*
X55250000Y28250000D03*
X57500000Y25750000D03*
X-25750000Y35500000D03*
X250000Y33250000D03*
X-7750000Y33250000D03*
X-18250000Y35500000D03*
X88750000Y29750000D03*
X36850000Y39250000D03*
X-6500000Y33250000D03*
X4750000Y42000000D03*
X15750000Y26000000D03*
X43500000Y26000000D03*
X90250000Y37750000D03*
X-24750000Y35500000D03*
X6000000Y42500000D03*
X84000000Y28250000D03*
X35950000Y30250000D03*
X35950000Y32250000D03*
X1750000Y33250000D03*
X-24750000Y39500000D03*
X13350000Y39750000D03*
X-1000000Y41750000D03*
X70750000Y26250000D03*
X-3250000Y39000000D03*
X63500000Y28000000D03*
X-26750000Y39500000D03*
X24000000Y35500000D03*
X90250000Y44250000D03*
X34500000Y36700000D03*
X2750000Y35500000D03*
X10150000Y39750000D03*
X-27520900Y38823900D03*
X8850000Y38000000D03*
X-27777713Y37987187D03*
X-27762200Y37236400D03*
X8850000Y37250000D03*
X-27000200Y36906200D03*
X10150000Y35250000D03*
X15700000Y32150000D03*
X78250000Y36500000D03*
X79750000Y36500000D03*
X74150000Y41500000D03*
X76750000Y36500000D03*
X69650000Y44400000D03*
X58900000Y41478200D03*
X20450000Y28500000D03*
X76500000Y34400000D03*
X70500000Y49000000D03*
X54900000Y44600000D03*
X42500000Y36450000D03*
X80250000Y34000000D03*
X82050000Y31950000D03*
X74750000Y30750000D03*
X82000000Y37000000D03*
X82000000Y35750000D03*
X25950000Y33550000D03*
X81000000Y36500000D03*
X67500000Y36750000D03*
X42000000Y29450000D03*
X87750000Y31750000D03*
X27550000Y26900000D03*
X47000000Y40150000D03*
X46550000Y31950000D03*
X77500000Y31000000D03*
X30200000Y47350000D03*
X37500000Y36500000D03*
X75350000Y44150000D03*
X38750000Y45176999D03*
X63250000Y35700000D03*
X19250000Y26700000D03*
X37550000Y29300000D03*
X75800000Y36750000D03*
X40500000Y29450000D03*
X24550000Y31900000D03*
X-27149753Y36156075D03*
X54600000Y35200000D03*
X85500000Y29750000D03*
D25*
X70250000Y36200000D03*
D24*
X48750000Y49000000D03*
X39550000Y32250000D03*
X66300000Y35200000D03*
X78100000Y33800000D03*
X55250000Y29500000D03*
X74550000Y44300000D03*
X12700000Y32350000D03*
X37500000Y40250000D03*
X66300000Y40900000D03*
X74700000Y38750000D03*
X37350000Y49300000D03*
X37500000Y34500000D03*
X65250000Y31300000D03*
X57250000Y49000000D03*
X75400000Y38650000D03*
X52500000Y29500000D03*
X37500000Y42500000D03*
X60700000Y33150000D03*
X26600000Y42000000D03*
X53200000Y31350000D03*
D25*
X74800000Y33700000D03*
D24*
X82500000Y34250000D03*
X48900000Y34600000D03*
X68250000Y44250000D03*
X76150000Y44300000D03*
X-27813000Y35743000D03*
X13050000Y31550000D03*
X58400000Y31450000D03*
X84550000Y43550000D03*
X58450000Y39000000D03*
X23400000Y46500000D03*
X29000000Y29750000D03*
X38975000Y35125000D03*
X33550000Y27050000D03*
X86100000Y41500000D03*
X60250000Y39400000D03*
X78000000Y44300000D03*
X23000000Y31900000D03*
X15800000Y42850000D03*
X28350000Y29250000D03*
X58350000Y36000000D03*
X30550000Y31850000D03*
X38550000Y42250000D03*
X39550000Y30250000D03*
X65250000Y36900000D03*
X54600000Y36800000D03*
X40300000Y32700000D03*
X34600000Y40500000D03*
X40250000Y43150000D03*
X32250000Y44950000D03*
X58350000Y34500000D03*
X84900000Y45150000D03*
X53200000Y41000000D03*
X54950000Y36000000D03*
X23300000Y35200000D03*
X37900000Y35750000D03*
X22450000Y40550000D03*
X42000000Y32600000D03*
X58600000Y40500000D03*
X71650000Y40200000D03*
X83800000Y45250000D03*
X58350000Y33000000D03*
X38600000Y36650000D03*
X22100000Y34500000D03*
X36900000Y37643000D03*
X13400000Y41250000D03*
X36650000Y28450000D03*
X13350000Y33750000D03*
X36100000Y27800000D03*
X79500000Y40450000D03*
X68650000Y36150000D03*
X77500000Y40250000D03*
X80250000Y40450000D03*
X71300000Y44350000D03*
X77190600Y37650000D03*
D25*
X36500000Y43850000D03*
D26*
X73700000Y38750000D02*
X74050000Y38400000D01*
X73700000Y38750000D02*
X73350000Y38400000D01*
X73700000Y38750000D02*
X74700000Y38750000D01*
X73700000Y38750000D02*
X73700000Y37950000D01*
X73700000Y38750000D02*
X73150000Y38750000D01*
D27*
X81750000Y29650000D02*
X82000000Y29650000D01*
X84550000Y32200000D02*
X84550000Y43550000D01*
X82000000Y29650000D02*
X84250000Y31900000D01*
X60200000Y29650000D02*
X58400000Y31450000D01*
X84250000Y31900000D02*
X84550000Y32200000D01*
X81750000Y29650000D02*
X60200000Y29650000D01*
X24350000Y45550000D02*
X23400000Y46500000D01*
X53500000Y41550000D02*
X54200000Y41550000D01*
X54200000Y41550000D02*
X56750000Y39000000D01*
X35800000Y41550000D02*
X33300000Y44050000D01*
X30050000Y45550000D02*
X24350000Y45550000D01*
X33300000Y44050000D02*
X31550000Y44050000D01*
X56750000Y39000000D02*
X58450000Y39000000D01*
X53500000Y41550000D02*
X35800000Y41550000D01*
X31550000Y44050000D02*
X30050000Y45550000D01*
X38950000Y35100000D02*
X38975000Y35125000D01*
X29000000Y30464002D02*
X29392999Y30857001D01*
X29000000Y29750000D02*
X29000000Y30464002D01*
X36957001Y30857001D02*
X38950000Y32850000D01*
X29392999Y30857001D02*
X36957001Y30857001D01*
X38950000Y32850000D02*
X38950000Y35100000D01*
X34600000Y39650000D02*
X34600000Y40500000D01*
X36100000Y38150000D02*
X34600000Y39650000D01*
X40300000Y35800000D02*
X37950000Y38150000D01*
X40300000Y32700000D02*
X40300000Y35800000D01*
X37950000Y38150000D02*
X36100000Y38150000D01*
X40250000Y43150000D02*
X37150000Y43150000D01*
X35300000Y42950000D02*
X33300000Y44950000D01*
X33300000Y44950000D02*
X32250000Y44950000D01*
X37150000Y43150000D02*
X36950000Y42950000D01*
X36950000Y42950000D02*
X35300000Y42950000D01*
X85200000Y44850000D02*
X84900000Y45150000D01*
X85050000Y43050000D02*
X85200000Y43200000D01*
X57800000Y33400000D02*
X57800000Y30950000D01*
X57800000Y30950000D02*
X59450000Y29300000D01*
X82350000Y29300000D02*
X85050000Y32000000D01*
X58350000Y33950000D02*
X57800000Y33400000D01*
X85050000Y32000000D02*
X85050000Y43050000D01*
X58350000Y34500000D02*
X58350000Y33950000D01*
X59450000Y29300000D02*
X82350000Y29300000D01*
X85200000Y43200000D02*
X85200000Y44850000D01*
X53500000Y40700000D02*
X53500000Y36900000D01*
X53200000Y41000000D02*
X53500000Y40700000D01*
X53500000Y36900000D02*
X54400000Y36000000D01*
X54400000Y36000000D02*
X54950000Y36000000D01*
X23552999Y34952999D02*
X23305998Y35200000D01*
X34300000Y35750000D02*
X25900000Y35750000D01*
X25900000Y35750000D02*
X25102999Y34952999D01*
X37800000Y35750000D02*
X37900000Y35750000D01*
D28*
X23305998Y35200000D02*
X23300000Y35200000D01*
D27*
X34300000Y35750000D02*
X37800000Y35750000D01*
X25102999Y34952999D02*
X23552999Y34952999D01*
X41400000Y32600000D02*
X40700000Y33300000D01*
X40700000Y36050000D02*
X38250000Y38500000D01*
X35000000Y41200000D02*
X33200000Y41200000D01*
X32550000Y40550000D02*
X22450000Y40550000D01*
X40700000Y33300000D02*
X40700000Y36050000D01*
X35300000Y39500000D02*
X35300000Y40900000D01*
X36300000Y38500000D02*
X35300000Y39500000D01*
X33200000Y41200000D02*
X32550000Y40550000D01*
X35300000Y40900000D02*
X35000000Y41200000D01*
X38250000Y38500000D02*
X36300000Y38500000D01*
X42000000Y32600000D02*
X41400000Y32600000D01*
X60350000Y41800000D02*
X59050000Y40500000D01*
X70800000Y41800000D02*
X60350000Y41800000D01*
X71650000Y40950000D02*
X70800000Y41800000D01*
X59050000Y40500000D02*
X58600000Y40500000D01*
X71650000Y40200000D02*
X71650000Y40950000D01*
D29*
X86000000Y46500000D02*
X86000000Y45050000D01*
X88800000Y42650000D02*
X88800000Y35750000D01*
X87150000Y43400000D02*
X88050000Y43400000D01*
X88050000Y43400000D02*
X88800000Y42650000D01*
X88800000Y35750000D02*
X87000000Y33950000D01*
X86000000Y44550000D02*
X87150000Y43400000D01*
X86000000Y45050000D02*
X86000000Y46700000D01*
X86000000Y45050000D02*
X86000000Y44550000D01*
D27*
X81600000Y30000000D02*
X83800000Y32200000D01*
X83800000Y32200000D02*
X83800000Y45250000D01*
X58350000Y33000000D02*
X58350000Y32650000D01*
X58350000Y32650000D02*
X61000000Y30000000D01*
X61000000Y30000000D02*
X81600000Y30000000D01*
X38600000Y35550000D02*
X38200000Y35150000D01*
X35000000Y31550000D02*
X32300000Y34250000D01*
X22100000Y34500000D02*
X22850000Y34500000D01*
X32300000Y34250000D02*
X30500000Y34250000D01*
X38200000Y35150000D02*
X38200000Y32700000D01*
X30500000Y34250000D02*
X30600000Y34250000D01*
X22850000Y34500000D02*
X23100000Y34250000D01*
X38200000Y32700000D02*
X37050000Y31550000D01*
X37050000Y31550000D02*
X35000000Y31550000D01*
X38600000Y36650000D02*
X38600000Y35550000D01*
X23100000Y34250000D02*
X30500000Y34250000D01*
D28*
X14100000Y32650000D02*
X14100000Y40550000D01*
X14100000Y40550000D02*
X13400000Y41250000D01*
X22050000Y31350000D02*
X15400000Y31350000D01*
X33500000Y28450000D02*
X36650000Y28450000D01*
X33500000Y28450000D02*
X24950000Y28450000D01*
X24950000Y28450000D02*
X22050000Y31350000D01*
X15400000Y31350000D02*
X14100000Y32650000D01*
X15200000Y30900000D02*
X13350000Y32750000D01*
X13350000Y32750000D02*
X13350000Y33750000D01*
X34000000Y27800000D02*
X33050000Y27800000D01*
X32850000Y28000000D02*
X24750000Y28000000D01*
X34000000Y27800000D02*
X36100000Y27800000D01*
X21850000Y30900000D02*
X15200000Y30900000D01*
X33050000Y27800000D02*
X32850000Y28000000D01*
X24750000Y28000000D02*
X21850000Y30900000D01*
X77190600Y37650000D02*
X77350000Y37809400D01*
X77350000Y37809400D02*
X77350000Y39250000D01*
X77350000Y39250000D02*
X74350000Y42250000D01*
X73300000Y44350000D02*
X71300000Y44350000D01*
X74350000Y42250000D02*
X73400000Y42250000D01*
X74500000Y46000000D02*
X74500000Y45550000D01*
X74500000Y45550000D02*
X73300000Y44350000D01*
X73400000Y42250000D02*
X71300000Y44350000D01*
D26*
X74500000Y47500000D02*
X74500000Y46000000D01*
D30*
X36500000Y43850000D02*
X36899999Y44249999D01*
X43350000Y42800000D02*
X71100000Y42800000D01*
X73700000Y39750000D02*
X73700000Y40350000D01*
X41900001Y44249999D02*
X43350000Y42800000D01*
X36899999Y44249999D02*
X41900001Y44249999D01*
X71250000Y42800000D02*
X71100000Y42800000D01*
X73700000Y40350000D02*
X71250000Y42800000D01*
G04 #@! TA.AperFunction,Conductor*
G36*
X89195336Y49905609D02*
G01*
X89239246Y49854934D01*
X89250000Y49805500D01*
X89250000Y48327000D01*
X89231109Y48262664D01*
X89180434Y48218754D01*
X89131000Y48208000D01*
X88754001Y48208000D01*
X88754000Y48207999D01*
X88754000Y47130702D01*
X88692993Y47165925D01*
X88565826Y47200000D01*
X88434174Y47200000D01*
X88307007Y47165925D01*
X88246000Y47130702D01*
X88246000Y48207999D01*
X88245999Y48208000D01*
X87849490Y48208000D01*
X87745681Y48197394D01*
X87745678Y48197394D01*
X87577473Y48141657D01*
X87426661Y48048634D01*
X87426658Y48048632D01*
X87301367Y47923341D01*
X87301365Y47923338D01*
X87208342Y47772526D01*
X87152605Y47604321D01*
X87152605Y47604318D01*
X87142000Y47500509D01*
X87142000Y47499685D01*
X87141948Y47499510D01*
X87141846Y47497489D01*
X87141692Y47497496D01*
X87141692Y47497495D01*
X87141656Y47497498D01*
X87141362Y47497513D01*
X87123109Y47435349D01*
X87072434Y47391439D01*
X87006065Y47381896D01*
X86945072Y47409751D01*
X86926727Y47429739D01*
X86877499Y47497495D01*
X86831787Y47560413D01*
X86710413Y47681787D01*
X86571547Y47782679D01*
X86418607Y47860606D01*
X86255359Y47913648D01*
X86085824Y47940500D01*
X85914176Y47940500D01*
X85744641Y47913648D01*
X85581393Y47860606D01*
X85428453Y47782679D01*
X85428450Y47782677D01*
X85289593Y47681792D01*
X85289584Y47681784D01*
X85168215Y47560415D01*
X85168207Y47560406D01*
X85070651Y47426131D01*
X85067321Y47421547D01*
X84989394Y47268607D01*
X84936352Y47105359D01*
X84909500Y46935824D01*
X84909500Y46464176D01*
X84936146Y46295939D01*
X84936353Y46294637D01*
X84979459Y46161969D01*
X84989394Y46131393D01*
X85029813Y46052065D01*
X85067320Y45978454D01*
X85152828Y45860762D01*
X85175360Y45797609D01*
X85160172Y45732299D01*
X85112087Y45685568D01*
X85046370Y45672253D01*
X85025754Y45675871D01*
X85000984Y45682508D01*
X84971158Y45690500D01*
X84828842Y45690500D01*
X84783019Y45678222D01*
X84691381Y45653668D01*
X84691377Y45653666D01*
X84691375Y45653666D01*
X84691373Y45653665D01*
X84646007Y45627473D01*
X84568125Y45582508D01*
X84467492Y45481875D01*
X84467490Y45481872D01*
X84464781Y45479163D01*
X84405930Y45447029D01*
X84339049Y45451812D01*
X84285371Y45491995D01*
X84277589Y45503790D01*
X84232508Y45581875D01*
X84131875Y45682508D01*
X84008625Y45753666D01*
X83871158Y45790500D01*
X83728842Y45790500D01*
X83708484Y45785045D01*
X83591381Y45753668D01*
X83591377Y45753666D01*
X83591375Y45753666D01*
X83468125Y45682508D01*
X83367492Y45581875D01*
X83367491Y45581873D01*
X83367490Y45581872D01*
X83296334Y45458626D01*
X83296331Y45458618D01*
X83259500Y45321160D01*
X83259500Y45178839D01*
X83296331Y45041381D01*
X83296334Y45041373D01*
X83367490Y44918127D01*
X83367491Y44918125D01*
X83367492Y44918125D01*
X83444647Y44840969D01*
X83476780Y44782121D01*
X83479500Y44756826D01*
X83479500Y32382047D01*
X83460609Y32317711D01*
X83444646Y32297901D01*
X81502099Y30355354D01*
X81443248Y30323220D01*
X81417953Y30320500D01*
X61182047Y30320500D01*
X61117711Y30339391D01*
X61097901Y30355354D01*
X60540356Y30912899D01*
X58848032Y32605221D01*
X58815900Y32664070D01*
X58820683Y32730951D01*
X58829123Y32748865D01*
X58853665Y32791373D01*
X58853666Y32791375D01*
X58890500Y32928842D01*
X58890500Y33071158D01*
X58857806Y33193174D01*
X58853668Y33208618D01*
X58853667Y33208619D01*
X58853666Y33208625D01*
X58782508Y33331875D01*
X58681875Y33432508D01*
X58565058Y33499952D01*
X58518786Y33548479D01*
X58506096Y33614320D01*
X58531016Y33676569D01*
X58540411Y33687155D01*
X58606462Y33753206D01*
X58606464Y33753208D01*
X58606467Y33753213D01*
X58648657Y33826286D01*
X58648661Y33826295D01*
X58670499Y33907800D01*
X58670500Y33907805D01*
X58670500Y34006826D01*
X58689391Y34071162D01*
X58705349Y34090966D01*
X58782508Y34168125D01*
X58853666Y34291375D01*
X58857430Y34305420D01*
X58890499Y34428839D01*
X58890500Y34428842D01*
X58890500Y34571157D01*
X58890499Y34571160D01*
X58853668Y34708618D01*
X58853667Y34708619D01*
X58853666Y34708625D01*
X58782508Y34831875D01*
X58681875Y34932508D01*
X58558625Y35003666D01*
X58421158Y35040500D01*
X58278842Y35040500D01*
X58233019Y35028222D01*
X58141381Y35003668D01*
X58141377Y35003666D01*
X58141375Y35003666D01*
X58018125Y34932508D01*
X57917492Y34831875D01*
X57917490Y34831872D01*
X57846334Y34708626D01*
X57846331Y34708618D01*
X57809500Y34571160D01*
X57809500Y34428839D01*
X57846331Y34291381D01*
X57846334Y34291373D01*
X57917490Y34168128D01*
X57917494Y34168122D01*
X57932037Y34153580D01*
X57964170Y34094728D01*
X57959385Y34027847D01*
X57932036Y33985292D01*
X57806990Y33860245D01*
X57609994Y33663249D01*
X57609988Y33663244D01*
X57543538Y33596794D01*
X57543532Y33596786D01*
X57501342Y33523713D01*
X57501338Y33523704D01*
X57479500Y33442199D01*
X57479500Y30907800D01*
X57501338Y30826295D01*
X57501342Y30826286D01*
X57543532Y30753213D01*
X57543538Y30753206D01*
X59093598Y29203146D01*
X59125732Y29144295D01*
X59120949Y29077414D01*
X59080766Y29023736D01*
X59017941Y29000303D01*
X59009452Y29000000D01*
X37369000Y29000000D01*
X37304664Y29018891D01*
X37260754Y29069566D01*
X37250000Y29119000D01*
X37250000Y30321160D01*
X39009500Y30321160D01*
X39009500Y30178839D01*
X39046331Y30041381D01*
X39046334Y30041373D01*
X39117490Y29918127D01*
X39218127Y29817490D01*
X39341373Y29746334D01*
X39341381Y29746331D01*
X39478839Y29709500D01*
X39478842Y29709500D01*
X39621160Y29709500D01*
X39758618Y29746331D01*
X39758626Y29746334D01*
X39881872Y29817490D01*
X39881875Y29817492D01*
X39982508Y29918125D01*
X40053666Y30041375D01*
X40090500Y30178842D01*
X40090500Y30321158D01*
X40053666Y30458625D01*
X39982508Y30581875D01*
X39881875Y30682508D01*
X39758625Y30753666D01*
X39621158Y30790500D01*
X39478842Y30790500D01*
X39433019Y30778222D01*
X39341381Y30753668D01*
X39341377Y30753666D01*
X39341375Y30753666D01*
X39341373Y30753665D01*
X39340578Y30753206D01*
X39218125Y30682508D01*
X39117492Y30581875D01*
X39117490Y30581872D01*
X39046334Y30458626D01*
X39046331Y30458618D01*
X39009500Y30321160D01*
X37250000Y30321160D01*
X37250000Y30647452D01*
X37268891Y30711788D01*
X37284854Y30731598D01*
X38232098Y31678842D01*
X39206464Y32653208D01*
X39215076Y32668125D01*
X39237085Y32706244D01*
X39248658Y32726288D01*
X39248661Y32726295D01*
X39270499Y32807800D01*
X39270500Y32807805D01*
X39270500Y34606826D01*
X39289391Y34671162D01*
X39305354Y34690972D01*
X39306872Y34692490D01*
X39306875Y34692492D01*
X39407508Y34793125D01*
X39478666Y34916375D01*
X39481096Y34925441D01*
X39515499Y35053839D01*
X39515500Y35053842D01*
X39515500Y35196157D01*
X39515499Y35196160D01*
X39513348Y35204187D01*
X39478666Y35333625D01*
X39407508Y35456875D01*
X39306875Y35557508D01*
X39183625Y35628666D01*
X39046158Y35665500D01*
X39039500Y35665500D01*
X38975164Y35684391D01*
X38931254Y35735066D01*
X38920500Y35784500D01*
X38920500Y36156826D01*
X38927180Y36179578D01*
X38929883Y36203142D01*
X38937360Y36214248D01*
X38939391Y36221162D01*
X38947373Y36232149D01*
X38951142Y36236759D01*
X39032508Y36318125D01*
X39068174Y36379901D01*
X39074279Y36387368D01*
X39094309Y36401066D01*
X39111876Y36417816D01*
X39121520Y36419674D01*
X39129626Y36425218D01*
X39153883Y36425912D01*
X39177716Y36430506D01*
X39186833Y36426855D01*
X39196651Y36427137D01*
X39217434Y36414605D01*
X39239966Y36405586D01*
X39250552Y36396191D01*
X39944646Y35702098D01*
X39976780Y35643247D01*
X39979500Y35617952D01*
X39979500Y33193174D01*
X39960609Y33128838D01*
X39944650Y33109033D01*
X39867492Y33031875D01*
X39867490Y33031872D01*
X39796334Y32908626D01*
X39796331Y32908618D01*
X39759500Y32771160D01*
X39759500Y32628839D01*
X39796331Y32491381D01*
X39796334Y32491373D01*
X39867490Y32368127D01*
X39968127Y32267490D01*
X40091373Y32196334D01*
X40091381Y32196331D01*
X40228839Y32159500D01*
X40228842Y32159500D01*
X40371160Y32159500D01*
X40508618Y32196331D01*
X40508626Y32196334D01*
X40631872Y32267490D01*
X40631875Y32267492D01*
X40732508Y32368125D01*
X40803666Y32491375D01*
X40803668Y32491381D01*
X40806652Y32498584D01*
X40806742Y32498546D01*
X40806959Y32501581D01*
X40823789Y32524064D01*
X40838409Y32548049D01*
X40843650Y32550595D01*
X40847142Y32555259D01*
X40873456Y32565074D01*
X40898721Y32577347D01*
X40904505Y32576655D01*
X40909966Y32578692D01*
X40937414Y32572720D01*
X40965300Y32569387D01*
X40971248Y32565360D01*
X40975486Y32564439D01*
X41002601Y32544141D01*
X41143534Y32403209D01*
X41143535Y32403209D01*
X41203206Y32343538D01*
X41203213Y32343532D01*
X41276286Y32301342D01*
X41276295Y32301338D01*
X41357800Y32279500D01*
X41357805Y32279500D01*
X41506826Y32279500D01*
X41571162Y32260609D01*
X41590966Y32244650D01*
X41639283Y32196334D01*
X41668127Y32167490D01*
X41791373Y32096334D01*
X41791381Y32096331D01*
X41928839Y32059500D01*
X41928842Y32059500D01*
X42071160Y32059500D01*
X42208618Y32096331D01*
X42208626Y32096334D01*
X42331872Y32167490D01*
X42331875Y32167492D01*
X42432508Y32268125D01*
X42503666Y32391375D01*
X42504245Y32393534D01*
X42540499Y32528839D01*
X42540500Y32528842D01*
X42540500Y32671157D01*
X42540499Y32671160D01*
X42537458Y32682508D01*
X42508288Y32791375D01*
X42503668Y32808618D01*
X42503667Y32808619D01*
X42503666Y32808625D01*
X42432508Y32931875D01*
X42331875Y33032508D01*
X42208625Y33103666D01*
X42071158Y33140500D01*
X41928842Y33140500D01*
X41885319Y33128838D01*
X41791381Y33103668D01*
X41791377Y33103666D01*
X41791375Y33103666D01*
X41791373Y33103665D01*
X41735073Y33071160D01*
X41668125Y33032508D01*
X41628579Y32992962D01*
X41569731Y32960830D01*
X41502850Y32965613D01*
X41460295Y32992960D01*
X41055353Y33397901D01*
X41023219Y33456752D01*
X41020500Y33482047D01*
X41020500Y36092195D01*
X41020499Y36092199D01*
X40998661Y36173704D01*
X40998657Y36173713D01*
X40977173Y36210924D01*
X40956464Y36246792D01*
X40896792Y36306464D01*
X40896791Y36306464D01*
X38516259Y38686994D01*
X38516257Y38686998D01*
X38506464Y38696790D01*
X38506464Y38696792D01*
X38446792Y38756464D01*
X38386315Y38791381D01*
X38373713Y38798657D01*
X38373704Y38798661D01*
X38292199Y38820499D01*
X38292195Y38820500D01*
X37432258Y38820500D01*
X37367922Y38839391D01*
X37324012Y38890066D01*
X37314469Y38956435D01*
X37329201Y38999000D01*
X37353665Y39041373D01*
X37353668Y39041381D01*
X37381344Y39144673D01*
X37390500Y39178842D01*
X37390500Y39321158D01*
X37360664Y39432509D01*
X37353668Y39458618D01*
X37353667Y39458619D01*
X37353666Y39458625D01*
X37282508Y39581875D01*
X37282504Y39581878D01*
X37277761Y39588061D01*
X37279476Y39589377D01*
X37252720Y39638379D01*
X37250000Y39663674D01*
X37250000Y41110500D01*
X37268891Y41174836D01*
X37319566Y41218746D01*
X37369000Y41229500D01*
X52546844Y41229500D01*
X52611180Y41210609D01*
X52655090Y41159934D01*
X52664633Y41093565D01*
X52661790Y41079706D01*
X52659500Y41071158D01*
X52659500Y41071156D01*
X52659500Y40928839D01*
X52696331Y40791381D01*
X52696334Y40791373D01*
X52767490Y40668127D01*
X52868127Y40567490D01*
X52991373Y40496334D01*
X52991381Y40496331D01*
X53091299Y40469559D01*
X53148554Y40434661D01*
X53177852Y40374348D01*
X53179500Y40354614D01*
X53179500Y36857800D01*
X53201338Y36776295D01*
X53201342Y36776286D01*
X53243532Y36703213D01*
X53243538Y36703206D01*
X54203206Y35743538D01*
X54203213Y35743532D01*
X54276286Y35701342D01*
X54276295Y35701338D01*
X54357800Y35679500D01*
X54357805Y35679500D01*
X54456826Y35679500D01*
X54521162Y35660609D01*
X54540966Y35644650D01*
X54582408Y35603209D01*
X54618127Y35567490D01*
X54741373Y35496334D01*
X54741381Y35496331D01*
X54878839Y35459500D01*
X54878842Y35459500D01*
X55021160Y35459500D01*
X55158618Y35496331D01*
X55158626Y35496334D01*
X55281872Y35567490D01*
X55281875Y35567492D01*
X55382508Y35668125D01*
X55453666Y35791375D01*
X55456838Y35803210D01*
X55490499Y35928839D01*
X55490500Y35928842D01*
X55490500Y36071157D01*
X55490499Y36071160D01*
X57809500Y36071160D01*
X57809500Y35928839D01*
X57846331Y35791381D01*
X57846334Y35791373D01*
X57917490Y35668127D01*
X58018127Y35567490D01*
X58141373Y35496334D01*
X58141381Y35496331D01*
X58278839Y35459500D01*
X58278842Y35459500D01*
X58421160Y35459500D01*
X58558618Y35496331D01*
X58558626Y35496334D01*
X58681872Y35567490D01*
X58681875Y35567492D01*
X58782508Y35668125D01*
X58853666Y35791375D01*
X58856838Y35803210D01*
X58890499Y35928839D01*
X58890500Y35928842D01*
X58890500Y36071157D01*
X58890499Y36071160D01*
X58889384Y36075320D01*
X58872036Y36140066D01*
X58856471Y36198159D01*
X58853668Y36208618D01*
X58853667Y36208619D01*
X58853666Y36208625D01*
X58846431Y36221157D01*
X68109500Y36221157D01*
X68109500Y36078839D01*
X68146331Y35941381D01*
X68146334Y35941373D01*
X68217490Y35818127D01*
X68318127Y35717490D01*
X68441373Y35646334D01*
X68441381Y35646331D01*
X68578839Y35609500D01*
X68578842Y35609500D01*
X68721160Y35609500D01*
X68858618Y35646331D01*
X68858626Y35646334D01*
X68981872Y35717490D01*
X68981875Y35717492D01*
X69082508Y35818125D01*
X69118087Y35879750D01*
X69153665Y35941373D01*
X69153668Y35941381D01*
X69178222Y36033019D01*
X69190500Y36078842D01*
X69190500Y36221158D01*
X69183633Y36246786D01*
X69153668Y36358618D01*
X69153667Y36358619D01*
X69153666Y36358625D01*
X69082508Y36481875D01*
X68981875Y36582508D01*
X68858625Y36653666D01*
X68721158Y36690500D01*
X68578842Y36690500D01*
X68533019Y36678222D01*
X68441381Y36653668D01*
X68441377Y36653666D01*
X68441375Y36653666D01*
X68318125Y36582508D01*
X68217492Y36481875D01*
X68217490Y36481872D01*
X68146334Y36358626D01*
X68146331Y36358618D01*
X68109501Y36221162D01*
X68109500Y36221157D01*
X58846431Y36221157D01*
X58782508Y36331875D01*
X58681875Y36432508D01*
X58558625Y36503666D01*
X58421158Y36540500D01*
X58278842Y36540500D01*
X58233019Y36528222D01*
X58141381Y36503668D01*
X58141377Y36503666D01*
X58141375Y36503666D01*
X58018125Y36432508D01*
X57917492Y36331875D01*
X57917490Y36331872D01*
X57846334Y36208626D01*
X57846331Y36208618D01*
X57809500Y36071160D01*
X55490499Y36071160D01*
X55489384Y36075320D01*
X55453666Y36208625D01*
X55382508Y36331875D01*
X55281875Y36432508D01*
X55169754Y36497240D01*
X55123483Y36545767D01*
X55110793Y36611608D01*
X55114309Y36631097D01*
X55140500Y36728842D01*
X55140500Y36871158D01*
X55123244Y36935560D01*
X55119868Y36948159D01*
X55113705Y36971160D01*
X64709500Y36971160D01*
X64709500Y36828839D01*
X64746331Y36691381D01*
X64746334Y36691373D01*
X64817490Y36568127D01*
X64918127Y36467490D01*
X65041373Y36396334D01*
X65041381Y36396331D01*
X65178839Y36359500D01*
X65178842Y36359500D01*
X65321160Y36359500D01*
X65458618Y36396331D01*
X65458626Y36396334D01*
X65581872Y36467490D01*
X65581875Y36467492D01*
X65682508Y36568125D01*
X65753666Y36691375D01*
X65761647Y36721158D01*
X65778222Y36783019D01*
X65790500Y36828842D01*
X65790500Y36971158D01*
X65753666Y37108625D01*
X65682508Y37231875D01*
X65581875Y37332508D01*
X65458625Y37403666D01*
X65321158Y37440500D01*
X65178842Y37440500D01*
X65155983Y37434375D01*
X65041381Y37403668D01*
X65041377Y37403666D01*
X65041375Y37403666D01*
X64918125Y37332508D01*
X64817492Y37231875D01*
X64817490Y37231872D01*
X64746334Y37108626D01*
X64746331Y37108618D01*
X64709500Y36971160D01*
X55113705Y36971160D01*
X55103668Y37008618D01*
X55103667Y37008619D01*
X55103666Y37008625D01*
X55032508Y37131875D01*
X54931875Y37232508D01*
X54808625Y37303666D01*
X54671158Y37340500D01*
X54528842Y37340500D01*
X54483019Y37328222D01*
X54391381Y37303668D01*
X54391377Y37303666D01*
X54391375Y37303666D01*
X54268125Y37232508D01*
X54167492Y37131875D01*
X54167490Y37131872D01*
X54096334Y37008626D01*
X54093348Y37001416D01*
X54093257Y37001453D01*
X54093040Y36998415D01*
X54076204Y36975926D01*
X54061585Y36951944D01*
X54056345Y36949399D01*
X54052856Y36944738D01*
X54026536Y36934921D01*
X54001270Y36922650D01*
X53995488Y36923341D01*
X53990031Y36921306D01*
X53962578Y36927278D01*
X53934693Y36930614D01*
X53928747Y36934638D01*
X53924511Y36935560D01*
X53897399Y36955855D01*
X53855353Y36997902D01*
X53823219Y37056753D01*
X53820500Y37082047D01*
X53820500Y40742195D01*
X53820499Y40742199D01*
X53798661Y40823704D01*
X53798659Y40823705D01*
X53798659Y40823709D01*
X53756464Y40896792D01*
X53756463Y40896792D01*
X53756443Y40896828D01*
X53752700Y40909729D01*
X53746795Y40918137D01*
X53742234Y40945804D01*
X53740601Y40951436D01*
X53740500Y40953890D01*
X53740500Y41071158D01*
X53734799Y41092434D01*
X53734257Y41105607D01*
X53739309Y41125861D01*
X53739806Y41146733D01*
X53747265Y41157753D01*
X53750486Y41170666D01*
X53765688Y41184974D01*
X53777389Y41202262D01*
X53789621Y41207500D01*
X53799313Y41216622D01*
X53819836Y41220439D01*
X53839027Y41228658D01*
X53853156Y41229500D01*
X54017953Y41229500D01*
X54082289Y41210609D01*
X54102098Y41194646D01*
X55300410Y39996334D01*
X56493534Y38803210D01*
X56493536Y38803208D01*
X56493535Y38803207D01*
X56553205Y38743537D01*
X56553210Y38743534D01*
X56595401Y38719174D01*
X56626288Y38701341D01*
X56626299Y38701336D01*
X56707801Y38679499D01*
X56707806Y38679499D01*
X56799484Y38679499D01*
X56799500Y38679500D01*
X57956826Y38679500D01*
X58021162Y38660609D01*
X58040966Y38644650D01*
X58109210Y38576407D01*
X58118127Y38567490D01*
X58241373Y38496334D01*
X58241381Y38496331D01*
X58378839Y38459500D01*
X58378842Y38459500D01*
X58521160Y38459500D01*
X58658618Y38496331D01*
X58658626Y38496334D01*
X58781872Y38567490D01*
X58781875Y38567492D01*
X58882508Y38668125D01*
X58953666Y38791375D01*
X58955618Y38798657D01*
X58981789Y38896331D01*
X58990500Y38928842D01*
X58990500Y39071158D01*
X58958288Y39191375D01*
X58953668Y39208618D01*
X58953667Y39208619D01*
X58953666Y39208625D01*
X58882508Y39331875D01*
X58781875Y39432508D01*
X58714927Y39471160D01*
X59709500Y39471160D01*
X59709500Y39328839D01*
X59746331Y39191381D01*
X59746334Y39191373D01*
X59817490Y39068127D01*
X59918127Y38967490D01*
X60041373Y38896334D01*
X60041381Y38896331D01*
X60178839Y38859500D01*
X60178842Y38859500D01*
X60321160Y38859500D01*
X60458618Y38896331D01*
X60458626Y38896334D01*
X60581872Y38967490D01*
X60581875Y38967492D01*
X60682508Y39068125D01*
X60744106Y39174816D01*
X60753665Y39191373D01*
X60753668Y39191381D01*
X60782091Y39297460D01*
X60790500Y39328842D01*
X60790500Y39471158D01*
X60759176Y39588061D01*
X60753668Y39608618D01*
X60753667Y39608619D01*
X60753666Y39608625D01*
X60682508Y39731875D01*
X60581875Y39832508D01*
X60458625Y39903666D01*
X60321158Y39940500D01*
X60178842Y39940500D01*
X60133019Y39928222D01*
X60041381Y39903668D01*
X60041377Y39903666D01*
X60041375Y39903666D01*
X59918125Y39832508D01*
X59817492Y39731875D01*
X59817490Y39731872D01*
X59746334Y39608626D01*
X59746331Y39608618D01*
X59709500Y39471160D01*
X58714927Y39471160D01*
X58658625Y39503666D01*
X58521158Y39540500D01*
X58378842Y39540500D01*
X58333019Y39528222D01*
X58241381Y39503668D01*
X58241377Y39503666D01*
X58241375Y39503666D01*
X58118125Y39432508D01*
X58040969Y39355352D01*
X57982121Y39323220D01*
X57956826Y39320500D01*
X56932047Y39320500D01*
X56867711Y39339391D01*
X56847901Y39355354D01*
X56456921Y39746334D01*
X54456465Y41746789D01*
X54456464Y41746792D01*
X54396792Y41806464D01*
X54335092Y41842086D01*
X54327861Y41847928D01*
X54313850Y41868156D01*
X54296864Y41885972D01*
X54295072Y41895268D01*
X54289683Y41903050D01*
X54288832Y41927645D01*
X54284175Y41951813D01*
X54287693Y41960600D01*
X54287366Y41970062D01*
X54299948Y41991212D01*
X54309096Y42014062D01*
X54316808Y42019553D01*
X54321648Y42027689D01*
X54343668Y42038679D01*
X54363716Y42052955D01*
X54376615Y42055124D01*
X54381642Y42057633D01*
X54387650Y42056980D01*
X54402636Y42059500D01*
X59868953Y42059500D01*
X59933289Y42040609D01*
X59977199Y41989934D01*
X59986742Y41923565D01*
X59958887Y41862572D01*
X59953099Y41856354D01*
X59058177Y40961432D01*
X58999326Y40929298D01*
X58932445Y40934081D01*
X58914535Y40942518D01*
X58808625Y41003666D01*
X58671158Y41040500D01*
X58528842Y41040500D01*
X58483019Y41028222D01*
X58391381Y41003668D01*
X58391377Y41003666D01*
X58391375Y41003666D01*
X58391373Y41003665D01*
X58378670Y40996331D01*
X58268125Y40932508D01*
X58167492Y40831875D01*
X58167490Y40831872D01*
X58096334Y40708626D01*
X58096331Y40708618D01*
X58059500Y40571160D01*
X58059500Y40428839D01*
X58096331Y40291381D01*
X58096334Y40291373D01*
X58167490Y40168127D01*
X58268127Y40067490D01*
X58391373Y39996334D01*
X58391381Y39996331D01*
X58528839Y39959500D01*
X58528842Y39959500D01*
X58671160Y39959500D01*
X58808618Y39996331D01*
X58808626Y39996334D01*
X58931872Y40067490D01*
X58931875Y40067492D01*
X59009030Y40144647D01*
X59067879Y40176780D01*
X59087829Y40178925D01*
X59092199Y40179500D01*
X59173704Y40201338D01*
X59173713Y40201342D01*
X59246786Y40243532D01*
X59246789Y40243534D01*
X59246792Y40243536D01*
X59306464Y40303208D01*
X59313247Y40309991D01*
X59313249Y40309994D01*
X60447901Y41444646D01*
X60506752Y41476780D01*
X60532047Y41479500D01*
X70617953Y41479500D01*
X70682289Y41460609D01*
X70702099Y41444646D01*
X71294646Y40852099D01*
X71308759Y40826251D01*
X71324680Y40801479D01*
X71325535Y40795526D01*
X71326780Y40793248D01*
X71329500Y40767953D01*
X71329500Y40693174D01*
X71310609Y40628838D01*
X71294650Y40609033D01*
X71217492Y40531875D01*
X71217490Y40531872D01*
X71146334Y40408626D01*
X71146331Y40408618D01*
X71109500Y40271160D01*
X71109500Y40128839D01*
X71146331Y39991381D01*
X71146334Y39991373D01*
X71217490Y39868127D01*
X71318127Y39767490D01*
X71441373Y39696334D01*
X71441381Y39696331D01*
X71578839Y39659500D01*
X71578842Y39659500D01*
X71721160Y39659500D01*
X71858618Y39696331D01*
X71858626Y39696334D01*
X71981872Y39767490D01*
X71981875Y39767492D01*
X72082508Y39868125D01*
X72124293Y39940499D01*
X72153665Y39991373D01*
X72153668Y39991381D01*
X72190499Y40128839D01*
X72190500Y40128842D01*
X72190500Y40271157D01*
X72190499Y40271160D01*
X72183049Y40298963D01*
X72153666Y40408625D01*
X72082508Y40531875D01*
X72005352Y40609030D01*
X71991240Y40634875D01*
X71975320Y40659648D01*
X71974464Y40665600D01*
X71973220Y40667879D01*
X71970500Y40693174D01*
X71970500Y40744982D01*
X71989391Y40809318D01*
X72040066Y40853228D01*
X72106435Y40862771D01*
X72167428Y40834916D01*
X72173646Y40829128D01*
X72924646Y40078128D01*
X72956780Y40019277D01*
X72959500Y39993982D01*
X72959500Y39677062D01*
X72987956Y39534006D01*
X73043776Y39399242D01*
X73124813Y39277962D01*
X73227966Y39174809D01*
X73231003Y39172317D01*
X73268745Y39116895D01*
X73274500Y39080337D01*
X73274500Y38749995D01*
X73293187Y38656051D01*
X73293188Y38656049D01*
X73346402Y38576407D01*
X73346407Y38576402D01*
X73426049Y38523188D01*
X73426051Y38523187D01*
X73519995Y38504500D01*
X73520000Y38504500D01*
X73880004Y38504500D01*
X73973948Y38523187D01*
X73973950Y38523188D01*
X74053592Y38576402D01*
X74053597Y38576407D01*
X74106811Y38656049D01*
X74106812Y38656051D01*
X74125499Y38749995D01*
X74125500Y38750000D01*
X74125500Y39080337D01*
X74144391Y39144673D01*
X74168997Y39172317D01*
X74172033Y39174809D01*
X74172037Y39174813D01*
X74172041Y39174816D01*
X74275184Y39277959D01*
X74356223Y39399242D01*
X74412043Y39534004D01*
X74440500Y39677067D01*
X74440500Y40422933D01*
X74435929Y40445913D01*
X74412043Y40565997D01*
X74356223Y40700758D01*
X74275184Y40822041D01*
X73410868Y41686356D01*
X73378736Y41745205D01*
X73383519Y41812086D01*
X73423702Y41865764D01*
X73486527Y41889197D01*
X73495016Y41889500D01*
X74151384Y41889500D01*
X74215720Y41870609D01*
X74235530Y41854646D01*
X76954646Y39135530D01*
X76986780Y39076679D01*
X76989500Y39051384D01*
X76989500Y38226715D01*
X76970609Y38162379D01*
X76929999Y38123658D01*
X76858725Y38082508D01*
X76758092Y37981875D01*
X76758090Y37981872D01*
X76686934Y37858626D01*
X76686931Y37858618D01*
X76650100Y37721160D01*
X76650100Y37578839D01*
X76686931Y37441381D01*
X76686934Y37441373D01*
X76758090Y37318127D01*
X76858727Y37217490D01*
X76981973Y37146334D01*
X76981981Y37146331D01*
X77119439Y37109500D01*
X77119442Y37109500D01*
X77261760Y37109500D01*
X77399218Y37146331D01*
X77399226Y37146334D01*
X77522472Y37217490D01*
X77522475Y37217492D01*
X77623108Y37318125D01*
X77680843Y37418125D01*
X77694265Y37441373D01*
X77694268Y37441381D01*
X77721061Y37541375D01*
X77731100Y37578842D01*
X77731100Y37721158D01*
X77714554Y37782905D01*
X77710500Y37813704D01*
X77710500Y39297460D01*
X77710499Y39297463D01*
X77708959Y39303209D01*
X77685933Y39389148D01*
X77638472Y39471352D01*
X77582171Y39527653D01*
X77550036Y39586503D01*
X77554819Y39653384D01*
X77595001Y39707063D01*
X77635516Y39726744D01*
X77708620Y39746332D01*
X77708626Y39746334D01*
X77831872Y39817490D01*
X77831875Y39817492D01*
X77932508Y39918125D01*
X78003666Y40041375D01*
X78010664Y40067490D01*
X78040499Y40178839D01*
X78040500Y40178842D01*
X78040500Y40321157D01*
X78040499Y40321160D01*
X78038596Y40328261D01*
X78003666Y40458625D01*
X78001623Y40462162D01*
X77997411Y40469460D01*
X77967561Y40521160D01*
X78959500Y40521160D01*
X78959500Y40378839D01*
X78996331Y40241381D01*
X78996334Y40241373D01*
X79067490Y40118127D01*
X79168127Y40017490D01*
X79291373Y39946334D01*
X79291381Y39946331D01*
X79428839Y39909500D01*
X79428842Y39909500D01*
X79571160Y39909500D01*
X79708618Y39946331D01*
X79708624Y39946333D01*
X79815501Y40008038D01*
X79880663Y40023845D01*
X79934499Y40008038D01*
X80041375Y39946333D01*
X80041381Y39946331D01*
X80178839Y39909500D01*
X80178842Y39909500D01*
X80321160Y39909500D01*
X80458618Y39946331D01*
X80458626Y39946334D01*
X80581872Y40017490D01*
X80581875Y40017492D01*
X80682508Y40118125D01*
X80730551Y40201338D01*
X80753665Y40241373D01*
X80753668Y40241381D01*
X80790499Y40378839D01*
X80790500Y40378842D01*
X80790500Y40521157D01*
X80790499Y40521160D01*
X80778485Y40565996D01*
X80753666Y40658625D01*
X80682508Y40781875D01*
X80581875Y40882508D01*
X80458625Y40953666D01*
X80321158Y40990500D01*
X80178842Y40990500D01*
X80133019Y40978222D01*
X80041381Y40953668D01*
X80041377Y40953666D01*
X80041375Y40953666D01*
X80041373Y40953665D01*
X79934500Y40891962D01*
X79869338Y40876154D01*
X79815500Y40891962D01*
X79788059Y40907805D01*
X79708625Y40953666D01*
X79571158Y40990500D01*
X79428842Y40990500D01*
X79383019Y40978222D01*
X79291381Y40953668D01*
X79291377Y40953666D01*
X79291375Y40953666D01*
X79291373Y40953665D01*
X79254730Y40932509D01*
X79168125Y40882508D01*
X79067492Y40781875D01*
X79067490Y40781872D01*
X78996334Y40658626D01*
X78996331Y40658618D01*
X78959500Y40521160D01*
X77967561Y40521160D01*
X77961375Y40531875D01*
X77932508Y40581875D01*
X77831875Y40682508D01*
X77708625Y40753666D01*
X77571158Y40790500D01*
X77428842Y40790500D01*
X77396653Y40781875D01*
X77291381Y40753668D01*
X77291377Y40753666D01*
X77291375Y40753666D01*
X77291373Y40753665D01*
X77229750Y40718087D01*
X77168125Y40682508D01*
X77067492Y40581875D01*
X77067490Y40581872D01*
X76996334Y40458626D01*
X76996331Y40458618D01*
X76976744Y40385516D01*
X76941846Y40328261D01*
X76881533Y40298963D01*
X76814955Y40306923D01*
X76777656Y40332166D01*
X74571352Y42538472D01*
X74489148Y42585933D01*
X74397461Y42610500D01*
X73598616Y42610500D01*
X73534280Y42629391D01*
X73514470Y42645354D01*
X72373470Y43786354D01*
X72341336Y43845205D01*
X72346119Y43912086D01*
X72386302Y43965764D01*
X72449127Y43989197D01*
X72457616Y43989500D01*
X73347463Y43989500D01*
X73439144Y44014065D01*
X73439146Y44014066D01*
X73446177Y44018125D01*
X73521352Y44061528D01*
X73830984Y44371160D01*
X77459500Y44371160D01*
X77459500Y44228839D01*
X77496331Y44091381D01*
X77496334Y44091373D01*
X77567490Y43968127D01*
X77668127Y43867490D01*
X77791373Y43796334D01*
X77791381Y43796331D01*
X77928839Y43759500D01*
X77928842Y43759500D01*
X78071160Y43759500D01*
X78208618Y43796331D01*
X78208626Y43796334D01*
X78331872Y43867490D01*
X78331875Y43867492D01*
X78432508Y43968125D01*
X78503666Y44091375D01*
X78506376Y44101486D01*
X78540499Y44228839D01*
X78540500Y44228842D01*
X78540500Y44371157D01*
X78540499Y44371160D01*
X78534066Y44395168D01*
X78503666Y44508625D01*
X78432508Y44631875D01*
X78331875Y44732508D01*
X78208625Y44803666D01*
X78071158Y44840500D01*
X77928842Y44840500D01*
X77895097Y44831458D01*
X77791381Y44803668D01*
X77791377Y44803666D01*
X77791375Y44803666D01*
X77668125Y44732508D01*
X77567492Y44631875D01*
X77567490Y44631872D01*
X77496334Y44508626D01*
X77496331Y44508618D01*
X77459500Y44371160D01*
X73830984Y44371160D01*
X74788472Y45328648D01*
X74835933Y45410852D01*
X74860500Y45502539D01*
X74860500Y45597461D01*
X74860500Y45751519D01*
X74867447Y45791582D01*
X74871067Y45801709D01*
X74891843Y45837693D01*
X74915501Y45925986D01*
X74917138Y45930563D01*
X74934118Y45953902D01*
X74949145Y45978555D01*
X74953644Y45980740D01*
X74956586Y45984784D01*
X74983487Y45995237D01*
X75009458Y46007853D01*
X75017729Y46008543D01*
X75019085Y46009070D01*
X75020526Y46008776D01*
X75029191Y46009500D01*
X75273692Y46009500D01*
X75343836Y46023452D01*
X75343837Y46023453D01*
X75343838Y46023453D01*
X75343839Y46023454D01*
X75423391Y46076609D01*
X75476546Y46156161D01*
X75476546Y46156162D01*
X75476547Y46156163D01*
X75490499Y46226307D01*
X75490500Y46226312D01*
X75490500Y46335679D01*
X75509391Y46400015D01*
X75560066Y46443925D01*
X75626435Y46453468D01*
X75687428Y46425613D01*
X75708445Y46401792D01*
X75730627Y46368593D01*
X75868593Y46230627D01*
X76030817Y46122233D01*
X76030818Y46122232D01*
X76030822Y46122230D01*
X76162457Y46067704D01*
X76211086Y46047562D01*
X76402439Y46009500D01*
X76402444Y46009500D01*
X76597560Y46009500D01*
X76788913Y46047562D01*
X76788918Y46047564D01*
X76969178Y46122230D01*
X77091340Y46203856D01*
X77131406Y46230627D01*
X77269372Y46368593D01*
X77285676Y46392993D01*
X77377770Y46530822D01*
X77390059Y46560490D01*
X77432132Y46612700D01*
X77495754Y46633874D01*
X77560723Y46617291D01*
X77606413Y46568216D01*
X77609941Y46560490D01*
X77622230Y46530821D01*
X77730627Y46368593D01*
X77868593Y46230627D01*
X78030817Y46122233D01*
X78030818Y46122232D01*
X78030822Y46122230D01*
X78162457Y46067704D01*
X78211086Y46047562D01*
X78402439Y46009500D01*
X78402444Y46009500D01*
X78597560Y46009500D01*
X78788913Y46047562D01*
X78788918Y46047564D01*
X78969178Y46122230D01*
X78969182Y46122232D01*
X78969185Y46122234D01*
X79004751Y46145998D01*
X79068740Y46166034D01*
X79133403Y46148294D01*
X79176892Y46101079D01*
X79224714Y46007225D01*
X79224715Y46007222D01*
X79373480Y45802464D01*
X79373488Y45802455D01*
X79552455Y45623488D01*
X79552464Y45623480D01*
X79757221Y45474716D01*
X79982743Y45359807D01*
X80223455Y45281596D01*
X80345999Y45262186D01*
X80346000Y45262186D01*
X80346000Y46793416D01*
X80381233Y46778822D01*
X80526131Y46750000D01*
X80673869Y46750000D01*
X80818767Y46778822D01*
X80854000Y46793416D01*
X80854000Y45262186D01*
X80976544Y45281596D01*
X81217256Y45359807D01*
X81442778Y45474716D01*
X81647535Y45623480D01*
X81647544Y45623488D01*
X81826511Y45802455D01*
X81826519Y45802464D01*
X81975283Y46007221D01*
X82090192Y46232743D01*
X82168403Y46473455D01*
X82207999Y46723449D01*
X82208000Y46723452D01*
X82208000Y47245999D01*
X82207999Y47246000D01*
X81306584Y47246000D01*
X81321178Y47281233D01*
X81350000Y47426131D01*
X81350000Y47573869D01*
X81321178Y47718767D01*
X81306584Y47754000D01*
X82207999Y47754000D01*
X82208000Y47754001D01*
X82208000Y48276548D01*
X82207999Y48276550D01*
X82168403Y48526544D01*
X82090192Y48767256D01*
X81975283Y48992778D01*
X81826519Y49197535D01*
X81826511Y49197544D01*
X81647544Y49376511D01*
X81647535Y49376519D01*
X81442778Y49525283D01*
X81217256Y49640192D01*
X81056811Y49692324D01*
X81001461Y49730172D01*
X80975360Y49791935D01*
X80986794Y49858005D01*
X81032133Y49907406D01*
X81093584Y49924500D01*
X89131000Y49924500D01*
X89195336Y49905609D01*
G37*
G04 #@! TD.AperFunction*
G04 #@! TA.AperFunction,Conductor*
G36*
X85717428Y44039475D02*
G01*
X85723646Y44033687D01*
X86805847Y42951486D01*
X86933653Y42877697D01*
X86933661Y42877694D01*
X87076206Y42839500D01*
X87076209Y42839500D01*
X87223792Y42839500D01*
X87768542Y42839500D01*
X87832878Y42820609D01*
X87852688Y42804646D01*
X88204646Y42452688D01*
X88236780Y42393837D01*
X88239500Y42368542D01*
X88239500Y36031458D01*
X88220609Y35967122D01*
X88204646Y35947312D01*
X87355420Y35098087D01*
X87296569Y35065953D01*
X87252665Y35064698D01*
X87089759Y35090500D01*
X86910241Y35090500D01*
X86812378Y35075000D01*
X86732934Y35062418D01*
X86693168Y35049497D01*
X86562200Y35006943D01*
X86402248Y34925443D01*
X86402245Y34925441D01*
X86257020Y34819930D01*
X86257011Y34819922D01*
X86130077Y34692988D01*
X86130069Y34692979D01*
X86024558Y34547754D01*
X86024557Y34547752D01*
X85943057Y34387800D01*
X85943056Y34387796D01*
X85887581Y34217065D01*
X85859500Y34039759D01*
X85859500Y33860240D01*
X85887581Y33682934D01*
X85939319Y33523704D01*
X85943057Y33512200D01*
X85983536Y33432755D01*
X86024558Y33352245D01*
X86130069Y33207020D01*
X86130077Y33207011D01*
X86257011Y33080077D01*
X86257020Y33080069D01*
X86402245Y32974558D01*
X86482224Y32933807D01*
X86562200Y32893057D01*
X86562202Y32893056D01*
X86562203Y32893056D01*
X86732934Y32837581D01*
X86910240Y32809500D01*
X86910241Y32809500D01*
X87089759Y32809500D01*
X87267065Y32837581D01*
X87399179Y32880508D01*
X87437800Y32893057D01*
X87597752Y32974557D01*
X87597754Y32974558D01*
X87742979Y33080069D01*
X87742988Y33080077D01*
X87869922Y33207011D01*
X87869930Y33207020D01*
X87975441Y33352245D01*
X87998704Y33397901D01*
X88056943Y33512200D01*
X88103817Y33656464D01*
X88112418Y33682934D01*
X88125000Y33762378D01*
X88140500Y33860241D01*
X88140500Y34039759D01*
X88114698Y34202662D01*
X88123292Y34269157D01*
X88148087Y34305420D01*
X89046854Y35204187D01*
X89105705Y35236321D01*
X89172586Y35231538D01*
X89226264Y35191355D01*
X89249697Y35128530D01*
X89250000Y35120041D01*
X89250000Y32299292D01*
X89231109Y32234956D01*
X89215146Y32215146D01*
X86034854Y29034854D01*
X85976003Y29002720D01*
X85950708Y29000000D01*
X82790547Y29000000D01*
X82726211Y29018891D01*
X82682301Y29069566D01*
X82672758Y29135935D01*
X82700613Y29196928D01*
X82706401Y29203146D01*
X85238472Y31735217D01*
X85246789Y31743534D01*
X85246792Y31743536D01*
X85306464Y31803208D01*
X85330826Y31845404D01*
X85348660Y31876292D01*
X85348661Y31876294D01*
X85348662Y31876296D01*
X85370500Y31957801D01*
X85370501Y31957806D01*
X85370501Y32051781D01*
X85370500Y32051794D01*
X85370500Y41238416D01*
X85389391Y41302752D01*
X85440066Y41346662D01*
X85506435Y41356205D01*
X85567428Y41328350D01*
X85592557Y41297916D01*
X85667490Y41168127D01*
X85768127Y41067490D01*
X85891373Y40996334D01*
X85891381Y40996331D01*
X86028839Y40959500D01*
X86028842Y40959500D01*
X86171160Y40959500D01*
X86308618Y40996331D01*
X86308626Y40996334D01*
X86431872Y41067490D01*
X86431875Y41067492D01*
X86532508Y41168125D01*
X86573090Y41238416D01*
X86603665Y41291373D01*
X86603668Y41291381D01*
X86640499Y41428839D01*
X86640500Y41428842D01*
X86640500Y41571157D01*
X86640499Y41571160D01*
X86603668Y41708618D01*
X86603667Y41708619D01*
X86603666Y41708625D01*
X86532508Y41831875D01*
X86431875Y41932508D01*
X86308625Y42003666D01*
X86171158Y42040500D01*
X86028842Y42040500D01*
X86008480Y42035044D01*
X85891381Y42003668D01*
X85891377Y42003666D01*
X85891375Y42003666D01*
X85891373Y42003665D01*
X85833171Y41970062D01*
X85768125Y41932508D01*
X85667492Y41831875D01*
X85667490Y41831872D01*
X85592557Y41702083D01*
X85544029Y41655812D01*
X85478189Y41643122D01*
X85415939Y41668043D01*
X85377045Y41722662D01*
X85370500Y41761583D01*
X85370500Y42867952D01*
X85389391Y42932288D01*
X85405354Y42952098D01*
X85456462Y43003206D01*
X85456464Y43003208D01*
X85456467Y43003213D01*
X85498657Y43076286D01*
X85498661Y43076295D01*
X85520499Y43157800D01*
X85520500Y43157805D01*
X85520500Y43949541D01*
X85539391Y44013877D01*
X85590066Y44057787D01*
X85656435Y44067330D01*
X85717428Y44039475D01*
G37*
G04 #@! TD.AperFunction*
G04 #@! TA.AperFunction,Conductor*
G36*
X37471162Y35410609D02*
G01*
X37490966Y35394650D01*
X37535114Y35350503D01*
X37568127Y35317490D01*
X37691373Y35246334D01*
X37691381Y35246331D01*
X37791299Y35219559D01*
X37848554Y35184661D01*
X37877852Y35124348D01*
X37879500Y35104614D01*
X37879500Y32882047D01*
X37860609Y32817711D01*
X37844646Y32797901D01*
X37453146Y32406401D01*
X37394295Y32374267D01*
X37327414Y32379050D01*
X37273736Y32419233D01*
X37250303Y32482058D01*
X37250000Y32490547D01*
X37250000Y35310500D01*
X37252447Y35318835D01*
X37251211Y35327435D01*
X37261746Y35350503D01*
X37268891Y35374836D01*
X37275456Y35380525D01*
X37279066Y35388428D01*
X37300400Y35402139D01*
X37319566Y35418746D01*
X37329656Y35420941D01*
X37335474Y35424680D01*
X37369000Y35429500D01*
X37406826Y35429500D01*
X37471162Y35410609D01*
G37*
G04 #@! TD.AperFunction*
G04 #@! TA.AperFunction,Conductor*
G36*
X37832289Y37810609D02*
G01*
X37852099Y37794646D01*
X38346191Y37300552D01*
X38378326Y37241701D01*
X38373542Y37174820D01*
X38333359Y37121141D01*
X38321559Y37113358D01*
X38268125Y37082508D01*
X38167492Y36981875D01*
X38167490Y36981872D01*
X38096334Y36858626D01*
X38096331Y36858618D01*
X38059500Y36721160D01*
X38059500Y36578839D01*
X38096721Y36439928D01*
X38095125Y36372895D01*
X38057542Y36317365D01*
X37995903Y36290971D01*
X37978958Y36291071D01*
X37978958Y36290500D01*
X37971158Y36290500D01*
X37828842Y36290500D01*
X37783019Y36278222D01*
X37691381Y36253668D01*
X37691377Y36253666D01*
X37691375Y36253666D01*
X37568125Y36182508D01*
X37490969Y36105352D01*
X37465124Y36091240D01*
X37440352Y36075320D01*
X37434399Y36074464D01*
X37432121Y36073220D01*
X37406826Y36070500D01*
X37369000Y36070500D01*
X37304664Y36089391D01*
X37260754Y36140066D01*
X37250000Y36189500D01*
X37250000Y37179325D01*
X37268891Y37243661D01*
X37284854Y37263470D01*
X37332507Y37311123D01*
X37332508Y37311125D01*
X37403665Y37434373D01*
X37403668Y37434381D01*
X37440499Y37571839D01*
X37440500Y37571842D01*
X37440500Y37710500D01*
X37442947Y37718835D01*
X37441711Y37727435D01*
X37452246Y37750503D01*
X37459391Y37774836D01*
X37465956Y37780525D01*
X37469566Y37788428D01*
X37490900Y37802139D01*
X37510066Y37818746D01*
X37520156Y37820941D01*
X37525974Y37824680D01*
X37559500Y37829500D01*
X37767953Y37829500D01*
X37832289Y37810609D01*
G37*
G04 #@! TD.AperFunction*
G04 #@! TA.AperFunction,Conductor*
G36*
X38142162Y42810609D02*
G01*
X38186072Y42759934D01*
X38195615Y42693565D01*
X38167760Y42632572D01*
X38161985Y42626368D01*
X38117492Y42581875D01*
X38117490Y42581872D01*
X38046334Y42458626D01*
X38046331Y42458618D01*
X38009500Y42321160D01*
X38009500Y42178839D01*
X38046331Y42041381D01*
X38048957Y42035044D01*
X38056127Y41968376D01*
X38026116Y41908415D01*
X37968452Y41874198D01*
X37939017Y41870500D01*
X37369000Y41870500D01*
X37304664Y41889391D01*
X37260754Y41940066D01*
X37250000Y41989500D01*
X37250000Y42710500D01*
X37268891Y42774836D01*
X37319566Y42818746D01*
X37369000Y42829500D01*
X38077826Y42829500D01*
X38142162Y42810609D01*
G37*
G04 #@! TD.AperFunction*
G04 #@! TA.AperFunction,Conductor*
G36*
X88754000Y45192001D02*
G01*
X88754001Y45192000D01*
X89131000Y45192000D01*
X89195336Y45173109D01*
X89239246Y45122434D01*
X89250000Y45073000D01*
X89250000Y43279957D01*
X89231109Y43215621D01*
X89180434Y43171711D01*
X89114065Y43162168D01*
X89053072Y43190023D01*
X89046854Y43195811D01*
X88786442Y43456223D01*
X88498513Y43744152D01*
X88498512Y43744155D01*
X88394155Y43848512D01*
X88266345Y43922303D01*
X88239411Y43929520D01*
X88187517Y43943425D01*
X88123793Y43960500D01*
X88123792Y43960500D01*
X88123791Y43960500D01*
X87431459Y43960500D01*
X87367123Y43979391D01*
X87347313Y43995354D01*
X86595354Y44747312D01*
X86563220Y44806163D01*
X86560500Y44831458D01*
X86560500Y45548661D01*
X86579391Y45612997D01*
X86609553Y45644934D01*
X86661269Y45682508D01*
X86710413Y45718213D01*
X86831787Y45839587D01*
X86831788Y45839589D01*
X86831792Y45839593D01*
X86926727Y45970260D01*
X86979826Y46011206D01*
X87046632Y46016944D01*
X87105936Y45985653D01*
X87138907Y45927267D01*
X87141748Y45902506D01*
X87141846Y45902511D01*
X87141924Y45900974D01*
X87142000Y45900314D01*
X87142000Y45899490D01*
X87152605Y45795681D01*
X87152605Y45795678D01*
X87208342Y45627473D01*
X87301365Y45476661D01*
X87301367Y45476658D01*
X87426658Y45351367D01*
X87426661Y45351365D01*
X87577473Y45258342D01*
X87745679Y45202605D01*
X87849490Y45192000D01*
X88245999Y45192000D01*
X88246000Y45192001D01*
X88246000Y46269297D01*
X88307007Y46234075D01*
X88434174Y46200000D01*
X88565826Y46200000D01*
X88692993Y46234075D01*
X88754000Y46269297D01*
X88754000Y45192001D01*
G37*
G04 #@! TD.AperFunction*
G04 #@! TA.AperFunction,Conductor*
G36*
X71921233Y49920149D02*
G01*
X71936668Y49920590D01*
X71952741Y49910897D01*
X71970752Y49905609D01*
X71980863Y49893939D01*
X71994088Y49885965D01*
X72002370Y49869119D01*
X72014662Y49854934D01*
X72016859Y49839649D01*
X72023673Y49825792D01*
X72021533Y49807144D01*
X72024205Y49788565D01*
X72017790Y49774518D01*
X72016030Y49759177D01*
X72004146Y49744644D01*
X71996350Y49727572D01*
X71982888Y49718646D01*
X71973585Y49707269D01*
X71943189Y49692324D01*
X71782743Y49640192D01*
X71557221Y49525283D01*
X71352464Y49376519D01*
X71352455Y49376511D01*
X71173488Y49197544D01*
X71173480Y49197535D01*
X71024716Y48992778D01*
X70909807Y48767256D01*
X70831596Y48526544D01*
X70792000Y48276550D01*
X70792000Y47754001D01*
X70792001Y47754000D01*
X71693416Y47754000D01*
X71678822Y47718767D01*
X71650000Y47573869D01*
X71650000Y47426131D01*
X71678822Y47281233D01*
X71693416Y47246000D01*
X70792001Y47246000D01*
X70792000Y47245999D01*
X70792000Y46723449D01*
X70831596Y46473455D01*
X70909807Y46232743D01*
X71024716Y46007221D01*
X71173480Y45802464D01*
X71173488Y45802455D01*
X71352455Y45623488D01*
X71352464Y45623480D01*
X71557221Y45474716D01*
X71782743Y45359807D01*
X72023455Y45281596D01*
X72145999Y45262186D01*
X72146000Y45262186D01*
X72146000Y46793416D01*
X72181233Y46778822D01*
X72326131Y46750000D01*
X72473869Y46750000D01*
X72618767Y46778822D01*
X72654000Y46793416D01*
X72654000Y45262186D01*
X72776544Y45281596D01*
X73017256Y45359807D01*
X73242778Y45474716D01*
X73447535Y45623480D01*
X73447544Y45623488D01*
X73626511Y45802455D01*
X73626519Y45802464D01*
X73741299Y45960446D01*
X73745456Y45963652D01*
X73747638Y45968428D01*
X73771723Y45983907D01*
X73794398Y46001392D01*
X73800800Y46002594D01*
X73804046Y46004680D01*
X73837572Y46009500D01*
X73970809Y46009500D01*
X74035145Y45990609D01*
X74079055Y45939934D01*
X74085754Y45921300D01*
X74108157Y45837690D01*
X74108158Y45837689D01*
X74123557Y45811018D01*
X74127539Y45796155D01*
X74134680Y45785045D01*
X74139500Y45751519D01*
X74139500Y45748616D01*
X74120609Y45684280D01*
X74104646Y45664470D01*
X73185530Y44745354D01*
X73126679Y44713220D01*
X73101384Y44710500D01*
X71753175Y44710500D01*
X71688839Y44729391D01*
X71669030Y44745353D01*
X71660717Y44753666D01*
X71631875Y44782508D01*
X71508625Y44853666D01*
X71371158Y44890500D01*
X71228842Y44890500D01*
X71199422Y44882617D01*
X71091381Y44853668D01*
X71091377Y44853666D01*
X71091375Y44853666D01*
X70968125Y44782508D01*
X70867492Y44681875D01*
X70867490Y44681872D01*
X70796334Y44558626D01*
X70796331Y44558618D01*
X70759500Y44421160D01*
X70759500Y44278839D01*
X70796331Y44141381D01*
X70796334Y44141373D01*
X70867490Y44018127D01*
X70968127Y43917490D01*
X71091373Y43846334D01*
X71091381Y43846331D01*
X71228839Y43809500D01*
X71228842Y43809500D01*
X71281384Y43809500D01*
X71309634Y43801204D01*
X71338415Y43794944D01*
X71343228Y43791340D01*
X71345720Y43790609D01*
X71365530Y43774646D01*
X71396530Y43743646D01*
X71428664Y43684795D01*
X71423881Y43617914D01*
X71383698Y43564236D01*
X71320873Y43540803D01*
X71312384Y43540500D01*
X66909582Y43540500D01*
X66845246Y43559391D01*
X66825436Y43575354D01*
X66243487Y44157301D01*
X66307890Y44183978D01*
X66414351Y44255112D01*
X66504888Y44345649D01*
X66576022Y44452110D01*
X66602698Y44516510D01*
X67266563Y43852646D01*
X67332519Y43943427D01*
X67443856Y44161938D01*
X67519637Y44395168D01*
X67557999Y44637382D01*
X67558000Y44637386D01*
X67558000Y44882613D01*
X67557999Y44882617D01*
X67519637Y45124831D01*
X67443856Y45358061D01*
X67332521Y45576568D01*
X67266563Y45667352D01*
X66602698Y45003487D01*
X66576022Y45067890D01*
X66504888Y45174351D01*
X66414351Y45264888D01*
X66307890Y45336022D01*
X66243488Y45362698D01*
X66907352Y46026563D01*
X66816568Y46092521D01*
X66598061Y46203856D01*
X66364831Y46279637D01*
X66122617Y46317999D01*
X66122613Y46318000D01*
X66015895Y46318000D01*
X65951559Y46336891D01*
X65907649Y46387566D01*
X65898106Y46453935D01*
X65919622Y46506947D01*
X65932848Y46525151D01*
X66031677Y46719113D01*
X66098947Y46926149D01*
X66132999Y47141155D01*
X66133000Y47141160D01*
X66133000Y47358840D01*
X66132999Y47358844D01*
X66098947Y47573850D01*
X66031677Y47780886D01*
X65932848Y47974849D01*
X65891277Y48032066D01*
X65230075Y47370865D01*
X65211266Y47441063D01*
X65146098Y47553937D01*
X65053937Y47646098D01*
X64941063Y47711266D01*
X64870864Y47730075D01*
X65532066Y48391277D01*
X65474849Y48432848D01*
X65280886Y48531677D01*
X65073850Y48598947D01*
X64858844Y48632999D01*
X64858840Y48633000D01*
X64641160Y48633000D01*
X64641155Y48632999D01*
X64426149Y48598947D01*
X64219113Y48531677D01*
X64025151Y48432848D01*
X63967932Y48391277D01*
X64629133Y47730075D01*
X64558937Y47711266D01*
X64446063Y47646098D01*
X64353902Y47553937D01*
X64288734Y47441063D01*
X64269923Y47370864D01*
X63608722Y48032066D01*
X63567151Y47974849D01*
X63468322Y47780886D01*
X63401052Y47573850D01*
X63367000Y47358844D01*
X63367000Y47141155D01*
X63401052Y46926149D01*
X63468322Y46719113D01*
X63567152Y46525149D01*
X63567155Y46525144D01*
X63608721Y46467932D01*
X64269924Y47129134D01*
X64288734Y47058937D01*
X64353902Y46946063D01*
X64446063Y46853902D01*
X64558937Y46788734D01*
X64629134Y46769924D01*
X63967932Y46108722D01*
X63967932Y46108721D01*
X64025144Y46067155D01*
X64025149Y46067152D01*
X64219113Y45968322D01*
X64426149Y45901052D01*
X64641155Y45867000D01*
X64644938Y45867000D01*
X64709274Y45848109D01*
X64753184Y45797434D01*
X64762727Y45731065D01*
X64741211Y45678054D01*
X64667480Y45576572D01*
X64556143Y45358061D01*
X64480362Y45124831D01*
X64442000Y44882617D01*
X64442000Y44637382D01*
X64480362Y44395168D01*
X64556143Y44161938D01*
X64667479Y43943429D01*
X64667482Y43943425D01*
X64733435Y43852645D01*
X65397301Y44516511D01*
X65423978Y44452110D01*
X65495112Y44345649D01*
X65585649Y44255112D01*
X65692110Y44183978D01*
X65756512Y44157301D01*
X65174564Y43575354D01*
X65115713Y43543220D01*
X65090418Y43540500D01*
X59899582Y43540500D01*
X59835246Y43559391D01*
X59815436Y43575354D01*
X59233487Y44157301D01*
X59297890Y44183978D01*
X59404351Y44255112D01*
X59494888Y44345649D01*
X59566022Y44452110D01*
X59592698Y44516510D01*
X60256563Y43852646D01*
X60322519Y43943427D01*
X60433856Y44161938D01*
X60509637Y44395168D01*
X60547999Y44637382D01*
X60548000Y44637386D01*
X60548000Y44882613D01*
X60547999Y44882617D01*
X60509637Y45124831D01*
X60433856Y45358061D01*
X60322521Y45576568D01*
X60256563Y45667352D01*
X59592698Y45003487D01*
X59566022Y45067890D01*
X59494888Y45174351D01*
X59404351Y45264888D01*
X59297890Y45336022D01*
X59233487Y45362698D01*
X59897352Y46026563D01*
X59897251Y46027856D01*
X59911036Y46093477D01*
X59958109Y46141227D01*
X60023526Y46155947D01*
X60034490Y46154729D01*
X60162208Y46134500D01*
X60162209Y46134500D01*
X60337790Y46134500D01*
X60337792Y46134500D01*
X60511213Y46161968D01*
X60523727Y46166034D01*
X60678201Y46216225D01*
X60678203Y46216226D01*
X60764320Y46260104D01*
X60764321Y46260105D01*
X60800113Y46278342D01*
X60834648Y46295938D01*
X60934648Y46368593D01*
X60976699Y46399145D01*
X61100855Y46523301D01*
X61204061Y46665351D01*
X61283774Y46821797D01*
X61338032Y46988787D01*
X61365500Y47162208D01*
X61365500Y47337792D01*
X61338032Y47511213D01*
X61283774Y47678203D01*
X61204061Y47834649D01*
X61100855Y47976699D01*
X60976699Y48100855D01*
X60834649Y48204061D01*
X60678203Y48283774D01*
X60511213Y48338032D01*
X60337792Y48365500D01*
X60162208Y48365500D01*
X59988787Y48338032D01*
X59821797Y48283774D01*
X59665351Y48204061D01*
X59523301Y48100855D01*
X59399145Y47976699D01*
X59295939Y47834649D01*
X59216226Y47678203D01*
X59161968Y47511213D01*
X59134500Y47337792D01*
X59134500Y47162208D01*
X59144337Y47100099D01*
X59161969Y46988783D01*
X59211819Y46835359D01*
X59216226Y46821797D01*
X59236967Y46781090D01*
X59295938Y46665351D01*
X59399144Y46523302D01*
X59399147Y46523297D01*
X59438029Y46484416D01*
X59470163Y46425565D01*
X59465379Y46358683D01*
X59425195Y46305006D01*
X59362370Y46281574D01*
X59335267Y46282736D01*
X59112617Y46317999D01*
X59112613Y46318000D01*
X58867387Y46318000D01*
X58867382Y46317999D01*
X58625168Y46279637D01*
X58391938Y46203856D01*
X58173427Y46092519D01*
X58082646Y46026563D01*
X58746510Y45362698D01*
X58682110Y45336022D01*
X58575649Y45264888D01*
X58485112Y45174351D01*
X58413978Y45067890D01*
X58387300Y45003487D01*
X57723436Y45667352D01*
X57657478Y45576567D01*
X57546143Y45358061D01*
X57470362Y45124831D01*
X57432000Y44882617D01*
X57432000Y44637382D01*
X57470362Y44395168D01*
X57546143Y44161938D01*
X57657479Y43943429D01*
X57657482Y43943425D01*
X57723435Y43852645D01*
X58387301Y44516511D01*
X58413978Y44452110D01*
X58485112Y44345649D01*
X58575649Y44255112D01*
X58682110Y44183978D01*
X58746512Y44157301D01*
X58164564Y43575354D01*
X58105713Y43543220D01*
X58080418Y43540500D01*
X52909582Y43540500D01*
X52845246Y43559391D01*
X52825436Y43575354D01*
X52243487Y44157301D01*
X52307890Y44183978D01*
X52414351Y44255112D01*
X52504888Y44345649D01*
X52576022Y44452110D01*
X52602698Y44516510D01*
X53266563Y43852646D01*
X53332519Y43943427D01*
X53443856Y44161938D01*
X53519637Y44395168D01*
X53557999Y44637382D01*
X53558000Y44637386D01*
X53558000Y44882613D01*
X53557999Y44882617D01*
X53519637Y45124831D01*
X53443856Y45358061D01*
X53332521Y45576568D01*
X53266563Y45667352D01*
X52602698Y45003487D01*
X52576022Y45067890D01*
X52504888Y45174351D01*
X52414351Y45264888D01*
X52307890Y45336022D01*
X52243488Y45362698D01*
X52907352Y46026563D01*
X52816568Y46092521D01*
X52598061Y46203856D01*
X52364831Y46279637D01*
X52122617Y46317999D01*
X52122613Y46318000D01*
X52015895Y46318000D01*
X51951559Y46336891D01*
X51907649Y46387566D01*
X51898106Y46453935D01*
X51919622Y46506947D01*
X51932848Y46525151D01*
X52031677Y46719113D01*
X52098947Y46926149D01*
X52122351Y47073922D01*
X54749500Y47073922D01*
X54749500Y46926077D01*
X54778340Y46781090D01*
X54834915Y46644505D01*
X54917048Y46521584D01*
X55021584Y46417048D01*
X55144505Y46334915D01*
X55281090Y46278340D01*
X55426077Y46249500D01*
X55426082Y46249500D01*
X55573922Y46249500D01*
X55718909Y46278340D01*
X55855494Y46334915D01*
X55978415Y46417048D01*
X56082951Y46521584D01*
X56165084Y46644505D01*
X56192661Y46711082D01*
X56221658Y46781087D01*
X56223180Y46788734D01*
X56250499Y46926077D01*
X56250500Y46926082D01*
X56250500Y47073918D01*
X56250499Y47073922D01*
X56221659Y47218909D01*
X56221658Y47218909D01*
X56221658Y47218913D01*
X56165084Y47355495D01*
X56082951Y47478416D01*
X55978416Y47582951D01*
X55855495Y47665084D01*
X55718913Y47721658D01*
X55718909Y47721658D01*
X55718909Y47721659D01*
X55610385Y47743246D01*
X55573918Y47750500D01*
X55426082Y47750500D01*
X55426077Y47750499D01*
X55281090Y47721659D01*
X55281088Y47721658D01*
X55281087Y47721658D01*
X55144505Y47665084D01*
X55021584Y47582951D01*
X54917048Y47478415D01*
X54834915Y47355494D01*
X54778340Y47218909D01*
X54749500Y47073922D01*
X52122351Y47073922D01*
X52126225Y47098379D01*
X52132999Y47141154D01*
X52133000Y47141160D01*
X52133000Y47358840D01*
X52132999Y47358844D01*
X52098947Y47573850D01*
X52031677Y47780886D01*
X51932848Y47974849D01*
X51891277Y48032066D01*
X51230075Y47370865D01*
X51211266Y47441063D01*
X51146098Y47553937D01*
X51053937Y47646098D01*
X50941063Y47711266D01*
X50870864Y47730075D01*
X51532066Y48391277D01*
X51474849Y48432848D01*
X51280886Y48531677D01*
X51073850Y48598947D01*
X50858844Y48632999D01*
X50858840Y48633000D01*
X50641160Y48633000D01*
X50641155Y48632999D01*
X50426149Y48598947D01*
X50219113Y48531677D01*
X50025151Y48432848D01*
X49967932Y48391277D01*
X50629133Y47730075D01*
X50558937Y47711266D01*
X50446063Y47646098D01*
X50353902Y47553937D01*
X50288734Y47441063D01*
X50269923Y47370864D01*
X49608722Y48032066D01*
X49567151Y47974849D01*
X49468322Y47780886D01*
X49401052Y47573850D01*
X49367000Y47358844D01*
X49367000Y47141155D01*
X49401052Y46926149D01*
X49468322Y46719113D01*
X49567152Y46525149D01*
X49567155Y46525144D01*
X49608721Y46467932D01*
X50269924Y47129134D01*
X50288734Y47058937D01*
X50353902Y46946063D01*
X50446063Y46853902D01*
X50558937Y46788734D01*
X50629134Y46769924D01*
X49967932Y46108722D01*
X49967932Y46108721D01*
X50025144Y46067155D01*
X50025149Y46067152D01*
X50219113Y45968322D01*
X50426149Y45901052D01*
X50641155Y45867000D01*
X50644938Y45867000D01*
X50709274Y45848109D01*
X50753184Y45797434D01*
X50762727Y45731065D01*
X50741211Y45678054D01*
X50667480Y45576572D01*
X50556143Y45358061D01*
X50480362Y45124831D01*
X50442000Y44882617D01*
X50442000Y44637382D01*
X50480362Y44395168D01*
X50556143Y44161938D01*
X50667479Y43943429D01*
X50667482Y43943425D01*
X50733435Y43852645D01*
X51397301Y44516511D01*
X51423978Y44452110D01*
X51495112Y44345649D01*
X51585649Y44255112D01*
X51692110Y44183978D01*
X51756512Y44157301D01*
X51174564Y43575354D01*
X51115713Y43543220D01*
X51090418Y43540500D01*
X45899582Y43540500D01*
X45835246Y43559391D01*
X45815436Y43575354D01*
X45233487Y44157301D01*
X45297890Y44183978D01*
X45404351Y44255112D01*
X45494888Y44345649D01*
X45566022Y44452110D01*
X45592698Y44516510D01*
X46256563Y43852646D01*
X46322519Y43943427D01*
X46433856Y44161938D01*
X46509637Y44395168D01*
X46547999Y44637382D01*
X46548000Y44637386D01*
X46548000Y44882613D01*
X46547999Y44882617D01*
X46509637Y45124831D01*
X46433856Y45358061D01*
X46322521Y45576568D01*
X46256563Y45667352D01*
X45592698Y45003487D01*
X45566022Y45067890D01*
X45494888Y45174351D01*
X45404351Y45264888D01*
X45297890Y45336022D01*
X45233487Y45362698D01*
X45897352Y46026563D01*
X45897251Y46027856D01*
X45911036Y46093477D01*
X45958109Y46141227D01*
X46023526Y46155947D01*
X46034490Y46154729D01*
X46162208Y46134500D01*
X46162209Y46134500D01*
X46337790Y46134500D01*
X46337792Y46134500D01*
X46511213Y46161968D01*
X46523727Y46166034D01*
X46678201Y46216225D01*
X46678203Y46216226D01*
X46764320Y46260104D01*
X46764321Y46260105D01*
X46800113Y46278342D01*
X46834648Y46295938D01*
X46934648Y46368593D01*
X46976699Y46399145D01*
X47100855Y46523301D01*
X47204061Y46665351D01*
X47283774Y46821797D01*
X47338032Y46988787D01*
X47365500Y47162208D01*
X47365500Y47337792D01*
X47338032Y47511213D01*
X47283774Y47678203D01*
X47204061Y47834649D01*
X47100855Y47976699D01*
X46976699Y48100855D01*
X46834649Y48204061D01*
X46678203Y48283774D01*
X46511213Y48338032D01*
X46337792Y48365500D01*
X46162208Y48365500D01*
X45988787Y48338032D01*
X45821797Y48283774D01*
X45665351Y48204061D01*
X45523301Y48100855D01*
X45399145Y47976699D01*
X45295939Y47834649D01*
X45216226Y47678203D01*
X45161968Y47511213D01*
X45134500Y47337792D01*
X45134500Y47162208D01*
X45144337Y47100099D01*
X45161969Y46988783D01*
X45211819Y46835359D01*
X45216226Y46821797D01*
X45236967Y46781090D01*
X45295938Y46665351D01*
X45399144Y46523302D01*
X45399147Y46523297D01*
X45438029Y46484416D01*
X45470163Y46425565D01*
X45465379Y46358683D01*
X45425195Y46305006D01*
X45362370Y46281574D01*
X45335267Y46282736D01*
X45112617Y46317999D01*
X45112613Y46318000D01*
X44867387Y46318000D01*
X44867382Y46317999D01*
X44625168Y46279637D01*
X44391938Y46203856D01*
X44173427Y46092519D01*
X44082646Y46026563D01*
X44746510Y45362698D01*
X44682110Y45336022D01*
X44575649Y45264888D01*
X44485112Y45174351D01*
X44413978Y45067890D01*
X44387300Y45003487D01*
X43723436Y45667352D01*
X43657478Y45576567D01*
X43546143Y45358061D01*
X43470362Y45124831D01*
X43432000Y44882617D01*
X43432000Y44637382D01*
X43470362Y44395168D01*
X43546143Y44161938D01*
X43657479Y43943429D01*
X43657482Y43943425D01*
X43723435Y43852645D01*
X44387301Y44516511D01*
X44413978Y44452110D01*
X44485112Y44345649D01*
X44575649Y44255112D01*
X44682110Y44183978D01*
X44746512Y44157301D01*
X44164564Y43575354D01*
X44105713Y43543220D01*
X44080418Y43540500D01*
X43706017Y43540500D01*
X43641681Y43559391D01*
X43621871Y43575354D01*
X42634854Y44562371D01*
X42602720Y44621222D01*
X42600000Y44646517D01*
X42600000Y49805500D01*
X42618891Y49869836D01*
X42669566Y49913746D01*
X42719000Y49924500D01*
X71906416Y49924500D01*
X71921233Y49920149D01*
G37*
G04 #@! TD.AperFunction*
G04 #@! TA.AperFunction,Conductor*
G36*
X97180449Y28178757D02*
G01*
X97474991Y27884215D01*
X97507125Y27825364D01*
X97502342Y27758483D01*
X97462159Y27704805D01*
X97436387Y27690129D01*
X97386709Y27669552D01*
X97330448Y27613291D01*
X97315533Y27577283D01*
X97309870Y27563611D01*
X97267797Y27511401D01*
X97204176Y27490226D01*
X97139206Y27506808D01*
X97115782Y27525004D01*
X96971233Y27669553D01*
X96821236Y27819549D01*
X96789104Y27878398D01*
X96793887Y27945279D01*
X96822956Y27986785D01*
X96821597Y27988145D01*
X97011855Y28178403D01*
X97013416Y28176841D01*
X97061898Y28208529D01*
X97128949Y28209046D01*
X97180449Y28178757D01*
G37*
G04 #@! TD.AperFunction*
G04 #@! TA.AperFunction,Conductor*
G36*
X94445280Y28206110D02*
G01*
X94486830Y28177088D01*
X94488145Y28178403D01*
X94678403Y27988145D01*
X94676878Y27986620D01*
X94708603Y27937859D01*
X94708979Y27870808D01*
X94678759Y27819548D01*
X94384217Y27525006D01*
X94325366Y27492872D01*
X94258485Y27497655D01*
X94204807Y27537838D01*
X94190129Y27563613D01*
X94187079Y27570977D01*
X94169552Y27613291D01*
X94113291Y27669552D01*
X94063612Y27690129D01*
X94011403Y27732202D01*
X93990228Y27795823D01*
X94006810Y27860793D01*
X94025006Y27884217D01*
X94319548Y28178759D01*
X94378399Y28210893D01*
X94445280Y28206110D01*
G37*
G04 #@! TD.AperFunction*
G04 #@! TA.AperFunction,Conductor*
G36*
X97206032Y31004881D02*
G01*
X97237509Y31003757D01*
X97239317Y31002501D01*
X97241515Y31002344D01*
X97266721Y30983474D01*
X97292587Y30965516D01*
X97294085Y30962989D01*
X97295193Y30962161D01*
X97309871Y30936386D01*
X97330446Y30886712D01*
X97330448Y30886709D01*
X97386709Y30830448D01*
X97386712Y30830446D01*
X97436386Y30809871D01*
X97488596Y30767797D01*
X97509771Y30704176D01*
X97493189Y30639207D01*
X97474993Y30615783D01*
X97180450Y30321240D01*
X97121599Y30289106D01*
X97054718Y30293889D01*
X97013227Y30322968D01*
X97011855Y30321596D01*
X97008551Y30324899D01*
X97008549Y30324903D01*
X96824903Y30508549D01*
X96824899Y30508551D01*
X96821596Y30511855D01*
X96823176Y30513435D01*
X96791508Y30561768D01*
X96790914Y30628818D01*
X96821240Y30680450D01*
X97115783Y30974993D01*
X97143416Y30990081D01*
X97170500Y31006151D01*
X97172702Y31006072D01*
X97174634Y31007127D01*
X97206032Y31004881D01*
G37*
G04 #@! TD.AperFunction*
G04 #@! TA.AperFunction,Conductor*
G36*
X94360789Y30993188D02*
G01*
X94384215Y30974991D01*
X94678757Y30680449D01*
X94710891Y30621598D01*
X94706108Y30554717D01*
X94677050Y30513207D01*
X94678403Y30511855D01*
X94488145Y30321597D01*
X94486577Y30323164D01*
X94438146Y30291481D01*
X94371096Y30290936D01*
X94319549Y30321236D01*
X94025003Y30615783D01*
X93992869Y30674633D01*
X93997653Y30741514D01*
X94037836Y30795193D01*
X94063611Y30809870D01*
X94113288Y30830446D01*
X94113289Y30830447D01*
X94113291Y30830448D01*
X94169552Y30886709D01*
X94190129Y30936386D01*
X94232199Y30988593D01*
X94295820Y31009769D01*
X94360789Y30993188D01*
G37*
G04 #@! TD.AperFunction*
G04 #@! TA.AperFunction,Conductor*
G36*
X97180449Y44678757D02*
G01*
X97474991Y44384215D01*
X97507125Y44325364D01*
X97502342Y44258483D01*
X97462159Y44204805D01*
X97436387Y44190129D01*
X97386709Y44169552D01*
X97330448Y44113291D01*
X97330447Y44113289D01*
X97330446Y44113288D01*
X97309870Y44063611D01*
X97267797Y44011401D01*
X97204176Y43990226D01*
X97139206Y44006808D01*
X97115782Y44025004D01*
X96971233Y44169553D01*
X96821236Y44319549D01*
X96789104Y44378398D01*
X96793887Y44445279D01*
X96822956Y44486785D01*
X96821597Y44488145D01*
X97011855Y44678403D01*
X97013416Y44676841D01*
X97061898Y44708529D01*
X97128949Y44709046D01*
X97180449Y44678757D01*
G37*
G04 #@! TD.AperFunction*
G04 #@! TA.AperFunction,Conductor*
G36*
X94445280Y44706110D02*
G01*
X94486830Y44677088D01*
X94488145Y44678403D01*
X94678403Y44488145D01*
X94676878Y44486620D01*
X94708603Y44437859D01*
X94708979Y44370808D01*
X94678759Y44319548D01*
X94384217Y44025006D01*
X94325366Y43992872D01*
X94258485Y43997655D01*
X94204807Y44037838D01*
X94190129Y44063613D01*
X94169553Y44113288D01*
X94169552Y44113291D01*
X94113291Y44169552D01*
X94063612Y44190129D01*
X94011403Y44232202D01*
X93990228Y44295823D01*
X94006810Y44360793D01*
X94025006Y44384217D01*
X94319548Y44678759D01*
X94378399Y44710893D01*
X94445280Y44706110D01*
G37*
G04 #@! TD.AperFunction*
G04 #@! TA.AperFunction,Conductor*
G36*
X97206032Y47504881D02*
G01*
X97237509Y47503757D01*
X97239317Y47502501D01*
X97241515Y47502344D01*
X97266721Y47483474D01*
X97292587Y47465516D01*
X97294085Y47462989D01*
X97295193Y47462161D01*
X97309871Y47436386D01*
X97330446Y47386712D01*
X97330448Y47386709D01*
X97386709Y47330448D01*
X97386712Y47330446D01*
X97436386Y47309871D01*
X97488596Y47267797D01*
X97509771Y47204176D01*
X97493189Y47139207D01*
X97474993Y47115783D01*
X97180450Y46821240D01*
X97121599Y46789106D01*
X97054718Y46793889D01*
X97013227Y46822968D01*
X97011855Y46821596D01*
X97008551Y46824899D01*
X97008549Y46824903D01*
X96824903Y47008549D01*
X96824899Y47008551D01*
X96821596Y47011855D01*
X96823176Y47013435D01*
X96791508Y47061768D01*
X96790914Y47128818D01*
X96821240Y47180450D01*
X97115783Y47474993D01*
X97143416Y47490081D01*
X97170500Y47506151D01*
X97172702Y47506072D01*
X97174634Y47507127D01*
X97206032Y47504881D01*
G37*
G04 #@! TD.AperFunction*
G04 #@! TA.AperFunction,Conductor*
G36*
X94360789Y47493188D02*
G01*
X94384215Y47474991D01*
X94678757Y47180449D01*
X94710891Y47121598D01*
X94706108Y47054717D01*
X94677050Y47013207D01*
X94678403Y47011855D01*
X94488145Y46821597D01*
X94486577Y46823164D01*
X94438146Y46791481D01*
X94371096Y46790936D01*
X94319549Y46821236D01*
X94025003Y47115783D01*
X93992869Y47174633D01*
X93997653Y47241514D01*
X94037836Y47295193D01*
X94063611Y47309870D01*
X94113288Y47330446D01*
X94113289Y47330447D01*
X94113291Y47330448D01*
X94169552Y47386709D01*
X94190129Y47436386D01*
X94232199Y47488593D01*
X94295820Y47509769D01*
X94360789Y47493188D01*
G37*
G04 #@! TD.AperFunction*
G04 #@! TA.AperFunction,Conductor*
G36*
X96248518Y49924464D02*
G01*
X96251443Y49924392D01*
X96254345Y49924286D01*
X96601408Y49907235D01*
X96607241Y49906804D01*
X96613055Y49906231D01*
X96618844Y49905517D01*
X96958179Y49855182D01*
X96963946Y49854181D01*
X96969674Y49853041D01*
X96975361Y49851764D01*
X97308158Y49768403D01*
X97313775Y49766848D01*
X97319335Y49765162D01*
X97324893Y49763327D01*
X97647927Y49647743D01*
X97653368Y49645644D01*
X97658736Y49643421D01*
X97664084Y49641051D01*
X97974228Y49494363D01*
X97979451Y49491734D01*
X97984584Y49488990D01*
X97989660Y49486114D01*
X98283920Y49309742D01*
X98288850Y49306620D01*
X98293704Y49303377D01*
X98298484Y49300011D01*
X98574035Y49095648D01*
X98578634Y49092059D01*
X98583143Y49088359D01*
X98587572Y49084539D01*
X98841763Y48854152D01*
X98845993Y48850125D01*
X98850125Y48845993D01*
X98854152Y48841763D01*
X99084539Y48587572D01*
X99088359Y48583143D01*
X99092059Y48578634D01*
X99095648Y48574035D01*
X99300011Y48298484D01*
X99303377Y48293704D01*
X99306620Y48288850D01*
X99309742Y48283920D01*
X99486114Y47989660D01*
X99488990Y47984584D01*
X99491734Y47979451D01*
X99494363Y47974228D01*
X99641051Y47664084D01*
X99643421Y47658736D01*
X99645644Y47653368D01*
X99647743Y47647927D01*
X99763327Y47324893D01*
X99765162Y47319335D01*
X99766848Y47313775D01*
X99768403Y47308158D01*
X99851764Y46975361D01*
X99853041Y46969674D01*
X99854181Y46963946D01*
X99855182Y46958179D01*
X99905517Y46618844D01*
X99906231Y46613055D01*
X99906804Y46607241D01*
X99907235Y46601408D01*
X99924286Y46254344D01*
X99924393Y46251440D01*
X99924464Y46248519D01*
X99924500Y46245627D01*
X99924500Y40941887D01*
X99919678Y40908356D01*
X99916788Y40898515D01*
X99880535Y40842109D01*
X99819541Y40814257D01*
X99753171Y40823802D01*
X99708904Y40858696D01*
X99707407Y40860609D01*
X99706566Y40861683D01*
X99694247Y40881000D01*
X99686667Y40895878D01*
X99610257Y41001046D01*
X99328446Y40719235D01*
X99077131Y40467920D01*
X99018280Y40435786D01*
X98951399Y40440569D01*
X98897721Y40480752D01*
X98894039Y40485955D01*
X98872563Y40518097D01*
X98768097Y40622563D01*
X98735954Y40644040D01*
X98692956Y40695489D01*
X98684598Y40762018D01*
X98713536Y40822505D01*
X98717920Y40827131D01*
X98981289Y41090500D01*
X99251046Y41360257D01*
X99145877Y41436667D01*
X98916851Y41553361D01*
X98672393Y41632791D01*
X98420876Y41672625D01*
X98419121Y41672940D01*
X98418518Y41673000D01*
X98418515Y41673000D01*
X98161485Y41673000D01*
X98161480Y41673000D01*
X98161474Y41672999D01*
X98161214Y41672957D01*
X97907606Y41632791D01*
X97706626Y41567488D01*
X97663145Y41553360D01*
X97434121Y41436667D01*
X97328952Y41360257D01*
X97862078Y40827130D01*
X97894213Y40768279D01*
X97889429Y40701398D01*
X97849246Y40647719D01*
X97844064Y40644052D01*
X97811903Y40622563D01*
X97811901Y40622561D01*
X97707435Y40518095D01*
X97685957Y40485951D01*
X97634507Y40442953D01*
X97567977Y40434597D01*
X97507491Y40463537D01*
X97502886Y40467900D01*
X96969741Y41001046D01*
X96969740Y41001045D01*
X96893333Y40895880D01*
X96865936Y40842109D01*
X96776638Y40666851D01*
X96776637Y40666847D01*
X96697207Y40422391D01*
X96657000Y40168520D01*
X96657000Y39911478D01*
X96697207Y39657607D01*
X96775020Y39418129D01*
X96776638Y39413148D01*
X96825378Y39317490D01*
X96893333Y39184119D01*
X96969741Y39078952D01*
X96969742Y39078952D01*
X97502870Y39612080D01*
X97561719Y39644213D01*
X97628600Y39639430D01*
X97682278Y39599247D01*
X97685958Y39594047D01*
X97707435Y39561904D01*
X97811904Y39457435D01*
X97844047Y39435958D01*
X97887045Y39384507D01*
X97895400Y39317977D01*
X97866461Y39257492D01*
X97862097Y39252887D01*
X97328952Y38719742D01*
X97328952Y38719741D01*
X97328951Y38719741D01*
X97434119Y38643333D01*
X97548635Y38584985D01*
X97663148Y38526638D01*
X97663150Y38526637D01*
X97663151Y38526637D01*
X97907607Y38447207D01*
X98161478Y38407000D01*
X98161479Y38407000D01*
X98418520Y38407000D01*
X98672391Y38447207D01*
X98846157Y38503668D01*
X98916851Y38526638D01*
X99080589Y38610066D01*
X99145880Y38643333D01*
X99251045Y38719740D01*
X99251044Y38719740D01*
X99251046Y38719741D01*
X98717917Y39252869D01*
X98685785Y39311718D01*
X98690568Y39378599D01*
X98730751Y39432277D01*
X98735951Y39435957D01*
X98768095Y39457435D01*
X98872561Y39561901D01*
X98872563Y39561903D01*
X98894039Y39594045D01*
X98945488Y39637043D01*
X99012018Y39645400D01*
X99072504Y39616462D01*
X99077130Y39612078D01*
X99610257Y39078952D01*
X99686669Y39184124D01*
X99691700Y39193998D01*
X99701524Y39204401D01*
X99711218Y39221687D01*
X99718261Y39229144D01*
X99733033Y39237766D01*
X99737737Y39242747D01*
X99746114Y39247200D01*
X99753883Y39250940D01*
X99756277Y39251333D01*
X99776170Y39262945D01*
X99816373Y39261220D01*
X99820046Y39261825D01*
X99822001Y39260979D01*
X99843161Y39260072D01*
X99873405Y39238750D01*
X99881591Y39235211D01*
X99884436Y39230974D01*
X99897964Y39221438D01*
X99913557Y39187618D01*
X99918977Y39179549D01*
X99919055Y39175694D01*
X99921567Y39170246D01*
X99922293Y39166529D01*
X99924500Y39143717D01*
X99924500Y35861887D01*
X99919678Y35828356D01*
X99916788Y35818515D01*
X99880535Y35762109D01*
X99819541Y35734257D01*
X99753171Y35743802D01*
X99708904Y35778696D01*
X99707539Y35780440D01*
X99706566Y35781683D01*
X99694247Y35801000D01*
X99686667Y35815878D01*
X99610257Y35921046D01*
X99332958Y35643747D01*
X99077131Y35387920D01*
X99018280Y35355786D01*
X98951399Y35360569D01*
X98897721Y35400752D01*
X98894039Y35405955D01*
X98872563Y35438097D01*
X98768097Y35542563D01*
X98735954Y35564040D01*
X98692956Y35615489D01*
X98684598Y35682018D01*
X98713536Y35742505D01*
X98717920Y35747131D01*
X98977253Y36006464D01*
X99251046Y36280257D01*
X99145877Y36356667D01*
X98916851Y36473361D01*
X98672393Y36552791D01*
X98420876Y36592625D01*
X98419121Y36592940D01*
X98418518Y36593000D01*
X98418515Y36593000D01*
X98161485Y36593000D01*
X98161480Y36593000D01*
X98161474Y36592999D01*
X98161214Y36592957D01*
X97907606Y36552791D01*
X97663148Y36473361D01*
X97663145Y36473360D01*
X97434121Y36356667D01*
X97328952Y36280257D01*
X97862078Y35747130D01*
X97894213Y35688279D01*
X97889429Y35621398D01*
X97849246Y35567719D01*
X97844064Y35564052D01*
X97811903Y35542563D01*
X97811901Y35542561D01*
X97707435Y35438095D01*
X97685957Y35405951D01*
X97634507Y35362953D01*
X97567977Y35354597D01*
X97507491Y35383537D01*
X97502886Y35387900D01*
X96969741Y35921046D01*
X96969740Y35921045D01*
X96893333Y35815880D01*
X96861633Y35753664D01*
X96776638Y35586851D01*
X96753855Y35516733D01*
X96697207Y35342391D01*
X96657000Y35088520D01*
X96657000Y34831478D01*
X96697207Y34577607D01*
X96774758Y34338935D01*
X96776638Y34333148D01*
X96823247Y34241673D01*
X96893333Y34104119D01*
X96969741Y33998952D01*
X96969742Y33998952D01*
X97502870Y34532080D01*
X97561719Y34564213D01*
X97628600Y34559430D01*
X97682278Y34519247D01*
X97685958Y34514047D01*
X97707435Y34481904D01*
X97811904Y34377435D01*
X97844047Y34355958D01*
X97887045Y34304507D01*
X97895400Y34237977D01*
X97866461Y34177492D01*
X97862097Y34172887D01*
X97328952Y33639742D01*
X97328952Y33639741D01*
X97328951Y33639741D01*
X97434119Y33563333D01*
X97511908Y33523698D01*
X97663148Y33446638D01*
X97663150Y33446637D01*
X97663151Y33446637D01*
X97907607Y33367207D01*
X98161478Y33327000D01*
X98161479Y33327000D01*
X98418520Y33327000D01*
X98672391Y33367207D01*
X98874936Y33433019D01*
X98916851Y33446638D01*
X99102796Y33541381D01*
X99145880Y33563333D01*
X99251045Y33639740D01*
X99251044Y33639740D01*
X99251046Y33639741D01*
X98717917Y34172869D01*
X98685785Y34231718D01*
X98690568Y34298599D01*
X98730751Y34352277D01*
X98735951Y34355957D01*
X98768095Y34377435D01*
X98872561Y34481901D01*
X98872563Y34481903D01*
X98894039Y34514045D01*
X98945488Y34557043D01*
X99012018Y34565400D01*
X99072504Y34536462D01*
X99077130Y34532078D01*
X99610257Y33998952D01*
X99686669Y34104124D01*
X99691700Y34113998D01*
X99701524Y34124401D01*
X99711218Y34141687D01*
X99718261Y34149144D01*
X99733033Y34157766D01*
X99737737Y34162747D01*
X99746114Y34167200D01*
X99753883Y34170940D01*
X99756277Y34171333D01*
X99776170Y34182945D01*
X99816373Y34181220D01*
X99820046Y34181825D01*
X99822001Y34180979D01*
X99843161Y34180072D01*
X99873405Y34158750D01*
X99881591Y34155211D01*
X99884436Y34150974D01*
X99897964Y34141438D01*
X99913557Y34107618D01*
X99918977Y34099549D01*
X99919055Y34095694D01*
X99921567Y34090246D01*
X99922293Y34086529D01*
X99924500Y34063717D01*
X99924500Y28754371D01*
X99924464Y28751480D01*
X99924393Y28748558D01*
X99924286Y28745654D01*
X99907235Y28398590D01*
X99906804Y28392757D01*
X99906231Y28386943D01*
X99905517Y28381154D01*
X99855182Y28041819D01*
X99854181Y28036052D01*
X99853041Y28030324D01*
X99851764Y28024638D01*
X99768408Y27691859D01*
X99766852Y27686235D01*
X99765156Y27680643D01*
X99763322Y27675092D01*
X99679384Y27440500D01*
X99651625Y27362917D01*
X99647746Y27352077D01*
X99645637Y27346612D01*
X99643406Y27341228D01*
X99641046Y27335905D01*
X99604493Y27258619D01*
X99604493Y27258618D01*
X99494363Y27025770D01*
X99491734Y27020547D01*
X99488990Y27015414D01*
X99486114Y27010338D01*
X99309742Y26716078D01*
X99306620Y26711148D01*
X99303377Y26706294D01*
X99300010Y26701513D01*
X99246110Y26628839D01*
X99246111Y26628839D01*
X99144159Y26491371D01*
X99127126Y26468405D01*
X99127124Y26468403D01*
X99095645Y26425960D01*
X99092061Y26421367D01*
X99088372Y26416871D01*
X99084551Y26412440D01*
X99069953Y26396333D01*
X99069951Y26396331D01*
X98854152Y26158235D01*
X98850125Y26154005D01*
X98845993Y26149873D01*
X98841763Y26145846D01*
X98587569Y25915457D01*
X98583159Y25911652D01*
X98578632Y25907937D01*
X98574040Y25904354D01*
X98560031Y25893965D01*
X98560032Y25893965D01*
X98298474Y25699980D01*
X98293705Y25696622D01*
X98288854Y25693381D01*
X98283934Y25690265D01*
X98256173Y25673625D01*
X98256171Y25673624D01*
X97989652Y25513879D01*
X97984588Y25511010D01*
X97979443Y25508260D01*
X97974241Y25505641D01*
X97664055Y25358933D01*
X97658757Y25356585D01*
X97653369Y25354354D01*
X97647930Y25352256D01*
X97324897Y25236673D01*
X97319359Y25234844D01*
X97313786Y25233153D01*
X97308162Y25231595D01*
X96975343Y25148230D01*
X96969671Y25146956D01*
X96963928Y25145813D01*
X96958220Y25144823D01*
X96618821Y25094477D01*
X96613059Y25093766D01*
X96607226Y25093192D01*
X96601429Y25092764D01*
X96254309Y25075711D01*
X96251484Y25075608D01*
X96248478Y25075534D01*
X96245629Y25075500D01*
X8869000Y25075500D01*
X8804664Y25094391D01*
X8760754Y25145066D01*
X8750000Y25194500D01*
X8750000Y25442007D01*
X8768891Y25506343D01*
X8819566Y25550253D01*
X8880663Y25560434D01*
X8996344Y25549041D01*
X9067841Y25542000D01*
X9432156Y25542000D01*
X9432159Y25542000D01*
X9549018Y25553509D01*
X9794709Y25577706D01*
X9794711Y25577706D01*
X9794719Y25577707D01*
X9794723Y25577708D01*
X9969686Y25612510D01*
X10152051Y25648784D01*
X10500688Y25754541D01*
X10500701Y25754547D01*
X10837288Y25893965D01*
X11158584Y26065701D01*
X11461515Y26268113D01*
X11583379Y26368125D01*
X11687342Y26453445D01*
X11369625Y26771162D01*
X18709500Y26771162D01*
X18709500Y26628839D01*
X18746328Y26491390D01*
X18746334Y26491373D01*
X18746334Y26491371D01*
X18817488Y26368129D01*
X18918129Y26267488D01*
X19041372Y26196334D01*
X19041390Y26196328D01*
X19178836Y26159500D01*
X19321160Y26159500D01*
X19321162Y26159500D01*
X19458608Y26196328D01*
X19458611Y26196329D01*
X19458618Y26196331D01*
X19458626Y26196334D01*
X19458627Y26196334D01*
X19581874Y26267491D01*
X19581880Y26267496D01*
X19682507Y26368124D01*
X19682508Y26368125D01*
X19739876Y26467490D01*
X19753666Y26491375D01*
X19768392Y26546331D01*
X19790499Y26628839D01*
X19790500Y26628842D01*
X19790500Y26771157D01*
X19790499Y26771160D01*
X19785509Y26789782D01*
X19753666Y26908625D01*
X19682508Y27031875D01*
X19581875Y27132508D01*
X19458625Y27203666D01*
X19456729Y27204174D01*
X19429568Y27211451D01*
X19321158Y27240500D01*
X19178842Y27240500D01*
X19146653Y27231875D01*
X19041381Y27203668D01*
X19041378Y27203666D01*
X19041376Y27203666D01*
X19041375Y27203666D01*
X18929723Y27139204D01*
X18918125Y27132508D01*
X18918124Y27132507D01*
X18817496Y27031880D01*
X18817491Y27031874D01*
X18746334Y26908627D01*
X18746334Y26908626D01*
X18746331Y26908618D01*
X18746329Y26908611D01*
X18746328Y26908608D01*
X18709500Y26771162D01*
X11369625Y26771162D01*
X11025002Y27115784D01*
X10992870Y27174633D01*
X10997653Y27241514D01*
X11037836Y27295192D01*
X11063611Y27309870D01*
X11113288Y27330446D01*
X11113289Y27330447D01*
X11113291Y27330448D01*
X11169552Y27386709D01*
X11190127Y27436383D01*
X11232199Y27488593D01*
X11295820Y27509769D01*
X11360789Y27493188D01*
X11384215Y27474991D01*
X12046551Y26812655D01*
X12046552Y26812655D01*
X12080853Y26854451D01*
X12080856Y26854455D01*
X12125314Y26908626D01*
X12231885Y27038483D01*
X12434295Y27341411D01*
X12437567Y27347531D01*
X12606033Y27662710D01*
X12606594Y27664063D01*
X12745452Y27999298D01*
X12745452Y27999297D01*
X12745455Y27999304D01*
X12750972Y28017492D01*
X12851217Y28347954D01*
X12895615Y28571162D01*
X19909500Y28571162D01*
X19909500Y28428836D01*
X19946328Y28291390D01*
X19946330Y28291383D01*
X19946331Y28291381D01*
X19946334Y28291373D01*
X19954758Y28276783D01*
X20017488Y28168129D01*
X20118129Y28067488D01*
X20241372Y27996334D01*
X20241390Y27996328D01*
X20378836Y27959500D01*
X20521160Y27959500D01*
X20521162Y27959500D01*
X20658608Y27996328D01*
X20658611Y27996329D01*
X20658618Y27996331D01*
X20658626Y27996334D01*
X20658627Y27996334D01*
X20781874Y28067491D01*
X20781880Y28067496D01*
X20882507Y28168124D01*
X20882508Y28168125D01*
X20888646Y28178757D01*
X20953666Y28291375D01*
X20968825Y28347947D01*
X20990499Y28428839D01*
X20990500Y28428842D01*
X20990500Y28571157D01*
X20990499Y28571160D01*
X20990498Y28571162D01*
X20954563Y28705276D01*
X20953668Y28708618D01*
X20953667Y28708619D01*
X20953666Y28708625D01*
X20882508Y28831875D01*
X20781875Y28932508D01*
X20658625Y29003666D01*
X20658061Y29003817D01*
X20617083Y29014797D01*
X20521158Y29040500D01*
X20378842Y29040500D01*
X20333019Y29028222D01*
X20243064Y29004119D01*
X20241485Y29003721D01*
X20241373Y29003665D01*
X20179819Y28968127D01*
X20118125Y28932508D01*
X20118124Y28932507D01*
X20017496Y28831880D01*
X20017491Y28831874D01*
X19946334Y28708627D01*
X19946334Y28708626D01*
X19946331Y28708618D01*
X19946329Y28708611D01*
X19946328Y28708608D01*
X19909500Y28571162D01*
X12895615Y28571162D01*
X12901776Y28602136D01*
X12901783Y28602173D01*
X12922291Y28705276D01*
X12958000Y29067841D01*
X12958000Y29432158D01*
X12922291Y29794723D01*
X12851214Y30152054D01*
X12745457Y30500689D01*
X12745452Y30500701D01*
X12606032Y30837290D01*
X12541803Y30957454D01*
X12530253Y30989288D01*
X12529002Y30995296D01*
X12534381Y31062132D01*
X12575041Y31115450D01*
X12638072Y31138322D01*
X12702966Y31123761D01*
X12736387Y31105331D01*
X12752378Y31097714D01*
X12841365Y31046337D01*
X12841373Y31046334D01*
X12841372Y31046334D01*
X12841390Y31046328D01*
X12978836Y31009500D01*
X13121160Y31009500D01*
X13121162Y31009500D01*
X13258608Y31046328D01*
X13258611Y31046329D01*
X13258618Y31046331D01*
X13258626Y31046334D01*
X13258627Y31046334D01*
X13378788Y31115709D01*
X13381875Y31117491D01*
X13482507Y31218124D01*
X13482508Y31218125D01*
X13524293Y31290499D01*
X13553664Y31341371D01*
X13553665Y31341373D01*
X13553668Y31341381D01*
X13581789Y31446331D01*
X13590500Y31478842D01*
X13590500Y31621158D01*
X13571326Y31692716D01*
X13571365Y31708316D01*
X13567292Y31721287D01*
X13567305Y31726344D01*
X13567563Y31737193D01*
X13571470Y31749416D01*
X13571484Y31754898D01*
X13574081Y31764397D01*
X13578602Y31771731D01*
X13587978Y31801062D01*
X13605714Y31815707D01*
X13609269Y31821473D01*
X13617445Y31825393D01*
X13639682Y31843755D01*
X13661071Y31846312D01*
X13669730Y31850465D01*
X13682487Y31848874D01*
X13706258Y31851716D01*
X13706312Y31851707D01*
X13706322Y31851706D01*
X13706903Y31851608D01*
X13726842Y31843342D01*
X13736267Y31842167D01*
X13742774Y31836738D01*
X13756142Y31831197D01*
X13757900Y31829945D01*
X13773014Y31817160D01*
X14911528Y30678648D01*
X14911528Y30678647D01*
X14977383Y30612791D01*
X14978559Y30611579D01*
X15060848Y30564068D01*
X15060859Y30564063D01*
X15152531Y30539500D01*
X15152536Y30539500D01*
X15152539Y30539500D01*
X21634272Y30539500D01*
X21634274Y30539499D01*
X21634276Y30539500D01*
X21667802Y30534679D01*
X21692027Y30527565D01*
X21742643Y30497532D01*
X24527383Y27712792D01*
X24528560Y27711578D01*
X24610848Y27664068D01*
X24610859Y27664063D01*
X24702531Y27639500D01*
X24702536Y27639500D01*
X24702539Y27639500D01*
X24797461Y27639500D01*
X27300511Y27639500D01*
X27312050Y27636111D01*
X27334044Y27634678D01*
X27339669Y27633026D01*
X27354059Y27623776D01*
X27364847Y27620609D01*
X27372212Y27612108D01*
X27396075Y27596771D01*
X27407852Y27570977D01*
X27408757Y27569934D01*
X27410886Y27564333D01*
X27423926Y27535777D01*
X27414379Y27469407D01*
X27389076Y27440207D01*
X27380922Y27427160D01*
X27375586Y27424641D01*
X27370471Y27418738D01*
X27366198Y27415992D01*
X27347369Y27406147D01*
X27341378Y27403667D01*
X27341377Y27403666D01*
X27341375Y27403666D01*
X27224009Y27335905D01*
X27218125Y27332508D01*
X27218124Y27332507D01*
X27117496Y27231880D01*
X27117492Y27231875D01*
X27117490Y27231872D01*
X27101205Y27203666D01*
X27046334Y27108627D01*
X27046334Y27108626D01*
X27046331Y27108618D01*
X27046329Y27108611D01*
X27046328Y27108608D01*
X27009500Y26971162D01*
X27009500Y26828836D01*
X27046328Y26691390D01*
X27046334Y26691373D01*
X27046334Y26691371D01*
X27117488Y26568129D01*
X27218129Y26467488D01*
X27341372Y26396334D01*
X27341390Y26396328D01*
X27478836Y26359500D01*
X27621160Y26359500D01*
X27621162Y26359500D01*
X27758608Y26396328D01*
X27758611Y26396329D01*
X27758618Y26396331D01*
X27758626Y26396334D01*
X27758627Y26396334D01*
X27881874Y26467491D01*
X27881880Y26467496D01*
X27982507Y26568124D01*
X27982508Y26568125D01*
X28053665Y26691373D01*
X28053668Y26691381D01*
X28087379Y26817193D01*
X28090500Y26828842D01*
X28090500Y26971158D01*
X28053666Y27108625D01*
X27982508Y27231875D01*
X27881875Y27332508D01*
X27758625Y27403666D01*
X27758611Y27403669D01*
X27754834Y27405235D01*
X27752920Y27406776D01*
X27738424Y27413571D01*
X27731951Y27417517D01*
X27711062Y27440502D01*
X27702621Y27447303D01*
X27699297Y27453446D01*
X27686854Y27467138D01*
X27675742Y27533263D01*
X27702144Y27594898D01*
X27711079Y27600945D01*
X27711759Y27602276D01*
X27721009Y27607666D01*
X27757659Y27632470D01*
X27761971Y27633848D01*
X27767396Y27634694D01*
X27769694Y27636033D01*
X27774604Y27635818D01*
X27798209Y27639500D01*
X32634272Y27639500D01*
X32667802Y27634679D01*
X32692027Y27627565D01*
X32742642Y27597532D01*
X32818158Y27522016D01*
X32818163Y27522012D01*
X32828646Y27511530D01*
X32828647Y27511528D01*
X32892583Y27474614D01*
X32894780Y27473215D01*
X32899248Y27468100D01*
X32900770Y27466765D01*
X32964578Y27449669D01*
X32995717Y27436334D01*
X33007089Y27429402D01*
X33018594Y27416745D01*
X33033202Y27407842D01*
X33040680Y27392448D01*
X33052191Y27379786D01*
X33055027Y27362917D01*
X33062503Y27347531D01*
X33063309Y27313671D01*
X33062856Y27309869D01*
X33062342Y27305571D01*
X33047239Y27260192D01*
X33046330Y27258619D01*
X33009500Y27121162D01*
X33009500Y26978836D01*
X33046328Y26841390D01*
X33046334Y26841373D01*
X33046334Y26841371D01*
X33117488Y26718129D01*
X33218129Y26617488D01*
X33341372Y26546334D01*
X33341390Y26546328D01*
X33478836Y26509500D01*
X33621160Y26509500D01*
X33621162Y26509500D01*
X33758608Y26546328D01*
X33758611Y26546329D01*
X33758618Y26546331D01*
X33758626Y26546334D01*
X33758627Y26546334D01*
X33881874Y26617491D01*
X33982506Y26718123D01*
X33982509Y26718127D01*
X33982510Y26718129D01*
X34043590Y26823922D01*
X34043592Y26823926D01*
X90499500Y26823926D01*
X90499500Y26676072D01*
X90528338Y26531093D01*
X90584914Y26394505D01*
X90667047Y26271584D01*
X90771584Y26167047D01*
X90894505Y26084914D01*
X91031093Y26028338D01*
X91176072Y25999500D01*
X91323922Y25999500D01*
X91323926Y25999500D01*
X91468905Y26028338D01*
X91605493Y26084914D01*
X91728414Y26167047D01*
X91832951Y26271584D01*
X91915084Y26394505D01*
X91924348Y26416871D01*
X91971659Y26531090D01*
X91974692Y26546334D01*
X91998155Y26664293D01*
X91998154Y26664293D01*
X92000499Y26676077D01*
X92000500Y26676082D01*
X92000500Y26823918D01*
X92000499Y26823922D01*
X91999520Y26828842D01*
X91971658Y26968913D01*
X91915084Y27105495D01*
X91832951Y27228416D01*
X91728416Y27332951D01*
X91605495Y27415084D01*
X91468913Y27471658D01*
X91468909Y27471658D01*
X91468909Y27471659D01*
X91396415Y27486079D01*
X91344132Y27496479D01*
X91323920Y27500500D01*
X91323918Y27500500D01*
X91176082Y27500500D01*
X91176079Y27500500D01*
X91176016Y27500493D01*
X91175976Y27500481D01*
X91175963Y27500476D01*
X91031090Y27471659D01*
X91031088Y27471658D01*
X91030449Y27471531D01*
X91027195Y27470046D01*
X91002154Y27459674D01*
X91002155Y27459674D01*
X90894505Y27415084D01*
X90771584Y27332951D01*
X90667047Y27228414D01*
X90584914Y27105493D01*
X90528339Y26968907D01*
X90499500Y26823926D01*
X34043592Y26823926D01*
X34053665Y26841373D01*
X34053668Y26841381D01*
X34058808Y26860563D01*
X34087838Y26968909D01*
X34087839Y26968913D01*
X34090500Y26978840D01*
X34090500Y27121157D01*
X34090500Y27121158D01*
X34053666Y27258625D01*
X34053664Y27258627D01*
X34052093Y27264493D01*
X34049575Y27272207D01*
X34045120Y27290574D01*
X34048311Y27357547D01*
X34087206Y27412166D01*
X34087239Y27412192D01*
X34088467Y27413157D01*
X34139471Y27436439D01*
X34144192Y27437349D01*
X34166715Y27439500D01*
X35629713Y27439500D01*
X35629715Y27439499D01*
X35629717Y27439500D01*
X35663243Y27434679D01*
X35687468Y27427565D01*
X35738081Y27397534D01*
X35768125Y27367491D01*
X35768127Y27367489D01*
X35891372Y27296334D01*
X35891390Y27296328D01*
X36028836Y27259500D01*
X36171160Y27259500D01*
X36171162Y27259500D01*
X36308608Y27296328D01*
X36308611Y27296329D01*
X36308618Y27296331D01*
X36308626Y27296334D01*
X36308627Y27296334D01*
X36431874Y27367491D01*
X36431880Y27367496D01*
X36532507Y27468124D01*
X36532508Y27468125D01*
X36603665Y27591373D01*
X36606231Y27600945D01*
X36609539Y27613291D01*
X36626234Y27675599D01*
X36626234Y27675602D01*
X36628310Y27683349D01*
X36640500Y27728842D01*
X36640500Y27787048D01*
X36641463Y27794572D01*
X36643262Y27798680D01*
X36645320Y27812989D01*
X36649547Y27827385D01*
X36685790Y27883786D01*
X36686285Y27884215D01*
X36692221Y27889359D01*
X36739356Y27914375D01*
X36858591Y27946323D01*
X36858624Y27946333D01*
X36858627Y27946334D01*
X36981874Y28017491D01*
X36981880Y28017496D01*
X37082507Y28118124D01*
X37082508Y28118125D01*
X37111376Y28168127D01*
X37153666Y28241375D01*
X37167064Y28291375D01*
X37190499Y28378839D01*
X37190500Y28378842D01*
X37190500Y28521157D01*
X37190499Y28521160D01*
X37165012Y28616281D01*
X37166608Y28683313D01*
X37204192Y28738842D01*
X37265830Y28765237D01*
X37296892Y28764867D01*
X37368998Y28754500D01*
X59009452Y28754500D01*
X59009455Y28754500D01*
X59018229Y28754656D01*
X59026694Y28754958D01*
X59103737Y28770282D01*
X59166554Y28793712D01*
X59166562Y28793715D01*
X59206035Y28812601D01*
X59206037Y28812602D01*
X59277299Y28876613D01*
X59317482Y28930291D01*
X59318623Y28931815D01*
X59372302Y28971997D01*
X59413887Y28979500D01*
X82387325Y28979500D01*
X82451661Y28960609D01*
X82490734Y28919386D01*
X82496761Y28908800D01*
X82540677Y28858119D01*
X82540678Y28858118D01*
X82572168Y28827734D01*
X82657046Y28783335D01*
X82721381Y28764445D01*
X82790546Y28754500D01*
X85950708Y28754500D01*
X85950738Y28754500D01*
X85976921Y28755904D01*
X85976947Y28755906D01*
X85976956Y28755907D01*
X85981056Y28756347D01*
X86002250Y28758626D01*
X86093657Y28787248D01*
X86152506Y28819381D01*
X86152509Y28819383D01*
X86208443Y28861254D01*
X86208445Y28861256D01*
X86208449Y28861259D01*
X86779348Y29432158D01*
X92042000Y29432158D01*
X92042000Y29067841D01*
X92051322Y28973187D01*
X92077706Y28705289D01*
X92077706Y28705287D01*
X92148784Y28347947D01*
X92254541Y27999310D01*
X92254547Y27999298D01*
X92393965Y27662710D01*
X92565701Y27341414D01*
X92768117Y27038477D01*
X92953445Y26812656D01*
X93615782Y27474993D01*
X93674633Y27507127D01*
X93741514Y27502344D01*
X93795192Y27462161D01*
X93809869Y27436388D01*
X93830445Y27386713D01*
X93830448Y27386709D01*
X93886709Y27330448D01*
X93886713Y27330445D01*
X93936388Y27309869D01*
X93988597Y27267795D01*
X94009771Y27204174D01*
X93993188Y27139204D01*
X93974993Y27115782D01*
X93312656Y26453445D01*
X93538477Y26268117D01*
X93841414Y26065701D01*
X94162710Y25893965D01*
X94499298Y25754547D01*
X94499310Y25754541D01*
X94847947Y25648784D01*
X95065499Y25605511D01*
X95205276Y25577708D01*
X95205279Y25577707D01*
X95205288Y25577706D01*
X95471651Y25551473D01*
X95567841Y25542000D01*
X95932156Y25542000D01*
X95932159Y25542000D01*
X96049018Y25553509D01*
X96294709Y25577706D01*
X96294711Y25577706D01*
X96294719Y25577707D01*
X96294723Y25577708D01*
X96469686Y25612510D01*
X96652051Y25648784D01*
X97000688Y25754541D01*
X97000701Y25754547D01*
X97337288Y25893965D01*
X97658584Y26065701D01*
X97961515Y26268113D01*
X98083379Y26368125D01*
X98187342Y26453445D01*
X97525003Y27115783D01*
X97492870Y27174633D01*
X97497653Y27241514D01*
X97537836Y27295192D01*
X97563611Y27309870D01*
X97613288Y27330446D01*
X97613289Y27330447D01*
X97613291Y27330448D01*
X97669552Y27386709D01*
X97690127Y27436383D01*
X97732199Y27488593D01*
X97795820Y27509769D01*
X97860789Y27493188D01*
X97884215Y27474991D01*
X98546551Y26812655D01*
X98546552Y26812655D01*
X98731885Y27038483D01*
X98878975Y27258619D01*
X98934295Y27341411D01*
X98937567Y27347531D01*
X99106033Y27662710D01*
X99106594Y27664063D01*
X99245452Y27999298D01*
X99245452Y27999297D01*
X99245455Y27999304D01*
X99250972Y28017492D01*
X99351214Y28347945D01*
X99422291Y28705276D01*
X99458000Y29067841D01*
X99458000Y29432158D01*
X99422291Y29794723D01*
X99351214Y30152054D01*
X99245457Y30500689D01*
X99245452Y30500701D01*
X99106034Y30837287D01*
X98934295Y31158588D01*
X98731885Y31461516D01*
X98546552Y31687342D01*
X97884216Y31025006D01*
X97825365Y30992872D01*
X97758484Y30997655D01*
X97704806Y31037838D01*
X97690131Y31063607D01*
X97669552Y31113291D01*
X97613291Y31169552D01*
X97563611Y31190129D01*
X97511404Y31232200D01*
X97490228Y31295820D01*
X97506809Y31360790D01*
X97525006Y31384216D01*
X98187342Y32046552D01*
X98172640Y32058618D01*
X97961516Y32231885D01*
X97658588Y32434295D01*
X97337287Y32606034D01*
X97000701Y32745452D01*
X97000689Y32745457D01*
X96652054Y32851214D01*
X96294723Y32922291D01*
X95932159Y32958000D01*
X95932156Y32958000D01*
X95567844Y32958000D01*
X95567841Y32958000D01*
X95205276Y32922291D01*
X94847945Y32851214D01*
X94499310Y32745457D01*
X94499298Y32745452D01*
X94277702Y32653664D01*
X94162710Y32606033D01*
X93841414Y32434297D01*
X93538483Y32231885D01*
X93312655Y32046552D01*
X93312655Y32046551D01*
X93974991Y31384215D01*
X94007126Y31325364D01*
X94002342Y31258483D01*
X93962159Y31204804D01*
X93936385Y31190128D01*
X93886709Y31169552D01*
X93830448Y31113291D01*
X93830447Y31113289D01*
X93830446Y31113288D01*
X93809870Y31063611D01*
X93767797Y31011401D01*
X93704176Y30990226D01*
X93639206Y31006808D01*
X93615784Y31025002D01*
X92953445Y31687342D01*
X92855608Y31568127D01*
X92768113Y31461515D01*
X92565701Y31158584D01*
X92393965Y30837288D01*
X92254547Y30500701D01*
X92254541Y30500688D01*
X92148784Y30152051D01*
X92134825Y30081874D01*
X92079987Y29806177D01*
X92077706Y29794711D01*
X92077706Y29794709D01*
X92056746Y29581880D01*
X92042000Y29432158D01*
X86779348Y29432158D01*
X89388741Y32041551D01*
X89406307Y32061108D01*
X89422270Y32080918D01*
X89422271Y32080920D01*
X89422275Y32080925D01*
X89455001Y32143494D01*
X89466664Y32165790D01*
X89485555Y32230126D01*
X89495500Y32299292D01*
X89495500Y35088520D01*
X91577000Y35088520D01*
X91577000Y34831478D01*
X91617207Y34577607D01*
X91694758Y34338935D01*
X91696638Y34333148D01*
X91743247Y34241673D01*
X91813333Y34104119D01*
X91889741Y33998952D01*
X91889742Y33998952D01*
X92422870Y34532080D01*
X92481719Y34564213D01*
X92548600Y34559430D01*
X92602278Y34519247D01*
X92605958Y34514047D01*
X92627435Y34481904D01*
X92731904Y34377435D01*
X92764047Y34355958D01*
X92807045Y34304507D01*
X92815400Y34237977D01*
X92786461Y34177492D01*
X92782097Y34172887D01*
X92248952Y33639742D01*
X92248952Y33639741D01*
X92248951Y33639741D01*
X92354119Y33563333D01*
X92431908Y33523698D01*
X92583148Y33446638D01*
X92583150Y33446637D01*
X92583151Y33446637D01*
X92827607Y33367207D01*
X93081478Y33327000D01*
X93081479Y33327000D01*
X93338520Y33327000D01*
X93592391Y33367207D01*
X93794936Y33433019D01*
X93836851Y33446638D01*
X94022796Y33541381D01*
X94065880Y33563333D01*
X94171045Y33639740D01*
X94171044Y33639740D01*
X94171046Y33639741D01*
X93637917Y34172869D01*
X93605785Y34231718D01*
X93610568Y34298599D01*
X93650751Y34352277D01*
X93655951Y34355957D01*
X93688095Y34377435D01*
X93792561Y34481901D01*
X93792563Y34481903D01*
X93814039Y34514045D01*
X93865488Y34557043D01*
X93932018Y34565400D01*
X93992504Y34536462D01*
X93997130Y34532078D01*
X94530257Y33998952D01*
X94606667Y34104121D01*
X94630540Y34150974D01*
X94723360Y34333145D01*
X94737751Y34377435D01*
X94802791Y34577606D01*
X94842957Y34831214D01*
X94842999Y34831474D01*
X94843000Y34831479D01*
X94843000Y35088518D01*
X94842940Y35089121D01*
X94842623Y35090892D01*
X94838006Y35120041D01*
X94802791Y35342393D01*
X94723361Y35586851D01*
X94606667Y35815877D01*
X94530257Y35921046D01*
X94252958Y35643747D01*
X93997131Y35387920D01*
X93938280Y35355786D01*
X93871399Y35360569D01*
X93817721Y35400752D01*
X93814039Y35405955D01*
X93792563Y35438097D01*
X93688097Y35542563D01*
X93655954Y35564040D01*
X93612956Y35615489D01*
X93604598Y35682018D01*
X93633536Y35742505D01*
X93637920Y35747131D01*
X93897253Y36006464D01*
X94171046Y36280257D01*
X94065877Y36356667D01*
X93836851Y36473361D01*
X93592393Y36552791D01*
X93340876Y36592625D01*
X93339121Y36592940D01*
X93338518Y36593000D01*
X93338515Y36593000D01*
X93081485Y36593000D01*
X93081480Y36593000D01*
X93081474Y36592999D01*
X93081214Y36592957D01*
X92827606Y36552791D01*
X92583148Y36473361D01*
X92583145Y36473360D01*
X92354121Y36356667D01*
X92248952Y36280257D01*
X92782078Y35747130D01*
X92814213Y35688279D01*
X92809429Y35621398D01*
X92769246Y35567719D01*
X92764064Y35564052D01*
X92731903Y35542563D01*
X92731901Y35542561D01*
X92627435Y35438095D01*
X92605957Y35405951D01*
X92554507Y35362953D01*
X92487977Y35354597D01*
X92427491Y35383537D01*
X92422886Y35387900D01*
X91889741Y35921046D01*
X91889740Y35921045D01*
X91813333Y35815880D01*
X91781633Y35753664D01*
X91696638Y35586851D01*
X91673855Y35516733D01*
X91617207Y35342391D01*
X91577000Y35088520D01*
X89495500Y35088520D01*
X89495500Y35120041D01*
X89495344Y35128798D01*
X89495041Y35137287D01*
X89479718Y35214325D01*
X89456285Y35277150D01*
X89437398Y35316626D01*
X89373387Y35387888D01*
X89362311Y35396178D01*
X89350250Y35412289D01*
X89334783Y35425174D01*
X89330558Y35438592D01*
X89322128Y35449852D01*
X89320690Y35469929D01*
X89314645Y35489131D01*
X89318032Y35507070D01*
X89317341Y35516733D01*
X89318813Y35522745D01*
X89321326Y35531963D01*
X89322303Y35533655D01*
X89332901Y35573207D01*
X89351668Y35643247D01*
X89360500Y35676207D01*
X89360500Y37607465D01*
X94384500Y37607465D01*
X94384500Y37392534D01*
X94417760Y37182538D01*
X94418123Y37180248D01*
X94418124Y37180244D01*
X94469849Y37021051D01*
X94484543Y36975826D01*
X94513943Y36918127D01*
X94582122Y36784317D01*
X94708454Y36610436D01*
X94860436Y36458454D01*
X95034317Y36332122D01*
X95116006Y36290500D01*
X95225865Y36234524D01*
X95226785Y36234064D01*
X95230493Y36233026D01*
X95425791Y36169570D01*
X95432104Y36167240D01*
X95439493Y36166659D01*
X95642533Y36134500D01*
X95642534Y36134500D01*
X95857465Y36134500D01*
X95857467Y36134500D01*
X96069755Y36168124D01*
X96274170Y36234542D01*
X96465314Y36331934D01*
X96465666Y36332112D01*
X96465672Y36332115D01*
X96505065Y36360736D01*
X96639556Y36458449D01*
X96639565Y36458457D01*
X96791542Y36610434D01*
X96791550Y36610443D01*
X96917878Y36784319D01*
X96917880Y36784322D01*
X97015458Y36975830D01*
X97081876Y37180245D01*
X97115500Y37392533D01*
X97115500Y37607467D01*
X97081876Y37819755D01*
X97015458Y38024170D01*
X96917880Y38215678D01*
X96791545Y38389563D01*
X96639563Y38541545D01*
X96465678Y38667880D01*
X96274170Y38765458D01*
X96069755Y38831876D01*
X95857467Y38865500D01*
X95857463Y38865500D01*
X95642537Y38865500D01*
X95642533Y38865500D01*
X95430245Y38831876D01*
X95225830Y38765458D01*
X95034322Y38667880D01*
X95034321Y38667879D01*
X95034319Y38667878D01*
X94860443Y38541550D01*
X94860434Y38541542D01*
X94708457Y38389565D01*
X94708449Y38389556D01*
X94583436Y38217490D01*
X94583429Y38217481D01*
X94582119Y38215677D01*
X94582117Y38215675D01*
X94484542Y38024170D01*
X94484541Y38024168D01*
X94428386Y37851339D01*
X94418124Y37819755D01*
X94393019Y37661250D01*
X94384500Y37607465D01*
X89360500Y37607465D01*
X89360500Y40168520D01*
X91577000Y40168520D01*
X91577000Y39911478D01*
X91617207Y39657607D01*
X91695020Y39418129D01*
X91696638Y39413148D01*
X91745378Y39317490D01*
X91813333Y39184119D01*
X91889741Y39078952D01*
X91889742Y39078952D01*
X92422870Y39612080D01*
X92481719Y39644213D01*
X92548600Y39639430D01*
X92602278Y39599247D01*
X92605958Y39594047D01*
X92627435Y39561904D01*
X92731904Y39457435D01*
X92764047Y39435958D01*
X92807045Y39384507D01*
X92815400Y39317977D01*
X92786461Y39257492D01*
X92782097Y39252887D01*
X92248952Y38719742D01*
X92248952Y38719741D01*
X92248951Y38719741D01*
X92354119Y38643333D01*
X92468635Y38584985D01*
X92583148Y38526638D01*
X92583150Y38526637D01*
X92583151Y38526637D01*
X92827607Y38447207D01*
X93081478Y38407000D01*
X93081479Y38407000D01*
X93338520Y38407000D01*
X93592391Y38447207D01*
X93766157Y38503668D01*
X93836851Y38526638D01*
X94000589Y38610066D01*
X94065880Y38643333D01*
X94171045Y38719740D01*
X94171044Y38719740D01*
X94171046Y38719741D01*
X93637917Y39252869D01*
X93605785Y39311718D01*
X93610568Y39378599D01*
X93650751Y39432277D01*
X93655951Y39435957D01*
X93688095Y39457435D01*
X93792561Y39561901D01*
X93792563Y39561903D01*
X93814039Y39594045D01*
X93865488Y39637043D01*
X93932018Y39645400D01*
X93992504Y39616462D01*
X93997130Y39612078D01*
X94530257Y39078952D01*
X94606667Y39184121D01*
X94630540Y39230974D01*
X94723360Y39413145D01*
X94737751Y39457435D01*
X94802791Y39657606D01*
X94842957Y39911214D01*
X94842999Y39911474D01*
X94843000Y39911479D01*
X94843000Y40168518D01*
X94842940Y40169121D01*
X94842623Y40170892D01*
X94841364Y40178839D01*
X94802791Y40422393D01*
X94723361Y40666851D01*
X94606667Y40895877D01*
X94530257Y41001046D01*
X94248446Y40719235D01*
X93997131Y40467920D01*
X93938280Y40435786D01*
X93871399Y40440569D01*
X93817721Y40480752D01*
X93814039Y40485955D01*
X93792563Y40518097D01*
X93688097Y40622563D01*
X93655954Y40644040D01*
X93612956Y40695489D01*
X93604598Y40762018D01*
X93633536Y40822505D01*
X93637920Y40827131D01*
X93901289Y41090500D01*
X94171046Y41360257D01*
X94065877Y41436667D01*
X93836851Y41553361D01*
X93592393Y41632791D01*
X93340876Y41672625D01*
X93339121Y41672940D01*
X93338518Y41673000D01*
X93338515Y41673000D01*
X93081485Y41673000D01*
X93081480Y41673000D01*
X93081474Y41672999D01*
X93081214Y41672957D01*
X92827606Y41632791D01*
X92626626Y41567488D01*
X92583145Y41553360D01*
X92354121Y41436667D01*
X92248952Y41360257D01*
X92782078Y40827130D01*
X92814213Y40768279D01*
X92809429Y40701398D01*
X92769246Y40647719D01*
X92764064Y40644052D01*
X92731903Y40622563D01*
X92731901Y40622561D01*
X92627435Y40518095D01*
X92605957Y40485951D01*
X92554507Y40442953D01*
X92487977Y40434597D01*
X92427491Y40463537D01*
X92422886Y40467900D01*
X91889741Y41001046D01*
X91889740Y41001045D01*
X91813333Y40895880D01*
X91785936Y40842109D01*
X91696638Y40666851D01*
X91696637Y40666847D01*
X91617207Y40422391D01*
X91577000Y40168520D01*
X89360500Y40168520D01*
X89360500Y42723789D01*
X89360500Y42723791D01*
X89358970Y42729500D01*
X89322303Y42866345D01*
X89321265Y42868141D01*
X89318719Y42877507D01*
X89319246Y42903746D01*
X89316436Y42929839D01*
X89319910Y42936782D01*
X89320066Y42944546D01*
X89334694Y42966334D01*
X89346437Y42989805D01*
X89355621Y42998668D01*
X89391869Y43030077D01*
X89391881Y43030088D01*
X89395739Y43034086D01*
X89422265Y43061577D01*
X89466664Y43146455D01*
X89485555Y43210791D01*
X89495500Y43279957D01*
X89495500Y45073000D01*
X89489889Y45125186D01*
X89479135Y45174620D01*
X89472183Y45199962D01*
X89424783Y45283202D01*
X89380873Y45333877D01*
X89356803Y45357102D01*
X89323623Y45415365D01*
X89327210Y45482322D01*
X89366427Y45536710D01*
X89368119Y45538000D01*
X89450398Y45599593D01*
X89450399Y45599594D01*
X89450403Y45599597D01*
X89503370Y45670353D01*
X89534924Y45712504D01*
X89534925Y45712505D01*
X89534929Y45712511D01*
X89534930Y45712513D01*
X89569631Y45805552D01*
X89584217Y45844657D01*
X89584218Y45844662D01*
X89584219Y45844665D01*
X89584219Y45844672D01*
X89584705Y45847362D01*
X89584900Y45850996D01*
X89590499Y45903073D01*
X89590499Y45903078D01*
X89590500Y45903085D01*
X89590500Y45932158D01*
X92042000Y45932158D01*
X92042000Y45567841D01*
X92050423Y45482322D01*
X92077706Y45205289D01*
X92077706Y45205287D01*
X92077707Y45205277D01*
X92077708Y45205276D01*
X92091289Y45136998D01*
X92148784Y44847947D01*
X92254541Y44499310D01*
X92254547Y44499298D01*
X92393965Y44162710D01*
X92565701Y43841414D01*
X92768117Y43538477D01*
X92953445Y43312656D01*
X93615782Y43974993D01*
X93674633Y44007127D01*
X93741514Y44002344D01*
X93795192Y43962161D01*
X93809869Y43936388D01*
X93830445Y43886713D01*
X93830448Y43886709D01*
X93886709Y43830448D01*
X93886713Y43830445D01*
X93936388Y43809869D01*
X93988597Y43767795D01*
X94009771Y43704174D01*
X93993188Y43639204D01*
X93974993Y43615782D01*
X93312656Y42953445D01*
X93538477Y42768117D01*
X93841414Y42565701D01*
X94162710Y42393965D01*
X94499298Y42254547D01*
X94499310Y42254541D01*
X94847947Y42148784D01*
X95063107Y42105987D01*
X95205276Y42077708D01*
X95205279Y42077707D01*
X95205288Y42077706D01*
X95471651Y42051473D01*
X95567841Y42042000D01*
X95932156Y42042000D01*
X95932159Y42042000D01*
X96049018Y42053509D01*
X96294709Y42077706D01*
X96294711Y42077706D01*
X96294719Y42077707D01*
X96294723Y42077708D01*
X96469686Y42112510D01*
X96652051Y42148784D01*
X97000688Y42254541D01*
X97000701Y42254547D01*
X97337288Y42393965D01*
X97658584Y42565701D01*
X97961515Y42768113D01*
X98027171Y42821996D01*
X98187342Y42953445D01*
X97525003Y43615783D01*
X97492870Y43674633D01*
X97497653Y43741514D01*
X97537836Y43795192D01*
X97563611Y43809870D01*
X97613288Y43830446D01*
X97613289Y43830447D01*
X97613291Y43830448D01*
X97669552Y43886709D01*
X97690127Y43936383D01*
X97732199Y43988593D01*
X97795820Y44009769D01*
X97860789Y43993188D01*
X97884215Y43974991D01*
X98546551Y43312655D01*
X98546552Y43312655D01*
X98731885Y43538483D01*
X98934297Y43841414D01*
X99106033Y44162710D01*
X99108868Y44169553D01*
X99245452Y44499298D01*
X99245452Y44499297D01*
X99245455Y44499304D01*
X99250154Y44514795D01*
X99351214Y44847945D01*
X99422291Y45205276D01*
X99458000Y45567841D01*
X99458000Y45932158D01*
X99422291Y46294723D01*
X99351214Y46652054D01*
X99245457Y47000689D01*
X99245452Y47000701D01*
X99106034Y47337287D01*
X98934295Y47658588D01*
X98731885Y47961516D01*
X98546552Y48187342D01*
X97884216Y47525006D01*
X97825365Y47492872D01*
X97758484Y47497655D01*
X97704806Y47537838D01*
X97690131Y47563607D01*
X97669552Y47613291D01*
X97613291Y47669552D01*
X97563611Y47690129D01*
X97511404Y47732200D01*
X97490228Y47795820D01*
X97506809Y47860790D01*
X97525006Y47884216D01*
X98187342Y48546552D01*
X98160703Y48568414D01*
X97961516Y48731885D01*
X97658588Y48934295D01*
X97337287Y49106034D01*
X97000701Y49245452D01*
X97000689Y49245457D01*
X96652054Y49351214D01*
X96294723Y49422291D01*
X95932159Y49458000D01*
X95932156Y49458000D01*
X95567844Y49458000D01*
X95567841Y49458000D01*
X95205276Y49422291D01*
X94847945Y49351214D01*
X94499310Y49245457D01*
X94499298Y49245452D01*
X94323111Y49172473D01*
X94162710Y49106033D01*
X93841414Y48934297D01*
X93538483Y48731885D01*
X93312655Y48546552D01*
X93312655Y48546551D01*
X93974991Y47884215D01*
X94007126Y47825364D01*
X94002342Y47758483D01*
X93962159Y47704804D01*
X93936385Y47690128D01*
X93886709Y47669552D01*
X93830448Y47613291D01*
X93830447Y47613289D01*
X93830446Y47613288D01*
X93809870Y47563611D01*
X93767797Y47511401D01*
X93704176Y47490226D01*
X93639206Y47506808D01*
X93615784Y47525002D01*
X92953445Y48187342D01*
X92862997Y48077131D01*
X92768113Y47961515D01*
X92565701Y47658584D01*
X92393965Y47337288D01*
X92254547Y47000701D01*
X92254541Y47000688D01*
X92148784Y46652051D01*
X92123175Y46523301D01*
X92080755Y46310038D01*
X92077706Y46294711D01*
X92077706Y46294709D01*
X92057811Y46092699D01*
X92042000Y45932158D01*
X89590500Y45932158D01*
X89590499Y46310036D01*
X89590499Y46708618D01*
X89590499Y47496909D01*
X89590499Y47496918D01*
X89584220Y47555332D01*
X89582995Y47558618D01*
X89534929Y47687489D01*
X89450403Y47800403D01*
X89365882Y47863673D01*
X89325700Y47917350D01*
X89320916Y47984231D01*
X89353051Y48043082D01*
X89359267Y48048870D01*
X89367944Y48056389D01*
X89391877Y48077127D01*
X89422265Y48108620D01*
X89466664Y48193498D01*
X89485555Y48257834D01*
X89494249Y48318304D01*
X89495500Y48326999D01*
X89495500Y49805500D01*
X89514391Y49869836D01*
X89565066Y49913746D01*
X89614500Y49924500D01*
X96245629Y49924500D01*
X96248518Y49924464D01*
G37*
G04 #@! TD.AperFunction*
G04 #@! TA.AperFunction,Conductor*
G36*
X10680449Y28178757D02*
G01*
X10974991Y27884215D01*
X11007125Y27825364D01*
X11002342Y27758483D01*
X10962159Y27704805D01*
X10936387Y27690129D01*
X10886709Y27669552D01*
X10830448Y27613291D01*
X10815533Y27577283D01*
X10809870Y27563611D01*
X10767797Y27511401D01*
X10704176Y27490226D01*
X10639206Y27506808D01*
X10615786Y27525000D01*
X10321237Y27819549D01*
X10289105Y27878398D01*
X10293888Y27945279D01*
X10322932Y27986809D01*
X10321597Y27988145D01*
X10511855Y28178403D01*
X10513416Y28176841D01*
X10561898Y28208529D01*
X10628949Y28209046D01*
X10680449Y28178757D01*
G37*
G04 #@! TD.AperFunction*
G04 #@! TA.AperFunction,Conductor*
G36*
X34147421Y49919678D02*
G01*
X34161817Y49915450D01*
X34176199Y49906210D01*
X34192570Y49901413D01*
X34218179Y49879245D01*
X34219317Y49877933D01*
X34245702Y49825258D01*
X34247280Y49818005D01*
X34250000Y49792707D01*
X34250000Y44757657D01*
X34245177Y44724122D01*
X34242118Y44713707D01*
X34232869Y44699318D01*
X34228050Y44682905D01*
X34215114Y44671696D01*
X34205862Y44657302D01*
X34190302Y44650197D01*
X34177375Y44638996D01*
X34160435Y44636560D01*
X34144867Y44629452D01*
X34127934Y44631887D01*
X34111005Y44629453D01*
X34078509Y44638995D01*
X34071807Y44642055D01*
X34037102Y44666151D01*
X33807064Y44896190D01*
X33573202Y45130050D01*
X33573199Y45130056D01*
X33556464Y45146791D01*
X33556464Y45146792D01*
X33496792Y45206464D01*
X33452942Y45231781D01*
X33423713Y45248657D01*
X33423704Y45248661D01*
X33342199Y45270499D01*
X33342195Y45270500D01*
X33342192Y45270500D01*
X32760286Y45270500D01*
X32726763Y45275319D01*
X32719544Y45277438D01*
X32702534Y45282433D01*
X32651914Y45312467D01*
X32581875Y45382508D01*
X32458625Y45453666D01*
X32456919Y45454123D01*
X32413418Y45465779D01*
X32321158Y45490500D01*
X32178843Y45490500D01*
X32178842Y45490500D01*
X32162977Y45486249D01*
X32043065Y45454119D01*
X32041485Y45453721D01*
X32041373Y45453665D01*
X31979750Y45418087D01*
X31918125Y45382508D01*
X31918124Y45382507D01*
X31817496Y45281880D01*
X31817491Y45281874D01*
X31746334Y45158627D01*
X31746334Y45158626D01*
X31746331Y45158618D01*
X31746329Y45158611D01*
X31746328Y45158608D01*
X31709500Y45021162D01*
X31709500Y44878836D01*
X31746328Y44741390D01*
X31746334Y44741373D01*
X31746337Y44741365D01*
X31810973Y44629411D01*
X31810980Y44629401D01*
X31817490Y44618127D01*
X31817491Y44618125D01*
X31817492Y44618125D01*
X31831620Y44603995D01*
X31831628Y44603987D01*
X31849876Y44585739D01*
X31870167Y44558634D01*
X31875209Y44549402D01*
X31873003Y44548197D01*
X31873836Y44545687D01*
X31882377Y44534707D01*
X31884197Y44514501D01*
X31890592Y44495253D01*
X31887145Y44481778D01*
X31888393Y44467925D01*
X31879001Y44449943D01*
X31873974Y44430293D01*
X31863218Y44419726D01*
X31857350Y44408492D01*
X31835210Y44392212D01*
X31834066Y44391088D01*
X31834599Y44390260D01*
X31833250Y44389393D01*
X31831952Y44389011D01*
X31830614Y44387697D01*
X31827859Y44386126D01*
X31826493Y44385802D01*
X31824945Y44384664D01*
X31823539Y44383960D01*
X31823027Y44384981D01*
X31798175Y44379092D01*
X31768914Y44370500D01*
X31749160Y44370500D01*
X31715636Y44375320D01*
X31691410Y44382433D01*
X31640790Y44412465D01*
X31426476Y44626780D01*
X30316259Y45736994D01*
X30316257Y45736998D01*
X30306464Y45746790D01*
X30306464Y45746792D01*
X30246792Y45806464D01*
X30202942Y45831781D01*
X30173713Y45848657D01*
X30173704Y45848661D01*
X30092199Y45870499D01*
X30092195Y45870500D01*
X30092192Y45870500D01*
X24549159Y45870500D01*
X24515635Y45875320D01*
X24491409Y45882433D01*
X24440789Y45912465D01*
X23987448Y46365805D01*
X23967152Y46392921D01*
X23955054Y46415079D01*
X23940500Y46472105D01*
X23940500Y46571155D01*
X23940369Y46571961D01*
X23939585Y46574568D01*
X23928138Y46617291D01*
X23903666Y46708625D01*
X23832508Y46831875D01*
X23731875Y46932508D01*
X23608625Y47003666D01*
X23606919Y47004123D01*
X23572166Y47013435D01*
X23471158Y47040500D01*
X23328842Y47040500D01*
X23283019Y47028222D01*
X23193064Y47004119D01*
X23191485Y47003721D01*
X23191375Y47003666D01*
X23191373Y47003665D01*
X23165604Y46988787D01*
X23068125Y46932508D01*
X23068119Y46932502D01*
X22967496Y46831880D01*
X22967491Y46831874D01*
X22896334Y46708627D01*
X22896334Y46708626D01*
X22896331Y46708618D01*
X22896329Y46708611D01*
X22896328Y46708608D01*
X22859500Y46571162D01*
X22859500Y46428836D01*
X22896328Y46291390D01*
X22896334Y46291373D01*
X22896334Y46291371D01*
X22967488Y46168129D01*
X23068129Y46067488D01*
X23191372Y45996334D01*
X23191390Y45996328D01*
X23328836Y45959500D01*
X23328839Y45959500D01*
X23420840Y45959500D01*
X23420842Y45959499D01*
X23420844Y45959500D01*
X23454370Y45954679D01*
X23478595Y45947565D01*
X23529211Y45917532D01*
X24153204Y45293539D01*
X24153208Y45293536D01*
X24153210Y45293533D01*
X24226286Y45251341D01*
X24226289Y45251340D01*
X24226291Y45251339D01*
X24226295Y45251338D01*
X24307800Y45229500D01*
X24307805Y45229500D01*
X24307806Y45229500D01*
X24392195Y45229500D01*
X29850841Y45229500D01*
X29850843Y45229499D01*
X29850845Y45229500D01*
X29884371Y45224679D01*
X29908596Y45217565D01*
X29959212Y45187532D01*
X31353205Y43793537D01*
X31353219Y43793528D01*
X31426286Y43751341D01*
X31426289Y43751340D01*
X31426291Y43751339D01*
X31426295Y43751338D01*
X31507800Y43729500D01*
X31507805Y43729500D01*
X31592194Y43729500D01*
X33100841Y43729500D01*
X33100843Y43729499D01*
X33100845Y43729500D01*
X33134371Y43724679D01*
X33158596Y43717565D01*
X33209212Y43687532D01*
X35172378Y41724364D01*
X35192679Y41697244D01*
X35197880Y41687718D01*
X35212129Y41622197D01*
X35188694Y41559373D01*
X35135084Y41519219D01*
X35134527Y41519011D01*
X35081530Y41512028D01*
X35079384Y41512233D01*
X35059937Y41515746D01*
X35042197Y41520500D01*
X35042195Y41520500D01*
X35042194Y41520500D01*
X33255357Y41520500D01*
X33242199Y41520500D01*
X33242195Y41520501D01*
X33157806Y41520501D01*
X33110425Y41507805D01*
X33090206Y41502387D01*
X33076293Y41498660D01*
X33076286Y41498657D01*
X33006951Y41458625D01*
X33003208Y41456464D01*
X33003206Y41456462D01*
X33003202Y41456458D01*
X33003198Y41456455D01*
X32939375Y41392631D01*
X32939375Y41392630D01*
X32464195Y40917450D01*
X32437079Y40897153D01*
X32414922Y40885055D01*
X32357894Y40870500D01*
X22960286Y40870500D01*
X22926763Y40875319D01*
X22919544Y40877438D01*
X22902534Y40882433D01*
X22851914Y40912467D01*
X22781875Y40982508D01*
X22658625Y41053666D01*
X22657438Y41053984D01*
X22602121Y41068806D01*
X22521158Y41090500D01*
X22378842Y41090500D01*
X22338532Y41079699D01*
X22243049Y41054115D01*
X22241485Y41053721D01*
X22241373Y41053665D01*
X22220086Y41041375D01*
X22118125Y40982508D01*
X22118124Y40982507D01*
X22017496Y40881880D01*
X22017491Y40881874D01*
X21946334Y40758627D01*
X21946334Y40758626D01*
X21946331Y40758618D01*
X21946329Y40758611D01*
X21946328Y40758608D01*
X21909500Y40621162D01*
X21909500Y40478836D01*
X21946328Y40341390D01*
X21946334Y40341373D01*
X21946334Y40341371D01*
X22017488Y40218129D01*
X22118129Y40117488D01*
X22241372Y40046334D01*
X22241390Y40046328D01*
X22378836Y40009500D01*
X22521160Y40009500D01*
X22521162Y40009500D01*
X22658608Y40046328D01*
X22658611Y40046329D01*
X22658618Y40046331D01*
X22658626Y40046334D01*
X22658627Y40046334D01*
X22781874Y40117491D01*
X22846931Y40182548D01*
X22874047Y40202846D01*
X22896203Y40214944D01*
X22953233Y40229500D01*
X32592197Y40229500D01*
X32592199Y40229500D01*
X32673704Y40251338D01*
X32673705Y40251338D01*
X32673707Y40251339D01*
X32673709Y40251340D01*
X32673712Y40251341D01*
X32695294Y40263802D01*
X32746786Y40293532D01*
X32746789Y40293534D01*
X32746792Y40293536D01*
X32806464Y40353208D01*
X32813247Y40359991D01*
X32813249Y40359994D01*
X33285802Y40832547D01*
X33312918Y40852845D01*
X33335076Y40864944D01*
X33392106Y40879500D01*
X33971905Y40879500D01*
X33971905Y40879499D01*
X33971906Y40879500D01*
X34005432Y40874679D01*
X34018213Y40870926D01*
X34074621Y40834674D01*
X34102475Y40773681D01*
X34102475Y40773679D01*
X34103190Y40768705D01*
X34096166Y40712799D01*
X34097587Y40712317D01*
X34096328Y40708610D01*
X34059500Y40571162D01*
X34059500Y40428836D01*
X34096328Y40291390D01*
X34096334Y40291373D01*
X34096337Y40291365D01*
X34160971Y40179415D01*
X34160977Y40179407D01*
X34167490Y40168127D01*
X34167491Y40168125D01*
X34167492Y40168125D01*
X34181629Y40153987D01*
X34181637Y40153978D01*
X34232548Y40103067D01*
X34252845Y40075954D01*
X34264943Y40053799D01*
X34279500Y39996767D01*
X34279500Y39607800D01*
X34291798Y39561901D01*
X34301339Y39526291D01*
X34301340Y39526289D01*
X34301341Y39526286D01*
X34343533Y39453210D01*
X34343536Y39453208D01*
X35903208Y37893536D01*
X35903210Y37893533D01*
X35976286Y37851341D01*
X35976289Y37851340D01*
X35976291Y37851339D01*
X35976295Y37851338D01*
X36057800Y37829500D01*
X36057805Y37829500D01*
X36223388Y37829500D01*
X36223392Y37829499D01*
X36223395Y37829500D01*
X36256921Y37824678D01*
X36271317Y37820450D01*
X36327679Y37784245D01*
X36327721Y37784195D01*
X36327723Y37784195D01*
X36327723Y37784193D01*
X36328817Y37782933D01*
X36355202Y37730258D01*
X36356780Y37723005D01*
X36359500Y37697707D01*
X36359500Y37571836D01*
X36396328Y37434390D01*
X36396334Y37434373D01*
X36396334Y37434371D01*
X36467488Y37311129D01*
X36568129Y37210488D01*
X36691372Y37139334D01*
X36691390Y37139328D01*
X36828836Y37102500D01*
X36885500Y37102500D01*
X36893835Y37100052D01*
X36902435Y37101289D01*
X36925503Y37090753D01*
X36949836Y37083609D01*
X36955525Y37077043D01*
X36963428Y37073434D01*
X36977139Y37052099D01*
X36993746Y37032934D01*
X36995941Y37022843D01*
X36999680Y37017026D01*
X37004500Y36983500D01*
X37004500Y36751980D01*
X36997140Y36711393D01*
X36997214Y36711370D01*
X36997034Y36710809D01*
X36996923Y36710196D01*
X36996334Y36708626D01*
X36996328Y36708608D01*
X36959500Y36571162D01*
X36959500Y36428836D01*
X36996328Y36291390D01*
X36996334Y36291372D01*
X36996923Y36289803D01*
X36997034Y36289189D01*
X36997214Y36288629D01*
X36997140Y36288605D01*
X36997925Y36284275D01*
X36999680Y36281545D01*
X37004500Y36248019D01*
X37004500Y36189500D01*
X36985609Y36125164D01*
X36934934Y36081254D01*
X36885500Y36070500D01*
X25951373Y36070500D01*
X25951309Y36070501D01*
X25949484Y36070501D01*
X25942195Y36070501D01*
X25857806Y36070501D01*
X25776292Y36048660D01*
X25765095Y36042195D01*
X25703208Y36006464D01*
X25643536Y35946792D01*
X25643534Y35946789D01*
X25634403Y35937658D01*
X25017196Y35320451D01*
X24990078Y35300152D01*
X24967921Y35288054D01*
X24910893Y35273499D01*
X23948296Y35273499D01*
X23914772Y35278319D01*
X23900375Y35282546D01*
X23843968Y35318794D01*
X23838395Y35325226D01*
X23813383Y35372358D01*
X23809213Y35387920D01*
X23803666Y35408625D01*
X23732508Y35531875D01*
X23631875Y35632508D01*
X23508625Y35703666D01*
X23506919Y35704123D01*
X23421589Y35726987D01*
X23371158Y35740500D01*
X23228842Y35740500D01*
X23214026Y35736530D01*
X23100646Y35706150D01*
X23093079Y35704123D01*
X23091485Y35703721D01*
X23091371Y35703664D01*
X23091350Y35703652D01*
X23054731Y35682510D01*
X23054730Y35682509D01*
X22968125Y35632508D01*
X22968119Y35632502D01*
X22867496Y35531880D01*
X22867491Y35531874D01*
X22796334Y35408627D01*
X22796334Y35408626D01*
X22796331Y35408618D01*
X22796329Y35408611D01*
X22796328Y35408608D01*
X22759500Y35271162D01*
X22759500Y35271160D01*
X22759500Y35128839D01*
X22769668Y35090892D01*
X22797192Y34988165D01*
X22800563Y34970094D01*
X22802222Y34954671D01*
X22790321Y34888683D01*
X22748243Y34841836D01*
X22744435Y34839389D01*
X22680102Y34820500D01*
X22610286Y34820500D01*
X22576763Y34825319D01*
X22569544Y34827438D01*
X22552534Y34832433D01*
X22501914Y34862467D01*
X22431875Y34932508D01*
X22308625Y35003666D01*
X22306919Y35004123D01*
X22279568Y35011451D01*
X22171158Y35040500D01*
X22028842Y35040500D01*
X21983019Y35028222D01*
X21893064Y35004119D01*
X21891485Y35003721D01*
X21891373Y35003665D01*
X21829750Y34968087D01*
X21768125Y34932508D01*
X21768124Y34932507D01*
X21667496Y34831880D01*
X21667491Y34831874D01*
X21596334Y34708627D01*
X21596334Y34708626D01*
X21596331Y34708618D01*
X21596329Y34708611D01*
X21596328Y34708608D01*
X21559500Y34571162D01*
X21559500Y34428836D01*
X21596328Y34291390D01*
X21596334Y34291373D01*
X21596334Y34291371D01*
X21667488Y34168129D01*
X21768129Y34067488D01*
X21891372Y33996334D01*
X21891390Y33996328D01*
X22028836Y33959500D01*
X22171160Y33959500D01*
X22171162Y33959500D01*
X22308608Y33996328D01*
X22308611Y33996329D01*
X22308618Y33996331D01*
X22308626Y33996334D01*
X22308627Y33996334D01*
X22431874Y34067491D01*
X22496932Y34132549D01*
X22521704Y34151533D01*
X22522859Y34152198D01*
X22534875Y34158759D01*
X22540203Y34162183D01*
X22542716Y34163630D01*
X22572599Y34170840D01*
X22602090Y34179500D01*
X22650841Y34179500D01*
X22684369Y34174679D01*
X22708592Y34167566D01*
X22759210Y34137532D01*
X22878374Y34018366D01*
X22878390Y34018354D01*
X22903208Y33993536D01*
X22903210Y33993533D01*
X22976286Y33951341D01*
X22976289Y33951340D01*
X22976291Y33951339D01*
X22976295Y33951338D01*
X23057800Y33929500D01*
X23057805Y33929500D01*
X25321905Y33929500D01*
X25321905Y33929499D01*
X25321906Y33929500D01*
X25355432Y33924679D01*
X25368213Y33920926D01*
X25424621Y33884674D01*
X25452475Y33823681D01*
X25452475Y33823679D01*
X25453190Y33818705D01*
X25446166Y33762799D01*
X25447587Y33762317D01*
X25446328Y33758610D01*
X25409500Y33621162D01*
X25409500Y33478836D01*
X25446328Y33341390D01*
X25446334Y33341373D01*
X25446334Y33341371D01*
X25517488Y33218129D01*
X25618129Y33117488D01*
X25741372Y33046334D01*
X25741390Y33046328D01*
X25878836Y33009500D01*
X26021160Y33009500D01*
X26021162Y33009500D01*
X26158608Y33046328D01*
X26158611Y33046329D01*
X26158618Y33046331D01*
X26158626Y33046334D01*
X26158627Y33046334D01*
X26281874Y33117491D01*
X26382506Y33218123D01*
X26382509Y33218127D01*
X26439309Y33316508D01*
X26445367Y33327000D01*
X26453665Y33341373D01*
X26453668Y33341381D01*
X26478222Y33433019D01*
X26490500Y33478842D01*
X26490500Y33621158D01*
X26455505Y33751760D01*
X26454605Y33755343D01*
X26451613Y33768097D01*
X26451808Y33771629D01*
X26451544Y33773472D01*
X26449150Y33782555D01*
X26447789Y33795214D01*
X26459694Y33861201D01*
X26505374Y33910270D01*
X26509696Y33912835D01*
X26570429Y33929500D01*
X32100841Y33929500D01*
X32100843Y33929499D01*
X32100845Y33929500D01*
X32134371Y33924679D01*
X32158596Y33917565D01*
X32209212Y33887532D01*
X34703998Y31392745D01*
X34724299Y31365625D01*
X34729500Y31356099D01*
X34743749Y31290578D01*
X34720314Y31227754D01*
X34666638Y31187576D01*
X34659742Y31185004D01*
X34618157Y31177501D01*
X30927424Y31177501D01*
X30912385Y31181566D01*
X30898849Y31180983D01*
X30893902Y31182320D01*
X30883486Y31185378D01*
X30872733Y31192287D01*
X30867461Y31193713D01*
X30858950Y31198678D01*
X30853014Y31204959D01*
X30827077Y31221627D01*
X30817547Y31242491D01*
X30812897Y31247413D01*
X30811215Y31256356D01*
X30799220Y31282619D01*
X30802276Y31303884D01*
X30800504Y31313310D01*
X30805348Y31325255D01*
X30808760Y31348989D01*
X30808778Y31349030D01*
X30809023Y31349566D01*
X30822138Y31366654D01*
X30825704Y31375447D01*
X30832642Y31380340D01*
X30841474Y31391848D01*
X30843138Y31393222D01*
X30859412Y31404522D01*
X30881864Y31417485D01*
X30881874Y31417491D01*
X30881880Y31417496D01*
X30982502Y31518119D01*
X30982508Y31518125D01*
X31044683Y31625816D01*
X31044684Y31625817D01*
X31053662Y31641367D01*
X31053664Y31641372D01*
X31053665Y31641373D01*
X31053668Y31641381D01*
X31081789Y31746331D01*
X31090500Y31778842D01*
X31090500Y31921158D01*
X31058288Y32041375D01*
X31055152Y32053081D01*
X31055152Y32053082D01*
X31054121Y32057835D01*
X31053666Y32058622D01*
X31053666Y32058625D01*
X30982508Y32181875D01*
X30881875Y32282508D01*
X30758625Y32353666D01*
X30756919Y32354123D01*
X30729568Y32361451D01*
X30621158Y32390500D01*
X30478842Y32390500D01*
X30447295Y32382047D01*
X30343049Y32354115D01*
X30341485Y32353721D01*
X30341373Y32353665D01*
X30323829Y32343536D01*
X30218125Y32282508D01*
X30218124Y32282507D01*
X30117496Y32181880D01*
X30117492Y32181875D01*
X30117490Y32181872D01*
X30046334Y32058626D01*
X30046331Y32058618D01*
X30046329Y32058611D01*
X30046328Y32058608D01*
X30009500Y31921162D01*
X30009500Y31778836D01*
X30046328Y31641390D01*
X30046334Y31641373D01*
X30046334Y31641371D01*
X30117488Y31518129D01*
X30218130Y31417487D01*
X30234370Y31408112D01*
X30245368Y31397060D01*
X30257407Y31390780D01*
X30260994Y31387175D01*
X30268483Y31379321D01*
X30274353Y31367934D01*
X30278215Y31364054D01*
X30283098Y31355501D01*
X30285091Y31347106D01*
X30299209Y31319723D01*
X30297025Y31296851D01*
X30298590Y31290263D01*
X30295578Y31281695D01*
X30292836Y31252974D01*
X30279536Y31236061D01*
X30276353Y31227006D01*
X30266196Y31219097D01*
X30251388Y31200267D01*
X30251317Y31200216D01*
X30250836Y31199874D01*
X30230929Y31191638D01*
X30223446Y31185812D01*
X30214994Y31185046D01*
X30201595Y31179503D01*
X30200043Y31179242D01*
X30199470Y31179146D01*
X30179754Y31177501D01*
X29444372Y31177501D01*
X29444308Y31177502D01*
X29442483Y31177502D01*
X29435194Y31177502D01*
X29350805Y31177502D01*
X29269291Y31155661D01*
X29251542Y31145413D01*
X29196207Y31113465D01*
X29136535Y31053793D01*
X29136533Y31053790D01*
X29127654Y31044911D01*
X28809994Y30727251D01*
X28809988Y30727246D01*
X28743538Y30660796D01*
X28743535Y30660792D01*
X28743534Y30660791D01*
X28701341Y30587714D01*
X28701340Y30587711D01*
X28701338Y30587706D01*
X28679500Y30506201D01*
X28679500Y30506198D01*
X28679500Y30260285D01*
X28679499Y30260283D01*
X28679500Y30260283D01*
X28674679Y30226757D01*
X28667566Y30202534D01*
X28637533Y30151916D01*
X28567491Y30081874D01*
X28496334Y29958627D01*
X28496334Y29958625D01*
X28496329Y29958613D01*
X28496324Y29958598D01*
X28479345Y29895227D01*
X28479345Y29895225D01*
X28466011Y29864089D01*
X28458204Y29851281D01*
X28408589Y29806178D01*
X28400934Y29802459D01*
X28348941Y29790500D01*
X28278842Y29790500D01*
X28246653Y29781875D01*
X28143049Y29754115D01*
X28141485Y29753721D01*
X28141376Y29753666D01*
X28141375Y29753666D01*
X28141373Y29753665D01*
X28128670Y29746331D01*
X28018125Y29682508D01*
X28018124Y29682507D01*
X27917496Y29581880D01*
X27917491Y29581874D01*
X27846334Y29458627D01*
X27846334Y29458626D01*
X27846331Y29458618D01*
X27846329Y29458611D01*
X27846328Y29458608D01*
X27809500Y29321162D01*
X27809500Y29178836D01*
X27846328Y29041390D01*
X27846334Y29041372D01*
X27846334Y29041371D01*
X27860124Y29017490D01*
X27860127Y29017485D01*
X27868018Y29003817D01*
X27880606Y28972372D01*
X27883746Y28959428D01*
X27882931Y28942336D01*
X27883825Y28938654D01*
X27882585Y28935073D01*
X27880555Y28892451D01*
X27841692Y28837858D01*
X27840467Y28836894D01*
X27789389Y28813559D01*
X27787624Y28813219D01*
X27784666Y28812649D01*
X27762152Y28810500D01*
X25165728Y28810500D01*
X25132204Y28815320D01*
X25107978Y28822433D01*
X25057358Y28852465D01*
X23906156Y30003668D01*
X22737904Y31171918D01*
X22717610Y31199030D01*
X22712406Y31208561D01*
X22708767Y31225297D01*
X22700564Y31240335D01*
X22701790Y31257382D01*
X22698159Y31274081D01*
X22704145Y31290128D01*
X22705375Y31307215D01*
X22715622Y31320892D01*
X22721596Y31336904D01*
X22735308Y31347167D01*
X22745580Y31360877D01*
X22775246Y31377060D01*
X22775277Y31377083D01*
X22775314Y31377097D01*
X22775867Y31377303D01*
X22828714Y31384251D01*
X22830862Y31384046D01*
X22842122Y31382014D01*
X22842751Y31382059D01*
X22843182Y31381823D01*
X22850355Y31380529D01*
X22928836Y31359500D01*
X23071160Y31359500D01*
X23071162Y31359500D01*
X23208608Y31396328D01*
X23208611Y31396329D01*
X23208618Y31396331D01*
X23208626Y31396334D01*
X23208627Y31396334D01*
X23331874Y31467491D01*
X23331880Y31467496D01*
X23432502Y31568119D01*
X23432508Y31568125D01*
X23493475Y31673724D01*
X23503665Y31691373D01*
X23503668Y31691381D01*
X23533755Y31803668D01*
X23536981Y31815707D01*
X23540499Y31828837D01*
X23540500Y31828843D01*
X23540500Y31971156D01*
X23540499Y31971161D01*
X23540499Y31971162D01*
X24009500Y31971162D01*
X24009500Y31828836D01*
X24046328Y31691390D01*
X24046334Y31691373D01*
X24046334Y31691371D01*
X24117488Y31568129D01*
X24218129Y31467488D01*
X24341372Y31396334D01*
X24341390Y31396328D01*
X24478836Y31359500D01*
X24621160Y31359500D01*
X24621162Y31359500D01*
X24758608Y31396328D01*
X24758611Y31396329D01*
X24758618Y31396331D01*
X24758626Y31396334D01*
X24758627Y31396334D01*
X24881874Y31467491D01*
X24881880Y31467496D01*
X24982502Y31568119D01*
X24982508Y31568125D01*
X25043475Y31673724D01*
X25053665Y31691373D01*
X25053668Y31691381D01*
X25083755Y31803668D01*
X25086981Y31815707D01*
X25090499Y31828837D01*
X25090500Y31828843D01*
X25090500Y31971157D01*
X25090499Y31971160D01*
X25090498Y31971162D01*
X25053666Y32108625D01*
X24982508Y32231875D01*
X24881875Y32332508D01*
X24758625Y32403666D01*
X24756919Y32404123D01*
X24693336Y32421160D01*
X24621158Y32440500D01*
X24478842Y32440500D01*
X24455685Y32434295D01*
X24343049Y32404115D01*
X24341485Y32403721D01*
X24341373Y32403665D01*
X24279819Y32368127D01*
X24218125Y32332508D01*
X24218124Y32332507D01*
X24117496Y32231880D01*
X24117491Y32231874D01*
X24046334Y32108627D01*
X24046334Y32108626D01*
X24046331Y32108618D01*
X24046329Y32108611D01*
X24046328Y32108608D01*
X24009500Y31971162D01*
X23540499Y31971162D01*
X23503668Y32108618D01*
X23503667Y32108619D01*
X23503666Y32108625D01*
X23432508Y32231875D01*
X23331875Y32332508D01*
X23208625Y32403666D01*
X23206919Y32404123D01*
X23143336Y32421160D01*
X23071158Y32440500D01*
X22928842Y32440500D01*
X22905685Y32434295D01*
X22793049Y32404115D01*
X22791485Y32403721D01*
X22791373Y32403665D01*
X22729819Y32368127D01*
X22668125Y32332508D01*
X22668124Y32332507D01*
X22567496Y32231880D01*
X22567491Y32231874D01*
X22496334Y32108627D01*
X22496334Y32108626D01*
X22496331Y32108618D01*
X22496329Y32108611D01*
X22496328Y32108608D01*
X22459500Y31971162D01*
X22459500Y31828833D01*
X22478672Y31757283D01*
X22478630Y31741675D01*
X22482707Y31728687D01*
X22482693Y31723656D01*
X22482435Y31712805D01*
X22478521Y31700561D01*
X22478507Y31695077D01*
X22475908Y31685579D01*
X22471393Y31678260D01*
X22462021Y31648936D01*
X22444260Y31634271D01*
X22440707Y31628510D01*
X22432547Y31624599D01*
X22410316Y31606243D01*
X22388889Y31603677D01*
X22380240Y31599532D01*
X22367531Y31601119D01*
X22343777Y31598275D01*
X22343191Y31598374D01*
X22323180Y31606661D01*
X22313705Y31607845D01*
X22307187Y31613284D01*
X22293846Y31618809D01*
X22292075Y31620070D01*
X22276979Y31632845D01*
X22271356Y31638468D01*
X22271352Y31638472D01*
X22189148Y31685933D01*
X22097461Y31710500D01*
X16293596Y31710500D01*
X16260079Y31715318D01*
X16247866Y31718903D01*
X16247296Y31719070D01*
X16190886Y31755316D01*
X16163027Y31816307D01*
X16162803Y31817862D01*
X16168140Y31873725D01*
X16169712Y31878266D01*
X16179106Y31898836D01*
X16186976Y31912467D01*
X16203666Y31941375D01*
X16206960Y31953666D01*
X16211647Y31971156D01*
X16230462Y32041381D01*
X16230463Y32041385D01*
X16240500Y32078842D01*
X16240500Y32221158D01*
X16203666Y32358625D01*
X16132508Y32481875D01*
X16031875Y32582508D01*
X15908625Y32653666D01*
X15906919Y32654123D01*
X15879568Y32661451D01*
X15771158Y32690500D01*
X15628841Y32690500D01*
X15628839Y32690499D01*
X15622421Y32688779D01*
X15616003Y32687060D01*
X15616000Y32687059D01*
X15493065Y32654119D01*
X15491485Y32653721D01*
X15491376Y32653666D01*
X15491375Y32653666D01*
X15491373Y32653665D01*
X15478670Y32646331D01*
X15368125Y32582508D01*
X15368124Y32582507D01*
X15267496Y32481880D01*
X15267491Y32481874D01*
X15252453Y32455828D01*
X15196334Y32358626D01*
X15196334Y32358625D01*
X15196327Y32358602D01*
X15191737Y32341473D01*
X15187230Y32330949D01*
X15178404Y32310340D01*
X15171471Y32298966D01*
X15121855Y32253863D01*
X15055741Y32242744D01*
X15054188Y32242930D01*
X15001610Y32262539D01*
X14997621Y32265239D01*
X14980191Y32279631D01*
X14507447Y32752376D01*
X14487153Y32779489D01*
X14475055Y32801646D01*
X14460500Y32858674D01*
X14460500Y40597458D01*
X14460367Y40598272D01*
X14459577Y40600906D01*
X14457400Y40609031D01*
X14457399Y40609031D01*
X14435933Y40689148D01*
X14388472Y40771352D01*
X14321352Y40838472D01*
X13987449Y41172374D01*
X13967152Y41199491D01*
X13955054Y41221649D01*
X13940500Y41278675D01*
X13940500Y41321155D01*
X13940368Y41321964D01*
X13939575Y41324604D01*
X13938572Y41328350D01*
X13903666Y41458625D01*
X13832508Y41581875D01*
X13731875Y41682508D01*
X13608625Y41753666D01*
X13606919Y41754123D01*
X13579568Y41761451D01*
X13471158Y41790500D01*
X13328842Y41790500D01*
X13283019Y41778222D01*
X13193064Y41754119D01*
X13191485Y41753721D01*
X13191371Y41753664D01*
X13191350Y41753652D01*
X13154776Y41732536D01*
X13154775Y41732535D01*
X13068125Y41682508D01*
X13068119Y41682502D01*
X12967496Y41581880D01*
X12967491Y41581874D01*
X12959185Y41567488D01*
X12896334Y41458626D01*
X12896331Y41458618D01*
X12896329Y41458611D01*
X12896328Y41458608D01*
X12859500Y41321162D01*
X12859500Y41178836D01*
X12896328Y41041390D01*
X12896334Y41041372D01*
X12967488Y40918129D01*
X13068129Y40817488D01*
X13191372Y40746334D01*
X13191390Y40746328D01*
X13328836Y40709500D01*
X13328839Y40709500D01*
X13328842Y40709500D01*
X13364272Y40709500D01*
X13364274Y40709499D01*
X13364276Y40709500D01*
X13397802Y40704679D01*
X13422027Y40697565D01*
X13472643Y40667532D01*
X13692547Y40447628D01*
X13712845Y40420512D01*
X13724944Y40398354D01*
X13739500Y40341324D01*
X13739500Y34372461D01*
X13734679Y34338935D01*
X13730926Y34326154D01*
X13694674Y34269746D01*
X13633705Y34241895D01*
X13632158Y34241673D01*
X13576286Y34247003D01*
X13569994Y34249181D01*
X13563378Y34251695D01*
X13558635Y34253659D01*
X13558625Y34253666D01*
X13421158Y34290500D01*
X13278842Y34290500D01*
X13233019Y34278222D01*
X13143064Y34254119D01*
X13141485Y34253721D01*
X13141384Y34253670D01*
X13141383Y34253670D01*
X13141376Y34253666D01*
X13141375Y34253666D01*
X13141373Y34253665D01*
X13130011Y34247105D01*
X13018125Y34182508D01*
X13018124Y34182507D01*
X12917496Y34081880D01*
X12917491Y34081874D01*
X12846334Y33958627D01*
X12846334Y33958626D01*
X12846331Y33958618D01*
X12846329Y33958611D01*
X12846328Y33958608D01*
X12809500Y33821162D01*
X12809500Y33678836D01*
X12846328Y33541390D01*
X12846334Y33541373D01*
X12846334Y33541371D01*
X12917489Y33418128D01*
X12942547Y33393068D01*
X12942550Y33393067D01*
X12962847Y33365951D01*
X12974945Y33343794D01*
X12989500Y33286766D01*
X12989500Y33004190D01*
X12984679Y32970663D01*
X12980926Y32957882D01*
X12944674Y32901474D01*
X12883681Y32873620D01*
X12883679Y32873620D01*
X12883678Y32873620D01*
X12875601Y32872459D01*
X12827868Y32875304D01*
X12791376Y32885082D01*
X12771160Y32890499D01*
X12771160Y32890500D01*
X12771158Y32890500D01*
X12628842Y32890500D01*
X12628840Y32890500D01*
X12626664Y32889916D01*
X12626073Y32889758D01*
X12491381Y32853668D01*
X12491378Y32853666D01*
X12491376Y32853666D01*
X12491375Y32853666D01*
X12438816Y32823321D01*
X12368125Y32782508D01*
X12368124Y32782507D01*
X12267496Y32681880D01*
X12267491Y32681874D01*
X12196334Y32558627D01*
X12196334Y32558626D01*
X12196331Y32558618D01*
X12196329Y32558611D01*
X12196328Y32558608D01*
X12159500Y32421162D01*
X12159500Y32278836D01*
X12196328Y32141390D01*
X12196334Y32141373D01*
X12196334Y32141371D01*
X12267488Y32018129D01*
X12368128Y31917489D01*
X12465428Y31861313D01*
X12487755Y31843755D01*
X12492048Y31840379D01*
X12502400Y31829523D01*
X12533128Y31769926D01*
X12533129Y31769917D01*
X12534739Y31761562D01*
X12532834Y31708246D01*
X12509500Y31621162D01*
X12509500Y31621160D01*
X12509500Y31621158D01*
X12509500Y31478842D01*
X12509500Y31478841D01*
X12509499Y31478841D01*
X12512133Y31469014D01*
X12511754Y31453110D01*
X12516153Y31435386D01*
X12515986Y31428367D01*
X12510776Y31412068D01*
X12510536Y31401981D01*
X12504881Y31393626D01*
X12495571Y31364499D01*
X12443866Y31321807D01*
X12404802Y31317135D01*
X12402547Y31316267D01*
X12400711Y31316646D01*
X12377288Y31313845D01*
X12348613Y31327406D01*
X12336881Y31329830D01*
X12330706Y31335876D01*
X12318826Y31341494D01*
X12314609Y31345170D01*
X12293865Y31368756D01*
X12290074Y31374429D01*
X12231885Y31461516D01*
X12046552Y31687342D01*
X11384216Y31025006D01*
X11325365Y30992872D01*
X11258484Y30997655D01*
X11204806Y31037838D01*
X11190131Y31063607D01*
X11169552Y31113291D01*
X11113291Y31169552D01*
X11063611Y31190129D01*
X11011404Y31232200D01*
X10990228Y31295820D01*
X11006809Y31360790D01*
X11025006Y31384216D01*
X11687342Y32046552D01*
X11672640Y32058618D01*
X11461516Y32231885D01*
X11158588Y32434295D01*
X10837287Y32606034D01*
X10500701Y32745452D01*
X10500689Y32745457D01*
X10152054Y32851214D01*
X9794723Y32922291D01*
X9432159Y32958000D01*
X9432156Y32958000D01*
X9067844Y32958000D01*
X9067841Y32958000D01*
X8880662Y32939564D01*
X8814786Y32952058D01*
X8766121Y32998184D01*
X8750000Y33057991D01*
X8750000Y35321162D01*
X9609500Y35321162D01*
X9609500Y35178836D01*
X9646328Y35041390D01*
X9646334Y35041373D01*
X9646334Y35041371D01*
X9717488Y34918129D01*
X9818129Y34817488D01*
X9941372Y34746334D01*
X9941390Y34746328D01*
X10078836Y34709500D01*
X10221160Y34709500D01*
X10221162Y34709500D01*
X10358608Y34746328D01*
X10358611Y34746329D01*
X10358618Y34746331D01*
X10358626Y34746334D01*
X10358627Y34746334D01*
X10481874Y34817491D01*
X10481880Y34817496D01*
X10582502Y34918119D01*
X10582508Y34918125D01*
X10631926Y35003721D01*
X10641839Y35020890D01*
X10648547Y35032509D01*
X10653665Y35041373D01*
X10653668Y35041381D01*
X10690155Y35177557D01*
X10690442Y35178486D01*
X10690500Y35178843D01*
X10690500Y35321155D01*
X10690369Y35321961D01*
X10689585Y35324568D01*
X10677914Y35368127D01*
X10653666Y35458625D01*
X10582508Y35581875D01*
X10481875Y35682508D01*
X10471879Y35688279D01*
X10434052Y35710118D01*
X10358625Y35753666D01*
X10356919Y35754123D01*
X10327115Y35762109D01*
X10221158Y35790500D01*
X10078842Y35790500D01*
X10033019Y35778222D01*
X9943064Y35754119D01*
X9941485Y35753721D01*
X9941376Y35753666D01*
X9941375Y35753666D01*
X9941373Y35753665D01*
X9911694Y35736530D01*
X9818125Y35682508D01*
X9818124Y35682507D01*
X9717496Y35581880D01*
X9717491Y35581874D01*
X9646334Y35458627D01*
X9646334Y35458626D01*
X9646331Y35458618D01*
X9646329Y35458611D01*
X9646328Y35458608D01*
X9609500Y35321162D01*
X8750000Y35321162D01*
X8750000Y36590500D01*
X8768891Y36654836D01*
X8819566Y36698746D01*
X8869000Y36709500D01*
X8921162Y36709500D01*
X9058608Y36746328D01*
X9058611Y36746329D01*
X9058618Y36746331D01*
X9058626Y36746334D01*
X9058627Y36746334D01*
X9181874Y36817491D01*
X9181880Y36817496D01*
X9282507Y36918124D01*
X9282509Y36918127D01*
X9324293Y36990499D01*
X9353664Y37041371D01*
X9353665Y37041373D01*
X9353668Y37041381D01*
X9381789Y37146331D01*
X9390500Y37178842D01*
X9390500Y37321158D01*
X9358288Y37441375D01*
X9355153Y37453077D01*
X9355153Y37453078D01*
X9354122Y37457834D01*
X9353666Y37458623D01*
X9353666Y37458625D01*
X9300515Y37550683D01*
X9287928Y37582124D01*
X9283671Y37599673D01*
X9285135Y37661250D01*
X9287953Y37670849D01*
X9299074Y37696818D01*
X9353665Y37791373D01*
X9353668Y37791381D01*
X9390499Y37928839D01*
X9390500Y37928842D01*
X9390500Y38071157D01*
X9390499Y38071160D01*
X9387458Y38082508D01*
X9353666Y38208625D01*
X9282508Y38331875D01*
X9181875Y38432508D01*
X9058625Y38503666D01*
X8921158Y38540500D01*
X8869000Y38540500D01*
X8804664Y38559391D01*
X8760754Y38610066D01*
X8750000Y38659500D01*
X8750000Y39821162D01*
X9609500Y39821162D01*
X9609500Y39678836D01*
X9646328Y39541390D01*
X9646334Y39541373D01*
X9646334Y39541371D01*
X9717488Y39418129D01*
X9818129Y39317488D01*
X9941372Y39246334D01*
X9941390Y39246328D01*
X10078836Y39209500D01*
X10221160Y39209500D01*
X10221162Y39209500D01*
X10358608Y39246328D01*
X10358611Y39246329D01*
X10358618Y39246331D01*
X10358626Y39246334D01*
X10358627Y39246334D01*
X10481874Y39317491D01*
X10481880Y39317496D01*
X10582507Y39418124D01*
X10582508Y39418125D01*
X10631896Y39503668D01*
X10653664Y39541371D01*
X10653665Y39541373D01*
X10653668Y39541381D01*
X10681789Y39646331D01*
X10690500Y39678842D01*
X10690500Y39821158D01*
X10658288Y39941375D01*
X10655152Y39953081D01*
X10655152Y39953082D01*
X10654121Y39957835D01*
X10653666Y39958622D01*
X10653666Y39958625D01*
X10582508Y40081875D01*
X10481875Y40182508D01*
X10358625Y40253666D01*
X10356919Y40254123D01*
X10329568Y40261451D01*
X10221158Y40290500D01*
X10078842Y40290500D01*
X10033019Y40278222D01*
X9943064Y40254119D01*
X9941485Y40253721D01*
X9941373Y40253665D01*
X9920086Y40241375D01*
X9818125Y40182508D01*
X9818124Y40182507D01*
X9717496Y40081880D01*
X9717491Y40081874D01*
X9646334Y39958627D01*
X9646334Y39958626D01*
X9646331Y39958618D01*
X9646329Y39958611D01*
X9646328Y39958608D01*
X9609500Y39821162D01*
X8750000Y39821162D01*
X8750000Y41942007D01*
X8768891Y42006343D01*
X8819566Y42050253D01*
X8880663Y42060434D01*
X8996344Y42049041D01*
X9067841Y42042000D01*
X9432156Y42042000D01*
X9432159Y42042000D01*
X9549018Y42053509D01*
X9728263Y42071162D01*
X26059500Y42071162D01*
X26059500Y41928836D01*
X26096328Y41791390D01*
X26096334Y41791373D01*
X26096334Y41791371D01*
X26167488Y41668129D01*
X26268129Y41567488D01*
X26391372Y41496334D01*
X26391390Y41496328D01*
X26528836Y41459500D01*
X26671160Y41459500D01*
X26671162Y41459500D01*
X26808608Y41496328D01*
X26808611Y41496329D01*
X26808618Y41496331D01*
X26808626Y41496334D01*
X26808627Y41496334D01*
X26931874Y41567491D01*
X26931880Y41567496D01*
X27032507Y41668124D01*
X27032508Y41668125D01*
X27103665Y41791373D01*
X27103668Y41791381D01*
X27140499Y41928839D01*
X27140500Y41928842D01*
X27140500Y42071157D01*
X27140499Y42071160D01*
X27140498Y42071162D01*
X27103666Y42208625D01*
X27032508Y42331875D01*
X26931875Y42432508D01*
X26808625Y42503666D01*
X26671158Y42540500D01*
X26528842Y42540500D01*
X26483019Y42528222D01*
X26391381Y42503668D01*
X26391377Y42503666D01*
X26391375Y42503666D01*
X26299978Y42450898D01*
X26268125Y42432508D01*
X26268124Y42432507D01*
X26167496Y42331880D01*
X26167491Y42331874D01*
X26096334Y42208627D01*
X26096334Y42208626D01*
X26096331Y42208618D01*
X26096329Y42208611D01*
X26096328Y42208608D01*
X26059500Y42071162D01*
X9728263Y42071162D01*
X9794709Y42077706D01*
X9794711Y42077706D01*
X9794719Y42077707D01*
X9794723Y42077708D01*
X10152054Y42148785D01*
X10152056Y42148785D01*
X10297263Y42192834D01*
X10297276Y42192838D01*
X10500688Y42254541D01*
X10500701Y42254547D01*
X10837288Y42393965D01*
X11158584Y42565701D01*
X11461515Y42768113D01*
X11648005Y42921162D01*
X15259500Y42921162D01*
X15259500Y42778836D01*
X15296328Y42641390D01*
X15296334Y42641373D01*
X15296334Y42641371D01*
X15367488Y42518129D01*
X15468129Y42417488D01*
X15591372Y42346334D01*
X15591390Y42346328D01*
X15728836Y42309500D01*
X15871160Y42309500D01*
X15871162Y42309500D01*
X16008608Y42346328D01*
X16008611Y42346329D01*
X16008618Y42346331D01*
X16008626Y42346334D01*
X16008627Y42346334D01*
X16131874Y42417491D01*
X16131880Y42417496D01*
X16232507Y42518124D01*
X16232508Y42518125D01*
X16303667Y42641376D01*
X16304734Y42645357D01*
X16337619Y42768092D01*
X16337625Y42768114D01*
X16340500Y42778842D01*
X16340500Y42921158D01*
X16303666Y43058625D01*
X16232508Y43181875D01*
X16131875Y43282508D01*
X16008625Y43353666D01*
X15871158Y43390500D01*
X15728842Y43390500D01*
X15683019Y43378222D01*
X15591381Y43353668D01*
X15591377Y43353666D01*
X15591375Y43353666D01*
X15507696Y43305354D01*
X15468125Y43282508D01*
X15468124Y43282507D01*
X15367496Y43181880D01*
X15367491Y43181874D01*
X15296334Y43058627D01*
X15296334Y43058626D01*
X15296331Y43058618D01*
X15296329Y43058611D01*
X15296328Y43058608D01*
X15259500Y42921162D01*
X11648005Y42921162D01*
X11687341Y42953444D01*
X11687342Y42953445D01*
X11025002Y43615784D01*
X10992870Y43674633D01*
X10997653Y43741514D01*
X11037836Y43795192D01*
X11063611Y43809870D01*
X11113288Y43830446D01*
X11113289Y43830447D01*
X11113291Y43830448D01*
X11169552Y43886709D01*
X11190127Y43936383D01*
X11232199Y43988593D01*
X11295820Y44009769D01*
X11360789Y43993188D01*
X11384215Y43974991D01*
X12046551Y43312655D01*
X12046552Y43312655D01*
X12231885Y43538483D01*
X12434297Y43841414D01*
X12606033Y44162710D01*
X12608868Y44169553D01*
X12745452Y44499298D01*
X12745452Y44499297D01*
X12745455Y44499304D01*
X12750154Y44514795D01*
X12851214Y44847945D01*
X12922291Y45205276D01*
X12958000Y45567841D01*
X12958000Y45932158D01*
X12922291Y46294723D01*
X12851214Y46652054D01*
X12745457Y47000689D01*
X12745452Y47000701D01*
X12606032Y47337290D01*
X12587020Y47372861D01*
X12587019Y47372862D01*
X12561202Y47421162D01*
X29659500Y47421162D01*
X29659500Y47278836D01*
X29696328Y47141390D01*
X29696334Y47141373D01*
X29696334Y47141371D01*
X29767488Y47018129D01*
X29868129Y46917488D01*
X29991372Y46846334D01*
X29991390Y46846328D01*
X30128836Y46809500D01*
X30271160Y46809500D01*
X30271162Y46809500D01*
X30408608Y46846328D01*
X30408611Y46846329D01*
X30408618Y46846331D01*
X30408626Y46846334D01*
X30408627Y46846334D01*
X30531874Y46917491D01*
X30531880Y46917496D01*
X30632507Y47018124D01*
X30632508Y47018125D01*
X30703664Y47141371D01*
X30703665Y47141373D01*
X30703666Y47141375D01*
X30709249Y47162209D01*
X30737755Y47268599D01*
X30737756Y47268601D01*
X30740500Y47278840D01*
X30740500Y47421157D01*
X30740499Y47421160D01*
X30740498Y47421162D01*
X30703666Y47558625D01*
X30632508Y47681875D01*
X30531875Y47782508D01*
X30408625Y47853666D01*
X30404594Y47854746D01*
X30371282Y47863672D01*
X30271158Y47890500D01*
X30128842Y47890500D01*
X30108051Y47884929D01*
X29991381Y47853668D01*
X29991378Y47853666D01*
X29991376Y47853666D01*
X29991375Y47853666D01*
X29899124Y47800405D01*
X29868125Y47782508D01*
X29868124Y47782507D01*
X29767496Y47681880D01*
X29767491Y47681874D01*
X29696334Y47558627D01*
X29696334Y47558626D01*
X29696331Y47558618D01*
X29685010Y47516365D01*
X29659500Y47421162D01*
X12561202Y47421162D01*
X12434295Y47658588D01*
X12231885Y47961516D01*
X12046552Y48187342D01*
X11384216Y47525006D01*
X11325365Y47492872D01*
X11258484Y47497655D01*
X11204806Y47537838D01*
X11190131Y47563607D01*
X11169552Y47613291D01*
X11113291Y47669552D01*
X11063611Y47690129D01*
X11011404Y47732200D01*
X10990228Y47795820D01*
X11006809Y47860790D01*
X11025006Y47884216D01*
X11687342Y48546552D01*
X11660703Y48568414D01*
X11461516Y48731885D01*
X11158588Y48934295D01*
X10837287Y49106034D01*
X10500701Y49245452D01*
X10500689Y49245457D01*
X10152054Y49351214D01*
X9794723Y49422291D01*
X9432159Y49458000D01*
X9432156Y49458000D01*
X9067844Y49458000D01*
X9067841Y49458000D01*
X8880662Y49439564D01*
X8814786Y49452058D01*
X8766121Y49498184D01*
X8750000Y49557991D01*
X8750000Y49805500D01*
X8768891Y49869836D01*
X8819566Y49913746D01*
X8869000Y49924500D01*
X34113888Y49924500D01*
X34147421Y49919678D01*
G37*
G04 #@! TD.AperFunction*
G04 #@! TA.AperFunction,Conductor*
G36*
X36949836Y30517610D02*
G01*
X36993746Y30466935D01*
X37004500Y30417501D01*
X37004500Y29119000D01*
X37008619Y29080687D01*
X37008662Y29080262D01*
X37002556Y29047754D01*
X36996670Y29015123D01*
X36996366Y29014797D01*
X36996285Y29014362D01*
X36973591Y28990334D01*
X36950980Y28966047D01*
X36950549Y28965937D01*
X36950245Y28965615D01*
X36918101Y28957654D01*
X36886011Y28949464D01*
X36885397Y28949555D01*
X36885159Y28949497D01*
X36884663Y28949665D01*
X36859456Y28953443D01*
X36858626Y28953665D01*
X36858625Y28953666D01*
X36721158Y28990500D01*
X36578843Y28990500D01*
X36578842Y28990500D01*
X36562977Y28986249D01*
X36443065Y28954119D01*
X36441485Y28953721D01*
X36441376Y28953666D01*
X36441375Y28953666D01*
X36441373Y28953665D01*
X36434154Y28949497D01*
X36428670Y28946331D01*
X36318125Y28882508D01*
X36318123Y28882506D01*
X36299240Y28863624D01*
X36299241Y28863624D01*
X36293068Y28857451D01*
X36267925Y28838630D01*
X36265952Y28837153D01*
X36256281Y28831872D01*
X36243796Y28825055D01*
X36186767Y28810500D01*
X28943596Y28810500D01*
X28910079Y28815318D01*
X28897454Y28819024D01*
X28897296Y28819070D01*
X28840886Y28855316D01*
X28813027Y28916307D01*
X28812592Y28919330D01*
X28822142Y28985698D01*
X28827326Y28995751D01*
X28853663Y29041369D01*
X28853665Y29041373D01*
X28853666Y29041375D01*
X28871874Y29109332D01*
X28875271Y29116256D01*
X28875645Y29120974D01*
X28890631Y29147572D01*
X28892105Y29150576D01*
X28892506Y29151103D01*
X28895926Y29155496D01*
X28896242Y29156015D01*
X28898353Y29158790D01*
X28923219Y29177107D01*
X28943465Y29193508D01*
X28942950Y29194569D01*
X28949064Y29197539D01*
X28951812Y29198171D01*
X28952339Y29198559D01*
X28953943Y29198661D01*
X29001060Y29209500D01*
X29071162Y29209500D01*
X29208608Y29246328D01*
X29208611Y29246329D01*
X29208618Y29246331D01*
X29208626Y29246334D01*
X29208627Y29246334D01*
X29331874Y29317491D01*
X29331880Y29317496D01*
X29432507Y29418124D01*
X29432508Y29418125D01*
X29484758Y29508625D01*
X29503664Y29541371D01*
X29503665Y29541373D01*
X29503668Y29541381D01*
X29540499Y29678839D01*
X29540500Y29678842D01*
X29540500Y29821157D01*
X29540499Y29821160D01*
X29540422Y29821446D01*
X29503666Y29958625D01*
X29432508Y30081875D01*
X29367449Y30146932D01*
X29348466Y30171703D01*
X29347810Y30172841D01*
X29341240Y30184875D01*
X29337812Y30190207D01*
X29336369Y30192716D01*
X29329160Y30222593D01*
X29320500Y30252082D01*
X29320500Y30264843D01*
X29325320Y30298369D01*
X29332433Y30322594D01*
X29362467Y30373214D01*
X29478801Y30489548D01*
X29505917Y30509846D01*
X29528075Y30521945D01*
X29585105Y30536501D01*
X36885500Y30536501D01*
X36949836Y30517610D01*
G37*
G04 #@! TD.AperFunction*
G04 #@! TA.AperFunction,Conductor*
G36*
X10741515Y31002344D02*
G01*
X10795193Y30962161D01*
X10809871Y30936386D01*
X10830446Y30886712D01*
X10830448Y30886709D01*
X10886709Y30830448D01*
X10886712Y30830446D01*
X10936386Y30809871D01*
X10988596Y30767797D01*
X11009771Y30704176D01*
X10993189Y30639207D01*
X10974993Y30615783D01*
X10680450Y30321240D01*
X10621599Y30289106D01*
X10554718Y30293889D01*
X10513227Y30322968D01*
X10511855Y30321596D01*
X10508551Y30324899D01*
X10508549Y30324903D01*
X10324903Y30508549D01*
X10324899Y30508551D01*
X10321596Y30511855D01*
X10323176Y30513435D01*
X10291508Y30561768D01*
X10290914Y30628818D01*
X10321240Y30680450D01*
X10615783Y30974993D01*
X10674634Y31007127D01*
X10741515Y31002344D01*
G37*
G04 #@! TD.AperFunction*
G04 #@! TA.AperFunction,Conductor*
G36*
X36949836Y35410609D02*
G01*
X36993746Y35359934D01*
X37004500Y35310500D01*
X37004500Y34751980D01*
X36997140Y34711393D01*
X36997214Y34711370D01*
X36997034Y34710809D01*
X36996923Y34710196D01*
X36996334Y34708626D01*
X36996328Y34708608D01*
X36959500Y34571162D01*
X36959500Y34428836D01*
X36996328Y34291390D01*
X36996334Y34291372D01*
X36996923Y34289803D01*
X36997034Y34289189D01*
X36997214Y34288629D01*
X36997140Y34288605D01*
X37004500Y34248019D01*
X37004500Y32490543D01*
X37004656Y32481769D01*
X37004958Y32473304D01*
X37020282Y32396261D01*
X37043712Y32333444D01*
X37043715Y32333436D01*
X37062601Y32293962D01*
X37062603Y32293960D01*
X37111379Y32239658D01*
X37118372Y32231874D01*
X37118828Y32231367D01*
X37121187Y32226435D01*
X37125563Y32223160D01*
X37135496Y32196527D01*
X37147767Y32170881D01*
X37147085Y32165456D01*
X37148996Y32160335D01*
X37142952Y32132553D01*
X37139410Y32104352D01*
X37135601Y32098760D01*
X37134743Y32094815D01*
X37114445Y32067700D01*
X36964197Y31917452D01*
X36937079Y31897153D01*
X36914922Y31885055D01*
X36857894Y31870500D01*
X35199159Y31870500D01*
X35165635Y31875320D01*
X35141409Y31882433D01*
X35090789Y31912465D01*
X34861874Y32141381D01*
X34105397Y32897856D01*
X34093634Y32919399D01*
X34078647Y32938840D01*
X34077832Y32948340D01*
X34073264Y32956707D01*
X34075014Y32981188D01*
X34072917Y33005647D01*
X34077366Y33014078D01*
X34078047Y33023588D01*
X34085800Y33033945D01*
X34021821Y33020979D01*
X33959337Y33045305D01*
X33947865Y33055388D01*
X32963491Y34039761D01*
X33859500Y34039761D01*
X33859500Y33860237D01*
X33887579Y33682942D01*
X33887581Y33682931D01*
X33939319Y33523704D01*
X33939321Y33523698D01*
X33943054Y33512207D01*
X33943056Y33512203D01*
X33943057Y33512200D01*
X33960057Y33478836D01*
X33990989Y33418128D01*
X34024559Y33352243D01*
X34124460Y33214737D01*
X34124506Y33214677D01*
X34128274Y33209491D01*
X34150808Y33146339D01*
X34136315Y33084011D01*
X34141228Y33085844D01*
X34162604Y33097912D01*
X34172121Y33097366D01*
X34181055Y33100699D01*
X34205042Y33095480D01*
X34229546Y33094077D01*
X34242201Y33087397D01*
X34246575Y33086446D01*
X34259501Y33078267D01*
X34264686Y33074499D01*
X34264725Y33074469D01*
X34402241Y32974560D01*
X34402275Y32974540D01*
X34402615Y32974369D01*
X34562284Y32893013D01*
X34563152Y32892579D01*
X34566859Y32891542D01*
X34732940Y32837579D01*
X34910237Y32809500D01*
X35089759Y32809500D01*
X35089761Y32809500D01*
X35267062Y32837580D01*
X35399180Y32880508D01*
X35399180Y32880507D01*
X35437794Y32893054D01*
X35437794Y32893055D01*
X35437800Y32893057D01*
X35597389Y32974372D01*
X35597736Y32974547D01*
X35597747Y32974553D01*
X35606880Y32981188D01*
X35630273Y32998184D01*
X35742976Y33080066D01*
X35742979Y33080068D01*
X35869927Y33207016D01*
X35875493Y33214677D01*
X35975441Y33352245D01*
X35975443Y33352248D01*
X36056943Y33512200D01*
X36103817Y33656464D01*
X36112418Y33682934D01*
X36129592Y33791373D01*
X36140500Y33860241D01*
X36140500Y34039759D01*
X36120169Y34168125D01*
X36112418Y34217065D01*
X36100526Y34253665D01*
X36056943Y34387800D01*
X35975443Y34547752D01*
X35869925Y34692986D01*
X35742986Y34819925D01*
X35597752Y34925443D01*
X35437800Y35006943D01*
X35267068Y35062417D01*
X35267065Y35062418D01*
X35206036Y35072083D01*
X35089759Y35090500D01*
X35089755Y35090500D01*
X34910245Y35090500D01*
X34910241Y35090500D01*
X34812378Y35075000D01*
X34732934Y35062418D01*
X34693168Y35049497D01*
X34562200Y35006943D01*
X34402248Y34925443D01*
X34402245Y34925441D01*
X34257805Y34820500D01*
X34257016Y34819927D01*
X34130068Y34692979D01*
X34130066Y34692976D01*
X34044585Y34575319D01*
X34024558Y34547754D01*
X34024557Y34547752D01*
X33943057Y34387800D01*
X33943056Y34387796D01*
X33939088Y34375584D01*
X33939084Y34375576D01*
X33887579Y34217060D01*
X33887579Y34217056D01*
X33859500Y34039761D01*
X32963491Y34039761D01*
X32573199Y34430053D01*
X32573196Y34430059D01*
X32556464Y34446791D01*
X32556464Y34446792D01*
X32496792Y34506464D01*
X32452942Y34531781D01*
X32423713Y34548657D01*
X32423704Y34548661D01*
X32342199Y34570499D01*
X32342195Y34570500D01*
X32342192Y34570500D01*
X25478159Y34570500D01*
X25444637Y34575319D01*
X25434221Y34578377D01*
X25377812Y34614626D01*
X25349955Y34675618D01*
X25359495Y34741988D01*
X25359497Y34741993D01*
X25361478Y34746331D01*
X25362555Y34748689D01*
X25386655Y34783400D01*
X25985802Y35382547D01*
X26012918Y35402845D01*
X26035076Y35414944D01*
X26092106Y35429500D01*
X36885500Y35429500D01*
X36949836Y35410609D01*
G37*
G04 #@! TD.AperFunction*
G04 #@! TA.AperFunction,Conductor*
G36*
X35719788Y41239685D02*
G01*
X35723152Y41238784D01*
X35723163Y41238782D01*
X35757805Y41229500D01*
X35757806Y41229500D01*
X35842195Y41229500D01*
X36885500Y41229500D01*
X36949836Y41210609D01*
X36993746Y41159934D01*
X37004500Y41110500D01*
X37004500Y40501980D01*
X36997140Y40461393D01*
X36997214Y40461370D01*
X36997034Y40460809D01*
X36996923Y40460196D01*
X36996334Y40458626D01*
X36996328Y40458608D01*
X36959500Y40321162D01*
X36959500Y40178836D01*
X36996328Y40041390D01*
X36996334Y40041372D01*
X36996923Y40039803D01*
X36997034Y40039189D01*
X36997214Y40038629D01*
X36997140Y40038605D01*
X37004500Y39998019D01*
X37004500Y39663643D01*
X37005904Y39637460D01*
X37005909Y39637408D01*
X37008626Y39612131D01*
X37037248Y39520727D01*
X37047112Y39502660D01*
X37047152Y39502587D01*
X37064004Y39471725D01*
X37064304Y39471888D01*
X37071059Y39459796D01*
X37069898Y39459126D01*
X37117488Y39376696D01*
X37117893Y39375972D01*
X37118167Y39374767D01*
X37128952Y39348730D01*
X37140945Y39303971D01*
X37145000Y39273172D01*
X37145000Y39226829D01*
X37140945Y39196030D01*
X37128950Y39151264D01*
X37117786Y39124313D01*
X37117887Y39124261D01*
X37117263Y39123051D01*
X37117060Y39122561D01*
X37116592Y39121750D01*
X37097203Y39079296D01*
X37082471Y39036731D01*
X37082469Y39036724D01*
X37076593Y39017144D01*
X37072091Y38933132D01*
X37049785Y38869898D01*
X36996833Y38828763D01*
X36953262Y38820500D01*
X36499159Y38820500D01*
X36465635Y38825320D01*
X36441409Y38832433D01*
X36390789Y38862465D01*
X35667449Y39585805D01*
X35647152Y39612922D01*
X35635054Y39635080D01*
X35620500Y39692106D01*
X35620500Y40942192D01*
X35620500Y40942195D01*
X35620499Y40942199D01*
X35598661Y41023704D01*
X35598659Y41023709D01*
X35581172Y41053994D01*
X35568587Y41085434D01*
X35566028Y41095983D01*
X35569219Y41162960D01*
X35608114Y41217578D01*
X35670357Y41242498D01*
X35673148Y41242764D01*
X35677684Y41243197D01*
X35719788Y41239685D01*
G37*
G04 #@! TD.AperFunction*
G04 #@! TA.AperFunction,Conductor*
G36*
X10680449Y44678757D02*
G01*
X10974991Y44384215D01*
X11007125Y44325364D01*
X11002342Y44258483D01*
X10962159Y44204805D01*
X10936387Y44190129D01*
X10886709Y44169552D01*
X10830448Y44113291D01*
X10830447Y44113289D01*
X10830446Y44113288D01*
X10809870Y44063611D01*
X10767797Y44011401D01*
X10704176Y43990226D01*
X10639206Y44006808D01*
X10615786Y44025000D01*
X10321237Y44319549D01*
X10289105Y44378398D01*
X10293888Y44445279D01*
X10322932Y44486809D01*
X10321597Y44488145D01*
X10511855Y44678403D01*
X10513416Y44676841D01*
X10561898Y44708529D01*
X10628949Y44709046D01*
X10680449Y44678757D01*
G37*
G04 #@! TD.AperFunction*
G04 #@! TA.AperFunction,Conductor*
G36*
X10741515Y47502344D02*
G01*
X10795193Y47462161D01*
X10809871Y47436386D01*
X10830446Y47386712D01*
X10830448Y47386709D01*
X10886709Y47330448D01*
X10886712Y47330446D01*
X10936386Y47309871D01*
X10988596Y47267797D01*
X11009771Y47204176D01*
X10993189Y47139207D01*
X10974993Y47115783D01*
X10680450Y46821240D01*
X10621599Y46789106D01*
X10554718Y46793889D01*
X10513227Y46822968D01*
X10511855Y46821596D01*
X10508551Y46824899D01*
X10508549Y46824903D01*
X10324903Y47008549D01*
X10324899Y47008551D01*
X10321596Y47011855D01*
X10323176Y47013435D01*
X10291508Y47061768D01*
X10290914Y47128818D01*
X10321240Y47180450D01*
X10615783Y47474993D01*
X10674634Y47507127D01*
X10741515Y47502344D01*
G37*
G04 #@! TD.AperFunction*
G04 #@! TA.AperFunction,Conductor*
G36*
X8750000Y38449949D02*
G01*
X8672253Y38429118D01*
X8672251Y38429117D01*
X8633814Y38406925D01*
X8576063Y38373582D01*
X8567243Y38368490D01*
X8481509Y38282756D01*
X8420882Y38177748D01*
X8420881Y38177744D01*
X8389500Y38060628D01*
X8389500Y37939371D01*
X8420881Y37822255D01*
X8420882Y37822251D01*
X8481509Y37717243D01*
X8517892Y37680861D01*
X8540730Y37631885D01*
X8526744Y37579687D01*
X8517892Y37569139D01*
X8481509Y37532756D01*
X8420882Y37427748D01*
X8420881Y37427744D01*
X8389500Y37310628D01*
X8389500Y37189371D01*
X8420881Y37072255D01*
X8420882Y37072251D01*
X8481509Y36967243D01*
X8567243Y36881509D01*
X8672251Y36820882D01*
X8672255Y36820881D01*
X8750000Y36800049D01*
X8750000Y25075547D01*
X8748066Y25075595D01*
X8393700Y25093004D01*
X8386008Y25093761D01*
X8036961Y25145538D01*
X8029400Y25147041D01*
X7687081Y25232787D01*
X7679717Y25235022D01*
X7347473Y25353901D01*
X7340331Y25356859D01*
X7021357Y25507723D01*
X7014535Y25511369D01*
X6711867Y25692781D01*
X6705446Y25697072D01*
X6422031Y25907268D01*
X6416057Y25912169D01*
X6154598Y26149143D01*
X6149143Y26154598D01*
X5912169Y26416057D01*
X5907268Y26422031D01*
X5697072Y26705446D01*
X5692781Y26711867D01*
X5511369Y27014535D01*
X5507720Y27021364D01*
X5464656Y27112415D01*
X5356859Y27340331D01*
X5353901Y27347473D01*
X5235022Y27679717D01*
X5232787Y27687081D01*
X5147041Y28029400D01*
X5145538Y28036961D01*
X5093761Y28386008D01*
X5093004Y28393700D01*
X5075594Y28748066D01*
X5075500Y28751942D01*
X5075500Y31112677D01*
X5075500Y31112682D01*
X5043427Y31335752D01*
X4979934Y31551987D01*
X4886315Y31756985D01*
X4764474Y31946573D01*
X4616892Y32116892D01*
X4446573Y32264474D01*
X4256985Y32386315D01*
X4051987Y32479934D01*
X3835752Y32543427D01*
X3612682Y32575500D01*
X3612678Y32575500D01*
X-12436005Y32575500D01*
X-12486785Y32593982D01*
X-12491866Y32598639D01*
X-14957229Y35064003D01*
X-14957233Y35064006D01*
X-14984982Y35075500D01*
X-28421000Y35075500D01*
X-28471780Y35093982D01*
X-28498800Y35140782D01*
X-28500000Y35154500D01*
X-28500000Y35803626D01*
X-28273500Y35803626D01*
X-28273500Y35682374D01*
X-28242118Y35565253D01*
X-28242117Y35565251D01*
X-28181490Y35460243D01*
X-28095756Y35374509D01*
X-27990748Y35313882D01*
X-27990744Y35313881D01*
X-27873628Y35282500D01*
X-27873626Y35282500D01*
X-27752371Y35282500D01*
X-27635255Y35313881D01*
X-27635251Y35313882D01*
X-27530243Y35374509D01*
X-27444509Y35460243D01*
X-27383882Y35565251D01*
X-27383881Y35565255D01*
X-27360126Y35653912D01*
X-27329131Y35698179D01*
X-27276933Y35712165D01*
X-27263372Y35709774D01*
X-27210381Y35695575D01*
X-27210379Y35695575D01*
X-27089124Y35695575D01*
X-26972008Y35726956D01*
X-26972004Y35726957D01*
X-26866996Y35787584D01*
X-26781262Y35873318D01*
X-26720635Y35978326D01*
X-26720634Y35978330D01*
X-26689253Y36095446D01*
X-26689253Y36216703D01*
X-26720634Y36333819D01*
X-26720635Y36333823D01*
X-26768622Y36416938D01*
X-26778006Y36470156D01*
X-26750986Y36516955D01*
X-26739709Y36524852D01*
X-26717446Y36537706D01*
X-26631709Y36623443D01*
X-26571082Y36728451D01*
X-26571081Y36728455D01*
X-26539700Y36845571D01*
X-26539700Y36966828D01*
X-26571081Y37083944D01*
X-26571082Y37083948D01*
X-26631709Y37188956D01*
X-26717443Y37274690D01*
X-26756125Y37297023D01*
X-26822453Y37335318D01*
X-26939574Y37366700D01*
X-27060826Y37366700D01*
X-27177947Y37335318D01*
X-27204844Y37319788D01*
X-27258060Y37310404D01*
X-27304860Y37337422D01*
X-27320652Y37367758D01*
X-27333081Y37414144D01*
X-27333082Y37414148D01*
X-27393709Y37519156D01*
X-27438242Y37563689D01*
X-27461080Y37612665D01*
X-27447094Y37664863D01*
X-27438242Y37675411D01*
X-27409222Y37704430D01*
X-27348595Y37809438D01*
X-27348594Y37809442D01*
X-27317213Y37926558D01*
X-27317213Y38047815D01*
X-27348594Y38164931D01*
X-27348595Y38164935D01*
X-27411312Y38273564D01*
X-27420696Y38326782D01*
X-27393676Y38373582D01*
X-27363343Y38389372D01*
X-27343153Y38394781D01*
X-27343151Y38394782D01*
X-27238143Y38455409D01*
X-27152409Y38541143D01*
X-27091782Y38646151D01*
X-27091781Y38646155D01*
X-27060400Y38763271D01*
X-27060400Y38884528D01*
X-27091781Y39001644D01*
X-27091782Y39001648D01*
X-27152409Y39106656D01*
X-27238143Y39192390D01*
X-27343151Y39253017D01*
X-27343153Y39253018D01*
X-27460274Y39284400D01*
X-27581526Y39284400D01*
X-27698647Y39253018D01*
X-27803654Y39192392D01*
X-27889392Y39106654D01*
X-27950018Y39001647D01*
X-27981400Y38884526D01*
X-27981400Y38763274D01*
X-27950018Y38646153D01*
X-27950017Y38646151D01*
X-27887300Y38537522D01*
X-27877916Y38484304D01*
X-27904936Y38437504D01*
X-27935269Y38421715D01*
X-27955460Y38416305D01*
X-28060467Y38355679D01*
X-28146205Y38269941D01*
X-28206831Y38164934D01*
X-28238213Y38047813D01*
X-28238213Y37926561D01*
X-28206831Y37809440D01*
X-28153603Y37717246D01*
X-28146203Y37704430D01*
X-28101671Y37659898D01*
X-28078833Y37610922D01*
X-28092819Y37558724D01*
X-28101671Y37548176D01*
X-28117090Y37532756D01*
X-28130692Y37519154D01*
X-28191318Y37414147D01*
X-28222700Y37297026D01*
X-28222700Y37175774D01*
X-28191318Y37058653D01*
X-28138303Y36966828D01*
X-28130690Y36953643D01*
X-28044956Y36867909D01*
X-27939948Y36807282D01*
X-27939944Y36807281D01*
X-27822828Y36775900D01*
X-27822826Y36775900D01*
X-27701571Y36775900D01*
X-27584455Y36807281D01*
X-27584447Y36807284D01*
X-27557554Y36822811D01*
X-27504336Y36832195D01*
X-27457537Y36805175D01*
X-27441747Y36774840D01*
X-27429318Y36728453D01*
X-27381328Y36645332D01*
X-27371945Y36592117D01*
X-27398964Y36545318D01*
X-27410240Y36537422D01*
X-27432507Y36524567D01*
X-27518245Y36438829D01*
X-27578871Y36333822D01*
X-27602627Y36245161D01*
X-27633620Y36200896D01*
X-27685818Y36186909D01*
X-27699372Y36189298D01*
X-27752374Y36203500D01*
X-27873626Y36203500D01*
X-27990747Y36172118D01*
X-28095754Y36111492D01*
X-28181492Y36025754D01*
X-28242118Y35920747D01*
X-28273500Y35803626D01*
X-28500000Y35803626D01*
X-28500000Y39845500D01*
X-28481518Y39896280D01*
X-28434718Y39923300D01*
X-28421000Y39924500D01*
X-14984982Y39924500D01*
X-14957233Y39935993D01*
X-14957229Y39935996D01*
X-14069308Y40823918D01*
X-9500500Y40823918D01*
X-9500500Y40676082D01*
X-9471658Y40531087D01*
X-9415084Y40394505D01*
X-9415083Y40394504D01*
X-9332952Y40271585D01*
X-9332946Y40271578D01*
X-9228421Y40167053D01*
X-9228414Y40167047D01*
X-9105495Y40084916D01*
X-9105489Y40084913D01*
X-8968915Y40028342D01*
X-8968913Y40028341D01*
X-8823918Y39999500D01*
X-8676082Y39999500D01*
X-8531086Y40028341D01*
X-8531084Y40028342D01*
X-8394510Y40084913D01*
X-8394504Y40084916D01*
X-8271585Y40167047D01*
X-8271578Y40167053D01*
X-8167053Y40271578D01*
X-8167047Y40271585D01*
X-8084916Y40394504D01*
X-8084913Y40394510D01*
X-8028342Y40531084D01*
X-8028341Y40531086D01*
X-7999500Y40676082D01*
X-7999500Y40823917D01*
X-8028341Y40968913D01*
X-8028342Y40968915D01*
X-8084913Y41105489D01*
X-8084916Y41105495D01*
X-8167047Y41228414D01*
X-8167053Y41228421D01*
X-8271578Y41332946D01*
X-8271585Y41332952D01*
X-8394504Y41415083D01*
X-8394505Y41415084D01*
X-8425448Y41427901D01*
X-8531084Y41471657D01*
X-8531086Y41471658D01*
X-8676082Y41500500D01*
X-8823918Y41500500D01*
X-8968913Y41471658D01*
X-9105495Y41415084D01*
X-9228416Y41332951D01*
X-9332951Y41228416D01*
X-9415084Y41105495D01*
X-9471658Y40968913D01*
X-9500500Y40823918D01*
X-14069308Y40823918D01*
X-14009566Y40883660D01*
X-12491866Y42401361D01*
X-12442890Y42424199D01*
X-12436005Y42424500D01*
X3612678Y42424500D01*
X3612682Y42424500D01*
X3740150Y42442827D01*
X3835755Y42456573D01*
X4051986Y42520065D01*
X4256981Y42613683D01*
X4256982Y42613683D01*
X4256985Y42613685D01*
X4306457Y42645478D01*
X4446564Y42735519D01*
X4446580Y42735531D01*
X4616892Y42883107D01*
X4764468Y43053419D01*
X4764480Y43053435D01*
X4834700Y43162700D01*
X4886315Y43243015D01*
X4979934Y43448013D01*
X5043426Y43664244D01*
X5059661Y43777159D01*
X5075500Y43887318D01*
X5075500Y44000000D01*
X5075500Y44024531D01*
X5075500Y46248057D01*
X5075595Y46251933D01*
X5084733Y46437935D01*
X5093004Y46606297D01*
X5093763Y46614003D01*
X5123133Y46811994D01*
X5145537Y46963034D01*
X5147042Y46970603D01*
X5232786Y47312912D01*
X5235024Y47320288D01*
X5353898Y47652518D01*
X5356864Y47659678D01*
X5507720Y47978635D01*
X5511374Y47985472D01*
X5692773Y48288119D01*
X5697081Y48294565D01*
X5907260Y48577958D01*
X5912178Y48583951D01*
X5946711Y48622053D01*
X6149133Y48845390D01*
X6154612Y48850869D01*
X6416048Y49087821D01*
X6422041Y49092739D01*
X6705434Y49302918D01*
X6711880Y49307226D01*
X7014527Y49488625D01*
X7021364Y49492279D01*
X7340321Y49643135D01*
X7347484Y49646102D01*
X7679699Y49764971D01*
X7687100Y49767216D01*
X8029381Y49852953D01*
X8036973Y49854463D01*
X8385996Y49906236D01*
X8393711Y49906996D01*
X8697192Y49921905D01*
X8748067Y49924405D01*
X8750000Y49924452D01*
X8750000Y38449949D01*
G37*
G04 #@! TD.AperFunction*
M02*
