M48
; DRILL file KiCad 10.0.3 date 2026-06-23T21:20:45
; FORMAT={-:-/ absolute / metric / decimal}
; #@! TF.CreationDate,2026-06-23T21:20:45+08:00
; #@! TF.GenerationSoftware,Kicad,Pcbnew,10.0.3
; #@! TF.FileFunction,Plated,1,4,PTH
FMAT,2
METRIC
; #@! TA.AperFunction,Plated,PTH,ViaDrill
T1C0.300
; #@! TA.AperFunction,Plated,PTH,ViaDrill
T2C0.400
; #@! TA.AperFunction,Plated,PTH,ComponentDrill
T3C0.400
; #@! TA.AperFunction,Plated,PTH,ComponentDrill
T4C0.900
; #@! TA.AperFunction,Plated,PTH,ComponentDrill
T5C0.990
; #@! TA.AperFunction,Plated,PTH,ComponentDrill
T6C1.000
; #@! TA.AperFunction,Plated,PTH,ComponentDrill
T7C1.020
; #@! TA.AperFunction,Plated,PTH,ComponentDrill
T8C1.300
; #@! TA.AperFunction,Plated,PTH,ComponentDrill
T9C1.500
; #@! TA.AperFunction,Plated,PTH,ComponentDrill
T10C3.300
%
G90
G05
T1
X-27.94Y39.497
X-27.813Y35.743
X-27.778Y37.987
X-27.762Y37.236
X-27.521Y38.824
X-27.15Y36.156
X-27.0Y36.906
X-26.75Y39.5
X-25.75Y39.5
X-25.75Y35.5
X-24.75Y39.5
X-24.75Y35.5
X-23.75Y39.5
X-23.75Y35.5
X-22.5Y39.5
X-22.5Y35.5
X-21.25Y39.5
X-21.25Y35.5
X-19.5Y39.5
X-19.5Y35.5
X-18.25Y35.5
X-18.0Y39.5
X-17.0Y35.5
X-16.75Y39.5
X-15.75Y35.5
X-15.5Y39.5
X-14.75Y35.5
X-14.0Y39.5
X-13.5Y35.5
X-13.25Y34.5
X-13.0Y40.75
X-12.5Y39.5
X-12.25Y33.5
X-11.75Y41.75
X-11.0Y33.25
X-9.75Y41.75
X-9.5Y33.25
X-8.75Y35.25
X-7.75Y41.75
X-7.75Y33.25
X-6.5Y33.25
X-5.75Y41.75
X-5.0Y33.25
X-4.5Y41.75
X-3.25Y41.75
X-3.25Y39.0
X-3.25Y35.25
X-3.0Y33.25
X-2.0Y41.75
X-1.25Y33.25
X-1.0Y41.75
X0.25Y33.25
X1.0Y41.75
X1.75Y33.25
X2.75Y41.75
X2.75Y39.25
X2.75Y35.5
X3.25Y33.25
X4.75Y42.0
X5.75Y32.75
X6.0Y42.5
X8.25Y40.5
X8.25Y33.75
X8.85Y38.0
X8.85Y37.25
X10.15Y39.75
X10.15Y35.25
X12.7Y32.35
X13.05Y31.55
X13.35Y39.75
X13.35Y35.25
X13.35Y33.75
X13.4Y42.0
X13.4Y41.25
X13.75Y27.0
X15.7Y32.15
X15.75Y48.75
X15.75Y26.0
X15.8Y42.85
X17.3Y32.15
X19.25Y26.7
X20.05Y49.3
X20.45Y28.5
X21.3Y32.15
X22.1Y36.0
X22.1Y34.5
X22.45Y40.55
X22.75Y26.0
X23.0Y31.9
X23.3Y35.2
X23.4Y46.5
X23.4Y43.5
X24.0Y35.5
X24.2Y41.15
X24.55Y31.9
X25.15Y31.25
X25.7Y49.2
X25.95Y33.55
X26.6Y46.5
X26.6Y42.0
X27.55Y26.9
X28.3Y46.45
X28.35Y29.25
X28.95Y31.85
X29.0Y29.75
X29.15Y36.8
X30.2Y47.35
X30.55Y31.85
X31.25Y26.5
X31.5Y49.0
X32.25Y44.95
X32.5Y36.75
X32.75Y35.0
X33.5Y42.5
X33.55Y27.05
X34.5Y36.7
X34.6Y40.5
X34.75Y29.5
X35.95Y32.25
X35.95Y30.25
X36.1Y27.8
X36.65Y28.45
X36.85Y39.25
X36.9Y37.643
X37.0Y26.0
X37.35Y49.3
X37.5Y42.5
X37.5Y40.25
X37.5Y36.5
X37.5Y34.5
X37.55Y29.3
X37.9Y35.75
X38.55Y42.25
X38.6Y36.65
X38.75Y45.177
X38.975Y35.125
X39.0Y26.0
X39.55Y32.25
X39.55Y30.25
X40.25Y43.15
X40.3Y32.7
X40.5Y29.45
X41.25Y26.0
X42.0Y32.6
X42.0Y29.45
X42.5Y36.45
X43.5Y26.0
X44.75Y28.25
X46.5Y28.25
X46.5Y26.0
X46.55Y31.95
X47.0Y40.15
X48.75Y49.0
X48.9Y34.6
X49.5Y28.25
X49.5Y26.0
X52.5Y29.5
X52.5Y28.25
X52.5Y26.0
X53.2Y41.0
X53.2Y31.35
X54.6Y36.8
X54.6Y35.2
X54.9Y44.6
X54.95Y36.0
X55.25Y29.5
X55.25Y28.25
X55.25Y26.0
X57.25Y49.0
X57.5Y25.75
X58.35Y36.0
X58.35Y34.5
X58.35Y33.0
X58.4Y31.45
X58.45Y39.0
X58.6Y40.5
X58.9Y41.478
X60.25Y39.4
X60.25Y28.0
X60.7Y33.15
X62.0Y26.0
X63.25Y35.7
X63.5Y28.0
X65.25Y36.9
X65.25Y31.3
X66.3Y40.9
X66.3Y35.2
X66.75Y26.0
X67.5Y36.75
X68.25Y44.25
X68.65Y36.15
X69.65Y44.4
X69.75Y28.25
X70.5Y49.0
X70.75Y26.25
X71.3Y44.35
X71.65Y40.2
X74.15Y41.5
X74.55Y44.3
X74.7Y38.75
X74.75Y30.75
X74.75Y28.25
X75.0Y25.75
X75.35Y44.15
X75.4Y38.65
X75.8Y36.75
X76.15Y44.3
X76.5Y34.4
X76.75Y36.5
X77.191Y37.65
X77.5Y40.25
X77.5Y31.0
X78.0Y44.3
X78.1Y33.8
X78.25Y36.5
X79.0Y28.25
X79.0Y25.75
X79.5Y40.45
X79.75Y36.5
X80.25Y40.45
X80.25Y34.0
X81.0Y36.5
X81.5Y25.75
X82.0Y37.0
X82.0Y35.75
X82.05Y31.95
X82.5Y34.25
X83.8Y45.25
X84.0Y28.25
X84.55Y43.55
X84.9Y45.15
X85.5Y29.75
X85.5Y26.25
X86.1Y41.5
X87.75Y31.75
X88.0Y28.5
X88.5Y26.0
X88.75Y29.75
X90.25Y44.25
X90.25Y41.25
X90.25Y39.75
X90.25Y37.75
X90.25Y35.75
X90.25Y33.75
X90.25Y31.75
T2
X36.5Y43.85
X70.25Y36.2
X74.8Y33.7
T3
X6.75Y45.75
X6.75Y29.25
X7.5Y47.5
X7.5Y44.0
X7.5Y31.0
X7.5Y27.5
X9.25Y48.25
X9.25Y43.25
X9.25Y31.75
X9.25Y26.75
X11.0Y47.5
X11.0Y44.0
X11.0Y31.0
X11.0Y27.5
X11.75Y45.75
X11.75Y29.25
X93.25Y45.75
X93.25Y29.25
X94.0Y47.5
X94.0Y44.0
X94.0Y31.0
X94.0Y27.5
X95.75Y48.25
X95.75Y43.25
X95.75Y31.75
X95.75Y26.75
X97.5Y47.5
X97.5Y44.0
X97.5Y31.0
X97.5Y27.5
X98.25Y45.75
X98.25Y29.25
T4
X74.5Y47.5
X76.5Y47.5
X78.5Y47.5
T5
X46.25Y47.25
X50.75Y47.25
X60.25Y47.25
X64.75Y47.25
T6
X86.0Y46.7
X88.5Y46.7
T7
X35.0Y33.95
X87.0Y33.95
T8
X44.99Y44.76
X52.0Y44.76
X58.99Y44.76
X66.0Y44.76
T9
X72.4Y47.5
X80.6Y47.5
X93.21Y40.04
X93.21Y34.96
X95.75Y37.5
X98.29Y40.04
X98.29Y34.96
T10
X9.25Y45.75
X9.25Y29.25
X95.75Y45.75
X95.75Y29.25
M30
