G04 #@! TF.GenerationSoftware,KiCad,Pcbnew,10.0.3*
G04 #@! TF.CreationDate,2026-06-24T00:18:11+08:00*
G04 #@! TF.ProjectId,current-sense,63757272-656e-4742-9d73-656e73652e6b,rev?*
G04 #@! TF.SameCoordinates,Original*
G04 #@! TF.FileFunction,Copper,L2,Inr*
G04 #@! TF.FilePolarity,Positive*
%FSLAX46Y46*%
G04 Gerber Fmt 4.6, Leading zero omitted, Abs format (unit mm)*
G04 Created by KiCad (PCBNEW 10.0.3) date 2026-06-24 00:18:11*
%MOMM*%
%LPD*%
G01*
G04 APERTURE LIST*
G04 Aperture macros list*
%AMRoundRect*
0 Rectangle with rounded corners*
0 $1 Rounding radius*
0 $2 $3 $4 $5 $6 $7 $8 $9 X,Y pos of 4 corners*
0 Add a 4 corners polygon primitive as box body*
4,1,4,$2,$3,$4,$5,$6,$7,$8,$9,$2,$3,0*
0 Add four circle primitives for the rounded corners*
1,1,$1+$1,$2,$3*
1,1,$1+$1,$4,$5*
1,1,$1+$1,$6,$7*
1,1,$1+$1,$8,$9*
0 Add four rect primitives between the rounded corners*
20,1,$1+$1,$2,$3,$4,$5,0*
20,1,$1+$1,$4,$5,$6,$7,0*
20,1,$1+$1,$6,$7,$8,$9,0*
20,1,$1+$1,$8,$9,$2,$3,0*%
G04 Aperture macros list end*
G04 #@! TA.AperFunction,ComponentPad*
%ADD10C,0.800000*%
G04 #@! TD*
G04 #@! TA.AperFunction,ComponentPad*
%ADD11C,6.400000*%
G04 #@! TD*
G04 #@! TA.AperFunction,ComponentPad*
%ADD12C,2.250000*%
G04 #@! TD*
G04 #@! TA.AperFunction,ComponentPad*
%ADD13R,1.500000X2.500000*%
G04 #@! TD*
G04 #@! TA.AperFunction,ComponentPad*
%ADD14O,1.500000X2.500000*%
G04 #@! TD*
G04 #@! TA.AperFunction,ComponentPad*
%ADD15O,2.200000X3.500000*%
G04 #@! TD*
G04 #@! TA.AperFunction,ComponentPad*
%ADD16C,1.750000*%
G04 #@! TD*
G04 #@! TA.AperFunction,ComponentPad*
%ADD17C,2.100000*%
G04 #@! TD*
G04 #@! TA.AperFunction,ComponentPad*
%ADD18C,1.800000*%
G04 #@! TD*
G04 #@! TA.AperFunction,ComponentPad*
%ADD19RoundRect,0.250000X0.600000X0.750000X-0.600000X0.750000X-0.600000X-0.750000X0.600000X-0.750000X0*%
G04 #@! TD*
G04 #@! TA.AperFunction,ComponentPad*
%ADD20O,1.700000X2.000000*%
G04 #@! TD*
G04 #@! TA.AperFunction,ViaPad*
%ADD21C,0.600000*%
G04 #@! TD*
G04 #@! TA.AperFunction,ViaPad*
%ADD22C,0.800000*%
G04 #@! TD*
G04 #@! TA.AperFunction,Conductor*
%ADD23C,0.160000*%
G04 #@! TD*
G04 #@! TA.AperFunction,Conductor*
%ADD24C,0.127000*%
G04 #@! TD*
G04 #@! TA.AperFunction,Conductor*
%ADD25C,0.240000*%
G04 #@! TD*
G04 APERTURE END LIST*
D10*
X93250000Y29250000D03*
X94000000Y31000000D03*
X94000000Y27500000D03*
X95750000Y31750000D03*
D11*
X95750000Y29250000D03*
D10*
X95750000Y26750000D03*
X97500000Y31000000D03*
X97500000Y27500000D03*
X98250000Y29250000D03*
X93250000Y45750000D03*
X94000000Y47500000D03*
X94000000Y44000000D03*
X95750000Y48250000D03*
D11*
X95750000Y45750000D03*
D10*
X95750000Y43250000D03*
X97500000Y47500000D03*
X97500000Y44000000D03*
X98250000Y45750000D03*
X6750000Y45750000D03*
X7500000Y47500000D03*
X7500000Y44000000D03*
X9250000Y48250000D03*
D11*
X9250000Y45750000D03*
D10*
X9250000Y43250000D03*
X11000000Y47500000D03*
X11000000Y44000000D03*
X11750000Y45750000D03*
X6750000Y29250000D03*
X7500000Y31000000D03*
X7500000Y27500000D03*
X9250000Y31750000D03*
D11*
X9250000Y29250000D03*
D10*
X9250000Y26750000D03*
X11000000Y31000000D03*
X11000000Y27500000D03*
X11750000Y29250000D03*
D12*
X95750000Y37500000D03*
X93210000Y34960000D03*
X98290000Y34960000D03*
X93210000Y40040000D03*
X98290000Y40040000D03*
D13*
X74500000Y47500000D03*
D14*
X76500000Y47500000D03*
X78500000Y47500000D03*
D15*
X72400000Y47500000D03*
X80600000Y47500000D03*
D16*
X46250000Y47250000D03*
D17*
X52000000Y44760000D03*
D16*
X50750000Y47250000D03*
D17*
X44990000Y44760000D03*
D16*
X60250000Y47250000D03*
D17*
X66000000Y44760000D03*
D16*
X64750000Y47250000D03*
D17*
X58990000Y44760000D03*
D18*
X87000000Y33950000D03*
X35000000Y33950000D03*
D19*
X88500000Y46700000D03*
D20*
X86000000Y46700000D03*
D21*
X17300000Y32150000D03*
X24200000Y41150000D03*
X13400000Y42000000D03*
X79000000Y28250000D03*
X-5750000Y41750000D03*
X25150000Y31250000D03*
X-13000000Y40750000D03*
X-14000000Y39500000D03*
X90250000Y35750000D03*
X-7750000Y41750000D03*
X90250000Y41250000D03*
X-11750000Y41750000D03*
X-3250000Y41750000D03*
X81500000Y25750000D03*
X22750000Y26000000D03*
X69750000Y28250000D03*
X-21250000Y39500000D03*
X13350000Y35250000D03*
X34750000Y29500000D03*
X8250000Y33750000D03*
X60250000Y28000000D03*
X-15750000Y35500000D03*
X79000000Y25750000D03*
X15750000Y48750000D03*
X2750000Y41750000D03*
X52500000Y28250000D03*
X-18000000Y39500000D03*
X-5000000Y33250000D03*
X-19500000Y35500000D03*
X90250000Y33750000D03*
X22100000Y36000000D03*
X28950000Y31850000D03*
X-13250000Y34500000D03*
X26600000Y46500000D03*
X46500000Y26000000D03*
X-14750000Y35500000D03*
X-19500000Y39500000D03*
X75000000Y25750000D03*
X2750000Y39250000D03*
X-27940000Y39497000D03*
X-3250000Y35250000D03*
X-23750000Y35500000D03*
X-15500000Y39500000D03*
X66750000Y26000000D03*
X31250000Y26500000D03*
X46500000Y28250000D03*
X-9500000Y33250000D03*
X-21250000Y35500000D03*
X90250000Y31750000D03*
X32750000Y35000000D03*
X90250000Y39750000D03*
X13750000Y27000000D03*
X-16750000Y39500000D03*
X88000000Y28500000D03*
X-2000000Y41750000D03*
X-22500000Y35500000D03*
X41250000Y26000000D03*
X-17000000Y35500000D03*
X-3000000Y33250000D03*
X-13500000Y35500000D03*
X32500000Y36750000D03*
X49500000Y26000000D03*
X39000000Y26000000D03*
X-1250000Y33250000D03*
X21300000Y32150000D03*
X-4500000Y41750000D03*
X20050000Y49300000D03*
X-12500000Y39500000D03*
X8250000Y40500000D03*
X-11000000Y33250000D03*
X3250000Y33250000D03*
X37000000Y26000000D03*
X-9750000Y41750000D03*
X74750000Y28250000D03*
X49500000Y28250000D03*
X-25750000Y39500000D03*
X1000000Y41750000D03*
X52500000Y26000000D03*
X62000000Y26000000D03*
X25700000Y49200000D03*
X33500000Y42500000D03*
X29150000Y36800000D03*
X5750000Y32750000D03*
X44750000Y28250000D03*
X88500000Y26000000D03*
X31500000Y49000000D03*
X28300000Y46450000D03*
X55250000Y26000000D03*
X-22500000Y39500000D03*
X-12250000Y33500000D03*
X85500000Y26250000D03*
X-23750000Y39500000D03*
X23400000Y43500000D03*
X-8750000Y35250000D03*
X55250000Y28250000D03*
X57500000Y25750000D03*
X-25750000Y35500000D03*
X250000Y33250000D03*
X-7750000Y33250000D03*
X-18250000Y35500000D03*
X88750000Y29750000D03*
X36850000Y39250000D03*
X-6500000Y33250000D03*
X4750000Y42000000D03*
X15750000Y26000000D03*
X43500000Y26000000D03*
X90250000Y37750000D03*
X-24750000Y35500000D03*
X6000000Y42500000D03*
X84000000Y28250000D03*
X35950000Y30250000D03*
X35950000Y32250000D03*
X1750000Y33250000D03*
X-24750000Y39500000D03*
X13350000Y39750000D03*
X-1000000Y41750000D03*
X70750000Y26250000D03*
X-3250000Y39000000D03*
X63500000Y28000000D03*
X-26750000Y39500000D03*
X24000000Y35500000D03*
X90250000Y44250000D03*
X34500000Y36700000D03*
X2750000Y35500000D03*
X10150000Y39750000D03*
X-27520900Y38823900D03*
X8850000Y38000000D03*
X-27777713Y37987187D03*
X-27762200Y37236400D03*
X8850000Y37250000D03*
X-27000200Y36906200D03*
X10150000Y35250000D03*
X15700000Y32150000D03*
X78250000Y36500000D03*
X79750000Y36500000D03*
X74150000Y41500000D03*
X76750000Y36500000D03*
X69650000Y44400000D03*
X58900000Y41478200D03*
X20450000Y28500000D03*
X76500000Y34400000D03*
X70500000Y49000000D03*
X54900000Y44600000D03*
X42500000Y36450000D03*
X80250000Y34000000D03*
X82050000Y31950000D03*
X74750000Y30750000D03*
X82000000Y37000000D03*
X82000000Y35750000D03*
X25950000Y33550000D03*
X81000000Y36500000D03*
X67500000Y36750000D03*
X42000000Y29450000D03*
X87750000Y31750000D03*
X27550000Y26900000D03*
X47000000Y40150000D03*
X46550000Y31950000D03*
X77500000Y31000000D03*
X30200000Y47350000D03*
X37500000Y36500000D03*
X75350000Y44150000D03*
X38750000Y45176999D03*
X63250000Y35700000D03*
X19250000Y26700000D03*
X37550000Y29300000D03*
X75800000Y36750000D03*
X40500000Y29450000D03*
X24550000Y31900000D03*
X-27149753Y36156075D03*
X54600000Y35200000D03*
X85500000Y29750000D03*
D22*
X70250000Y36200000D03*
D21*
X48750000Y49000000D03*
X39550000Y32250000D03*
X66300000Y35200000D03*
X78100000Y33800000D03*
X55250000Y29500000D03*
X74550000Y44300000D03*
X12700000Y32350000D03*
X37500000Y40250000D03*
X66300000Y40900000D03*
X74700000Y38750000D03*
X37350000Y49300000D03*
X37500000Y34500000D03*
X65250000Y31300000D03*
X57250000Y49000000D03*
X75400000Y38650000D03*
X52500000Y29500000D03*
X37500000Y42500000D03*
X60700000Y33150000D03*
X26600000Y42000000D03*
X53200000Y31350000D03*
D22*
X74800000Y33700000D03*
D21*
X82500000Y34250000D03*
X48900000Y34600000D03*
X68250000Y44250000D03*
X76150000Y44300000D03*
X-27813000Y35743000D03*
X13050000Y31550000D03*
X58400000Y31450000D03*
X84550000Y43550000D03*
X58450000Y39000000D03*
X23400000Y46500000D03*
X29000000Y29750000D03*
X38975000Y35125000D03*
X33550000Y27050000D03*
X86100000Y41500000D03*
X60250000Y39400000D03*
X78000000Y44300000D03*
X23000000Y31900000D03*
X15800000Y42850000D03*
X28350000Y29250000D03*
X58350000Y36000000D03*
X30550000Y31850000D03*
X38550000Y42250000D03*
X39550000Y30250000D03*
X65250000Y36900000D03*
X54600000Y36800000D03*
X40300000Y32700000D03*
X34600000Y40500000D03*
X40250000Y43150000D03*
X32250000Y44950000D03*
X58350000Y34500000D03*
X84900000Y45150000D03*
X53200000Y41000000D03*
X54950000Y36000000D03*
X23300000Y35200000D03*
X37900000Y35750000D03*
X22450000Y40550000D03*
X42000000Y32600000D03*
X58600000Y40500000D03*
X71650000Y40200000D03*
X83800000Y45250000D03*
X58350000Y33000000D03*
X38600000Y36650000D03*
X22100000Y34500000D03*
X36900000Y37643000D03*
X13400000Y41250000D03*
X36650000Y28450000D03*
X13350000Y33750000D03*
X36100000Y27800000D03*
X79500000Y40450000D03*
X68650000Y36150000D03*
X77500000Y40250000D03*
X80250000Y40450000D03*
X71300000Y44350000D03*
X77190600Y37650000D03*
D22*
X36500000Y43850000D03*
D23*
X-26540000Y38340000D02*
X-26340000Y38340000D01*
X-26750000Y39500000D02*
X-25750000Y39500000D01*
D24*
X-26087600Y35837600D02*
X-26238200Y35687000D01*
X-25750000Y35500000D02*
X-26087600Y35837600D01*
D23*
X36850000Y39250000D02*
X35750000Y39250000D01*
X-26300000Y38380000D02*
X-26180000Y38380000D01*
X-26750000Y38550000D02*
X-26540000Y38340000D01*
X-26750000Y39500000D02*
X-26750000Y38550000D01*
D24*
X-26263600Y35687000D02*
X-26339800Y35610800D01*
D23*
X-26340000Y38340000D02*
X-26300000Y38380000D01*
D24*
X-26238200Y35687000D02*
X-26263600Y35687000D01*
D23*
X9850000Y39750000D02*
X10150000Y39750000D01*
X-27520900Y38823900D02*
X-26721020Y38024020D01*
X8124020Y38024020D02*
X9850000Y39750000D01*
X-26721020Y38024020D02*
X8124020Y38024020D01*
X8587010Y37737010D02*
X8850000Y38000000D01*
X-27527536Y37737010D02*
X8587010Y37737010D01*
X-27777713Y37987187D02*
X-27527536Y37737010D01*
X-27548600Y37450000D02*
X-26500000Y37450000D01*
X-27762200Y37236400D02*
X-27548600Y37450000D01*
X-26500000Y37450000D02*
X-26050000Y37450000D01*
X-26231117Y37450000D02*
X-26500000Y37450000D01*
X8650000Y37450000D02*
X-26231117Y37450000D01*
X8850000Y37250000D02*
X8650000Y37450000D01*
X-27000200Y36906200D02*
X-26756400Y37150000D01*
X-26756400Y37150000D02*
X8199638Y37150000D01*
X8199638Y37150000D02*
X10099638Y35250000D01*
X10099638Y35250000D02*
X10150000Y35250000D01*
D25*
X-27149753Y36156075D02*
X-27034628Y36271200D01*
X7890438Y36700000D02*
X12240438Y32350000D01*
X-26342800Y36700000D02*
X-26259600Y36700000D01*
X12240438Y32350000D02*
X12700000Y32350000D01*
X-26252216Y36700000D02*
X7890438Y36700000D01*
X-26771600Y36271200D02*
X-26342800Y36700000D01*
X-27034628Y36271200D02*
X-26771600Y36271200D01*
X-26873200Y35560000D02*
X-27630000Y35560000D01*
X13050000Y31550000D02*
X12450000Y31550000D01*
X-26133200Y36300000D02*
X-26873200Y35560000D01*
X7700000Y36300000D02*
X-26133200Y36300000D01*
X12450000Y31550000D02*
X7700000Y36300000D01*
X-27630000Y35560000D02*
X-27813000Y35743000D01*
G04 #@! TA.AperFunction,Conductor*
G36*
X89209191Y49905593D02*
G01*
X89245155Y49856093D01*
X89250000Y49825500D01*
X89250000Y32291008D01*
X89231093Y32232817D01*
X89221004Y32221004D01*
X86028996Y29028996D01*
X85974479Y29001219D01*
X85958992Y29000000D01*
X37099000Y29000000D01*
X37040809Y29018907D01*
X37004845Y29068407D01*
X37000000Y29099000D01*
X37000000Y30315892D01*
X39049500Y30315892D01*
X39049500Y30315890D01*
X39049500Y30184109D01*
X39083609Y30056809D01*
X39149496Y29942690D01*
X39242690Y29849496D01*
X39356810Y29783609D01*
X39356808Y29783609D01*
X39424454Y29765483D01*
X39484108Y29749500D01*
X39484110Y29749500D01*
X39615890Y29749500D01*
X39615892Y29749500D01*
X39743186Y29783608D01*
X39743190Y29783609D01*
X39857309Y29849496D01*
X39857311Y29849498D01*
X39857314Y29849500D01*
X39950500Y29942686D01*
X39950501Y29942688D01*
X39950503Y29942690D01*
X40016390Y30056809D01*
X40016390Y30056811D01*
X40016392Y30056814D01*
X40050500Y30184108D01*
X40050500Y30315892D01*
X40016392Y30443186D01*
X39950500Y30557314D01*
X39857314Y30650500D01*
X39743189Y30716390D01*
X39743188Y30716390D01*
X39743186Y30716392D01*
X39615892Y30750500D01*
X39484108Y30750500D01*
X39356814Y30716392D01*
X39356811Y30716390D01*
X39356809Y30716390D01*
X39242690Y30650503D01*
X39242688Y30650501D01*
X39242686Y30650500D01*
X39149500Y30557314D01*
X39149498Y30557311D01*
X39149496Y30557309D01*
X39083609Y30443190D01*
X39083608Y30443186D01*
X39049500Y30315892D01*
X37000000Y30315892D01*
X37000000Y31515892D01*
X57899500Y31515892D01*
X57899500Y31515890D01*
X57899500Y31384109D01*
X57933609Y31256809D01*
X57999496Y31142690D01*
X58092690Y31049496D01*
X58206810Y30983609D01*
X58206808Y30983609D01*
X58274454Y30965483D01*
X58334108Y30949500D01*
X58334110Y30949500D01*
X58465890Y30949500D01*
X58465892Y30949500D01*
X58593186Y30983608D01*
X58593190Y30983609D01*
X58707309Y31049496D01*
X58707311Y31049498D01*
X58707314Y31049500D01*
X58800500Y31142686D01*
X58800501Y31142688D01*
X58800503Y31142690D01*
X58866390Y31256809D01*
X58866390Y31256811D01*
X58866392Y31256814D01*
X58900500Y31384108D01*
X58900500Y31515892D01*
X58866392Y31643186D01*
X58805011Y31749500D01*
X58800503Y31757309D01*
X58800502Y31757309D01*
X58800500Y31757314D01*
X58707314Y31850500D01*
X58593189Y31916390D01*
X58593188Y31916390D01*
X58593186Y31916392D01*
X58465892Y31950500D01*
X58334108Y31950500D01*
X58206814Y31916392D01*
X58206811Y31916390D01*
X58206809Y31916390D01*
X58092690Y31850503D01*
X58092688Y31850501D01*
X58092686Y31850500D01*
X57999500Y31757314D01*
X57999498Y31757311D01*
X57999496Y31757309D01*
X57933609Y31643190D01*
X57933608Y31643186D01*
X57899500Y31515892D01*
X37000000Y31515892D01*
X37000000Y32765892D01*
X39799500Y32765892D01*
X39799500Y32765890D01*
X39799500Y32634109D01*
X39833609Y32506809D01*
X39899496Y32392690D01*
X39992690Y32299496D01*
X40106810Y32233609D01*
X40106808Y32233609D01*
X40174454Y32215483D01*
X40234108Y32199500D01*
X40234110Y32199500D01*
X40365890Y32199500D01*
X40365892Y32199500D01*
X40493186Y32233608D01*
X40493190Y32233609D01*
X40607309Y32299496D01*
X40607311Y32299498D01*
X40607314Y32299500D01*
X40700500Y32392686D01*
X40700501Y32392688D01*
X40700503Y32392690D01*
X40766390Y32506809D01*
X40766390Y32506811D01*
X40766392Y32506814D01*
X40800500Y32634108D01*
X40800500Y32665892D01*
X41499500Y32665892D01*
X41499500Y32665890D01*
X41499500Y32534109D01*
X41533609Y32406809D01*
X41599496Y32292690D01*
X41692690Y32199496D01*
X41806810Y32133609D01*
X41806808Y32133609D01*
X41874454Y32115483D01*
X41934108Y32099500D01*
X41934110Y32099500D01*
X42065890Y32099500D01*
X42065892Y32099500D01*
X42193186Y32133608D01*
X42193190Y32133609D01*
X42307309Y32199496D01*
X42307311Y32199498D01*
X42307314Y32199500D01*
X42400500Y32292686D01*
X42400501Y32292688D01*
X42400503Y32292690D01*
X42466390Y32406809D01*
X42466390Y32406811D01*
X42466392Y32406814D01*
X42500500Y32534108D01*
X42500500Y32665892D01*
X42466392Y32793186D01*
X42400500Y32907314D01*
X42307314Y33000500D01*
X42295520Y33007309D01*
X42194052Y33065892D01*
X57849500Y33065892D01*
X57849500Y32934108D01*
X57856681Y32907309D01*
X57883609Y32806809D01*
X57949496Y32692690D01*
X58042690Y32599496D01*
X58156810Y32533609D01*
X58156808Y32533609D01*
X58224454Y32515483D01*
X58284108Y32499500D01*
X58284110Y32499500D01*
X58415890Y32499500D01*
X58415892Y32499500D01*
X58543186Y32533608D01*
X58543190Y32533609D01*
X58657309Y32599496D01*
X58657311Y32599498D01*
X58657314Y32599500D01*
X58750500Y32692686D01*
X58750501Y32692688D01*
X58750503Y32692690D01*
X58816390Y32806809D01*
X58816390Y32806811D01*
X58816392Y32806814D01*
X58850500Y32934108D01*
X58850500Y33065892D01*
X58816392Y33193186D01*
X58812169Y33200500D01*
X58750503Y33307309D01*
X58750502Y33307309D01*
X58750500Y33307314D01*
X58657314Y33400500D01*
X58543189Y33466390D01*
X58543188Y33466390D01*
X58543186Y33466392D01*
X58415892Y33500500D01*
X58284108Y33500500D01*
X58156814Y33466392D01*
X58156811Y33466390D01*
X58156809Y33466390D01*
X58042690Y33400503D01*
X58042688Y33400501D01*
X58042686Y33400500D01*
X57949500Y33307314D01*
X57949498Y33307311D01*
X57949496Y33307309D01*
X57883609Y33193190D01*
X57883608Y33193186D01*
X57849500Y33065892D01*
X42194052Y33065892D01*
X42193189Y33066390D01*
X42193188Y33066390D01*
X42193186Y33066392D01*
X42065892Y33100500D01*
X41934108Y33100500D01*
X41806814Y33066392D01*
X41806811Y33066390D01*
X41806809Y33066390D01*
X41692690Y33000503D01*
X41692688Y33000501D01*
X41692686Y33000500D01*
X41599500Y32907314D01*
X41599498Y32907311D01*
X41599496Y32907309D01*
X41533609Y32793190D01*
X41533608Y32793186D01*
X41499500Y32665892D01*
X40800500Y32665892D01*
X40800500Y32765892D01*
X40766392Y32893186D01*
X40745066Y32930123D01*
X40700503Y33007309D01*
X40700502Y33007309D01*
X40700500Y33007314D01*
X40607314Y33100500D01*
X40493189Y33166390D01*
X40493188Y33166390D01*
X40493186Y33166392D01*
X40365892Y33200500D01*
X40234108Y33200500D01*
X40106814Y33166392D01*
X40106811Y33166390D01*
X40106809Y33166390D01*
X39992690Y33100503D01*
X39992688Y33100501D01*
X39992686Y33100500D01*
X39899500Y33007314D01*
X39899498Y33007311D01*
X39899496Y33007309D01*
X39833609Y32893190D01*
X39833608Y32893186D01*
X39799500Y32765892D01*
X37000000Y32765892D01*
X37000000Y34565892D01*
X57849500Y34565892D01*
X57849500Y34565890D01*
X57849500Y34434109D01*
X57883609Y34306809D01*
X57949496Y34192690D01*
X58042690Y34099496D01*
X58156810Y34033609D01*
X58156808Y34033609D01*
X58224454Y34015483D01*
X58284108Y33999500D01*
X58284110Y33999500D01*
X58415890Y33999500D01*
X58415892Y33999500D01*
X58543186Y34033608D01*
X58543190Y34033609D01*
X58548395Y34036614D01*
X85899500Y34036614D01*
X85899500Y33863385D01*
X85926597Y33692297D01*
X85926598Y33692293D01*
X85980123Y33527561D01*
X85980125Y33527558D01*
X86058766Y33373214D01*
X86160585Y33233073D01*
X86283073Y33110585D01*
X86423214Y33008766D01*
X86577558Y32930125D01*
X86577561Y32930123D01*
X86742293Y32876598D01*
X86742297Y32876597D01*
X86913386Y32849500D01*
X86913389Y32849500D01*
X87086614Y32849500D01*
X87257702Y32876597D01*
X87257706Y32876598D01*
X87422438Y32930123D01*
X87422441Y32930125D01*
X87576785Y33008766D01*
X87655412Y33065892D01*
X87716928Y33110586D01*
X87839414Y33233072D01*
X87941232Y33373212D01*
X88019873Y33527555D01*
X88019874Y33527558D01*
X88019876Y33527561D01*
X88073401Y33692293D01*
X88073402Y33692297D01*
X88100500Y33863385D01*
X88100500Y34036614D01*
X88073402Y34207702D01*
X88073401Y34207706D01*
X88019876Y34372438D01*
X88019874Y34372441D01*
X88019873Y34372445D01*
X87941232Y34526788D01*
X87839414Y34666928D01*
X87716928Y34789414D01*
X87576788Y34891232D01*
X87422445Y34969873D01*
X87422440Y34969874D01*
X87422438Y34969876D01*
X87257706Y35023401D01*
X87257702Y35023402D01*
X87086614Y35050500D01*
X87086611Y35050500D01*
X86913389Y35050500D01*
X86913386Y35050500D01*
X86742297Y35023402D01*
X86742293Y35023401D01*
X86577561Y34969876D01*
X86577558Y34969874D01*
X86577555Y34969873D01*
X86423212Y34891232D01*
X86283072Y34789414D01*
X86160586Y34666928D01*
X86058768Y34526788D01*
X86058766Y34526785D01*
X85980125Y34372441D01*
X85980123Y34372438D01*
X85926598Y34207706D01*
X85926597Y34207702D01*
X85899500Y34036614D01*
X58548395Y34036614D01*
X58657309Y34099496D01*
X58657311Y34099498D01*
X58657314Y34099500D01*
X58750500Y34192686D01*
X58750501Y34192688D01*
X58750503Y34192690D01*
X58816390Y34306809D01*
X58816390Y34306811D01*
X58816392Y34306814D01*
X58850500Y34434108D01*
X58850500Y34565892D01*
X58816392Y34693186D01*
X58750500Y34807314D01*
X58657314Y34900500D01*
X58543189Y34966390D01*
X58543188Y34966390D01*
X58543186Y34966392D01*
X58415892Y35000500D01*
X58284108Y35000500D01*
X58156814Y34966392D01*
X58156811Y34966390D01*
X58156809Y34966390D01*
X58042690Y34900503D01*
X58042688Y34900501D01*
X58042686Y34900500D01*
X57949500Y34807314D01*
X57949498Y34807311D01*
X57949496Y34807309D01*
X57883609Y34693190D01*
X57883608Y34693186D01*
X57849500Y34565892D01*
X37000000Y34565892D01*
X37000000Y35190892D01*
X38474500Y35190892D01*
X38474500Y35059108D01*
X38484067Y35023402D01*
X38508609Y34931809D01*
X38574496Y34817690D01*
X38667690Y34724496D01*
X38781810Y34658609D01*
X38781808Y34658609D01*
X38849454Y34640483D01*
X38909108Y34624500D01*
X38909110Y34624500D01*
X39040890Y34624500D01*
X39040892Y34624500D01*
X39168186Y34658608D01*
X39168190Y34658609D01*
X39282309Y34724496D01*
X39282311Y34724498D01*
X39282314Y34724500D01*
X39375500Y34817686D01*
X39375501Y34817688D01*
X39375503Y34817690D01*
X39441390Y34931809D01*
X39441390Y34931811D01*
X39441392Y34931814D01*
X39475500Y35059108D01*
X39475500Y35190892D01*
X39441392Y35318186D01*
X39375500Y35432314D01*
X39282314Y35525500D01*
X39168189Y35591390D01*
X39168188Y35591390D01*
X39168186Y35591392D01*
X39040892Y35625500D01*
X38909108Y35625500D01*
X38781814Y35591392D01*
X38781811Y35591390D01*
X38781809Y35591390D01*
X38667690Y35525503D01*
X38667688Y35525501D01*
X38667686Y35525500D01*
X38574500Y35432314D01*
X38574498Y35432311D01*
X38574496Y35432309D01*
X38508609Y35318190D01*
X38508608Y35318186D01*
X38474500Y35190892D01*
X37000000Y35190892D01*
X37000000Y35815892D01*
X37399500Y35815892D01*
X37399500Y35815890D01*
X37399500Y35684109D01*
X37433609Y35556809D01*
X37499496Y35442690D01*
X37592690Y35349496D01*
X37706810Y35283609D01*
X37706808Y35283609D01*
X37774454Y35265483D01*
X37834108Y35249500D01*
X37834110Y35249500D01*
X37965890Y35249500D01*
X37965892Y35249500D01*
X38093186Y35283608D01*
X38093190Y35283609D01*
X38207309Y35349496D01*
X38207311Y35349498D01*
X38207314Y35349500D01*
X38300500Y35442686D01*
X38300501Y35442688D01*
X38300503Y35442690D01*
X38366390Y35556809D01*
X38366390Y35556811D01*
X38366392Y35556814D01*
X38400500Y35684108D01*
X38400500Y35815892D01*
X38366392Y35943186D01*
X38314287Y36033435D01*
X38301565Y36093283D01*
X38326451Y36149179D01*
X38379439Y36179772D01*
X38425645Y36178562D01*
X38534108Y36149500D01*
X38665890Y36149500D01*
X38665892Y36149500D01*
X38793186Y36183608D01*
X38793190Y36183609D01*
X38907309Y36249496D01*
X38907311Y36249498D01*
X38907314Y36249500D01*
X39000500Y36342686D01*
X39000501Y36342688D01*
X39000503Y36342690D01*
X39066390Y36456809D01*
X39066390Y36456811D01*
X39066392Y36456814D01*
X39100500Y36584108D01*
X39100500Y36715892D01*
X39066392Y36843186D01*
X39053283Y36865892D01*
X54099500Y36865892D01*
X54099500Y36734108D01*
X54106813Y36706814D01*
X54133609Y36606809D01*
X54199496Y36492690D01*
X54292690Y36399496D01*
X54406810Y36333609D01*
X54419252Y36330275D01*
X54470565Y36296949D01*
X54492490Y36239826D01*
X54485092Y36196770D01*
X54483609Y36193191D01*
X54472171Y36150503D01*
X54449500Y36065892D01*
X54449500Y36065890D01*
X54449500Y35934109D01*
X54483609Y35806809D01*
X54549496Y35692690D01*
X54642690Y35599496D01*
X54756810Y35533609D01*
X54756808Y35533609D01*
X54824454Y35515483D01*
X54884108Y35499500D01*
X54884110Y35499500D01*
X55015890Y35499500D01*
X55015892Y35499500D01*
X55143186Y35533608D01*
X55143190Y35533609D01*
X55257309Y35599496D01*
X55257311Y35599498D01*
X55257314Y35599500D01*
X55350500Y35692686D01*
X55350501Y35692688D01*
X55350503Y35692690D01*
X55416390Y35806809D01*
X55416390Y35806811D01*
X55416392Y35806814D01*
X55450500Y35934108D01*
X55450500Y36065892D01*
X57849500Y36065892D01*
X57849500Y36065890D01*
X57849500Y35934109D01*
X57883609Y35806809D01*
X57949496Y35692690D01*
X58042690Y35599496D01*
X58156810Y35533609D01*
X58156808Y35533609D01*
X58224454Y35515483D01*
X58284108Y35499500D01*
X58284110Y35499500D01*
X58415890Y35499500D01*
X58415892Y35499500D01*
X58543186Y35533608D01*
X58543190Y35533609D01*
X58657309Y35599496D01*
X58657311Y35599498D01*
X58657314Y35599500D01*
X58750500Y35692686D01*
X58750501Y35692688D01*
X58750503Y35692690D01*
X58816390Y35806809D01*
X58816390Y35806811D01*
X58816392Y35806814D01*
X58850500Y35934108D01*
X58850500Y36065892D01*
X58816392Y36193186D01*
X58803283Y36215892D01*
X68149500Y36215892D01*
X68149500Y36084108D01*
X68156681Y36057309D01*
X68183609Y35956809D01*
X68249496Y35842690D01*
X68342690Y35749496D01*
X68456810Y35683609D01*
X68456808Y35683609D01*
X68524454Y35665483D01*
X68584108Y35649500D01*
X68584110Y35649500D01*
X68715890Y35649500D01*
X68715892Y35649500D01*
X68843186Y35683608D01*
X68843190Y35683609D01*
X68957309Y35749496D01*
X68957311Y35749498D01*
X68957314Y35749500D01*
X69050500Y35842686D01*
X69050501Y35842688D01*
X69050503Y35842690D01*
X69116390Y35956809D01*
X69116390Y35956811D01*
X69116392Y35956814D01*
X69150500Y36084108D01*
X69150500Y36215892D01*
X69116392Y36343186D01*
X69102895Y36366563D01*
X69050503Y36457309D01*
X69050502Y36457309D01*
X69050500Y36457314D01*
X68957314Y36550500D01*
X68843189Y36616390D01*
X68843188Y36616390D01*
X68843186Y36616392D01*
X68715892Y36650500D01*
X68584108Y36650500D01*
X68456814Y36616392D01*
X68456811Y36616390D01*
X68456809Y36616390D01*
X68342690Y36550503D01*
X68342688Y36550501D01*
X68342686Y36550500D01*
X68249500Y36457314D01*
X68249498Y36457311D01*
X68249496Y36457309D01*
X68183609Y36343190D01*
X68183608Y36343186D01*
X68149500Y36215892D01*
X58803283Y36215892D01*
X58756484Y36296949D01*
X58750503Y36307309D01*
X58750502Y36307309D01*
X58750500Y36307314D01*
X58657314Y36400500D01*
X58543189Y36466390D01*
X58543188Y36466390D01*
X58543186Y36466392D01*
X58415892Y36500500D01*
X58284108Y36500500D01*
X58156814Y36466392D01*
X58156811Y36466390D01*
X58156809Y36466390D01*
X58042690Y36400503D01*
X58042688Y36400501D01*
X58042686Y36400500D01*
X57949500Y36307314D01*
X57949498Y36307311D01*
X57949496Y36307309D01*
X57883609Y36193190D01*
X57883608Y36193186D01*
X57849500Y36065892D01*
X55450500Y36065892D01*
X55416392Y36193186D01*
X55389464Y36239826D01*
X55350503Y36307309D01*
X55350502Y36307309D01*
X55350500Y36307314D01*
X55257314Y36400500D01*
X55143186Y36466392D01*
X55130752Y36469723D01*
X55079438Y36503046D01*
X55057510Y36560167D01*
X55064909Y36603233D01*
X55066390Y36606809D01*
X55066390Y36606811D01*
X55066392Y36606814D01*
X55100500Y36734108D01*
X55100500Y36865892D01*
X55073705Y36965892D01*
X64749500Y36965892D01*
X64749500Y36965890D01*
X64749500Y36834109D01*
X64783609Y36706809D01*
X64849496Y36592690D01*
X64942690Y36499496D01*
X65056810Y36433609D01*
X65056808Y36433609D01*
X65124454Y36415483D01*
X65184108Y36399500D01*
X65184110Y36399500D01*
X65315890Y36399500D01*
X65315892Y36399500D01*
X65443186Y36433608D01*
X65443190Y36433609D01*
X65557309Y36499496D01*
X65557311Y36499498D01*
X65557314Y36499500D01*
X65650500Y36592686D01*
X65650501Y36592688D01*
X65650503Y36592690D01*
X65716390Y36706809D01*
X65716390Y36706811D01*
X65716392Y36706814D01*
X65750500Y36834108D01*
X65750500Y36965892D01*
X65716392Y37093186D01*
X65692906Y37133864D01*
X65650503Y37207309D01*
X65650502Y37207309D01*
X65650500Y37207314D01*
X65557314Y37300500D01*
X65443189Y37366390D01*
X65443188Y37366390D01*
X65443186Y37366392D01*
X65315892Y37400500D01*
X65184108Y37400500D01*
X65056814Y37366392D01*
X65056811Y37366390D01*
X65056809Y37366390D01*
X64942690Y37300503D01*
X64942688Y37300501D01*
X64942686Y37300500D01*
X64849500Y37207314D01*
X64849498Y37207311D01*
X64849496Y37207309D01*
X64783609Y37093190D01*
X64783608Y37093186D01*
X64749500Y36965892D01*
X55073705Y36965892D01*
X55066392Y36993186D01*
X55000500Y37107314D01*
X54907314Y37200500D01*
X54895520Y37207309D01*
X54834568Y37242500D01*
X54793189Y37266390D01*
X54793188Y37266390D01*
X54793186Y37266392D01*
X54665892Y37300500D01*
X54534108Y37300500D01*
X54406814Y37266392D01*
X54406811Y37266390D01*
X54406809Y37266390D01*
X54292690Y37200503D01*
X54292688Y37200501D01*
X54292686Y37200500D01*
X54199500Y37107314D01*
X54199498Y37107311D01*
X54199496Y37107309D01*
X54133609Y36993190D01*
X54133608Y36993186D01*
X54099500Y36865892D01*
X39053283Y36865892D01*
X39000500Y36957314D01*
X38907314Y37050500D01*
X38793189Y37116390D01*
X38793188Y37116390D01*
X38793186Y37116392D01*
X38665892Y37150500D01*
X38534108Y37150500D01*
X38406814Y37116392D01*
X38406811Y37116390D01*
X38406809Y37116390D01*
X38292690Y37050503D01*
X38292688Y37050501D01*
X38292686Y37050500D01*
X38199500Y36957314D01*
X38199498Y36957311D01*
X38199496Y36957309D01*
X38133609Y36843190D01*
X38133608Y36843186D01*
X38099500Y36715892D01*
X38099500Y36584108D01*
X38122170Y36499500D01*
X38133609Y36456810D01*
X38185713Y36366563D01*
X38198434Y36306715D01*
X38173547Y36250819D01*
X38120559Y36220227D01*
X38074358Y36221436D01*
X37965892Y36250500D01*
X37834108Y36250500D01*
X37706814Y36216392D01*
X37706811Y36216390D01*
X37706809Y36216390D01*
X37592690Y36150503D01*
X37592688Y36150501D01*
X37592686Y36150500D01*
X37499500Y36057314D01*
X37499498Y36057311D01*
X37499496Y36057309D01*
X37433609Y35943190D01*
X37433608Y35943186D01*
X37399500Y35815892D01*
X37000000Y35815892D01*
X37000000Y37075673D01*
X37018907Y37133864D01*
X37068407Y37169828D01*
X37073375Y37171299D01*
X37093186Y37176608D01*
X37093189Y37176609D01*
X37207309Y37242496D01*
X37207311Y37242498D01*
X37207314Y37242500D01*
X37300500Y37335686D01*
X37300501Y37335688D01*
X37300503Y37335690D01*
X37366390Y37449809D01*
X37366390Y37449811D01*
X37366392Y37449814D01*
X37400500Y37577108D01*
X37400500Y37708892D01*
X37398624Y37715892D01*
X76690100Y37715892D01*
X76690100Y37584108D01*
X76691976Y37577108D01*
X76724209Y37456809D01*
X76790096Y37342690D01*
X76883290Y37249496D01*
X76997410Y37183609D01*
X76997408Y37183609D01*
X77043352Y37171299D01*
X77124708Y37149500D01*
X77124710Y37149500D01*
X77256490Y37149500D01*
X77256492Y37149500D01*
X77383786Y37183608D01*
X77383790Y37183609D01*
X77497909Y37249496D01*
X77497911Y37249498D01*
X77497914Y37249500D01*
X77591100Y37342686D01*
X77591101Y37342688D01*
X77591103Y37342690D01*
X77656990Y37456809D01*
X77656990Y37456811D01*
X77656992Y37456814D01*
X77691100Y37584108D01*
X77691100Y37715892D01*
X77656992Y37843186D01*
X77595141Y37950314D01*
X77591103Y37957309D01*
X77591102Y37957309D01*
X77591100Y37957314D01*
X77497914Y38050500D01*
X77383789Y38116390D01*
X77383788Y38116390D01*
X77383786Y38116392D01*
X77256492Y38150500D01*
X77124708Y38150500D01*
X76997414Y38116392D01*
X76997411Y38116390D01*
X76997409Y38116390D01*
X76883290Y38050503D01*
X76883288Y38050501D01*
X76883286Y38050500D01*
X76790100Y37957314D01*
X76790098Y37957311D01*
X76790096Y37957309D01*
X76724209Y37843190D01*
X76724208Y37843186D01*
X76690100Y37715892D01*
X37398624Y37715892D01*
X37366392Y37836186D01*
X37362348Y37843190D01*
X37300503Y37950309D01*
X37300502Y37950309D01*
X37300500Y37950314D01*
X37207314Y38043500D01*
X37093186Y38109392D01*
X37073377Y38114699D01*
X37022065Y38148020D01*
X37000136Y38205141D01*
X37000000Y38210326D01*
X37000000Y38701516D01*
X37018907Y38759707D01*
X37049500Y38787252D01*
X37157309Y38849496D01*
X37157311Y38849498D01*
X37157314Y38849500D01*
X37250500Y38942686D01*
X37250501Y38942688D01*
X37250503Y38942690D01*
X37316390Y39056810D01*
X37316390Y39056811D01*
X37316392Y39056814D01*
X37318824Y39065892D01*
X57949500Y39065892D01*
X57949500Y39065890D01*
X57949500Y38934109D01*
X57983609Y38806809D01*
X58049496Y38692690D01*
X58142690Y38599496D01*
X58256810Y38533609D01*
X58256808Y38533609D01*
X58324454Y38515483D01*
X58384108Y38499500D01*
X58384110Y38499500D01*
X58515890Y38499500D01*
X58515892Y38499500D01*
X58643186Y38533608D01*
X58643190Y38533609D01*
X58757309Y38599496D01*
X58757311Y38599498D01*
X58757314Y38599500D01*
X58850500Y38692686D01*
X58850501Y38692688D01*
X58850503Y38692690D01*
X58916390Y38806809D01*
X58916390Y38806811D01*
X58916392Y38806814D01*
X58950500Y38934108D01*
X58950500Y39065892D01*
X58916392Y39193186D01*
X58850500Y39307314D01*
X58757314Y39400500D01*
X58644052Y39465892D01*
X59749500Y39465892D01*
X59749500Y39334108D01*
X59756681Y39307309D01*
X59783609Y39206809D01*
X59849496Y39092690D01*
X59942690Y38999496D01*
X60056810Y38933609D01*
X60056808Y38933609D01*
X60124454Y38915483D01*
X60184108Y38899500D01*
X60184110Y38899500D01*
X60315890Y38899500D01*
X60315892Y38899500D01*
X60443186Y38933608D01*
X60443190Y38933609D01*
X60557309Y38999496D01*
X60557311Y38999498D01*
X60557314Y38999500D01*
X60650500Y39092686D01*
X60650501Y39092688D01*
X60650503Y39092690D01*
X60716390Y39206809D01*
X60716390Y39206811D01*
X60716392Y39206814D01*
X60750500Y39334108D01*
X60750500Y39465892D01*
X60716392Y39593186D01*
X60655011Y39699500D01*
X60650503Y39707309D01*
X60650502Y39707309D01*
X60650500Y39707314D01*
X60557314Y39800500D01*
X60443189Y39866390D01*
X60443188Y39866390D01*
X60443186Y39866392D01*
X60315892Y39900500D01*
X60184108Y39900500D01*
X60056814Y39866392D01*
X60056811Y39866390D01*
X60056809Y39866390D01*
X59942690Y39800503D01*
X59942688Y39800501D01*
X59942686Y39800500D01*
X59849500Y39707314D01*
X59849498Y39707311D01*
X59849496Y39707309D01*
X59783609Y39593190D01*
X59783608Y39593186D01*
X59749500Y39465892D01*
X58644052Y39465892D01*
X58643189Y39466390D01*
X58643188Y39466390D01*
X58643186Y39466392D01*
X58515892Y39500500D01*
X58384108Y39500500D01*
X58256814Y39466392D01*
X58256811Y39466390D01*
X58256809Y39466390D01*
X58142690Y39400503D01*
X58142688Y39400501D01*
X58142686Y39400500D01*
X58049500Y39307314D01*
X58049498Y39307311D01*
X58049496Y39307309D01*
X57983609Y39193190D01*
X57983608Y39193186D01*
X57949500Y39065892D01*
X37318824Y39065892D01*
X37350500Y39184108D01*
X37350500Y39315892D01*
X37316392Y39443186D01*
X37250500Y39557314D01*
X37157314Y39650500D01*
X37049499Y39712747D01*
X37008559Y39758214D01*
X37000000Y39798482D01*
X37000000Y41065892D01*
X52699500Y41065892D01*
X52699500Y40934108D01*
X52708504Y40900503D01*
X52733609Y40806809D01*
X52799496Y40692690D01*
X52892690Y40599496D01*
X53006810Y40533609D01*
X53006808Y40533609D01*
X53072932Y40515892D01*
X53134108Y40499500D01*
X53134110Y40499500D01*
X53265890Y40499500D01*
X53265892Y40499500D01*
X53393186Y40533608D01*
X53393190Y40533609D01*
X53449105Y40565892D01*
X58099500Y40565892D01*
X58099500Y40565890D01*
X58099500Y40434109D01*
X58133609Y40306809D01*
X58199496Y40192690D01*
X58292690Y40099496D01*
X58406810Y40033609D01*
X58406808Y40033609D01*
X58474454Y40015483D01*
X58534108Y39999500D01*
X58534110Y39999500D01*
X58665890Y39999500D01*
X58665892Y39999500D01*
X58793186Y40033608D01*
X58793190Y40033609D01*
X58907309Y40099496D01*
X58907311Y40099498D01*
X58907314Y40099500D01*
X59000500Y40192686D01*
X59000501Y40192688D01*
X59000503Y40192690D01*
X59042766Y40265892D01*
X71149500Y40265892D01*
X71149500Y40265890D01*
X71149500Y40134109D01*
X71183609Y40006809D01*
X71249496Y39892690D01*
X71342690Y39799496D01*
X71456810Y39733609D01*
X71456808Y39733609D01*
X71524454Y39715483D01*
X71584108Y39699500D01*
X71584110Y39699500D01*
X71715890Y39699500D01*
X71715892Y39699500D01*
X71843186Y39733608D01*
X71843190Y39733609D01*
X71957309Y39799496D01*
X71957311Y39799498D01*
X71957314Y39799500D01*
X72050500Y39892686D01*
X72050501Y39892688D01*
X72050503Y39892690D01*
X72116390Y40006809D01*
X72116390Y40006811D01*
X72116392Y40006814D01*
X72150500Y40134108D01*
X72150500Y40265892D01*
X72137103Y40315892D01*
X76999500Y40315892D01*
X76999500Y40315890D01*
X76999500Y40184109D01*
X77033609Y40056809D01*
X77099496Y39942690D01*
X77192690Y39849496D01*
X77306810Y39783609D01*
X77306808Y39783609D01*
X77374454Y39765483D01*
X77434108Y39749500D01*
X77434110Y39749500D01*
X77565890Y39749500D01*
X77565892Y39749500D01*
X77693186Y39783608D01*
X77693190Y39783609D01*
X77807309Y39849496D01*
X77807311Y39849498D01*
X77807314Y39849500D01*
X77900500Y39942686D01*
X77900501Y39942688D01*
X77900503Y39942690D01*
X77966390Y40056809D01*
X77966390Y40056811D01*
X77966392Y40056814D01*
X78000500Y40184108D01*
X78000500Y40315892D01*
X77966392Y40443186D01*
X77924415Y40515892D01*
X78999500Y40515892D01*
X78999500Y40515890D01*
X78999500Y40384109D01*
X79033609Y40256809D01*
X79099496Y40142690D01*
X79192690Y40049496D01*
X79306810Y39983609D01*
X79306808Y39983609D01*
X79374454Y39965483D01*
X79434108Y39949500D01*
X79434110Y39949500D01*
X79565890Y39949500D01*
X79565892Y39949500D01*
X79693186Y39983608D01*
X79693190Y39983609D01*
X79807309Y40049496D01*
X79812460Y40053449D01*
X79813816Y40051680D01*
X79859535Y40074963D01*
X79919964Y40065378D01*
X79937125Y40052909D01*
X79937540Y40053449D01*
X79942690Y40049496D01*
X80056810Y39983609D01*
X80056808Y39983609D01*
X80124454Y39965483D01*
X80184108Y39949500D01*
X80184110Y39949500D01*
X80315890Y39949500D01*
X80315892Y39949500D01*
X80443186Y39983608D01*
X80443190Y39983609D01*
X80557309Y40049496D01*
X80557311Y40049498D01*
X80557314Y40049500D01*
X80650500Y40142686D01*
X80650501Y40142688D01*
X80650503Y40142690D01*
X80716390Y40256809D01*
X80716390Y40256811D01*
X80716392Y40256814D01*
X80750500Y40384108D01*
X80750500Y40515892D01*
X80716392Y40643186D01*
X80712169Y40650500D01*
X80650503Y40757309D01*
X80650502Y40757309D01*
X80650500Y40757314D01*
X80557314Y40850500D01*
X80443189Y40916390D01*
X80443188Y40916390D01*
X80443186Y40916392D01*
X80315892Y40950500D01*
X80184108Y40950500D01*
X80056814Y40916392D01*
X80056811Y40916390D01*
X80056809Y40916390D01*
X79942690Y40850503D01*
X79937540Y40846551D01*
X79936181Y40848321D01*
X79890487Y40825040D01*
X79830055Y40834611D01*
X79812875Y40847092D01*
X79812460Y40846551D01*
X79807317Y40850496D01*
X79807314Y40850500D01*
X79693189Y40916390D01*
X79693188Y40916390D01*
X79693186Y40916392D01*
X79565892Y40950500D01*
X79434108Y40950500D01*
X79306814Y40916392D01*
X79306811Y40916390D01*
X79306809Y40916390D01*
X79192690Y40850503D01*
X79192688Y40850501D01*
X79192686Y40850500D01*
X79099500Y40757314D01*
X79099498Y40757311D01*
X79099496Y40757309D01*
X79033609Y40643190D01*
X79033608Y40643186D01*
X78999500Y40515892D01*
X77924415Y40515892D01*
X77900500Y40557314D01*
X77807314Y40650500D01*
X77693189Y40716390D01*
X77693188Y40716390D01*
X77693186Y40716392D01*
X77565892Y40750500D01*
X77434108Y40750500D01*
X77306814Y40716392D01*
X77306811Y40716390D01*
X77306809Y40716390D01*
X77192690Y40650503D01*
X77192688Y40650501D01*
X77192686Y40650500D01*
X77099500Y40557314D01*
X77099499Y40557312D01*
X77099496Y40557309D01*
X77033609Y40443190D01*
X77033608Y40443186D01*
X76999500Y40315892D01*
X72137103Y40315892D01*
X72116392Y40393186D01*
X72087524Y40443186D01*
X72050503Y40507309D01*
X72050502Y40507309D01*
X72050500Y40507314D01*
X71957314Y40600500D01*
X71843189Y40666390D01*
X71843188Y40666390D01*
X71843186Y40666392D01*
X71715892Y40700500D01*
X71584108Y40700500D01*
X71456814Y40666392D01*
X71456811Y40666390D01*
X71456809Y40666390D01*
X71342690Y40600503D01*
X71342688Y40600501D01*
X71342686Y40600500D01*
X71249500Y40507314D01*
X71249498Y40507311D01*
X71249496Y40507309D01*
X71183609Y40393190D01*
X71183608Y40393186D01*
X71149500Y40265892D01*
X59042766Y40265892D01*
X59066388Y40306806D01*
X59066391Y40306813D01*
X59066392Y40306814D01*
X59100500Y40434108D01*
X59100500Y40565892D01*
X59066392Y40693186D01*
X59062169Y40700500D01*
X59000503Y40807309D01*
X59000502Y40807309D01*
X59000500Y40807314D01*
X58907314Y40900500D01*
X58793189Y40966390D01*
X58793188Y40966390D01*
X58793186Y40966392D01*
X58665892Y41000500D01*
X58534108Y41000500D01*
X58406814Y40966392D01*
X58406811Y40966390D01*
X58406809Y40966390D01*
X58292690Y40900503D01*
X58292688Y40900501D01*
X58292686Y40900500D01*
X58199500Y40807314D01*
X58199498Y40807311D01*
X58199496Y40807309D01*
X58133609Y40693190D01*
X58133608Y40693186D01*
X58099500Y40565892D01*
X53449105Y40565892D01*
X53507309Y40599496D01*
X53507311Y40599498D01*
X53507314Y40599500D01*
X53600500Y40692686D01*
X53600501Y40692688D01*
X53600503Y40692690D01*
X53666390Y40806809D01*
X53666390Y40806811D01*
X53666392Y40806814D01*
X53700500Y40934108D01*
X53700500Y41065892D01*
X53666392Y41193186D01*
X53600500Y41307314D01*
X53507314Y41400500D01*
X53393189Y41466390D01*
X53393188Y41466390D01*
X53393186Y41466392D01*
X53265892Y41500500D01*
X53134108Y41500500D01*
X53006814Y41466392D01*
X53006811Y41466390D01*
X53006809Y41466390D01*
X52892690Y41400503D01*
X52892688Y41400501D01*
X52892686Y41400500D01*
X52799500Y41307314D01*
X52799498Y41307311D01*
X52799496Y41307309D01*
X52733609Y41193190D01*
X52733608Y41193186D01*
X52699500Y41065892D01*
X37000000Y41065892D01*
X37000000Y41565892D01*
X85599500Y41565892D01*
X85599500Y41565890D01*
X85599500Y41434109D01*
X85633609Y41306809D01*
X85699496Y41192690D01*
X85792690Y41099496D01*
X85906810Y41033609D01*
X85906808Y41033609D01*
X85974454Y41015483D01*
X86034108Y40999500D01*
X86034110Y40999500D01*
X86165890Y40999500D01*
X86165892Y40999500D01*
X86293186Y41033608D01*
X86293190Y41033609D01*
X86407309Y41099496D01*
X86407311Y41099498D01*
X86407314Y41099500D01*
X86500500Y41192686D01*
X86500501Y41192688D01*
X86500503Y41192690D01*
X86566390Y41306809D01*
X86566390Y41306811D01*
X86566392Y41306814D01*
X86600500Y41434108D01*
X86600500Y41565892D01*
X86566392Y41693186D01*
X86500500Y41807314D01*
X86407314Y41900500D01*
X86293189Y41966390D01*
X86293188Y41966390D01*
X86293186Y41966392D01*
X86165892Y42000500D01*
X86034108Y42000500D01*
X85906814Y41966392D01*
X85906811Y41966390D01*
X85906809Y41966390D01*
X85792690Y41900503D01*
X85792688Y41900501D01*
X85792686Y41900500D01*
X85699500Y41807314D01*
X85699498Y41807311D01*
X85699496Y41807309D01*
X85633609Y41693190D01*
X85633608Y41693186D01*
X85599500Y41565892D01*
X37000000Y41565892D01*
X37000000Y42315892D01*
X38049500Y42315892D01*
X38049500Y42315890D01*
X38049500Y42184109D01*
X38083609Y42056809D01*
X38149496Y41942690D01*
X38242690Y41849496D01*
X38356810Y41783609D01*
X38356808Y41783609D01*
X38424454Y41765483D01*
X38484108Y41749500D01*
X38484110Y41749500D01*
X38615890Y41749500D01*
X38615892Y41749500D01*
X38743186Y41783608D01*
X38743190Y41783609D01*
X38857309Y41849496D01*
X38857311Y41849498D01*
X38857314Y41849500D01*
X38950500Y41942686D01*
X38950501Y41942688D01*
X38950503Y41942690D01*
X39016390Y42056809D01*
X39016390Y42056811D01*
X39016392Y42056814D01*
X39050500Y42184108D01*
X39050500Y42315892D01*
X39016392Y42443186D01*
X38950500Y42557314D01*
X38857314Y42650500D01*
X38743189Y42716390D01*
X38743188Y42716390D01*
X38743186Y42716392D01*
X38615892Y42750500D01*
X38484108Y42750500D01*
X38356814Y42716392D01*
X38356811Y42716390D01*
X38356809Y42716390D01*
X38242690Y42650503D01*
X38242688Y42650501D01*
X38242686Y42650500D01*
X38149500Y42557314D01*
X38149498Y42557311D01*
X38149496Y42557309D01*
X38083609Y42443190D01*
X38083608Y42443186D01*
X38049500Y42315892D01*
X37000000Y42315892D01*
X37000000Y43215892D01*
X39749500Y43215892D01*
X39749500Y43215890D01*
X39749500Y43084109D01*
X39783609Y42956809D01*
X39849496Y42842690D01*
X39942690Y42749496D01*
X40056810Y42683609D01*
X40056808Y42683609D01*
X40124454Y42665483D01*
X40184108Y42649500D01*
X40184110Y42649500D01*
X40315890Y42649500D01*
X40315892Y42649500D01*
X40443186Y42683608D01*
X40443190Y42683609D01*
X40557309Y42749496D01*
X40557311Y42749498D01*
X40557314Y42749500D01*
X40650500Y42842686D01*
X40650501Y42842688D01*
X40650503Y42842690D01*
X40716390Y42956809D01*
X40716390Y42956811D01*
X40716392Y42956814D01*
X40750500Y43084108D01*
X40750500Y43215892D01*
X40716392Y43343186D01*
X40650500Y43457314D01*
X40557314Y43550500D01*
X40444052Y43615892D01*
X84049500Y43615892D01*
X84049500Y43484108D01*
X84056681Y43457309D01*
X84083609Y43356809D01*
X84149496Y43242690D01*
X84242690Y43149496D01*
X84356810Y43083609D01*
X84356808Y43083609D01*
X84424454Y43065483D01*
X84484108Y43049500D01*
X84484110Y43049500D01*
X84615890Y43049500D01*
X84615892Y43049500D01*
X84743186Y43083608D01*
X84743190Y43083609D01*
X84857309Y43149496D01*
X84857311Y43149498D01*
X84857314Y43149500D01*
X84950500Y43242686D01*
X84950501Y43242688D01*
X84950503Y43242690D01*
X85016390Y43356809D01*
X85016390Y43356811D01*
X85016392Y43356814D01*
X85050500Y43484108D01*
X85050500Y43615892D01*
X85016392Y43743186D01*
X85000366Y43770943D01*
X84950503Y43857309D01*
X84950502Y43857309D01*
X84950500Y43857314D01*
X84857314Y43950500D01*
X84743189Y44016390D01*
X84743188Y44016390D01*
X84743186Y44016392D01*
X84615892Y44050500D01*
X84484108Y44050500D01*
X84356814Y44016392D01*
X84356811Y44016390D01*
X84356809Y44016390D01*
X84242690Y43950503D01*
X84242688Y43950501D01*
X84242686Y43950500D01*
X84149500Y43857314D01*
X84149498Y43857311D01*
X84149496Y43857309D01*
X84083609Y43743190D01*
X84083608Y43743186D01*
X84049500Y43615892D01*
X40444052Y43615892D01*
X40443189Y43616390D01*
X40443188Y43616390D01*
X40443186Y43616392D01*
X40315892Y43650500D01*
X40184108Y43650500D01*
X40056814Y43616392D01*
X40056811Y43616390D01*
X40056809Y43616390D01*
X39942690Y43550503D01*
X39942688Y43550501D01*
X39942686Y43550500D01*
X39849500Y43457314D01*
X39849498Y43457311D01*
X39849496Y43457309D01*
X39783609Y43343190D01*
X39783608Y43343186D01*
X39749500Y43215892D01*
X37000000Y43215892D01*
X37000000Y43488497D01*
X37013263Y43537996D01*
X37059576Y43618214D01*
X37093063Y43743186D01*
X37100500Y43770943D01*
X37100500Y43929057D01*
X37059577Y44081784D01*
X37013262Y44162003D01*
X37000000Y44211502D01*
X37000000Y44415892D01*
X70799500Y44415892D01*
X70799500Y44415890D01*
X70799500Y44284109D01*
X70833609Y44156809D01*
X70899496Y44042690D01*
X70992690Y43949496D01*
X71106810Y43883609D01*
X71106808Y43883609D01*
X71174454Y43865483D01*
X71234108Y43849500D01*
X71234110Y43849500D01*
X71365890Y43849500D01*
X71365892Y43849500D01*
X71493186Y43883608D01*
X71493190Y43883609D01*
X71607309Y43949496D01*
X71607311Y43949498D01*
X71607314Y43949500D01*
X71700500Y44042686D01*
X71700501Y44042688D01*
X71700503Y44042690D01*
X71766390Y44156809D01*
X71766390Y44156811D01*
X71766392Y44156814D01*
X71800500Y44284108D01*
X71800500Y44365892D01*
X77499500Y44365892D01*
X77499500Y44365890D01*
X77499500Y44234109D01*
X77533609Y44106809D01*
X77599496Y43992690D01*
X77692690Y43899496D01*
X77806810Y43833609D01*
X77806808Y43833609D01*
X77874454Y43815483D01*
X77934108Y43799500D01*
X77934110Y43799500D01*
X78065890Y43799500D01*
X78065892Y43799500D01*
X78193186Y43833608D01*
X78193190Y43833609D01*
X78307309Y43899496D01*
X78307311Y43899498D01*
X78307314Y43899500D01*
X78400500Y43992686D01*
X78400501Y43992688D01*
X78400503Y43992690D01*
X78466390Y44106809D01*
X78466390Y44106811D01*
X78466392Y44106814D01*
X78500500Y44234108D01*
X78500500Y44365892D01*
X78466392Y44493186D01*
X78437524Y44543186D01*
X78400503Y44607309D01*
X78400502Y44607309D01*
X78400500Y44607314D01*
X78307314Y44700500D01*
X78193189Y44766390D01*
X78193188Y44766390D01*
X78193186Y44766392D01*
X78065892Y44800500D01*
X77934108Y44800500D01*
X77806814Y44766392D01*
X77806811Y44766390D01*
X77806809Y44766390D01*
X77692690Y44700503D01*
X77692688Y44700501D01*
X77692686Y44700500D01*
X77599500Y44607314D01*
X77599498Y44607311D01*
X77599496Y44607309D01*
X77533609Y44493190D01*
X77533608Y44493186D01*
X77499500Y44365892D01*
X71800500Y44365892D01*
X71800500Y44415892D01*
X71766392Y44543186D01*
X71729370Y44607309D01*
X71700503Y44657309D01*
X71700502Y44657309D01*
X71700500Y44657314D01*
X71607314Y44750500D01*
X71493189Y44816390D01*
X71493188Y44816390D01*
X71493186Y44816392D01*
X71365892Y44850500D01*
X71234108Y44850500D01*
X71106814Y44816392D01*
X71106811Y44816390D01*
X71106809Y44816390D01*
X70992690Y44750503D01*
X70992688Y44750501D01*
X70992686Y44750500D01*
X70899500Y44657314D01*
X70899498Y44657311D01*
X70899496Y44657309D01*
X70833609Y44543190D01*
X70833608Y44543186D01*
X70799500Y44415892D01*
X37000000Y44415892D01*
X37000000Y45807477D01*
X40044000Y45807477D01*
X40044000Y45660522D01*
X40072668Y45516400D01*
X40072668Y45516398D01*
X40128900Y45380640D01*
X40128906Y45380629D01*
X40210543Y45258452D01*
X40314452Y45154543D01*
X40436629Y45072906D01*
X40436640Y45072900D01*
X40572399Y45016668D01*
X40716522Y44988000D01*
X40716525Y44988000D01*
X40863477Y44988000D01*
X40959558Y45007112D01*
X41007600Y45016668D01*
X41007601Y45016668D01*
X41143359Y45072900D01*
X41143370Y45072906D01*
X41265547Y45154543D01*
X41369452Y45258448D01*
X41369456Y45258452D01*
X41407836Y45315892D01*
X83299500Y45315892D01*
X83299500Y45315890D01*
X83299500Y45184109D01*
X83333609Y45056809D01*
X83399496Y44942690D01*
X83492690Y44849496D01*
X83606810Y44783609D01*
X83606808Y44783609D01*
X83671073Y44766390D01*
X83734108Y44749500D01*
X83734110Y44749500D01*
X83865890Y44749500D01*
X83865892Y44749500D01*
X83993186Y44783608D01*
X83993190Y44783609D01*
X84107309Y44849496D01*
X84107311Y44849498D01*
X84107314Y44849500D01*
X84200500Y44942686D01*
X84200501Y44942688D01*
X84200503Y44942690D01*
X84242798Y45015947D01*
X84288267Y45056888D01*
X84349117Y45063284D01*
X84402105Y45032691D01*
X84424160Y44992072D01*
X84433608Y44956812D01*
X84433609Y44956810D01*
X84499496Y44842690D01*
X84592690Y44749496D01*
X84706810Y44683609D01*
X84706808Y44683609D01*
X84774454Y44665483D01*
X84834108Y44649500D01*
X84834110Y44649500D01*
X84965890Y44649500D01*
X84965892Y44649500D01*
X85093186Y44683608D01*
X85093190Y44683609D01*
X85207309Y44749496D01*
X85207311Y44749498D01*
X85207314Y44749500D01*
X85300500Y44842686D01*
X85300501Y44842688D01*
X85300503Y44842690D01*
X85366390Y44956809D01*
X85366391Y44956812D01*
X85366392Y44956814D01*
X85400500Y45084108D01*
X85400500Y45215892D01*
X85366392Y45343186D01*
X85346648Y45377383D01*
X85300503Y45457309D01*
X85300502Y45457309D01*
X85300500Y45457314D01*
X85207314Y45550500D01*
X85195520Y45557309D01*
X85093189Y45616390D01*
X85093188Y45616390D01*
X85093186Y45616392D01*
X84965892Y45650500D01*
X84834108Y45650500D01*
X84706814Y45616392D01*
X84706811Y45616390D01*
X84706809Y45616390D01*
X84592690Y45550503D01*
X84592688Y45550501D01*
X84592686Y45550500D01*
X84499500Y45457314D01*
X84499498Y45457311D01*
X84499496Y45457309D01*
X84457201Y45384052D01*
X84411732Y45343111D01*
X84350881Y45336715D01*
X84297893Y45367308D01*
X84275839Y45407927D01*
X84266392Y45443186D01*
X84200500Y45557314D01*
X84107314Y45650500D01*
X84089955Y45660522D01*
X83993189Y45716390D01*
X83993188Y45716390D01*
X83993186Y45716392D01*
X83865892Y45750500D01*
X83734108Y45750500D01*
X83606814Y45716392D01*
X83606811Y45716390D01*
X83606809Y45716390D01*
X83492690Y45650503D01*
X83492688Y45650501D01*
X83492686Y45650500D01*
X83399500Y45557314D01*
X83399498Y45557311D01*
X83399496Y45557309D01*
X83333609Y45443190D01*
X83333608Y45443186D01*
X83299500Y45315892D01*
X41407836Y45315892D01*
X41426076Y45343190D01*
X41448924Y45377383D01*
X41448925Y45377385D01*
X41451094Y45380632D01*
X41451097Y45380636D01*
X41462403Y45407930D01*
X41507331Y45516398D01*
X41507332Y45516400D01*
X41536000Y45660525D01*
X41536000Y45807475D01*
X41507332Y45951600D01*
X41451097Y46087364D01*
X41369456Y46209548D01*
X41265548Y46313456D01*
X41143364Y46395097D01*
X41007600Y46451332D01*
X40863475Y46480000D01*
X40716525Y46480000D01*
X40572400Y46451332D01*
X40560819Y46446535D01*
X40436640Y46395099D01*
X40436629Y46395093D01*
X40314452Y46313456D01*
X40210543Y46209547D01*
X40128906Y46087370D01*
X40128900Y46087359D01*
X40072668Y45951601D01*
X40072668Y45951599D01*
X40044000Y45807477D01*
X37000000Y45807477D01*
X37000000Y47839477D01*
X40044000Y47839477D01*
X40044000Y47692522D01*
X40072668Y47548400D01*
X40072668Y47548398D01*
X40128900Y47412640D01*
X40128906Y47412629D01*
X40210543Y47290452D01*
X40314452Y47186543D01*
X40436629Y47104906D01*
X40436640Y47104900D01*
X40572399Y47048668D01*
X40716522Y47020000D01*
X40716525Y47020000D01*
X40863477Y47020000D01*
X40959558Y47039112D01*
X41007600Y47048668D01*
X41007601Y47048668D01*
X41143359Y47104900D01*
X41143370Y47104906D01*
X41265547Y47186543D01*
X41369452Y47290448D01*
X41369456Y47290452D01*
X41398986Y47334647D01*
X45174500Y47334647D01*
X45174500Y47165352D01*
X45200980Y46998157D01*
X45253293Y46837155D01*
X45330148Y46686317D01*
X45359158Y46646389D01*
X45429654Y46549359D01*
X45549359Y46429654D01*
X45598306Y46394092D01*
X45686317Y46330148D01*
X45837155Y46253293D01*
X45998157Y46200980D01*
X46165353Y46174500D01*
X46165356Y46174500D01*
X46334647Y46174500D01*
X46501842Y46200980D01*
X46662844Y46253293D01*
X46662846Y46253294D01*
X46662849Y46253295D01*
X46743903Y46294594D01*
X46813682Y46330148D01*
X46813685Y46330150D01*
X46950641Y46429654D01*
X47070346Y46549359D01*
X47169850Y46686315D01*
X47246705Y46837151D01*
X47299018Y46998153D01*
X47299019Y46998157D01*
X47325500Y47165352D01*
X47325500Y47334647D01*
X59174500Y47334647D01*
X59174500Y47165352D01*
X59200980Y46998157D01*
X59253293Y46837155D01*
X59330148Y46686317D01*
X59359158Y46646389D01*
X59429654Y46549359D01*
X59549359Y46429654D01*
X59598306Y46394092D01*
X59686317Y46330148D01*
X59837155Y46253293D01*
X59998157Y46200980D01*
X60165353Y46174500D01*
X60165356Y46174500D01*
X60334647Y46174500D01*
X60501842Y46200980D01*
X60662844Y46253293D01*
X60662846Y46253294D01*
X60662849Y46253295D01*
X60743903Y46294594D01*
X60813682Y46330148D01*
X60813685Y46330150D01*
X60950641Y46429654D01*
X61070346Y46549359D01*
X61169850Y46686315D01*
X61246705Y46837151D01*
X61299018Y46998153D01*
X61299019Y46998157D01*
X61325500Y47165352D01*
X61325500Y47334647D01*
X61299019Y47501842D01*
X61299018Y47501843D01*
X61299018Y47501847D01*
X61246705Y47662849D01*
X61169850Y47813685D01*
X61070346Y47950641D01*
X60950641Y48070346D01*
X60813685Y48169850D01*
X60662849Y48246705D01*
X60501847Y48299018D01*
X60501843Y48299018D01*
X60501842Y48299019D01*
X60334647Y48325500D01*
X60334644Y48325500D01*
X60165356Y48325500D01*
X60165353Y48325500D01*
X59998157Y48299019D01*
X59998154Y48299018D01*
X59998153Y48299018D01*
X59837151Y48246705D01*
X59686315Y48169850D01*
X59549359Y48070346D01*
X59429654Y47950641D01*
X59330150Y47813685D01*
X59253295Y47662849D01*
X59253294Y47662846D01*
X59253293Y47662844D01*
X59200980Y47501842D01*
X59174500Y47334647D01*
X47325500Y47334647D01*
X47299019Y47501842D01*
X47299018Y47501843D01*
X47299018Y47501847D01*
X47246705Y47662849D01*
X47169850Y47813685D01*
X47070346Y47950641D01*
X46950641Y48070346D01*
X46813685Y48169850D01*
X46662849Y48246705D01*
X46501847Y48299018D01*
X46501843Y48299018D01*
X46501842Y48299019D01*
X46334647Y48325500D01*
X46334644Y48325500D01*
X46165356Y48325500D01*
X46165353Y48325500D01*
X45998157Y48299019D01*
X45998154Y48299018D01*
X45998153Y48299018D01*
X45837151Y48246705D01*
X45686315Y48169850D01*
X45549359Y48070346D01*
X45429654Y47950641D01*
X45330150Y47813685D01*
X45253295Y47662849D01*
X45253294Y47662846D01*
X45253293Y47662844D01*
X45200980Y47501842D01*
X45174500Y47334647D01*
X41398986Y47334647D01*
X41438335Y47393536D01*
X41438336Y47393537D01*
X41451092Y47412627D01*
X41451099Y47412640D01*
X41507331Y47548398D01*
X41507332Y47548400D01*
X41536000Y47692525D01*
X41536000Y47839475D01*
X41507332Y47983600D01*
X41451097Y48119364D01*
X41369456Y48241548D01*
X41265548Y48345456D01*
X41143364Y48427097D01*
X41007600Y48483332D01*
X40863475Y48512000D01*
X40716525Y48512000D01*
X40572400Y48483332D01*
X40572398Y48483331D01*
X40436640Y48427099D01*
X40436629Y48427093D01*
X40314452Y48345456D01*
X40210543Y48241547D01*
X40128906Y48119370D01*
X40128900Y48119359D01*
X40072668Y47983601D01*
X40072668Y47983599D01*
X40044000Y47839477D01*
X37000000Y47839477D01*
X37000000Y48769746D01*
X73549500Y48769746D01*
X73549500Y46230253D01*
X73549501Y46230241D01*
X73561132Y46171772D01*
X73561134Y46171766D01*
X73605445Y46105451D01*
X73605451Y46105445D01*
X73671766Y46061134D01*
X73671772Y46061132D01*
X73730241Y46049501D01*
X73730251Y46049500D01*
X73730252Y46049500D01*
X73730253Y46049500D01*
X75269747Y46049500D01*
X75269748Y46049500D01*
X75269758Y46049501D01*
X75328227Y46061132D01*
X75328228Y46061132D01*
X75328231Y46061133D01*
X75328233Y46061134D01*
X75394548Y46105445D01*
X75394552Y46105448D01*
X75438867Y46171769D01*
X75450500Y46230252D01*
X75450500Y46552234D01*
X75469407Y46610425D01*
X75518907Y46646389D01*
X75580093Y46646389D01*
X75629593Y46610425D01*
X75640964Y46590120D01*
X75657677Y46549770D01*
X75657681Y46549761D01*
X75761698Y46394092D01*
X75761701Y46394088D01*
X75894088Y46261701D01*
X75894092Y46261698D01*
X76049761Y46157681D01*
X76049770Y46157677D01*
X76222750Y46086026D01*
X76406381Y46049500D01*
X76406384Y46049500D01*
X76593618Y46049500D01*
X76777249Y46086026D01*
X76950229Y46157677D01*
X76950238Y46157681D01*
X77078794Y46243581D01*
X77105908Y46261698D01*
X77238302Y46394092D01*
X77295704Y46480000D01*
X77342318Y46549761D01*
X77342322Y46549770D01*
X77359036Y46590120D01*
X77408536Y46709624D01*
X77448273Y46756149D01*
X77507767Y46770433D01*
X77564295Y46747018D01*
X77591463Y46709625D01*
X77619165Y46642746D01*
X77657677Y46549770D01*
X77657681Y46549761D01*
X77761698Y46394092D01*
X77761701Y46394088D01*
X77894088Y46261701D01*
X77894092Y46261698D01*
X78049761Y46157681D01*
X78049770Y46157677D01*
X78222750Y46086026D01*
X78406381Y46049500D01*
X78406384Y46049500D01*
X78593618Y46049500D01*
X78777249Y46086026D01*
X78950229Y46157677D01*
X78950238Y46157681D01*
X79078794Y46243581D01*
X79105908Y46261698D01*
X79238302Y46394092D01*
X79295704Y46480000D01*
X79342318Y46549761D01*
X79342322Y46549770D01*
X79367447Y46610425D01*
X79413973Y46722749D01*
X79450500Y46906384D01*
X79450500Y46953467D01*
X84949500Y46953467D01*
X84949500Y46446532D01*
X84989869Y46243581D01*
X85069058Y46052402D01*
X85184020Y45880348D01*
X85330348Y45734020D01*
X85502402Y45619058D01*
X85693581Y45539869D01*
X85896532Y45499500D01*
X85896535Y45499500D01*
X86103467Y45499500D01*
X86306418Y45539869D01*
X86497597Y45619058D01*
X86669651Y45734020D01*
X86669655Y45734023D01*
X86815977Y45880345D01*
X86930941Y46052402D01*
X87010130Y46243580D01*
X87050500Y46446535D01*
X87050500Y46953465D01*
X87010130Y47156420D01*
X86930941Y47347598D01*
X86815977Y47519655D01*
X86669655Y47665977D01*
X86497598Y47780941D01*
X86306420Y47860130D01*
X86103465Y47900500D01*
X85896535Y47900500D01*
X85693580Y47860130D01*
X85502402Y47780941D01*
X85330345Y47665977D01*
X85184023Y47519655D01*
X85184020Y47519651D01*
X85069058Y47347597D01*
X84989869Y47156418D01*
X84949500Y46953467D01*
X79450500Y46953467D01*
X79450500Y48093616D01*
X79413973Y48277251D01*
X79342322Y48450231D01*
X79342319Y48450234D01*
X79342318Y48450238D01*
X79301049Y48512000D01*
X79238302Y48605908D01*
X79105908Y48738302D01*
X78971317Y48828233D01*
X78950238Y48842318D01*
X78950234Y48842319D01*
X78950231Y48842322D01*
X78777251Y48913973D01*
X78593616Y48950500D01*
X78406384Y48950500D01*
X78222749Y48913973D01*
X78049769Y48842322D01*
X78049767Y48842320D01*
X78049761Y48842318D01*
X77960463Y48782649D01*
X77894092Y48738302D01*
X77761698Y48605908D01*
X77732065Y48561559D01*
X77657681Y48450238D01*
X77657675Y48450226D01*
X77614279Y48345456D01*
X77595044Y48299018D01*
X77591464Y48290376D01*
X77551728Y48243850D01*
X77492233Y48229566D01*
X77435705Y48252981D01*
X77408536Y48290376D01*
X77404956Y48299018D01*
X77342322Y48450231D01*
X77342320Y48450233D01*
X77342318Y48450238D01*
X77301049Y48512000D01*
X77238302Y48605908D01*
X77105908Y48738302D01*
X76971317Y48828233D01*
X76950238Y48842318D01*
X76950234Y48842319D01*
X76950231Y48842322D01*
X76777251Y48913973D01*
X76593616Y48950500D01*
X76406384Y48950500D01*
X76222749Y48913973D01*
X76049769Y48842322D01*
X76049767Y48842320D01*
X76049761Y48842318D01*
X75960463Y48782649D01*
X75894092Y48738302D01*
X75761698Y48605908D01*
X75732065Y48561559D01*
X75657681Y48450238D01*
X75657675Y48450226D01*
X75640964Y48409880D01*
X75601228Y48363354D01*
X75541733Y48349070D01*
X75485205Y48372484D01*
X75453236Y48424653D01*
X75450500Y48447765D01*
X75450500Y48769746D01*
X75450498Y48769758D01*
X75438867Y48828231D01*
X75394552Y48894552D01*
X75328231Y48938867D01*
X75269748Y48950500D01*
X73730252Y48950500D01*
X73730247Y48950499D01*
X73730241Y48950498D01*
X73716231Y48947711D01*
X73671769Y48938867D01*
X73605448Y48894552D01*
X73605445Y48894548D01*
X73561134Y48828233D01*
X73561132Y48828227D01*
X73549501Y48769758D01*
X73549500Y48769746D01*
X37000000Y48769746D01*
X37000000Y49825500D01*
X37018907Y49883691D01*
X37068407Y49919655D01*
X37099000Y49924500D01*
X89151000Y49924500D01*
X89209191Y49905593D01*
G37*
G04 #@! TD.AperFunction*
G04 #@! TA.AperFunction,Conductor*
G36*
X-26300000Y38264520D02*
G01*
X-26588679Y38264520D01*
X-26639459Y38283002D01*
X-26644540Y38287659D01*
X-27040776Y38683895D01*
X-27063614Y38732871D01*
X-27061224Y38760199D01*
X-27060400Y38763271D01*
X-27060400Y38884528D01*
X-27091781Y39001644D01*
X-27091782Y39001648D01*
X-27152409Y39106656D01*
X-27238143Y39192390D01*
X-27343151Y39253017D01*
X-27343153Y39253018D01*
X-27460274Y39284400D01*
X-27581526Y39284400D01*
X-27698647Y39253018D01*
X-27803654Y39192392D01*
X-27889392Y39106654D01*
X-27950018Y39001647D01*
X-27981400Y38884526D01*
X-27981400Y38763274D01*
X-27950018Y38646153D01*
X-27950017Y38646151D01*
X-27887300Y38537522D01*
X-27877916Y38484304D01*
X-27904936Y38437504D01*
X-27935269Y38421715D01*
X-27955460Y38416305D01*
X-28060467Y38355679D01*
X-28146205Y38269941D01*
X-28206831Y38164934D01*
X-28238213Y38047813D01*
X-28238213Y37926561D01*
X-28206831Y37809440D01*
X-28206830Y37809438D01*
X-28146203Y37704430D01*
X-28101671Y37659898D01*
X-28078833Y37610922D01*
X-28092819Y37558724D01*
X-28101671Y37548176D01*
X-28130690Y37519156D01*
X-28130692Y37519154D01*
X-28191318Y37414147D01*
X-28222700Y37297026D01*
X-28222700Y37175774D01*
X-28191318Y37058653D01*
X-28191317Y37058651D01*
X-28130690Y36953643D01*
X-28044956Y36867909D01*
X-27939948Y36807282D01*
X-27939944Y36807281D01*
X-27822828Y36775900D01*
X-27822826Y36775900D01*
X-27701571Y36775900D01*
X-27584455Y36807281D01*
X-27584447Y36807284D01*
X-27557554Y36822811D01*
X-27504336Y36832195D01*
X-27457537Y36805175D01*
X-27441747Y36774840D01*
X-27429318Y36728453D01*
X-27381328Y36645332D01*
X-27371945Y36592117D01*
X-27398964Y36545318D01*
X-27410240Y36537422D01*
X-27432507Y36524567D01*
X-27518245Y36438829D01*
X-27578871Y36333822D01*
X-27602627Y36245161D01*
X-27633620Y36200896D01*
X-27685818Y36186909D01*
X-27699372Y36189298D01*
X-27752374Y36203500D01*
X-27873626Y36203500D01*
X-27990747Y36172118D01*
X-28095754Y36111492D01*
X-28181492Y36025754D01*
X-28242118Y35920747D01*
X-28273500Y35803626D01*
X-28273500Y35682374D01*
X-28242118Y35565253D01*
X-28242117Y35565251D01*
X-28181490Y35460243D01*
X-28095756Y35374509D01*
X-27990748Y35313882D01*
X-27990744Y35313881D01*
X-27873628Y35282500D01*
X-27873626Y35282500D01*
X-27752371Y35282500D01*
X-27735691Y35286969D01*
X-27694801Y35286968D01*
X-27666931Y35279500D01*
X-27666929Y35279500D01*
X-26836270Y35279500D01*
X-26764931Y35298615D01*
X-26764929Y35298616D01*
X-26700968Y35335544D01*
X-26662004Y35374509D01*
X-26648744Y35387769D01*
X-26648742Y35387771D01*
X-26354137Y35682376D01*
X-26300000Y35736513D01*
X-26300000Y35075500D01*
X-28342778Y35075500D01*
X-28393558Y35093982D01*
X-28398639Y35098639D01*
X-28476861Y35176861D01*
X-28499699Y35225837D01*
X-28500000Y35232722D01*
X-28500000Y39767278D01*
X-28494101Y39783485D01*
X-28492598Y39800665D01*
X-28482707Y39814789D01*
X-28481518Y39818058D01*
X-28476861Y39823139D01*
X-28398639Y39901361D01*
X-28349663Y39924199D01*
X-28342778Y39924500D01*
X-26300000Y39924500D01*
X-26300000Y38264520D01*
G37*
G04 #@! TD.AperFunction*
G04 #@! TA.AperFunction,Conductor*
G36*
X97164389Y28194817D02*
G01*
X97496156Y27863051D01*
X97523934Y27808534D01*
X97514363Y27748102D01*
X97471098Y27704837D01*
X97464038Y27701583D01*
X97403432Y27676479D01*
X97386709Y27669552D01*
X97330448Y27613291D01*
X97330447Y27613289D01*
X97330446Y27613288D01*
X97298415Y27535957D01*
X97258679Y27489431D01*
X97199184Y27475147D01*
X97142656Y27498562D01*
X97136963Y27503822D01*
X96805177Y27835609D01*
X96777402Y27890123D01*
X96786973Y27950555D01*
X96816989Y27985701D01*
X96821092Y27988682D01*
X96824903Y27991451D01*
X97008549Y28175097D01*
X97014293Y28183003D01*
X97063792Y28218967D01*
X97124978Y28218968D01*
X97164389Y28194817D01*
G37*
G04 #@! TD.AperFunction*
G04 #@! TA.AperFunction,Conductor*
G36*
X94450557Y28213025D02*
G01*
X94485703Y28183007D01*
X94491445Y28175103D01*
X94675103Y27991445D01*
X94683007Y27985703D01*
X94718970Y27936203D01*
X94718969Y27875017D01*
X94694819Y27835609D01*
X94363052Y27503841D01*
X94308535Y27476063D01*
X94248103Y27485634D01*
X94204838Y27528899D01*
X94201584Y27535959D01*
X94173374Y27604063D01*
X94169552Y27613291D01*
X94113291Y27669552D01*
X94062884Y27690431D01*
X94035959Y27701584D01*
X93989433Y27741320D01*
X93975149Y27800815D01*
X93998563Y27857343D01*
X94003841Y27863052D01*
X94335609Y28194819D01*
X94390125Y28222596D01*
X94450557Y28213025D01*
G37*
G04 #@! TD.AperFunction*
G04 #@! TA.AperFunction,Conductor*
G36*
X97225334Y31018571D02*
G01*
X97251897Y31014365D01*
X97254753Y31011508D01*
X97258680Y31010566D01*
X97276142Y30990119D01*
X97295162Y30971100D01*
X97298416Y30964040D01*
X97330446Y30886711D01*
X97386711Y30830446D01*
X97464041Y30798415D01*
X97510567Y30758678D01*
X97524850Y30699183D01*
X97501435Y30642655D01*
X97496158Y30636947D01*
X97164390Y30305180D01*
X97109874Y30277403D01*
X97049442Y30286974D01*
X97014291Y30316998D01*
X97008549Y30324903D01*
X96824903Y30508549D01*
X96816999Y30514291D01*
X96781032Y30563785D01*
X96781026Y30624970D01*
X96805180Y30664391D01*
X97136948Y30996159D01*
X97140547Y30997993D01*
X97142657Y31001435D01*
X97167498Y31011724D01*
X97191465Y31023936D01*
X97195453Y31023304D01*
X97199185Y31024850D01*
X97225334Y31018571D01*
G37*
G04 #@! TD.AperFunction*
G04 #@! TA.AperFunction,Conductor*
G36*
X94357342Y31001433D02*
G01*
X94363051Y30996156D01*
X94694817Y30664389D01*
X94722594Y30609873D01*
X94713023Y30549441D01*
X94683003Y30514293D01*
X94675097Y30508549D01*
X94491451Y30324903D01*
X94491449Y30324900D01*
X94485701Y30316989D01*
X94436199Y30281027D01*
X94375014Y30281030D01*
X94335608Y30305177D01*
X94003836Y30636949D01*
X93976061Y30691464D01*
X93985632Y30751896D01*
X94028897Y30795161D01*
X94035957Y30798415D01*
X94113288Y30830446D01*
X94113289Y30830447D01*
X94113291Y30830448D01*
X94169552Y30886709D01*
X94169553Y30886711D01*
X94201583Y30964038D01*
X94241319Y31010564D01*
X94300814Y31024848D01*
X94357342Y31001433D01*
G37*
G04 #@! TD.AperFunction*
G04 #@! TA.AperFunction,Conductor*
G36*
X10664389Y44694817D02*
G01*
X10996156Y44363051D01*
X11023934Y44308534D01*
X11014363Y44248102D01*
X10971098Y44204837D01*
X10964038Y44201583D01*
X10886711Y44169553D01*
X10886709Y44169552D01*
X10830448Y44113291D01*
X10830447Y44113289D01*
X10830446Y44113288D01*
X10798415Y44035957D01*
X10758679Y43989431D01*
X10699184Y43975147D01*
X10642656Y43998562D01*
X10636963Y44003822D01*
X10305177Y44335609D01*
X10277402Y44390123D01*
X10286973Y44450555D01*
X10316989Y44485701D01*
X10321092Y44488682D01*
X10324903Y44491451D01*
X10508549Y44675097D01*
X10514293Y44683003D01*
X10563792Y44718967D01*
X10624978Y44718968D01*
X10664389Y44694817D01*
G37*
G04 #@! TD.AperFunction*
G04 #@! TA.AperFunction,Conductor*
G36*
X7950557Y44713025D02*
G01*
X7985703Y44683007D01*
X7991445Y44675103D01*
X8175103Y44491445D01*
X8183007Y44485703D01*
X8218970Y44436203D01*
X8218969Y44375017D01*
X8194819Y44335609D01*
X7863052Y44003841D01*
X7808535Y43976063D01*
X7748103Y43985634D01*
X7704838Y44028899D01*
X7701584Y44035959D01*
X7669553Y44113288D01*
X7669552Y44113291D01*
X7613291Y44169552D01*
X7587454Y44180253D01*
X7535959Y44201584D01*
X7489433Y44241320D01*
X7475149Y44300815D01*
X7498563Y44357343D01*
X7503841Y44363052D01*
X7835609Y44694819D01*
X7890125Y44722596D01*
X7950557Y44713025D01*
G37*
G04 #@! TD.AperFunction*
G04 #@! TA.AperFunction,Conductor*
G36*
X10725334Y47518571D02*
G01*
X10751897Y47514365D01*
X10754753Y47511508D01*
X10758680Y47510566D01*
X10776142Y47490119D01*
X10795162Y47471100D01*
X10798416Y47464040D01*
X10830446Y47386711D01*
X10886711Y47330446D01*
X10964041Y47298415D01*
X11010567Y47258678D01*
X11024850Y47199183D01*
X11001435Y47142655D01*
X10996158Y47136947D01*
X10664390Y46805180D01*
X10609874Y46777403D01*
X10549442Y46786974D01*
X10514291Y46816998D01*
X10508549Y46824903D01*
X10324903Y47008549D01*
X10316999Y47014291D01*
X10281032Y47063785D01*
X10281026Y47124970D01*
X10305180Y47164391D01*
X10636948Y47496159D01*
X10640547Y47497993D01*
X10642657Y47501435D01*
X10667498Y47511724D01*
X10691465Y47523936D01*
X10695453Y47523304D01*
X10699185Y47524850D01*
X10725334Y47518571D01*
G37*
G04 #@! TD.AperFunction*
G04 #@! TA.AperFunction,Conductor*
G36*
X7857342Y47501433D02*
G01*
X7863051Y47496156D01*
X8194817Y47164389D01*
X8222594Y47109873D01*
X8213023Y47049441D01*
X8183003Y47014293D01*
X8175097Y47008549D01*
X7991451Y46824903D01*
X7991449Y46824900D01*
X7985701Y46816989D01*
X7936199Y46781027D01*
X7875014Y46781030D01*
X7835608Y46805177D01*
X7503836Y47136949D01*
X7476061Y47191464D01*
X7485632Y47251896D01*
X7528897Y47295161D01*
X7535957Y47298415D01*
X7613288Y47330446D01*
X7613289Y47330447D01*
X7613291Y47330448D01*
X7669552Y47386709D01*
X7679655Y47411099D01*
X7701583Y47464038D01*
X7741319Y47510564D01*
X7800814Y47524848D01*
X7857342Y47501433D01*
G37*
G04 #@! TD.AperFunction*
G04 #@! TA.AperFunction,Conductor*
G36*
X97164389Y44694817D02*
G01*
X97496156Y44363051D01*
X97523934Y44308534D01*
X97514363Y44248102D01*
X97471098Y44204837D01*
X97464038Y44201583D01*
X97386711Y44169553D01*
X97386709Y44169552D01*
X97330448Y44113291D01*
X97330447Y44113289D01*
X97330446Y44113288D01*
X97298415Y44035957D01*
X97258679Y43989431D01*
X97199184Y43975147D01*
X97142656Y43998562D01*
X97136963Y44003822D01*
X96805177Y44335609D01*
X96777402Y44390123D01*
X96786973Y44450555D01*
X96816989Y44485701D01*
X96821092Y44488682D01*
X96824903Y44491451D01*
X97008549Y44675097D01*
X97014293Y44683003D01*
X97063792Y44718967D01*
X97124978Y44718968D01*
X97164389Y44694817D01*
G37*
G04 #@! TD.AperFunction*
G04 #@! TA.AperFunction,Conductor*
G36*
X94450557Y44713025D02*
G01*
X94485703Y44683007D01*
X94491445Y44675103D01*
X94675103Y44491445D01*
X94683007Y44485703D01*
X94718970Y44436203D01*
X94718969Y44375017D01*
X94694819Y44335609D01*
X94363052Y44003841D01*
X94308535Y43976063D01*
X94248103Y43985634D01*
X94204838Y44028899D01*
X94201584Y44035959D01*
X94169553Y44113288D01*
X94169552Y44113291D01*
X94113291Y44169552D01*
X94087454Y44180253D01*
X94035959Y44201584D01*
X93989433Y44241320D01*
X93975149Y44300815D01*
X93998563Y44357343D01*
X94003841Y44363052D01*
X94335609Y44694819D01*
X94390125Y44722596D01*
X94450557Y44713025D01*
G37*
G04 #@! TD.AperFunction*
G04 #@! TA.AperFunction,Conductor*
G36*
X97225334Y47518571D02*
G01*
X97251897Y47514365D01*
X97254753Y47511508D01*
X97258680Y47510566D01*
X97276142Y47490119D01*
X97295162Y47471100D01*
X97298416Y47464040D01*
X97330446Y47386711D01*
X97386711Y47330446D01*
X97464041Y47298415D01*
X97510567Y47258678D01*
X97524850Y47199183D01*
X97501435Y47142655D01*
X97496158Y47136947D01*
X97164390Y46805180D01*
X97109874Y46777403D01*
X97049442Y46786974D01*
X97014291Y46816998D01*
X97008549Y46824903D01*
X96824903Y47008549D01*
X96816999Y47014291D01*
X96781032Y47063785D01*
X96781026Y47124970D01*
X96805180Y47164391D01*
X97136948Y47496159D01*
X97140547Y47497993D01*
X97142657Y47501435D01*
X97167498Y47511724D01*
X97191465Y47523936D01*
X97195453Y47523304D01*
X97199185Y47524850D01*
X97225334Y47518571D01*
G37*
G04 #@! TD.AperFunction*
G04 #@! TA.AperFunction,Conductor*
G36*
X94357342Y47501433D02*
G01*
X94363051Y47496156D01*
X94694817Y47164389D01*
X94722594Y47109873D01*
X94713023Y47049441D01*
X94683003Y47014293D01*
X94675097Y47008549D01*
X94491451Y46824903D01*
X94491449Y46824900D01*
X94485701Y46816989D01*
X94436199Y46781027D01*
X94375014Y46781030D01*
X94335608Y46805177D01*
X94003836Y47136949D01*
X93976061Y47191464D01*
X93985632Y47251896D01*
X94028897Y47295161D01*
X94035957Y47298415D01*
X94113288Y47330446D01*
X94113289Y47330447D01*
X94113291Y47330448D01*
X94169552Y47386709D01*
X94179655Y47411099D01*
X94201583Y47464038D01*
X94241319Y47510564D01*
X94300814Y47524848D01*
X94357342Y47501433D01*
G37*
G04 #@! TD.AperFunction*
G04 #@! TA.AperFunction,Conductor*
G36*
X36753691Y49905593D02*
G01*
X36789655Y49856093D01*
X36794500Y49825500D01*
X36794500Y44521791D01*
X36775593Y44463600D01*
X36726093Y44427636D01*
X36669880Y44426164D01*
X36579057Y44450500D01*
X36579055Y44450500D01*
X36420945Y44450500D01*
X36420943Y44450500D01*
X36268216Y44409577D01*
X36131284Y44330520D01*
X36019480Y44218716D01*
X35940423Y44081784D01*
X35899500Y43929057D01*
X35899500Y43770943D01*
X35940423Y43618216D01*
X36019480Y43481284D01*
X36131284Y43369480D01*
X36268216Y43290423D01*
X36420943Y43249500D01*
X36420945Y43249500D01*
X36579055Y43249500D01*
X36579056Y43249500D01*
X36579057Y43249500D01*
X36617309Y43259749D01*
X36669878Y43273835D01*
X36730979Y43270632D01*
X36778529Y43232127D01*
X36794500Y43178208D01*
X36794500Y39798476D01*
X36798989Y39755758D01*
X36807550Y39715483D01*
X36811306Y39700583D01*
X36811306Y39700582D01*
X36855845Y39620705D01*
X36896784Y39575238D01*
X36946753Y39534775D01*
X36950502Y39532611D01*
X36991442Y39487140D01*
X37000000Y39446876D01*
X37000000Y39053122D01*
X36981093Y38994931D01*
X36950492Y38967381D01*
X36946755Y38965224D01*
X36911996Y38939970D01*
X36911992Y38939967D01*
X36881397Y38912420D01*
X36870378Y38901725D01*
X36870372Y38901719D01*
X36823464Y38823209D01*
X36823464Y38823208D01*
X36823462Y38823205D01*
X36804556Y38765016D01*
X36794500Y38701519D01*
X36794500Y38210309D01*
X36794503Y38210064D01*
X36794500Y38210054D01*
X36794500Y38209674D01*
X36794382Y38209674D01*
X36793513Y38206886D01*
X36794374Y38203675D01*
X36784502Y38177957D01*
X36776307Y38151646D01*
X36773639Y38149658D01*
X36772448Y38146553D01*
X36749347Y38131551D01*
X36727250Y38115081D01*
X36721134Y38113229D01*
X36706814Y38109392D01*
X36706811Y38109390D01*
X36706810Y38109390D01*
X36706809Y38109390D01*
X36706808Y38109389D01*
X36706470Y38109299D01*
X36704076Y38107812D01*
X36595240Y38044975D01*
X36595239Y38044975D01*
X36592690Y38043503D01*
X36592688Y38043501D01*
X36592686Y38043500D01*
X36499500Y37950314D01*
X36499498Y37950311D01*
X36499497Y37950310D01*
X36499492Y37950304D01*
X36433611Y37836196D01*
X36433586Y37836134D01*
X36433398Y37835405D01*
X36408568Y37742735D01*
X36399500Y37708892D01*
X36399500Y37708890D01*
X36399500Y37577109D01*
X36433607Y37449816D01*
X36433611Y37449803D01*
X36499492Y37335694D01*
X36592691Y37242495D01*
X36646610Y37211364D01*
X36646625Y37211356D01*
X36706810Y37176609D01*
X36706808Y37176609D01*
X36730423Y37170281D01*
X36739074Y37166041D01*
X36754462Y37151121D01*
X36772438Y37139448D01*
X36775955Y37130283D01*
X36783003Y37123451D01*
X36786683Y37102335D01*
X36794364Y37082326D01*
X36794500Y37077146D01*
X36794500Y29099006D01*
X36797030Y29066850D01*
X36797327Y29064980D01*
X36787751Y29004549D01*
X36744484Y28961287D01*
X36699545Y28950500D01*
X36584110Y28950500D01*
X36584108Y28950500D01*
X36456814Y28916392D01*
X36456811Y28916390D01*
X36456809Y28916390D01*
X36456798Y28916383D01*
X36456094Y28916066D01*
X36454076Y28914812D01*
X36345240Y28851975D01*
X36345239Y28851975D01*
X36343674Y28851071D01*
X36342690Y28850503D01*
X36342688Y28850501D01*
X36342686Y28850500D01*
X36249500Y28757314D01*
X36249498Y28757311D01*
X36249497Y28757310D01*
X36249492Y28757304D01*
X36183611Y28643196D01*
X36183586Y28643134D01*
X36183398Y28642405D01*
X36149500Y28515891D01*
X36149500Y28415180D01*
X36144654Y28384587D01*
X36140532Y28371901D01*
X36104568Y28322401D01*
X36100447Y28319407D01*
X36042257Y28300500D01*
X36034108Y28300500D01*
X35906814Y28266392D01*
X35906811Y28266390D01*
X35906809Y28266390D01*
X35906798Y28266383D01*
X35906094Y28266066D01*
X35904076Y28264812D01*
X35795240Y28201975D01*
X35795239Y28201975D01*
X35792690Y28200503D01*
X35792688Y28200501D01*
X35792686Y28200500D01*
X35699500Y28107314D01*
X35699498Y28107311D01*
X35699497Y28107310D01*
X35699492Y28107304D01*
X35633611Y27993196D01*
X35633586Y27993134D01*
X35633398Y27992405D01*
X35616836Y27930591D01*
X35599500Y27865892D01*
X35599500Y27865890D01*
X35599500Y27734109D01*
X35633608Y27606811D01*
X35633611Y27606803D01*
X35699492Y27492694D01*
X35792691Y27399495D01*
X35849521Y27366684D01*
X35870555Y27343322D01*
X35974452Y27315482D01*
X35974453Y27315483D01*
X36034106Y27299500D01*
X36034108Y27299500D01*
X36034110Y27299500D01*
X36165890Y27299500D01*
X36165891Y27299500D01*
X36165892Y27299500D01*
X36196894Y27307806D01*
X36280731Y27330270D01*
X36280733Y27330271D01*
X36293186Y27333608D01*
X36293190Y27333609D01*
X36407309Y27399496D01*
X36407311Y27399498D01*
X36407314Y27399500D01*
X36500500Y27492686D01*
X36500501Y27492688D01*
X36500503Y27492690D01*
X36500898Y27493238D01*
X36501975Y27495240D01*
X36566387Y27606803D01*
X36566390Y27606808D01*
X36568127Y27613288D01*
X36600500Y27734108D01*
X36600500Y27834819D01*
X36605343Y27865405D01*
X36606197Y27868035D01*
X36609465Y27878092D01*
X36645425Y27927594D01*
X36645428Y27927596D01*
X36649550Y27930591D01*
X36707740Y27949500D01*
X36715891Y27949500D01*
X36715892Y27949500D01*
X36749735Y27958568D01*
X36842405Y27983398D01*
X36843134Y27983586D01*
X36843196Y27983611D01*
X36957307Y28049494D01*
X36957311Y28049498D01*
X36957314Y28049500D01*
X37050500Y28142686D01*
X37050501Y28142688D01*
X37050503Y28142690D01*
X37050898Y28143238D01*
X37051975Y28145240D01*
X37069213Y28175097D01*
X37116390Y28256809D01*
X37116390Y28256812D01*
X37116392Y28256814D01*
X37150500Y28384108D01*
X37150500Y28515892D01*
X37125220Y28610234D01*
X37121983Y28641028D01*
X37122627Y28653319D01*
X37144550Y28710438D01*
X37193370Y28743062D01*
X37203024Y28745922D01*
X37231145Y28750000D01*
X86350002Y28750000D01*
X87063662Y29432176D01*
X92042000Y29432176D01*
X92042000Y29067822D01*
X92077708Y28705273D01*
X92148786Y28347934D01*
X92254536Y27999322D01*
X92393961Y27662722D01*
X92393962Y27662720D01*
X92393982Y27662678D01*
X92565701Y27341412D01*
X92768117Y27038479D01*
X92953444Y26812656D01*
X92953445Y26812656D01*
X93636949Y27496160D01*
X93691464Y27523936D01*
X93751896Y27514365D01*
X93795161Y27471100D01*
X93798415Y27464041D01*
X93830446Y27386711D01*
X93886711Y27330446D01*
X93964041Y27298415D01*
X94010567Y27258678D01*
X94024850Y27199183D01*
X94001435Y27142655D01*
X93996171Y27136960D01*
X93312656Y26453445D01*
X93312656Y26453444D01*
X93538479Y26268117D01*
X93841412Y26065701D01*
X94162678Y25893982D01*
X94162720Y25893962D01*
X94162722Y25893961D01*
X94499322Y25754536D01*
X94847934Y25648786D01*
X95121510Y25594369D01*
X95139734Y25584162D01*
X95567822Y25542000D01*
X95567830Y25542000D01*
X95932167Y25542000D01*
X95932170Y25542000D01*
X96050997Y25553703D01*
X96294725Y25577708D01*
X96652064Y25648786D01*
X97000676Y25754536D01*
X97134119Y25809810D01*
X97337277Y25893961D01*
X97337304Y25893974D01*
X97337310Y25893977D01*
X97337320Y25893982D01*
X97658586Y26065701D01*
X97924411Y26243322D01*
X97961518Y26268116D01*
X98121610Y26399500D01*
X98187341Y26453444D01*
X98187340Y26453444D01*
X98187342Y26453445D01*
X97503836Y27136950D01*
X97476061Y27191464D01*
X97485632Y27251896D01*
X97528897Y27295161D01*
X97535957Y27298415D01*
X97613288Y27330446D01*
X97613289Y27330447D01*
X97613291Y27330448D01*
X97669552Y27386709D01*
X97674848Y27399495D01*
X97701583Y27464038D01*
X97741319Y27510564D01*
X97800814Y27524848D01*
X97857342Y27501433D01*
X97863050Y27496157D01*
X98546552Y26812656D01*
X98546553Y26812656D01*
X98731883Y27038481D01*
X98844694Y27207314D01*
X98934297Y27341412D01*
X99106016Y27662678D01*
X99106016Y27662679D01*
X99106025Y27662695D01*
X99106038Y27662722D01*
X99245459Y27999314D01*
X99245459Y27999316D01*
X99245462Y27999322D01*
X99351212Y28347934D01*
X99358107Y28382596D01*
X99422290Y28705270D01*
X99458000Y29067830D01*
X99458000Y29432169D01*
X99422290Y29794729D01*
X99351213Y30152061D01*
X99245459Y30500685D01*
X99106038Y30837277D01*
X99106025Y30837304D01*
X98992604Y31049500D01*
X98934297Y31158586D01*
X98911331Y31192957D01*
X98731883Y31461518D01*
X98546553Y31687342D01*
X97863049Y31003838D01*
X97808535Y30976063D01*
X97748103Y30985634D01*
X97704838Y31028899D01*
X97701584Y31035959D01*
X97675096Y31099907D01*
X97669552Y31113291D01*
X97613291Y31169552D01*
X97539782Y31200000D01*
X97539779Y31200000D01*
X97535960Y31201582D01*
X97489433Y31241318D01*
X97475149Y31300813D01*
X97498563Y31357341D01*
X97503840Y31363051D01*
X98158346Y32017557D01*
X98181119Y32029160D01*
X98187343Y32046553D01*
X97961518Y32231883D01*
X97658589Y32434295D01*
X97658588Y32434295D01*
X97658586Y32434297D01*
X97507726Y32514932D01*
X97337304Y32606025D01*
X97337277Y32606038D01*
X97000685Y32745459D01*
X97000678Y32745460D01*
X97000676Y32745462D01*
X96720939Y32830319D01*
X96652061Y32851213D01*
X96378487Y32905629D01*
X96360262Y32915835D01*
X96294728Y32922289D01*
X96294727Y32922290D01*
X96294731Y32922290D01*
X95932170Y32958000D01*
X95932167Y32958000D01*
X95567833Y32958000D01*
X95567830Y32958000D01*
X95205270Y32922290D01*
X94847938Y32851213D01*
X94847936Y32851212D01*
X94847934Y32851212D01*
X94499322Y32745462D01*
X94499317Y32745460D01*
X94499314Y32745459D01*
X94162722Y32606038D01*
X94162695Y32606025D01*
X94162679Y32606016D01*
X94162678Y32606016D01*
X93841412Y32434297D01*
X93705063Y32343190D01*
X93538481Y32231883D01*
X93312656Y32046553D01*
X93312656Y32046552D01*
X93996157Y31363050D01*
X94023934Y31308534D01*
X94014363Y31248102D01*
X93971098Y31204837D01*
X93964038Y31201583D01*
X93886711Y31169553D01*
X93886709Y31169552D01*
X93830448Y31113291D01*
X93830447Y31113289D01*
X93830446Y31113288D01*
X93798415Y31035957D01*
X93758679Y30989431D01*
X93699184Y30975147D01*
X93642656Y30998562D01*
X93636967Y31003819D01*
X92953445Y31687342D01*
X92953444Y31687341D01*
X92922389Y31649500D01*
X92768116Y31461518D01*
X92736523Y31414236D01*
X92565701Y31158586D01*
X92393982Y30837320D01*
X92393977Y30837310D01*
X92393974Y30837304D01*
X92393961Y30837277D01*
X92377864Y30798415D01*
X92254536Y30500676D01*
X92148786Y30152064D01*
X92077708Y29794725D01*
X92042000Y29432176D01*
X87063662Y29432176D01*
X87141056Y29506156D01*
X87141057Y29506154D01*
X87141063Y29506163D01*
X87194565Y29557304D01*
X87816775Y30152064D01*
X89749999Y31999997D01*
X89750000Y31999999D01*
X89750000Y35088527D01*
X91577000Y35088527D01*
X91577000Y34831471D01*
X91617205Y34577613D01*
X91696637Y34333148D01*
X91813330Y34104123D01*
X91813334Y34104118D01*
X91889741Y33998954D01*
X91889742Y33998954D01*
X92440100Y34549312D01*
X92494617Y34577089D01*
X92555049Y34567518D01*
X92592419Y34534310D01*
X92627433Y34481907D01*
X92731907Y34377433D01*
X92784310Y34342419D01*
X92822189Y34294369D01*
X92824591Y34233231D01*
X92799312Y34190100D01*
X92248954Y33639742D01*
X92248954Y33639741D01*
X92354118Y33563334D01*
X92354123Y33563330D01*
X92583148Y33446637D01*
X92827613Y33367205D01*
X93081473Y33327000D01*
X93338523Y33327000D01*
X93338527Y33327000D01*
X93592385Y33367205D01*
X93836850Y33446637D01*
X94065874Y33563330D01*
X94065876Y33563331D01*
X94065878Y33563332D01*
X94065884Y33563336D01*
X94065887Y33563338D01*
X94065893Y33563342D01*
X94171045Y33639740D01*
X94171045Y33639741D01*
X94171045Y33639742D01*
X93620685Y34190101D01*
X93592910Y34244616D01*
X93602481Y34305048D01*
X93635689Y34342418D01*
X93688092Y34377433D01*
X93688093Y34377434D01*
X93688097Y34377437D01*
X93792563Y34481903D01*
X93827578Y34534307D01*
X93875628Y34572187D01*
X93936766Y34574589D01*
X93979897Y34549310D01*
X94530255Y33998953D01*
X94530257Y33998953D01*
X94530258Y33998953D01*
X94606656Y34104105D01*
X94606660Y34104111D01*
X94606663Y34104115D01*
X94606667Y34104121D01*
X94723362Y34333149D01*
X94802792Y34577609D01*
X94802793Y34577613D01*
X94843000Y34831472D01*
X94843000Y35088526D01*
X94802793Y35342385D01*
X94802792Y35342386D01*
X94802792Y35342390D01*
X94723362Y35586850D01*
X94606665Y35815881D01*
X94530257Y35921045D01*
X94252323Y35643111D01*
X93979899Y35370687D01*
X93925382Y35342910D01*
X93864950Y35352481D01*
X93827579Y35385691D01*
X93822568Y35393190D01*
X93792563Y35438097D01*
X93688097Y35542563D01*
X93635690Y35577579D01*
X93597811Y35625628D01*
X93595407Y35686766D01*
X93620687Y35729899D01*
X93870288Y35979500D01*
X94171045Y36280257D01*
X94065881Y36356665D01*
X93836850Y36473362D01*
X93592390Y36552792D01*
X93592386Y36552792D01*
X93592385Y36552793D01*
X93338526Y36593000D01*
X93338523Y36593000D01*
X93081477Y36593000D01*
X93081474Y36593000D01*
X92827613Y36552793D01*
X92827610Y36552792D01*
X92827609Y36552792D01*
X92583149Y36473362D01*
X92354121Y36356667D01*
X92354115Y36356663D01*
X92354111Y36356660D01*
X92354105Y36356656D01*
X92248953Y36280257D01*
X92248953Y36280255D01*
X92799310Y35729897D01*
X92827087Y35675381D01*
X92817516Y35614949D01*
X92784308Y35577579D01*
X92731903Y35542563D01*
X92627437Y35438097D01*
X92627434Y35438093D01*
X92627433Y35438092D01*
X92592418Y35385689D01*
X92544368Y35347810D01*
X92483230Y35345408D01*
X92440101Y35370685D01*
X91889742Y35921045D01*
X91889741Y35921045D01*
X91889740Y35921045D01*
X91813342Y35815893D01*
X91813338Y35815887D01*
X91813336Y35815884D01*
X91813332Y35815878D01*
X91743766Y35679347D01*
X91696637Y35586850D01*
X91617205Y35342385D01*
X91577000Y35088527D01*
X89750000Y35088527D01*
X89750000Y37604325D01*
X94424500Y37604325D01*
X94424500Y37395673D01*
X94457134Y37189619D01*
X94521611Y36991182D01*
X94616333Y36805278D01*
X94616338Y36805271D01*
X94738955Y36636505D01*
X94886505Y36488955D01*
X95055271Y36366338D01*
X95055278Y36366333D01*
X95241182Y36271611D01*
X95439618Y36207135D01*
X95645675Y36174500D01*
X95854322Y36174500D01*
X95854325Y36174500D01*
X96060379Y36207134D01*
X96258816Y36271611D01*
X96327906Y36306814D01*
X96339949Y36312950D01*
X96370701Y36328619D01*
X96411683Y36349500D01*
X96427885Y36357755D01*
X96444714Y36366329D01*
X96444727Y36366338D01*
X96613491Y36488954D01*
X96613493Y36488955D01*
X96613499Y36488960D01*
X96613501Y36488962D01*
X96613505Y36488965D01*
X96761035Y36636495D01*
X96765897Y36643186D01*
X96776365Y36657593D01*
X96854156Y36764663D01*
X96883666Y36805280D01*
X96883670Y36805286D01*
X96906195Y36849494D01*
X96914551Y36865893D01*
X96953959Y36943238D01*
X96978389Y36991184D01*
X97042862Y37189611D01*
X97042863Y37189615D01*
X97046308Y37211364D01*
X97075500Y37395673D01*
X97075500Y37604325D01*
X97057724Y37716556D01*
X97042863Y37810384D01*
X97042862Y37810385D01*
X97042862Y37810389D01*
X97042861Y37810392D01*
X97042453Y37812968D01*
X97040461Y37817775D01*
X96978389Y38008816D01*
X96883670Y38194714D01*
X96761035Y38363505D01*
X96613505Y38511035D01*
X96444714Y38633670D01*
X96258816Y38728389D01*
X96067775Y38790461D01*
X96062968Y38792453D01*
X96060392Y38792861D01*
X96060389Y38792862D01*
X96060386Y38792862D01*
X96060384Y38792862D01*
X96060384Y38792863D01*
X95936260Y38812522D01*
X95854325Y38825500D01*
X95854322Y38825500D01*
X95854319Y38825500D01*
X95645681Y38825500D01*
X95645678Y38825500D01*
X95645675Y38825500D01*
X95439621Y38792864D01*
X95439615Y38792863D01*
X95439612Y38792862D01*
X95439611Y38792862D01*
X95439604Y38792859D01*
X95439597Y38792858D01*
X95439458Y38792812D01*
X95241184Y38728389D01*
X95154277Y38684108D01*
X95154276Y38684108D01*
X95146222Y38680004D01*
X95055286Y38633670D01*
X95055283Y38633668D01*
X95055281Y38633667D01*
X95055271Y38633660D01*
X94888106Y38512207D01*
X94888107Y38512207D01*
X94886501Y38511040D01*
X94886500Y38511039D01*
X94886498Y38511037D01*
X94886495Y38511035D01*
X94738965Y38363505D01*
X94738962Y38363501D01*
X94738957Y38363496D01*
X94616338Y38194727D01*
X94616333Y38194720D01*
X94616330Y38194715D01*
X94616329Y38194713D01*
X94572809Y38109299D01*
X94521611Y38008816D01*
X94457134Y37810379D01*
X94424500Y37604325D01*
X89750000Y37604325D01*
X89750000Y40168527D01*
X91577000Y40168527D01*
X91577000Y39911471D01*
X91617205Y39657613D01*
X91696637Y39413148D01*
X91813330Y39184123D01*
X91813334Y39184118D01*
X91889741Y39078954D01*
X91889742Y39078954D01*
X92440100Y39629312D01*
X92494617Y39657089D01*
X92555049Y39647518D01*
X92592419Y39614310D01*
X92627433Y39561907D01*
X92731907Y39457433D01*
X92784310Y39422419D01*
X92822189Y39374369D01*
X92824591Y39313231D01*
X92799312Y39270100D01*
X92248954Y38719742D01*
X92248954Y38719741D01*
X92354118Y38643334D01*
X92354123Y38643330D01*
X92583148Y38526637D01*
X92827613Y38447205D01*
X93081473Y38407000D01*
X93338523Y38407000D01*
X93338527Y38407000D01*
X93592385Y38447205D01*
X93836850Y38526637D01*
X94041114Y38630714D01*
X94065878Y38643332D01*
X94065884Y38643336D01*
X94065887Y38643338D01*
X94065893Y38643342D01*
X94171045Y38719740D01*
X94171045Y38719741D01*
X94171045Y38719742D01*
X93620685Y39270101D01*
X93592910Y39324616D01*
X93602481Y39385048D01*
X93635689Y39422418D01*
X93688092Y39457433D01*
X93688093Y39457434D01*
X93688097Y39457437D01*
X93792563Y39561903D01*
X93827578Y39614307D01*
X93875628Y39652187D01*
X93936766Y39654589D01*
X93979897Y39629310D01*
X94530255Y39078953D01*
X94530257Y39078953D01*
X94530258Y39078953D01*
X94606656Y39184105D01*
X94606660Y39184111D01*
X94606663Y39184115D01*
X94606667Y39184121D01*
X94723362Y39413149D01*
X94802792Y39657609D01*
X94806989Y39684108D01*
X94843000Y39911472D01*
X94843000Y40168526D01*
X94802793Y40422385D01*
X94802792Y40422386D01*
X94802792Y40422390D01*
X94723362Y40666850D01*
X94606665Y40895881D01*
X94530257Y41001045D01*
X94248447Y40719235D01*
X93979899Y40450687D01*
X93925382Y40422910D01*
X93864950Y40432481D01*
X93827579Y40465691D01*
X93815273Y40484108D01*
X93792563Y40518097D01*
X93688097Y40622563D01*
X93635690Y40657579D01*
X93597811Y40705628D01*
X93595407Y40766766D01*
X93620687Y40809899D01*
X93867602Y41056814D01*
X94171045Y41360257D01*
X94065881Y41436665D01*
X93836850Y41553362D01*
X93592390Y41632792D01*
X93592386Y41632792D01*
X93592385Y41632793D01*
X93338526Y41673000D01*
X93338523Y41673000D01*
X93081477Y41673000D01*
X93081474Y41673000D01*
X92827613Y41632793D01*
X92827610Y41632792D01*
X92827609Y41632792D01*
X92583149Y41553362D01*
X92354121Y41436667D01*
X92354115Y41436663D01*
X92354111Y41436660D01*
X92354105Y41436656D01*
X92248953Y41360257D01*
X92248953Y41360255D01*
X92799310Y40809897D01*
X92827087Y40755381D01*
X92817516Y40694949D01*
X92784308Y40657579D01*
X92731903Y40622563D01*
X92627437Y40518097D01*
X92627434Y40518093D01*
X92627433Y40518092D01*
X92592418Y40465689D01*
X92544368Y40427810D01*
X92483230Y40425408D01*
X92440101Y40450685D01*
X91889742Y41001045D01*
X91889741Y41001045D01*
X91889740Y41001045D01*
X91813342Y40895893D01*
X91813338Y40895887D01*
X91813336Y40895884D01*
X91813332Y40895878D01*
X91741746Y40755381D01*
X91696637Y40666850D01*
X91617205Y40422385D01*
X91577000Y40168527D01*
X89750000Y40168527D01*
X89750000Y45932176D01*
X92042000Y45932176D01*
X92042000Y45567822D01*
X92077708Y45205273D01*
X92148786Y44847934D01*
X92254536Y44499322D01*
X92393961Y44162722D01*
X92393962Y44162720D01*
X92393982Y44162678D01*
X92565701Y43841412D01*
X92768117Y43538479D01*
X92953444Y43312656D01*
X92953445Y43312656D01*
X93636949Y43996160D01*
X93691464Y44023936D01*
X93751896Y44014365D01*
X93795161Y43971100D01*
X93798415Y43964041D01*
X93830446Y43886711D01*
X93886711Y43830446D01*
X93964041Y43798415D01*
X94010567Y43758678D01*
X94024850Y43699183D01*
X94001435Y43642655D01*
X93996171Y43636960D01*
X93312656Y42953445D01*
X93312656Y42953444D01*
X93538479Y42768117D01*
X93841412Y42565701D01*
X94162678Y42393982D01*
X94162720Y42393962D01*
X94162722Y42393961D01*
X94499322Y42254536D01*
X94847934Y42148786D01*
X95121510Y42094369D01*
X95139734Y42084162D01*
X95567822Y42042000D01*
X95567830Y42042000D01*
X95932167Y42042000D01*
X95932170Y42042000D01*
X96050997Y42053703D01*
X96294725Y42077708D01*
X96652064Y42148786D01*
X97000676Y42254536D01*
X97134119Y42309810D01*
X97337277Y42393961D01*
X97337304Y42393974D01*
X97337310Y42393977D01*
X97337320Y42393982D01*
X97658586Y42565701D01*
X97961519Y42768117D01*
X97981006Y42784109D01*
X98187342Y42953445D01*
X97503836Y43636950D01*
X97476061Y43691464D01*
X97485632Y43751896D01*
X97528897Y43795161D01*
X97535957Y43798415D01*
X97613288Y43830446D01*
X97613289Y43830447D01*
X97613291Y43830448D01*
X97669552Y43886709D01*
X97669803Y43887314D01*
X97701583Y43964038D01*
X97741319Y44010564D01*
X97800814Y44024848D01*
X97857342Y44001433D01*
X97863050Y43996157D01*
X98546552Y43312656D01*
X98546553Y43312656D01*
X98731883Y43538481D01*
X98839261Y43699183D01*
X98934297Y43841412D01*
X99106016Y44162678D01*
X99106016Y44162679D01*
X99106025Y44162695D01*
X99106038Y44162722D01*
X99245459Y44499314D01*
X99245459Y44499316D01*
X99245462Y44499322D01*
X99351212Y44847934D01*
X99351213Y44847938D01*
X99422290Y45205270D01*
X99458000Y45567830D01*
X99458000Y45932169D01*
X99422290Y46294729D01*
X99351213Y46652061D01*
X99304118Y46807311D01*
X99245462Y47000676D01*
X99245460Y47000678D01*
X99245459Y47000685D01*
X99106038Y47337277D01*
X99106025Y47337304D01*
X98997799Y47539782D01*
X98934297Y47658586D01*
X98874484Y47748102D01*
X98731883Y47961518D01*
X98546553Y48187342D01*
X97863049Y47503838D01*
X97808535Y47476063D01*
X97748103Y47485634D01*
X97704838Y47528899D01*
X97701584Y47535959D01*
X97669553Y47613288D01*
X97669552Y47613291D01*
X97613291Y47669552D01*
X97539782Y47700000D01*
X97539779Y47700000D01*
X97535960Y47701582D01*
X97489433Y47741318D01*
X97475149Y47800813D01*
X97498563Y47857341D01*
X97503840Y47863051D01*
X98158346Y48517557D01*
X98181119Y48529160D01*
X98187343Y48546553D01*
X97961518Y48731883D01*
X97658589Y48934295D01*
X97658588Y48934295D01*
X97658586Y48934297D01*
X97507726Y49014932D01*
X97337304Y49106025D01*
X97337277Y49106038D01*
X97000685Y49245459D01*
X97000678Y49245460D01*
X97000676Y49245462D01*
X96652064Y49351212D01*
X96652061Y49351213D01*
X96378487Y49405629D01*
X96360262Y49415835D01*
X96294728Y49422289D01*
X96294727Y49422290D01*
X96294731Y49422290D01*
X95932170Y49458000D01*
X95932167Y49458000D01*
X95567833Y49458000D01*
X95567830Y49458000D01*
X95205270Y49422290D01*
X94847938Y49351213D01*
X94847936Y49351212D01*
X94847934Y49351212D01*
X94499322Y49245462D01*
X94499316Y49245459D01*
X94499314Y49245459D01*
X94162722Y49106038D01*
X94162695Y49106025D01*
X94162679Y49106016D01*
X94162678Y49106016D01*
X93841412Y48934297D01*
X93707261Y48844659D01*
X93538481Y48731883D01*
X93312656Y48546553D01*
X93312656Y48546552D01*
X93996157Y47863050D01*
X94023934Y47808534D01*
X94014363Y47748102D01*
X93971098Y47704837D01*
X93964038Y47701583D01*
X93886711Y47669553D01*
X93886709Y47669552D01*
X93830448Y47613291D01*
X93830447Y47613289D01*
X93830446Y47613288D01*
X93798415Y47535957D01*
X93758679Y47489431D01*
X93699184Y47475147D01*
X93642656Y47498562D01*
X93636967Y47503819D01*
X92953445Y48187342D01*
X92788471Y47986320D01*
X92768117Y47961519D01*
X92565701Y47658586D01*
X92393982Y47337320D01*
X92393977Y47337310D01*
X92393974Y47337304D01*
X92393961Y47337277D01*
X92336761Y47199183D01*
X92254536Y47000676D01*
X92148786Y46652064D01*
X92077708Y46294725D01*
X92042000Y45932176D01*
X89750000Y45932176D01*
X89750000Y49809819D01*
X89754843Y49840405D01*
X89758842Y49852714D01*
X89758965Y49853092D01*
X89794925Y49902594D01*
X89794928Y49902596D01*
X89799050Y49905591D01*
X89857240Y49924500D01*
X96246365Y49924500D01*
X96248770Y49924470D01*
X96251199Y49924410D01*
X96253614Y49924322D01*
X96602877Y49907163D01*
X96607735Y49906804D01*
X96612592Y49906325D01*
X96617402Y49905731D01*
X96959621Y49854968D01*
X96964405Y49854138D01*
X96969197Y49853185D01*
X96973942Y49852120D01*
X97309567Y49768050D01*
X97314230Y49766760D01*
X97318885Y49765349D01*
X97323519Y49763819D01*
X97649302Y49647251D01*
X97653830Y49645504D01*
X97658314Y49643647D01*
X97662762Y49641676D01*
X97975551Y49493737D01*
X97979898Y49491549D01*
X97984189Y49489255D01*
X97988410Y49486863D01*
X98285176Y49308989D01*
X98289285Y49306387D01*
X98293327Y49303686D01*
X98297296Y49300891D01*
X98575220Y49094769D01*
X98579058Y49091773D01*
X98582820Y49088685D01*
X98586492Y49085517D01*
X98842843Y48853174D01*
X98846363Y48849824D01*
X98849824Y48846363D01*
X98853174Y48842843D01*
X99085517Y48586492D01*
X99088685Y48582820D01*
X99091773Y48579058D01*
X99094769Y48575220D01*
X99300891Y48297296D01*
X99303686Y48293327D01*
X99306387Y48289285D01*
X99308989Y48285176D01*
X99486863Y47988410D01*
X99489255Y47984189D01*
X99491549Y47979898D01*
X99493737Y47975551D01*
X99641676Y47662762D01*
X99643647Y47658314D01*
X99645504Y47653830D01*
X99647251Y47649302D01*
X99763819Y47323519D01*
X99765349Y47318885D01*
X99766760Y47314230D01*
X99768050Y47309567D01*
X99852120Y46973942D01*
X99853185Y46969197D01*
X99854138Y46964405D01*
X99854968Y46959621D01*
X99905731Y46617402D01*
X99906325Y46612592D01*
X99906804Y46607735D01*
X99907163Y46602877D01*
X99924322Y46253614D01*
X99924411Y46251197D01*
X99924470Y46248805D01*
X99924500Y46246364D01*
X99924500Y40857150D01*
X99923897Y40855296D01*
X99924430Y40853422D01*
X99919652Y40826550D01*
X99917104Y40818710D01*
X99907890Y40806030D01*
X99905593Y40798959D01*
X99903345Y40795985D01*
X99898497Y40789815D01*
X99893836Y40786690D01*
X99881137Y40769213D01*
X99855210Y40760790D01*
X99847677Y40755740D01*
X99840494Y40756010D01*
X99822945Y40750310D01*
X99800786Y40757506D01*
X99786536Y40758044D01*
X99777659Y40765018D01*
X99764785Y40769200D01*
X99764767Y40769213D01*
X99762482Y40770872D01*
X99746704Y40789341D01*
X99738425Y40795847D01*
X99737071Y40800617D01*
X99732446Y40806030D01*
X99686665Y40895881D01*
X99610257Y41001045D01*
X99328447Y40719235D01*
X99059899Y40450687D01*
X99005382Y40422910D01*
X98944950Y40432481D01*
X98907579Y40465691D01*
X98895273Y40484108D01*
X98872563Y40518097D01*
X98768097Y40622563D01*
X98715690Y40657579D01*
X98677811Y40705628D01*
X98675407Y40766766D01*
X98700687Y40809899D01*
X98947602Y41056814D01*
X99251045Y41360257D01*
X99145881Y41436665D01*
X98916850Y41553362D01*
X98672390Y41632792D01*
X98672386Y41632792D01*
X98672385Y41632793D01*
X98418526Y41673000D01*
X98418523Y41673000D01*
X98161477Y41673000D01*
X98161474Y41673000D01*
X97907613Y41632793D01*
X97907610Y41632792D01*
X97907609Y41632792D01*
X97663149Y41553362D01*
X97434121Y41436667D01*
X97434115Y41436663D01*
X97434111Y41436660D01*
X97434105Y41436656D01*
X97328953Y41360257D01*
X97328953Y41360255D01*
X97879310Y40809897D01*
X97907087Y40755381D01*
X97897516Y40694949D01*
X97864308Y40657579D01*
X97811903Y40622563D01*
X97707437Y40518097D01*
X97707434Y40518093D01*
X97707433Y40518092D01*
X97672418Y40465689D01*
X97624368Y40427810D01*
X97563230Y40425408D01*
X97520101Y40450685D01*
X96969742Y41001045D01*
X96969741Y41001045D01*
X96969740Y41001045D01*
X96893342Y40895893D01*
X96893338Y40895887D01*
X96893336Y40895884D01*
X96893332Y40895878D01*
X96821746Y40755381D01*
X96776637Y40666850D01*
X96697205Y40422385D01*
X96657000Y40168527D01*
X96657000Y39911471D01*
X96697205Y39657613D01*
X96776637Y39413148D01*
X96893330Y39184123D01*
X96893334Y39184118D01*
X96969741Y39078954D01*
X96969742Y39078954D01*
X97520100Y39629312D01*
X97574617Y39657089D01*
X97635049Y39647518D01*
X97672419Y39614310D01*
X97707433Y39561907D01*
X97811907Y39457433D01*
X97864310Y39422419D01*
X97902189Y39374369D01*
X97904591Y39313231D01*
X97879312Y39270100D01*
X97328954Y38719742D01*
X97328954Y38719741D01*
X97434118Y38643334D01*
X97434123Y38643330D01*
X97663148Y38526637D01*
X97907613Y38447205D01*
X98161473Y38407000D01*
X98418523Y38407000D01*
X98418527Y38407000D01*
X98672385Y38447205D01*
X98916850Y38526637D01*
X99121114Y38630714D01*
X99145878Y38643332D01*
X99145884Y38643336D01*
X99145887Y38643338D01*
X99145893Y38643342D01*
X99251045Y38719740D01*
X99251045Y38719741D01*
X99251045Y38719742D01*
X98700685Y39270101D01*
X98672910Y39324616D01*
X98682481Y39385048D01*
X98715689Y39422418D01*
X98768092Y39457433D01*
X98768093Y39457434D01*
X98768097Y39457437D01*
X98872563Y39561903D01*
X98907578Y39614307D01*
X98955628Y39652187D01*
X99016766Y39654589D01*
X99059897Y39629310D01*
X99610255Y39078953D01*
X99610257Y39078953D01*
X99610258Y39078953D01*
X99686656Y39184105D01*
X99686660Y39184111D01*
X99686663Y39184115D01*
X99686667Y39184121D01*
X99730170Y39269501D01*
X99731532Y39270863D01*
X99731904Y39272753D01*
X99748376Y39294560D01*
X99754206Y39300390D01*
X99768177Y39307508D01*
X99773435Y39312766D01*
X99776749Y39314377D01*
X99783869Y39317677D01*
X99789454Y39318349D01*
X99808723Y39328167D01*
X99835611Y39323908D01*
X99844616Y39324993D01*
X99850908Y39321485D01*
X99869155Y39318596D01*
X99885612Y39302143D01*
X99898061Y39295205D01*
X99902817Y39284943D01*
X99912407Y39275356D01*
X99913697Y39272826D01*
X99919360Y39249249D01*
X99923790Y39239693D01*
X99922829Y39234810D01*
X99924500Y39227856D01*
X99924500Y35777150D01*
X99919652Y35746550D01*
X99917104Y35738710D01*
X99881137Y35689213D01*
X99822945Y35670310D01*
X99764785Y35689200D01*
X99764767Y35689213D01*
X99762482Y35690872D01*
X99732446Y35726030D01*
X99686665Y35815881D01*
X99610257Y35921045D01*
X99332323Y35643111D01*
X99059899Y35370687D01*
X99005382Y35342910D01*
X98944950Y35352481D01*
X98907579Y35385691D01*
X98902568Y35393190D01*
X98872563Y35438097D01*
X98768097Y35542563D01*
X98715690Y35577579D01*
X98677811Y35625628D01*
X98675407Y35686766D01*
X98700687Y35729899D01*
X98950288Y35979500D01*
X99251045Y36280257D01*
X99145881Y36356665D01*
X98916850Y36473362D01*
X98672390Y36552792D01*
X98672386Y36552792D01*
X98672385Y36552793D01*
X98418526Y36593000D01*
X98418523Y36593000D01*
X98161477Y36593000D01*
X98161474Y36593000D01*
X97907613Y36552793D01*
X97907610Y36552792D01*
X97907609Y36552792D01*
X97663149Y36473362D01*
X97434121Y36356667D01*
X97434115Y36356663D01*
X97434111Y36356660D01*
X97434105Y36356656D01*
X97328953Y36280257D01*
X97328953Y36280255D01*
X97879310Y35729897D01*
X97907087Y35675381D01*
X97897516Y35614949D01*
X97864308Y35577579D01*
X97811903Y35542563D01*
X97707437Y35438097D01*
X97707434Y35438093D01*
X97707433Y35438092D01*
X97672418Y35385689D01*
X97624368Y35347810D01*
X97563230Y35345408D01*
X97520101Y35370685D01*
X96969742Y35921045D01*
X96969741Y35921045D01*
X96969740Y35921045D01*
X96893342Y35815893D01*
X96893338Y35815887D01*
X96893336Y35815884D01*
X96893332Y35815878D01*
X96823766Y35679347D01*
X96776637Y35586850D01*
X96697205Y35342385D01*
X96657000Y35088527D01*
X96657000Y34831471D01*
X96697205Y34577613D01*
X96776637Y34333148D01*
X96893330Y34104123D01*
X96893334Y34104118D01*
X96969741Y33998954D01*
X96969742Y33998954D01*
X97520100Y34549312D01*
X97574617Y34577089D01*
X97635049Y34567518D01*
X97672419Y34534310D01*
X97707433Y34481907D01*
X97811907Y34377433D01*
X97864310Y34342419D01*
X97902189Y34294369D01*
X97904591Y34233231D01*
X97879312Y34190100D01*
X97328954Y33639742D01*
X97328954Y33639741D01*
X97434118Y33563334D01*
X97434123Y33563330D01*
X97663148Y33446637D01*
X97907613Y33367205D01*
X98161473Y33327000D01*
X98418523Y33327000D01*
X98418527Y33327000D01*
X98672385Y33367205D01*
X98916850Y33446637D01*
X99145874Y33563330D01*
X99145876Y33563331D01*
X99145878Y33563332D01*
X99145884Y33563336D01*
X99145887Y33563338D01*
X99145893Y33563342D01*
X99251045Y33639740D01*
X99251045Y33639741D01*
X99251045Y33639742D01*
X98700685Y34190101D01*
X98672910Y34244616D01*
X98682481Y34305048D01*
X98715689Y34342418D01*
X98768092Y34377433D01*
X98768093Y34377434D01*
X98768097Y34377437D01*
X98872563Y34481903D01*
X98907578Y34534307D01*
X98955628Y34572187D01*
X99016766Y34574589D01*
X99059897Y34549310D01*
X99610255Y33998953D01*
X99610257Y33998953D01*
X99610258Y33998953D01*
X99686656Y34104105D01*
X99686660Y34104111D01*
X99686663Y34104115D01*
X99686667Y34104121D01*
X99730170Y34189501D01*
X99731532Y34190863D01*
X99731904Y34192753D01*
X99748376Y34214560D01*
X99754206Y34220390D01*
X99768177Y34227508D01*
X99773435Y34232766D01*
X99776749Y34234377D01*
X99783869Y34237677D01*
X99789454Y34238349D01*
X99808723Y34248167D01*
X99835611Y34243908D01*
X99844616Y34244993D01*
X99850908Y34241485D01*
X99869155Y34238596D01*
X99885612Y34222143D01*
X99898061Y34215205D01*
X99902817Y34204943D01*
X99912407Y34195356D01*
X99913697Y34192826D01*
X99919360Y34169249D01*
X99923790Y34159693D01*
X99922829Y34154810D01*
X99924500Y34147856D01*
X99924500Y28753634D01*
X99924471Y28751245D01*
X99924428Y28749500D01*
X99924411Y28748801D01*
X99924322Y28746384D01*
X99907163Y28397121D01*
X99906804Y28392263D01*
X99906325Y28387406D01*
X99905731Y28382596D01*
X99854968Y28040377D01*
X99854138Y28035593D01*
X99853185Y28030801D01*
X99852120Y28026056D01*
X99768050Y27690431D01*
X99766760Y27685768D01*
X99765349Y27681113D01*
X99763819Y27676479D01*
X99647251Y27350696D01*
X99645504Y27346168D01*
X99643647Y27341684D01*
X99641682Y27337249D01*
X99631387Y27315482D01*
X99493737Y27024447D01*
X99491549Y27020100D01*
X99489255Y27015809D01*
X99486863Y27011588D01*
X99308989Y26714822D01*
X99306387Y26710713D01*
X99303686Y26706671D01*
X99300891Y26702702D01*
X99094761Y26424767D01*
X99091790Y26420961D01*
X99088675Y26417164D01*
X99085537Y26413527D01*
X98919442Y26230270D01*
X98871934Y26177853D01*
X98871931Y26177851D01*
X98853163Y26157144D01*
X98849814Y26153625D01*
X98846368Y26150179D01*
X98842848Y26146829D01*
X98586487Y25914476D01*
X98582813Y25911307D01*
X98579063Y25908229D01*
X98575234Y25905239D01*
X98372039Y25754540D01*
X98297280Y25699095D01*
X98293341Y25696321D01*
X98289297Y25693619D01*
X98289275Y25693604D01*
X98285184Y25691014D01*
X97988387Y25513121D01*
X97984195Y25510746D01*
X97979897Y25508448D01*
X97975558Y25506264D01*
X97887893Y25464802D01*
X97662752Y25358317D01*
X97658323Y25356355D01*
X97653825Y25354492D01*
X97649294Y25352744D01*
X97323501Y25236174D01*
X97318918Y25234659D01*
X97314232Y25233238D01*
X97309609Y25231959D01*
X96973898Y25147867D01*
X96969211Y25146814D01*
X96964386Y25145855D01*
X96959687Y25145040D01*
X96617368Y25094262D01*
X96612571Y25093670D01*
X96607753Y25093195D01*
X96602922Y25092837D01*
X96258543Y25075919D01*
X96258542Y25075920D01*
X96258531Y25075918D01*
X96253612Y25075677D01*
X96251279Y25075591D01*
X96248719Y25075528D01*
X96246365Y25075500D01*
X8753635Y25075500D01*
X8751262Y25075528D01*
X8748759Y25075590D01*
X8746437Y25075675D01*
X8741835Y25075901D01*
X8397078Y25092837D01*
X8392273Y25093192D01*
X8387401Y25093672D01*
X8382687Y25094253D01*
X8040262Y25145047D01*
X8035608Y25145855D01*
X8030783Y25146815D01*
X8026121Y25147862D01*
X7690372Y25231963D01*
X7685774Y25233234D01*
X7681065Y25234663D01*
X7676551Y25236155D01*
X7350662Y25352759D01*
X7346160Y25354496D01*
X7341674Y25356355D01*
X7337272Y25358305D01*
X7024417Y25506275D01*
X7020110Y25508443D01*
X7015803Y25510745D01*
X7011640Y25513104D01*
X6714786Y25691030D01*
X6710700Y25693619D01*
X6706663Y25696317D01*
X6702727Y25699088D01*
X6424729Y25905266D01*
X6420967Y25908201D01*
X6417172Y25911316D01*
X6413539Y25914450D01*
X6157117Y26146859D01*
X6153630Y26150179D01*
X6150169Y26153639D01*
X6146859Y26157117D01*
X5914450Y26413539D01*
X5911316Y26417172D01*
X5908201Y26420967D01*
X5905266Y26424729D01*
X5699088Y26702727D01*
X5696317Y26706663D01*
X5693619Y26710700D01*
X5691030Y26714786D01*
X5513104Y27011640D01*
X5510743Y27015809D01*
X5508443Y27020110D01*
X5506269Y27024430D01*
X5506261Y27024447D01*
X5358305Y27337272D01*
X5356345Y27341697D01*
X5354500Y27346152D01*
X5352753Y27350680D01*
X5236155Y27676551D01*
X5234663Y27681065D01*
X5233234Y27685774D01*
X5231963Y27690372D01*
X5147862Y28026121D01*
X5146815Y28030783D01*
X5145855Y28035608D01*
X5145047Y28040262D01*
X5094253Y28382687D01*
X5093671Y28387411D01*
X5093193Y28392265D01*
X5092837Y28397088D01*
X5092835Y28397121D01*
X5075677Y28746384D01*
X5075588Y28748812D01*
X5075529Y28751245D01*
X5075500Y28753645D01*
X5075500Y31112684D01*
X5074605Y31118906D01*
X5055828Y31249500D01*
X5043427Y31335752D01*
X4979934Y31551987D01*
X4886315Y31756985D01*
X4764474Y31946573D01*
X4616892Y32116892D01*
X4446573Y32264474D01*
X4256985Y32386315D01*
X4051987Y32479934D01*
X3835752Y32543427D01*
X3835746Y32543427D01*
X3835746Y32543428D01*
X3822397Y32545347D01*
X3739167Y32557314D01*
X3612686Y32575500D01*
X3612684Y32575500D01*
X-12412039Y32575500D01*
X-12442630Y32580345D01*
X-12454967Y32584353D01*
X-12465856Y32587891D01*
X-12505269Y32612042D01*
X-13709119Y33815892D01*
X-14327336Y34434109D01*
X-14957233Y35064006D01*
X-14984982Y35075500D01*
X-14984984Y35075500D01*
X-26300000Y35075500D01*
X-26300000Y35679942D01*
X-26040525Y35939417D01*
X-26015468Y35957622D01*
X-25993709Y35968709D01*
X-25948763Y35979500D01*
X7510557Y35979500D01*
X7541151Y35974654D01*
X7564377Y35967107D01*
X7603787Y35942957D01*
X10650819Y32895922D01*
X10659427Y32882005D01*
X10669024Y32870863D01*
X10672766Y32863519D01*
X10673421Y32859380D01*
X10674711Y32857296D01*
X10677230Y32849758D01*
X10677357Y32834533D01*
X10682338Y32803087D01*
X10677695Y32793976D01*
X10677741Y32788574D01*
X10667968Y32774884D01*
X10654561Y32748571D01*
X10646107Y32744262D01*
X10642191Y32738776D01*
X10622301Y32732129D01*
X10600067Y32720797D01*
X10599737Y32720744D01*
X10598843Y32720603D01*
X10590694Y32721566D01*
X10584160Y32719383D01*
X10569189Y32724109D01*
X10545447Y32726917D01*
X10500691Y32745456D01*
X10500689Y32745456D01*
X10500681Y32745460D01*
X10152061Y32851213D01*
X9878487Y32905629D01*
X9860262Y32915835D01*
X9794728Y32922289D01*
X9794727Y32922290D01*
X9794731Y32922290D01*
X9432170Y32958000D01*
X9432167Y32958000D01*
X9067833Y32958000D01*
X9067830Y32958000D01*
X8705270Y32922290D01*
X8347938Y32851213D01*
X8347936Y32851212D01*
X8347934Y32851212D01*
X7999322Y32745462D01*
X7999317Y32745460D01*
X7999314Y32745459D01*
X7662722Y32606038D01*
X7662695Y32606025D01*
X7662679Y32606016D01*
X7662678Y32606016D01*
X7341412Y32434297D01*
X7205063Y32343190D01*
X7038481Y32231883D01*
X6812656Y32046553D01*
X6812656Y32046552D01*
X7496157Y31363050D01*
X7523934Y31308534D01*
X7514363Y31248102D01*
X7471098Y31204837D01*
X7464038Y31201583D01*
X7386711Y31169553D01*
X7386709Y31169552D01*
X7330448Y31113291D01*
X7330447Y31113289D01*
X7330446Y31113288D01*
X7298415Y31035957D01*
X7258679Y30989431D01*
X7199184Y30975147D01*
X7142656Y30998562D01*
X7136967Y31003819D01*
X6453445Y31687342D01*
X6453444Y31687341D01*
X6422389Y31649500D01*
X6268116Y31461518D01*
X6236523Y31414236D01*
X6065701Y31158586D01*
X5893982Y30837320D01*
X5893977Y30837310D01*
X5893974Y30837304D01*
X5893961Y30837277D01*
X5877864Y30798415D01*
X5754536Y30500676D01*
X5648786Y30152064D01*
X5577708Y29794725D01*
X5542000Y29432176D01*
X5542000Y29067822D01*
X5577708Y28705273D01*
X5648786Y28347934D01*
X5754536Y27999322D01*
X5893961Y27662722D01*
X5893962Y27662720D01*
X5893982Y27662678D01*
X6065701Y27341412D01*
X6268117Y27038479D01*
X6453444Y26812656D01*
X6453445Y26812656D01*
X7136949Y27496160D01*
X7191464Y27523936D01*
X7251896Y27514365D01*
X7295161Y27471100D01*
X7298415Y27464041D01*
X7330446Y27386711D01*
X7386711Y27330446D01*
X7464041Y27298415D01*
X7510567Y27258678D01*
X7524850Y27199183D01*
X7501435Y27142655D01*
X7496171Y27136960D01*
X6812656Y26453445D01*
X6812656Y26453444D01*
X7038479Y26268117D01*
X7341412Y26065701D01*
X7662678Y25893982D01*
X7662720Y25893962D01*
X7662722Y25893961D01*
X7999322Y25754536D01*
X8347934Y25648786D01*
X8621510Y25594369D01*
X8639734Y25584162D01*
X9067822Y25542000D01*
X9067830Y25542000D01*
X9432167Y25542000D01*
X9432170Y25542000D01*
X9550997Y25553703D01*
X9794725Y25577708D01*
X10152064Y25648786D01*
X10500676Y25754536D01*
X10634119Y25809810D01*
X10837277Y25893961D01*
X10837304Y25893974D01*
X10837310Y25893977D01*
X10837320Y25893982D01*
X11158586Y26065701D01*
X11424411Y26243322D01*
X11461518Y26268116D01*
X11621610Y26399500D01*
X11687341Y26453444D01*
X11687340Y26453444D01*
X11687342Y26453445D01*
X11374895Y26765892D01*
X18749500Y26765892D01*
X18749500Y26765890D01*
X18749500Y26634109D01*
X18783608Y26506811D01*
X18783611Y26506803D01*
X18849492Y26392694D01*
X18942691Y26299495D01*
X18999521Y26266684D01*
X19020555Y26243322D01*
X19124452Y26215482D01*
X19124453Y26215483D01*
X19184106Y26199500D01*
X19184108Y26199500D01*
X19184110Y26199500D01*
X19315890Y26199500D01*
X19315891Y26199500D01*
X19315892Y26199500D01*
X19346894Y26207806D01*
X19430731Y26230270D01*
X19430733Y26230271D01*
X19443186Y26233608D01*
X19443190Y26233609D01*
X19557309Y26299496D01*
X19557311Y26299498D01*
X19557314Y26299500D01*
X19650500Y26392686D01*
X19650501Y26392688D01*
X19650503Y26392690D01*
X19650898Y26393238D01*
X19651975Y26395240D01*
X19662529Y26413520D01*
X19716387Y26506803D01*
X19716390Y26506808D01*
X19727830Y26549500D01*
X19750500Y26634108D01*
X19750500Y26765892D01*
X19716392Y26893186D01*
X19674415Y26965892D01*
X27049500Y26965892D01*
X27049500Y26965890D01*
X27049500Y26834109D01*
X27083608Y26706811D01*
X27083611Y26706803D01*
X27149492Y26592694D01*
X27242690Y26499496D01*
X27299523Y26466683D01*
X27320556Y26443322D01*
X27411622Y26418922D01*
X27484108Y26399500D01*
X27484110Y26399500D01*
X27615890Y26399500D01*
X27615891Y26399500D01*
X27615892Y26399500D01*
X27646894Y26407806D01*
X27730731Y26430270D01*
X27730733Y26430271D01*
X27743186Y26433608D01*
X27743190Y26433609D01*
X27857309Y26499496D01*
X27857311Y26499498D01*
X27857314Y26499500D01*
X27950500Y26592686D01*
X27950501Y26592688D01*
X27950503Y26592690D01*
X27950898Y26593238D01*
X27951975Y26595240D01*
X27964356Y26616684D01*
X28014807Y26704067D01*
X28016390Y26706808D01*
X28017437Y26710713D01*
X28050500Y26834108D01*
X28050500Y26965892D01*
X28016392Y27093186D01*
X28003283Y27115892D01*
X33049500Y27115892D01*
X33049500Y27109916D01*
X33049500Y26984107D01*
X33058639Y26950000D01*
X33083610Y26856804D01*
X33149492Y26742694D01*
X33242691Y26649495D01*
X33299521Y26616684D01*
X33320555Y26593322D01*
X33424452Y26565482D01*
X33424453Y26565483D01*
X33484106Y26549500D01*
X33484108Y26549500D01*
X33484110Y26549500D01*
X33615890Y26549500D01*
X33615891Y26549500D01*
X33615892Y26549500D01*
X33646894Y26557806D01*
X33730731Y26580270D01*
X33730733Y26580271D01*
X33743186Y26583608D01*
X33743190Y26583609D01*
X33857309Y26649496D01*
X33857311Y26649498D01*
X33857314Y26649500D01*
X33950500Y26742686D01*
X33950501Y26742688D01*
X33950503Y26742690D01*
X33950898Y26743238D01*
X33951975Y26745240D01*
X33960448Y26759916D01*
X34016390Y26856809D01*
X34016390Y26856812D01*
X34016392Y26856814D01*
X34050500Y26984108D01*
X34050500Y27115892D01*
X34016392Y27243186D01*
X33983590Y27300000D01*
X33954042Y27351178D01*
X33952639Y27354067D01*
X33952122Y27354853D01*
X33949028Y27359862D01*
X33948277Y27361161D01*
X33941294Y27366519D01*
X33857314Y27450500D01*
X33743189Y27516390D01*
X33743188Y27516390D01*
X33743186Y27516392D01*
X33615892Y27550500D01*
X33615890Y27550500D01*
X33484110Y27550500D01*
X33484108Y27550500D01*
X33356814Y27516392D01*
X33356811Y27516390D01*
X33356809Y27516390D01*
X33356798Y27516383D01*
X33356094Y27516066D01*
X33354076Y27514812D01*
X33245240Y27451975D01*
X33245239Y27451975D01*
X33242690Y27450503D01*
X33242688Y27450501D01*
X33242686Y27450500D01*
X33149500Y27357314D01*
X33149498Y27357311D01*
X33149497Y27357310D01*
X33149492Y27357304D01*
X33083611Y27243196D01*
X33083596Y27243159D01*
X33083494Y27242763D01*
X33049500Y27115892D01*
X28003283Y27115892D01*
X27959651Y27191464D01*
X27950503Y27207309D01*
X27950502Y27207310D01*
X27950500Y27207314D01*
X27857314Y27300500D01*
X27743189Y27366390D01*
X27743188Y27366390D01*
X27743186Y27366392D01*
X27615892Y27400500D01*
X27615890Y27400500D01*
X27484110Y27400500D01*
X27484108Y27400500D01*
X27356814Y27366392D01*
X27356811Y27366390D01*
X27356809Y27366390D01*
X27356798Y27366383D01*
X27356094Y27366066D01*
X27354076Y27364812D01*
X27245240Y27301975D01*
X27245239Y27301975D01*
X27242690Y27300503D01*
X27242688Y27300501D01*
X27242686Y27300500D01*
X27149500Y27207314D01*
X27149498Y27207311D01*
X27149497Y27207310D01*
X27149492Y27207304D01*
X27083611Y27093196D01*
X27083596Y27093159D01*
X27083494Y27092763D01*
X27049500Y26965892D01*
X19674415Y26965892D01*
X19650500Y27007314D01*
X19557314Y27100500D01*
X19443189Y27166390D01*
X19443188Y27166390D01*
X19443186Y27166392D01*
X19315892Y27200500D01*
X19315890Y27200500D01*
X19184110Y27200500D01*
X19184108Y27200500D01*
X19056814Y27166392D01*
X19056811Y27166390D01*
X19056809Y27166390D01*
X19056798Y27166383D01*
X19056094Y27166066D01*
X19054076Y27164812D01*
X18945240Y27101975D01*
X18945239Y27101975D01*
X18942690Y27100503D01*
X18942688Y27100501D01*
X18942686Y27100500D01*
X18849500Y27007314D01*
X18849499Y27007312D01*
X18849497Y27007310D01*
X18849098Y27006757D01*
X18848027Y27004765D01*
X18783609Y26893190D01*
X18783596Y26893159D01*
X18783494Y26892763D01*
X18749500Y26765892D01*
X11374895Y26765892D01*
X11003836Y27136950D01*
X10976061Y27191464D01*
X10985632Y27251896D01*
X11028897Y27295161D01*
X11035957Y27298415D01*
X11113288Y27330446D01*
X11113289Y27330447D01*
X11113291Y27330448D01*
X11169552Y27386709D01*
X11174848Y27399495D01*
X11201583Y27464038D01*
X11241319Y27510564D01*
X11300814Y27524848D01*
X11357342Y27501433D01*
X11363050Y27496157D01*
X12046552Y26812655D01*
X12065043Y26835186D01*
X12112646Y26893190D01*
X12231883Y27038481D01*
X12344694Y27207314D01*
X12434297Y27341412D01*
X12606016Y27662678D01*
X12606016Y27662679D01*
X12606025Y27662695D01*
X12606038Y27662722D01*
X12745459Y27999314D01*
X12745459Y27999316D01*
X12745462Y27999322D01*
X12851209Y28347924D01*
X12851213Y28347938D01*
X12894566Y28565892D01*
X19949500Y28565892D01*
X19949500Y28565890D01*
X19949500Y28434109D01*
X19983608Y28306811D01*
X19983611Y28306803D01*
X20049492Y28192694D01*
X20142691Y28099495D01*
X20199521Y28066684D01*
X20220555Y28043322D01*
X20324452Y28015482D01*
X20324453Y28015483D01*
X20384106Y27999500D01*
X20384108Y27999500D01*
X20384110Y27999500D01*
X20515890Y27999500D01*
X20515891Y27999500D01*
X20515892Y27999500D01*
X20546894Y28007806D01*
X20630731Y28030270D01*
X20630733Y28030271D01*
X20643186Y28033608D01*
X20643190Y28033609D01*
X20757309Y28099496D01*
X20757311Y28099498D01*
X20757314Y28099500D01*
X20850500Y28192686D01*
X20850501Y28192688D01*
X20850503Y28192690D01*
X20850898Y28193238D01*
X20851975Y28195240D01*
X20855012Y28200500D01*
X20916387Y28306803D01*
X20916390Y28306808D01*
X20925635Y28341309D01*
X20950500Y28434108D01*
X20950500Y28565892D01*
X20916392Y28693186D01*
X20915246Y28695170D01*
X20909415Y28705271D01*
X20884989Y28747577D01*
X20850503Y28807309D01*
X20850502Y28807309D01*
X20850500Y28807314D01*
X20850497Y28807316D01*
X20849028Y28809862D01*
X20848277Y28811161D01*
X20841294Y28816519D01*
X20757314Y28900500D01*
X20643189Y28966390D01*
X20643188Y28966390D01*
X20643186Y28966392D01*
X20515892Y29000500D01*
X20515890Y29000500D01*
X20384110Y29000500D01*
X20384108Y29000500D01*
X20256814Y28966392D01*
X20256811Y28966390D01*
X20256809Y28966390D01*
X20256798Y28966383D01*
X20256094Y28966066D01*
X20254076Y28964812D01*
X20145240Y28901975D01*
X20145239Y28901975D01*
X20142690Y28900503D01*
X20142688Y28900501D01*
X20142686Y28900500D01*
X20049500Y28807314D01*
X20049498Y28807311D01*
X20049497Y28807310D01*
X20049492Y28807304D01*
X19983611Y28693196D01*
X19983596Y28693159D01*
X19983494Y28692763D01*
X19949500Y28565892D01*
X12894566Y28565892D01*
X12899699Y28591695D01*
X12906399Y28625379D01*
X12922290Y28705270D01*
X12958000Y29067830D01*
X12958000Y29315892D01*
X27849500Y29315892D01*
X27849500Y29315890D01*
X27849500Y29184109D01*
X27883608Y29056811D01*
X27883611Y29056803D01*
X27949492Y28942694D01*
X28042691Y28849495D01*
X28099521Y28816684D01*
X28120555Y28793322D01*
X28224452Y28765482D01*
X28224453Y28765483D01*
X28284106Y28749500D01*
X28284108Y28749500D01*
X28284110Y28749500D01*
X28415890Y28749500D01*
X28415891Y28749500D01*
X28415892Y28749500D01*
X28446894Y28757806D01*
X28530731Y28780270D01*
X28530733Y28780271D01*
X28543186Y28783608D01*
X28543190Y28783609D01*
X28657309Y28849496D01*
X28657311Y28849498D01*
X28657314Y28849500D01*
X28750500Y28942686D01*
X28750501Y28942688D01*
X28750503Y28942690D01*
X28750898Y28943238D01*
X28751975Y28945240D01*
X28814804Y29054062D01*
X28816391Y29056810D01*
X28844301Y29160976D01*
X28856901Y29189275D01*
X28864165Y29200460D01*
X28911711Y29238963D01*
X28922029Y29242924D01*
X28957510Y29249500D01*
X29065891Y29249500D01*
X29065892Y29249500D01*
X29096894Y29257806D01*
X29180731Y29280270D01*
X29180733Y29280271D01*
X29193186Y29283608D01*
X29193190Y29283609D01*
X29307309Y29349496D01*
X29307311Y29349498D01*
X29307314Y29349500D01*
X29400500Y29442686D01*
X29400501Y29442688D01*
X29400503Y29442690D01*
X29400898Y29443238D01*
X29401975Y29445240D01*
X29437149Y29506163D01*
X29466390Y29556809D01*
X29466390Y29556812D01*
X29466392Y29556814D01*
X29500500Y29684108D01*
X29500500Y29815892D01*
X29466392Y29943186D01*
X29462169Y29950500D01*
X29404035Y30051189D01*
X29402639Y30054067D01*
X29402122Y30054853D01*
X29399028Y30059862D01*
X29398277Y30061161D01*
X29391294Y30066519D01*
X29307314Y30150500D01*
X29193189Y30216390D01*
X29193188Y30216390D01*
X29193186Y30216392D01*
X29065892Y30250500D01*
X29065890Y30250500D01*
X28934110Y30250500D01*
X28934108Y30250500D01*
X28806814Y30216392D01*
X28806811Y30216390D01*
X28806809Y30216390D01*
X28806798Y30216383D01*
X28806094Y30216066D01*
X28804076Y30214812D01*
X28695240Y30151975D01*
X28695239Y30151975D01*
X28692690Y30150503D01*
X28692688Y30150501D01*
X28692686Y30150500D01*
X28599500Y30057314D01*
X28599498Y30057311D01*
X28599497Y30057310D01*
X28599492Y30057304D01*
X28533611Y29943196D01*
X28533586Y29943134D01*
X28533394Y29942390D01*
X28522171Y29900502D01*
X28522171Y29900500D01*
X28505698Y29839022D01*
X28493098Y29810724D01*
X28485834Y29799539D01*
X28438283Y29761035D01*
X28427966Y29757075D01*
X28392490Y29750500D01*
X28284108Y29750500D01*
X28156814Y29716392D01*
X28156811Y29716390D01*
X28156809Y29716390D01*
X28156798Y29716383D01*
X28156094Y29716066D01*
X28154076Y29714812D01*
X28045240Y29651975D01*
X28045239Y29651975D01*
X28042690Y29650503D01*
X28042688Y29650501D01*
X28042686Y29650500D01*
X27949500Y29557314D01*
X27949498Y29557311D01*
X27949497Y29557310D01*
X27949492Y29557304D01*
X27883611Y29443196D01*
X27883596Y29443159D01*
X27883494Y29442763D01*
X27849500Y29315892D01*
X12958000Y29315892D01*
X12958000Y29432169D01*
X12922290Y29794729D01*
X12851213Y30152061D01*
X12745459Y30500685D01*
X12606038Y30837277D01*
X12606029Y30837295D01*
X12481638Y31070012D01*
X12474063Y31088443D01*
X12471518Y31096998D01*
X12471571Y31099149D01*
X12471493Y31099279D01*
X12470701Y31103717D01*
X12471690Y31103893D01*
X12471698Y31104199D01*
X12468905Y31117888D01*
X12467795Y31117790D01*
X12467696Y31118906D01*
X12468226Y31121215D01*
X12467408Y31125227D01*
X12467408Y31126538D01*
X12469448Y31126538D01*
X12472600Y31140266D01*
X12473048Y31158165D01*
X12478278Y31164998D01*
X12481388Y31178540D01*
X12503181Y31197531D01*
X12510238Y31206750D01*
X12515585Y31208340D01*
X12521632Y31213610D01*
X12520674Y31215404D01*
X12525171Y31217808D01*
X12526965Y31218257D01*
X12527516Y31218737D01*
X12527523Y31218740D01*
X12528561Y31219182D01*
X12528762Y31218707D01*
X12571844Y31229500D01*
X12605998Y31229500D01*
X12636592Y31224654D01*
X12659818Y31217107D01*
X12699228Y31192957D01*
X12742686Y31149498D01*
X12742703Y31149488D01*
X12799522Y31116683D01*
X12820555Y31093322D01*
X12922931Y31065892D01*
X12984108Y31049500D01*
X12984110Y31049500D01*
X13115890Y31049500D01*
X13115891Y31049500D01*
X13115892Y31049500D01*
X13146894Y31057806D01*
X13230731Y31080270D01*
X13230733Y31080271D01*
X13243186Y31083608D01*
X13243190Y31083609D01*
X13357309Y31149496D01*
X13357311Y31149498D01*
X13357314Y31149500D01*
X13450500Y31242686D01*
X13450501Y31242688D01*
X13450503Y31242690D01*
X13450898Y31243238D01*
X13451975Y31245240D01*
X13516390Y31356809D01*
X13516390Y31356811D01*
X13516392Y31356814D01*
X13550500Y31484108D01*
X13550500Y31615892D01*
X13516392Y31743186D01*
X13512169Y31750500D01*
X13454035Y31851189D01*
X13452639Y31854067D01*
X13452122Y31854853D01*
X13449028Y31859862D01*
X13448277Y31861161D01*
X13441294Y31866519D01*
X13357314Y31950500D01*
X13351164Y31954051D01*
X13243190Y32016390D01*
X13243188Y32016390D01*
X13243186Y32016392D01*
X13243183Y32016392D01*
X13237192Y32018875D01*
X13237321Y32019187D01*
X13222550Y32025250D01*
X13220044Y32026675D01*
X13217109Y32028582D01*
X13216291Y32028811D01*
X13211116Y32031757D01*
X13193441Y32051143D01*
X13174051Y32068813D01*
X13171910Y32074759D01*
X13169893Y32076972D01*
X13169346Y32081880D01*
X13168139Y32085231D01*
X13167218Y32084877D01*
X13166658Y32086334D01*
X13166471Y32089865D01*
X13162570Y32100702D01*
X13162115Y32103297D01*
X13165728Y32103930D01*
X13164679Y32123773D01*
X13163119Y32137781D01*
X13163869Y32139099D01*
X13163429Y32147434D01*
X13165565Y32153730D01*
X13166390Y32156811D01*
X13166392Y32156814D01*
X13182222Y32215892D01*
X15199500Y32215892D01*
X15199500Y32084108D01*
X15210464Y32043190D01*
X15233608Y31956811D01*
X15233611Y31956803D01*
X15299492Y31842694D01*
X15392691Y31749495D01*
X15449521Y31716684D01*
X15470555Y31693322D01*
X15574452Y31665482D01*
X15574453Y31665483D01*
X15634106Y31649500D01*
X15634108Y31649500D01*
X15634110Y31649500D01*
X15765890Y31649500D01*
X15765891Y31649500D01*
X15765892Y31649500D01*
X15796894Y31657806D01*
X15880731Y31680270D01*
X15880733Y31680271D01*
X15893186Y31683608D01*
X15893190Y31683609D01*
X16007309Y31749496D01*
X16007311Y31749498D01*
X16007314Y31749500D01*
X16100500Y31842686D01*
X16100501Y31842688D01*
X16100503Y31842690D01*
X16100896Y31843236D01*
X16101967Y31845226D01*
X16166390Y31956810D01*
X16166390Y31956811D01*
X16166392Y31956814D01*
X16168824Y31965892D01*
X22499500Y31965892D01*
X22499500Y31965890D01*
X22499500Y31834109D01*
X22533608Y31706811D01*
X22533611Y31706803D01*
X22599492Y31592694D01*
X22692690Y31499496D01*
X22743823Y31469973D01*
X22743831Y31469969D01*
X22806810Y31433609D01*
X22806808Y31433609D01*
X22872932Y31415892D01*
X22879102Y31414238D01*
X22879109Y31414236D01*
X22934108Y31399500D01*
X22934110Y31399500D01*
X23065890Y31399500D01*
X23065891Y31399500D01*
X23065892Y31399500D01*
X23096894Y31407806D01*
X23180731Y31430270D01*
X23180733Y31430271D01*
X23193186Y31433608D01*
X23193190Y31433609D01*
X23307309Y31499496D01*
X23307311Y31499498D01*
X23307314Y31499500D01*
X23400500Y31592686D01*
X23400501Y31592688D01*
X23400503Y31592690D01*
X23400898Y31593238D01*
X23401975Y31595240D01*
X23466387Y31706803D01*
X23466390Y31706808D01*
X23469037Y31716684D01*
X23500500Y31834108D01*
X23500500Y31965892D01*
X24049500Y31965892D01*
X24049500Y31965890D01*
X24049500Y31834109D01*
X24083608Y31706811D01*
X24083611Y31706803D01*
X24149492Y31592694D01*
X24242690Y31499496D01*
X24293823Y31469973D01*
X24293831Y31469969D01*
X24356810Y31433609D01*
X24356808Y31433609D01*
X24422932Y31415892D01*
X24429102Y31414238D01*
X24429109Y31414236D01*
X24484108Y31399500D01*
X24484110Y31399500D01*
X24615890Y31399500D01*
X24615891Y31399500D01*
X24615892Y31399500D01*
X24646894Y31407806D01*
X24730731Y31430270D01*
X24730733Y31430271D01*
X24743186Y31433608D01*
X24743190Y31433609D01*
X24857309Y31499496D01*
X24857311Y31499498D01*
X24857314Y31499500D01*
X24950500Y31592686D01*
X24950501Y31592688D01*
X24950503Y31592690D01*
X24950898Y31593238D01*
X24951975Y31595240D01*
X25016387Y31706803D01*
X25016390Y31706808D01*
X25019037Y31716684D01*
X25050500Y31834108D01*
X25050500Y31915892D01*
X30049500Y31915892D01*
X30049500Y31784108D01*
X30056767Y31756987D01*
X30083608Y31656811D01*
X30083611Y31656803D01*
X30149492Y31542694D01*
X30242690Y31449496D01*
X30293823Y31419973D01*
X30293831Y31419969D01*
X30356810Y31383609D01*
X30356808Y31383609D01*
X30422932Y31365892D01*
X30429102Y31364238D01*
X30429109Y31364236D01*
X30484108Y31349500D01*
X30484110Y31349500D01*
X30615890Y31349500D01*
X30615891Y31349500D01*
X30615892Y31349500D01*
X30666466Y31363051D01*
X30730731Y31380270D01*
X30730733Y31380271D01*
X30743186Y31383608D01*
X30743190Y31383609D01*
X30857309Y31449496D01*
X30857311Y31449498D01*
X30857314Y31449500D01*
X30950500Y31542686D01*
X30950501Y31542688D01*
X30950503Y31542690D01*
X30950898Y31543238D01*
X30951975Y31545240D01*
X31016387Y31656803D01*
X31016390Y31656808D01*
X31018715Y31665482D01*
X31050500Y31784108D01*
X31050500Y31915892D01*
X31016392Y32043186D01*
X31012169Y32050500D01*
X30954035Y32151189D01*
X30952639Y32154067D01*
X30952122Y32154853D01*
X30949028Y32159862D01*
X30948277Y32161161D01*
X30941294Y32166519D01*
X30857314Y32250500D01*
X30743189Y32316390D01*
X30743188Y32316390D01*
X30743186Y32316392D01*
X30615892Y32350500D01*
X30615890Y32350500D01*
X30484110Y32350500D01*
X30484108Y32350500D01*
X30356814Y32316392D01*
X30356811Y32316390D01*
X30356809Y32316390D01*
X30356798Y32316383D01*
X30356094Y32316066D01*
X30354076Y32314812D01*
X30245240Y32251975D01*
X30245239Y32251975D01*
X30242690Y32250503D01*
X30242688Y32250501D01*
X30242686Y32250500D01*
X30149500Y32157314D01*
X30149498Y32157311D01*
X30149497Y32157310D01*
X30149492Y32157304D01*
X30083611Y32043196D01*
X30083596Y32043159D01*
X30083494Y32042763D01*
X30049500Y31915892D01*
X25050500Y31915892D01*
X25050500Y31965892D01*
X25016392Y32093186D01*
X25002705Y32116892D01*
X24954042Y32201178D01*
X24952639Y32204067D01*
X24952122Y32204853D01*
X24949028Y32209862D01*
X24948277Y32211161D01*
X24941294Y32216519D01*
X24857314Y32300500D01*
X24743189Y32366390D01*
X24743188Y32366390D01*
X24743186Y32366392D01*
X24615892Y32400500D01*
X24615890Y32400500D01*
X24484110Y32400500D01*
X24484108Y32400500D01*
X24356814Y32366392D01*
X24356811Y32366390D01*
X24356809Y32366390D01*
X24356798Y32366383D01*
X24356094Y32366066D01*
X24354076Y32364812D01*
X24245240Y32301975D01*
X24245239Y32301975D01*
X24242690Y32300503D01*
X24242688Y32300501D01*
X24242686Y32300500D01*
X24149500Y32207314D01*
X24149498Y32207311D01*
X24149497Y32207310D01*
X24149492Y32207304D01*
X24083611Y32093196D01*
X24083596Y32093159D01*
X24083494Y32092763D01*
X24049500Y31965892D01*
X23500500Y31965892D01*
X23466392Y32093186D01*
X23452705Y32116892D01*
X23404042Y32201178D01*
X23402639Y32204067D01*
X23402122Y32204853D01*
X23399028Y32209862D01*
X23398277Y32211161D01*
X23391294Y32216519D01*
X23307314Y32300500D01*
X23193189Y32366390D01*
X23193188Y32366390D01*
X23193186Y32366392D01*
X23065892Y32400500D01*
X23065890Y32400500D01*
X22934110Y32400500D01*
X22934108Y32400500D01*
X22806814Y32366392D01*
X22806811Y32366390D01*
X22806809Y32366390D01*
X22806798Y32366383D01*
X22806094Y32366066D01*
X22804076Y32364812D01*
X22695240Y32301975D01*
X22695239Y32301975D01*
X22692690Y32300503D01*
X22692688Y32300501D01*
X22692686Y32300500D01*
X22599500Y32207314D01*
X22599498Y32207311D01*
X22599497Y32207310D01*
X22599492Y32207304D01*
X22533611Y32093196D01*
X22533596Y32093159D01*
X22533494Y32092763D01*
X22499500Y31965892D01*
X16168824Y31965892D01*
X16200500Y32084108D01*
X16200500Y32215892D01*
X16166392Y32343186D01*
X16162169Y32350500D01*
X16104035Y32451189D01*
X16102639Y32454067D01*
X16102122Y32454853D01*
X16099028Y32459862D01*
X16098277Y32461161D01*
X16091294Y32466519D01*
X16007314Y32550500D01*
X15893189Y32616390D01*
X15893188Y32616390D01*
X15893186Y32616392D01*
X15765892Y32650500D01*
X15765890Y32650500D01*
X15634110Y32650500D01*
X15634108Y32650500D01*
X15506814Y32616392D01*
X15506811Y32616390D01*
X15506809Y32616390D01*
X15506798Y32616383D01*
X15506094Y32616066D01*
X15504076Y32614812D01*
X15395240Y32551975D01*
X15395239Y32551975D01*
X15392690Y32550503D01*
X15392688Y32550501D01*
X15392686Y32550500D01*
X15299500Y32457314D01*
X15299498Y32457311D01*
X15299497Y32457310D01*
X15299492Y32457304D01*
X15233611Y32343196D01*
X15233596Y32343159D01*
X15233494Y32342763D01*
X15199500Y32215892D01*
X13182222Y32215892D01*
X13200500Y32284108D01*
X13200500Y32415892D01*
X13166392Y32543186D01*
X13162169Y32550500D01*
X13104035Y32651189D01*
X13102639Y32654067D01*
X13102122Y32654853D01*
X13099028Y32659862D01*
X13098277Y32661161D01*
X13091294Y32666519D01*
X13007314Y32750500D01*
X12893189Y32816390D01*
X12893188Y32816390D01*
X12893186Y32816392D01*
X12765892Y32850500D01*
X12765890Y32850500D01*
X12634110Y32850500D01*
X12634108Y32850500D01*
X12506814Y32816392D01*
X12506811Y32816390D01*
X12506810Y32816390D01*
X12506809Y32816390D01*
X12506805Y32816387D01*
X12506095Y32816066D01*
X12504062Y32814804D01*
X12408976Y32759906D01*
X12380066Y32748807D01*
X12367017Y32746033D01*
X12306171Y32752423D01*
X12296061Y32756925D01*
X12266334Y32777356D01*
X11227798Y33815892D01*
X12849500Y33815892D01*
X12849500Y33815890D01*
X12849500Y33684109D01*
X12883608Y33556811D01*
X12883611Y33556803D01*
X12949492Y33442694D01*
X13042691Y33349495D01*
X13099521Y33316684D01*
X13120555Y33293322D01*
X13224452Y33265482D01*
X13224453Y33265483D01*
X13284106Y33249500D01*
X13284108Y33249500D01*
X13284110Y33249500D01*
X13415890Y33249500D01*
X13415891Y33249500D01*
X13415892Y33249500D01*
X13446894Y33257806D01*
X13530731Y33280270D01*
X13530733Y33280271D01*
X13543186Y33283608D01*
X13543190Y33283609D01*
X13657309Y33349496D01*
X13657311Y33349498D01*
X13657314Y33349500D01*
X13750500Y33442686D01*
X13750501Y33442688D01*
X13750503Y33442690D01*
X13750898Y33443238D01*
X13751975Y33445240D01*
X13774414Y33484105D01*
X13816387Y33556803D01*
X13816390Y33556808D01*
X13818140Y33563336D01*
X13832222Y33615892D01*
X25449500Y33615892D01*
X25449500Y33609916D01*
X25449500Y33484105D01*
X25459539Y33446636D01*
X25459540Y33446637D01*
X25483610Y33356804D01*
X25549492Y33242694D01*
X25642690Y33149496D01*
X25693823Y33119973D01*
X25693831Y33119969D01*
X25756810Y33083609D01*
X25756808Y33083609D01*
X25822932Y33065892D01*
X25829102Y33064238D01*
X25829109Y33064236D01*
X25884108Y33049500D01*
X25884110Y33049500D01*
X26015890Y33049500D01*
X26015891Y33049500D01*
X26015892Y33049500D01*
X26046894Y33057806D01*
X26130731Y33080270D01*
X26130733Y33080271D01*
X26143186Y33083608D01*
X26143190Y33083609D01*
X26257309Y33149496D01*
X26257311Y33149498D01*
X26257314Y33149500D01*
X26350500Y33242686D01*
X26350501Y33242688D01*
X26350503Y33242690D01*
X26350898Y33243238D01*
X26351975Y33245240D01*
X26363662Y33265482D01*
X26416390Y33356809D01*
X26416390Y33356812D01*
X26416392Y33356814D01*
X26450500Y33484108D01*
X26450500Y33615892D01*
X26416392Y33743186D01*
X26393054Y33783608D01*
X26354042Y33851178D01*
X26352639Y33854067D01*
X26352122Y33854853D01*
X26349028Y33859862D01*
X26348277Y33861161D01*
X26341294Y33866519D01*
X26257314Y33950500D01*
X26253884Y33952479D01*
X26249926Y33954765D01*
X26249926Y33954766D01*
X26143189Y34016390D01*
X26143188Y34016390D01*
X26143186Y34016392D01*
X26067705Y34036617D01*
X33899500Y34036617D01*
X33899500Y33863381D01*
X33926595Y33692302D01*
X33926596Y33692297D01*
X33980123Y33527561D01*
X33982000Y33523685D01*
X33982749Y33522407D01*
X34058768Y33373209D01*
X34160580Y33233078D01*
X34283078Y33110580D01*
X34423209Y33008768D01*
X34572407Y32932749D01*
X34573685Y32932000D01*
X34577561Y32930123D01*
X34742297Y32876596D01*
X34742302Y32876595D01*
X34913383Y32849500D01*
X35086614Y32849500D01*
X35086617Y32849500D01*
X35257696Y32876595D01*
X35257701Y32876596D01*
X35378464Y32915835D01*
X35422438Y32930123D01*
X35422441Y32930125D01*
X35426311Y32932000D01*
X35427591Y32932749D01*
X35576784Y33008765D01*
X35618174Y33038837D01*
X35716928Y33110586D01*
X35839414Y33233072D01*
X35941232Y33373212D01*
X36019873Y33527555D01*
X36019874Y33527558D01*
X36019876Y33527561D01*
X36073401Y33692293D01*
X36073402Y33692297D01*
X36081462Y33743186D01*
X36100500Y33863381D01*
X36100500Y34036617D01*
X36073403Y34207695D01*
X36073403Y34207696D01*
X36073402Y34207702D01*
X36073401Y34207706D01*
X36070964Y34215205D01*
X36020929Y34369197D01*
X36019876Y34372438D01*
X36019874Y34372441D01*
X36019873Y34372445D01*
X36019872Y34372445D01*
X36019854Y34372503D01*
X36019415Y34373387D01*
X36017994Y34376320D01*
X36017257Y34377578D01*
X35941232Y34526788D01*
X35839414Y34666928D01*
X35716928Y34789414D01*
X35576788Y34891232D01*
X35422445Y34969873D01*
X35422440Y34969874D01*
X35422438Y34969876D01*
X35418669Y34971100D01*
X35418057Y34971369D01*
X35416960Y34971655D01*
X35257706Y35023401D01*
X35257702Y35023402D01*
X35225843Y35028447D01*
X35086617Y35050500D01*
X35086614Y35050500D01*
X35086611Y35050500D01*
X34913389Y35050500D01*
X34913386Y35050500D01*
X34913383Y35050500D01*
X34742303Y35023403D01*
X34742297Y35023402D01*
X34742293Y35023401D01*
X34577561Y34969876D01*
X34577558Y34969874D01*
X34577555Y34969873D01*
X34577538Y34969864D01*
X34576659Y34969439D01*
X34573691Y34968001D01*
X34572414Y34967253D01*
X34423212Y34891232D01*
X34283072Y34789414D01*
X34160586Y34666928D01*
X34141003Y34639974D01*
X34058765Y34526784D01*
X33982749Y34377591D01*
X33982000Y34376311D01*
X33980127Y34372445D01*
X33980125Y34372441D01*
X33980123Y34372438D01*
X33955288Y34296005D01*
X33926596Y34207701D01*
X33926595Y34207696D01*
X33899500Y34036617D01*
X26067705Y34036617D01*
X26015892Y34050500D01*
X26015890Y34050500D01*
X25884110Y34050500D01*
X25884108Y34050500D01*
X25756814Y34016392D01*
X25756811Y34016390D01*
X25756809Y34016390D01*
X25756798Y34016383D01*
X25756094Y34016066D01*
X25754076Y34014812D01*
X25645240Y33951975D01*
X25645239Y33951975D01*
X25642690Y33950503D01*
X25642688Y33950501D01*
X25642686Y33950500D01*
X25549500Y33857314D01*
X25549498Y33857311D01*
X25549497Y33857310D01*
X25549492Y33857304D01*
X25483611Y33743196D01*
X25483596Y33743159D01*
X25483494Y33742763D01*
X25449500Y33615892D01*
X13832222Y33615892D01*
X13850500Y33684108D01*
X13850500Y33815892D01*
X13816392Y33943186D01*
X13812169Y33950500D01*
X13754035Y34051189D01*
X13752639Y34054067D01*
X13752122Y34054853D01*
X13749028Y34059862D01*
X13748277Y34061161D01*
X13741294Y34066519D01*
X13657314Y34150500D01*
X13643407Y34158529D01*
X13583380Y34193186D01*
X13543189Y34216390D01*
X13543188Y34216390D01*
X13543186Y34216392D01*
X13415892Y34250500D01*
X13415890Y34250500D01*
X13284110Y34250500D01*
X13284108Y34250500D01*
X13156814Y34216392D01*
X13156811Y34216390D01*
X13156809Y34216390D01*
X13156798Y34216383D01*
X13156094Y34216066D01*
X13154076Y34214812D01*
X13045240Y34151975D01*
X13045239Y34151975D01*
X13042690Y34150503D01*
X13042688Y34150501D01*
X13042686Y34150500D01*
X12949500Y34057314D01*
X12949498Y34057311D01*
X12949497Y34057310D01*
X12949492Y34057304D01*
X12883611Y33943196D01*
X12883596Y33943159D01*
X12883494Y33942763D01*
X12849500Y33815892D01*
X11227798Y33815892D01*
X10477798Y34565892D01*
X21599500Y34565892D01*
X21599500Y34559916D01*
X21599500Y34434106D01*
X21606812Y34406814D01*
X21606813Y34406815D01*
X21606813Y34406814D01*
X21614686Y34377433D01*
X21633610Y34306804D01*
X21699492Y34192694D01*
X21792690Y34099496D01*
X21843894Y34069932D01*
X21843902Y34069928D01*
X21906810Y34033609D01*
X21906808Y34033609D01*
X21971073Y34016390D01*
X21977317Y34014716D01*
X21977322Y34014715D01*
X22034108Y33999500D01*
X22034110Y33999500D01*
X22165890Y33999500D01*
X22165891Y33999500D01*
X22165892Y33999500D01*
X22204609Y34009874D01*
X22280731Y34030270D01*
X22280733Y34030271D01*
X22293186Y34033608D01*
X22293190Y34033609D01*
X22407309Y34099496D01*
X22407311Y34099498D01*
X22407314Y34099500D01*
X22500500Y34192686D01*
X22500501Y34192688D01*
X22500503Y34192690D01*
X22500898Y34193238D01*
X22501975Y34195240D01*
X22509166Y34207695D01*
X22566390Y34306809D01*
X22566390Y34306812D01*
X22566392Y34306814D01*
X22600500Y34434108D01*
X22600500Y34565892D01*
X22566392Y34693186D01*
X22552945Y34716476D01*
X22552945Y34716477D01*
X22518055Y34776908D01*
X22504045Y34801173D01*
X22502641Y34804065D01*
X22502122Y34804853D01*
X22499028Y34809862D01*
X22498277Y34811161D01*
X22491294Y34816519D01*
X22407314Y34900500D01*
X22293189Y34966390D01*
X22293188Y34966390D01*
X22293186Y34966392D01*
X22165892Y35000500D01*
X22165890Y35000500D01*
X22034110Y35000500D01*
X22034108Y35000500D01*
X21906814Y34966392D01*
X21906811Y34966390D01*
X21906809Y34966390D01*
X21906798Y34966383D01*
X21906094Y34966066D01*
X21904076Y34964812D01*
X21795240Y34901975D01*
X21795239Y34901975D01*
X21792690Y34900503D01*
X21792688Y34900501D01*
X21792686Y34900500D01*
X21699500Y34807314D01*
X21699498Y34807311D01*
X21699497Y34807310D01*
X21699492Y34807304D01*
X21633611Y34693196D01*
X21633596Y34693159D01*
X21633494Y34692763D01*
X21599500Y34565892D01*
X10477798Y34565892D01*
X10392814Y34650876D01*
X10374610Y34675934D01*
X10369023Y34686899D01*
X10359457Y34747331D01*
X10385428Y34799988D01*
X10392357Y34807289D01*
X10414664Y34824874D01*
X10457306Y34849494D01*
X10457307Y34849495D01*
X10457311Y34849498D01*
X10457314Y34849500D01*
X10550500Y34942686D01*
X10550501Y34942688D01*
X10550503Y34942690D01*
X10550898Y34943238D01*
X10551975Y34945240D01*
X10560426Y34959877D01*
X10616390Y35056809D01*
X10616390Y35056812D01*
X10616392Y35056814D01*
X10650500Y35184108D01*
X10650500Y35265892D01*
X22799500Y35265892D01*
X22799500Y35265890D01*
X22799500Y35134109D01*
X22833608Y35006811D01*
X22833611Y35006803D01*
X22899492Y34892694D01*
X22992691Y34799495D01*
X23049521Y34766684D01*
X23070555Y34743322D01*
X23174452Y34715482D01*
X23174453Y34715483D01*
X23234106Y34699500D01*
X23234108Y34699500D01*
X23234110Y34699500D01*
X23365890Y34699500D01*
X23365891Y34699500D01*
X23365892Y34699500D01*
X23396894Y34707806D01*
X23480731Y34730270D01*
X23480733Y34730271D01*
X23493186Y34733608D01*
X23493190Y34733609D01*
X23607309Y34799496D01*
X23607311Y34799498D01*
X23607314Y34799500D01*
X23700500Y34892686D01*
X23700501Y34892688D01*
X23700503Y34892690D01*
X23700898Y34893238D01*
X23701975Y34895240D01*
X23705012Y34900500D01*
X23766387Y35006803D01*
X23766390Y35006808D01*
X23770837Y35023402D01*
X23800500Y35134108D01*
X23800500Y35265892D01*
X23766392Y35393186D01*
X23743801Y35432314D01*
X23704042Y35501178D01*
X23702639Y35504067D01*
X23702122Y35504853D01*
X23699028Y35509862D01*
X23698277Y35511161D01*
X23691294Y35516519D01*
X23607314Y35600500D01*
X23493189Y35666390D01*
X23493188Y35666390D01*
X23493186Y35666392D01*
X23365892Y35700500D01*
X23365890Y35700500D01*
X23234110Y35700500D01*
X23234108Y35700500D01*
X23106814Y35666392D01*
X23106811Y35666390D01*
X23106809Y35666390D01*
X23106798Y35666383D01*
X23106094Y35666066D01*
X23104076Y35664812D01*
X22995240Y35601975D01*
X22995239Y35601975D01*
X22992690Y35600503D01*
X22992688Y35600501D01*
X22992686Y35600500D01*
X22899500Y35507314D01*
X22899498Y35507311D01*
X22899497Y35507310D01*
X22899492Y35507304D01*
X22833611Y35393196D01*
X22833596Y35393159D01*
X22833494Y35392763D01*
X22799500Y35265892D01*
X10650500Y35265892D01*
X10650500Y35315892D01*
X10616392Y35443186D01*
X10579370Y35507309D01*
X10579370Y35507310D01*
X10554049Y35551167D01*
X10552642Y35554063D01*
X10552125Y35554848D01*
X10549025Y35559867D01*
X10548277Y35561161D01*
X10541294Y35566519D01*
X10457314Y35650500D01*
X10343189Y35716390D01*
X10343188Y35716390D01*
X10343186Y35716392D01*
X10215892Y35750500D01*
X10215890Y35750500D01*
X10084109Y35750500D01*
X10084108Y35750500D01*
X10084107Y35750499D01*
X10077676Y35749653D01*
X10077638Y35749937D01*
X10054040Y35747456D01*
X10035080Y35748449D01*
X9986345Y35764283D01*
X9982787Y35766594D01*
X9978264Y35770256D01*
X9977963Y35770372D01*
X9977787Y35770642D01*
X9966712Y35779610D01*
X9094482Y36651839D01*
X9076278Y36676897D01*
X9070691Y36687862D01*
X9066099Y36716872D01*
X9060753Y36745727D01*
X9061337Y36746952D01*
X9061125Y36748294D01*
X9087096Y36800951D01*
X9094025Y36808252D01*
X9116332Y36825837D01*
X9157306Y36849494D01*
X9157307Y36849495D01*
X9157311Y36849498D01*
X9157314Y36849500D01*
X9250500Y36942686D01*
X9250501Y36942688D01*
X9250503Y36942690D01*
X9250898Y36943238D01*
X9251975Y36945240D01*
X9278500Y36991182D01*
X9316390Y37056809D01*
X9316390Y37056812D01*
X9316392Y37056814D01*
X9350500Y37184108D01*
X9350500Y37315892D01*
X9316392Y37443186D01*
X9312565Y37449814D01*
X9261425Y37538390D01*
X9258972Y37542910D01*
X9248320Y37563817D01*
X9248321Y37563818D01*
X9239640Y37580855D01*
X9230069Y37641269D01*
X9230891Y37646461D01*
X9248581Y37689175D01*
X9261304Y37706687D01*
X9262425Y37713190D01*
X9264282Y37716556D01*
X9316390Y37806809D01*
X9316390Y37806812D01*
X9316392Y37806814D01*
X9350500Y37934108D01*
X9350500Y38065892D01*
X9316392Y38193186D01*
X9315510Y38194713D01*
X9254035Y38301189D01*
X9252639Y38304067D01*
X9252122Y38304853D01*
X9249028Y38309862D01*
X9248277Y38311161D01*
X9241294Y38316519D01*
X9157314Y38400500D01*
X9117714Y38423362D01*
X9093643Y38442853D01*
X9085406Y38452001D01*
X9060522Y38507896D01*
X9071975Y38565478D01*
X9076780Y38574327D01*
X9093780Y38597094D01*
X9430295Y38933607D01*
X9430295Y38933608D01*
X9780102Y39283415D01*
X9805159Y39301620D01*
X9817043Y39307675D01*
X9877472Y39317248D01*
X9888386Y39315519D01*
X9922401Y39303475D01*
X9956811Y39283608D01*
X9956814Y39283607D01*
X9999243Y39272237D01*
X9999244Y39272238D01*
X10084108Y39249500D01*
X10084110Y39249500D01*
X10215890Y39249500D01*
X10215891Y39249500D01*
X10215892Y39249500D01*
X10248936Y39258354D01*
X10330731Y39280270D01*
X10330733Y39280271D01*
X10343186Y39283608D01*
X10343190Y39283609D01*
X10457309Y39349496D01*
X10457311Y39349498D01*
X10457314Y39349500D01*
X10550500Y39442686D01*
X10550501Y39442688D01*
X10550503Y39442690D01*
X10550898Y39443238D01*
X10551975Y39445240D01*
X10602419Y39532611D01*
X10616390Y39556809D01*
X10616390Y39556812D01*
X10616392Y39556814D01*
X10650500Y39684108D01*
X10650500Y39815892D01*
X10616392Y39943186D01*
X10593054Y39983608D01*
X10554042Y40051178D01*
X10552639Y40054067D01*
X10552122Y40054853D01*
X10549028Y40059862D01*
X10548277Y40061161D01*
X10541294Y40066519D01*
X10457314Y40150500D01*
X10343189Y40216390D01*
X10343188Y40216390D01*
X10343186Y40216392D01*
X10215892Y40250500D01*
X10215890Y40250500D01*
X10084110Y40250500D01*
X10084108Y40250500D01*
X9956814Y40216392D01*
X9956811Y40216390D01*
X9956809Y40216390D01*
X9956798Y40216383D01*
X9956094Y40216066D01*
X9954076Y40214812D01*
X9845240Y40151975D01*
X9845239Y40151975D01*
X9843674Y40151071D01*
X9842690Y40150503D01*
X9842688Y40150501D01*
X9842686Y40150500D01*
X9749500Y40057314D01*
X9749498Y40057311D01*
X9749495Y40057307D01*
X9749495Y40057306D01*
X9733386Y40029406D01*
X9717655Y40008904D01*
X9699851Y39991100D01*
X9679345Y39975366D01*
X9655099Y39961368D01*
X9637351Y39934038D01*
X8853814Y39150500D01*
X8047916Y38344602D01*
X8022856Y38326396D01*
X8003479Y38316523D01*
X8001098Y38315310D01*
X7956154Y38304520D01*
X-26300000Y38304520D01*
X-26300000Y39924500D01*
X-14984983Y39924500D01*
X-14984982Y39924500D01*
X-14968728Y39931232D01*
X-14968726Y39931233D01*
X-14968725Y39931232D01*
X-14957236Y39935991D01*
X-14277335Y40615892D01*
X21949500Y40615892D01*
X21949500Y40484108D01*
X21960465Y40443186D01*
X21983608Y40356811D01*
X21983611Y40356803D01*
X22049492Y40242694D01*
X22142691Y40149495D01*
X22199521Y40116684D01*
X22220555Y40093322D01*
X22324452Y40065482D01*
X22324453Y40065483D01*
X22384106Y40049500D01*
X22384108Y40049500D01*
X22384110Y40049500D01*
X22515890Y40049500D01*
X22515891Y40049500D01*
X22515892Y40049500D01*
X22559412Y40061161D01*
X22630731Y40080270D01*
X22630733Y40080271D01*
X22643186Y40083608D01*
X22643190Y40083609D01*
X22757309Y40149496D01*
X22757311Y40149498D01*
X22757314Y40149500D01*
X22850500Y40242686D01*
X22850501Y40242688D01*
X22850503Y40242690D01*
X22850898Y40243238D01*
X22851975Y40245240D01*
X22855012Y40250500D01*
X22916387Y40356803D01*
X22916390Y40356808D01*
X22917252Y40360023D01*
X22950500Y40484108D01*
X22950500Y40565892D01*
X34099500Y40565892D01*
X34099500Y40565890D01*
X34099500Y40434109D01*
X34133608Y40306811D01*
X34133611Y40306803D01*
X34199492Y40192694D01*
X34292690Y40099496D01*
X34344141Y40069790D01*
X34344146Y40069787D01*
X34406810Y40033609D01*
X34406808Y40033609D01*
X34464620Y40018119D01*
X34471142Y40016371D01*
X34471148Y40016369D01*
X34534108Y39999500D01*
X34534110Y39999500D01*
X34665890Y39999500D01*
X34665891Y39999500D01*
X34665892Y39999500D01*
X34700989Y40008904D01*
X34780731Y40030270D01*
X34780733Y40030271D01*
X34793186Y40033608D01*
X34793190Y40033609D01*
X34907309Y40099496D01*
X34907311Y40099498D01*
X34907314Y40099500D01*
X35000500Y40192686D01*
X35000501Y40192688D01*
X35000503Y40192690D01*
X35000898Y40193238D01*
X35001975Y40195240D01*
X35010425Y40209876D01*
X35066387Y40306803D01*
X35066390Y40306808D01*
X35079788Y40356808D01*
X35100500Y40434108D01*
X35100500Y40565892D01*
X35066392Y40693186D01*
X35062169Y40700500D01*
X35004035Y40801189D01*
X35002639Y40804067D01*
X35002122Y40804853D01*
X34999028Y40809862D01*
X34998277Y40811161D01*
X34991294Y40816519D01*
X34907314Y40900500D01*
X34793189Y40966390D01*
X34793188Y40966390D01*
X34793186Y40966392D01*
X34665892Y41000500D01*
X34665890Y41000500D01*
X34534110Y41000500D01*
X34534108Y41000500D01*
X34406814Y40966392D01*
X34406811Y40966390D01*
X34406809Y40966390D01*
X34406798Y40966383D01*
X34406094Y40966066D01*
X34404076Y40964812D01*
X34295240Y40901975D01*
X34295239Y40901975D01*
X34292690Y40900503D01*
X34292688Y40900501D01*
X34292686Y40900500D01*
X34199500Y40807314D01*
X34199498Y40807311D01*
X34199497Y40807310D01*
X34199492Y40807304D01*
X34133611Y40693196D01*
X34133596Y40693159D01*
X34133494Y40692763D01*
X34099500Y40565892D01*
X22950500Y40565892D01*
X22950500Y40615892D01*
X22916392Y40743186D01*
X22912169Y40750500D01*
X22854035Y40851189D01*
X22852639Y40854067D01*
X22852122Y40854853D01*
X22849028Y40859862D01*
X22848277Y40861161D01*
X22841294Y40866519D01*
X22757314Y40950500D01*
X22643189Y41016390D01*
X22643188Y41016390D01*
X22643186Y41016392D01*
X22515892Y41050500D01*
X22515890Y41050500D01*
X22384110Y41050500D01*
X22384108Y41050500D01*
X22256814Y41016392D01*
X22256811Y41016390D01*
X22256809Y41016390D01*
X22256798Y41016383D01*
X22256094Y41016066D01*
X22254076Y41014812D01*
X22145240Y40951975D01*
X22145239Y40951975D01*
X22142690Y40950503D01*
X22142688Y40950501D01*
X22142686Y40950500D01*
X22049500Y40857314D01*
X22049498Y40857311D01*
X22049497Y40857310D01*
X22049492Y40857304D01*
X21983611Y40743196D01*
X21983596Y40743159D01*
X21983494Y40742763D01*
X21949500Y40615892D01*
X-14277335Y40615892D01*
X-13577335Y41315892D01*
X12899500Y41315892D01*
X12899500Y41315890D01*
X12899500Y41184109D01*
X12933608Y41056811D01*
X12933611Y41056803D01*
X12999492Y40942694D01*
X13092691Y40849495D01*
X13149521Y40816684D01*
X13170555Y40793322D01*
X13274452Y40765482D01*
X13274453Y40765483D01*
X13334106Y40749500D01*
X13334108Y40749500D01*
X13334110Y40749500D01*
X13465890Y40749500D01*
X13465891Y40749500D01*
X13465892Y40749500D01*
X13497779Y40758044D01*
X13580731Y40780270D01*
X13580733Y40780271D01*
X13593186Y40783608D01*
X13593190Y40783609D01*
X13707309Y40849496D01*
X13707311Y40849498D01*
X13707314Y40849500D01*
X13800500Y40942686D01*
X13800501Y40942688D01*
X13800503Y40942690D01*
X13800898Y40943238D01*
X13801975Y40945240D01*
X13805012Y40950500D01*
X13866387Y41056803D01*
X13866390Y41056808D01*
X13900500Y41184109D01*
X13900500Y41315890D01*
X13900500Y41315892D01*
X13866392Y41443186D01*
X13866386Y41443196D01*
X13800503Y41557309D01*
X13800502Y41557310D01*
X13800500Y41557314D01*
X13707314Y41650500D01*
X13593189Y41716390D01*
X13593188Y41716390D01*
X13593186Y41716392D01*
X13465892Y41750500D01*
X13465890Y41750500D01*
X13334110Y41750500D01*
X13334108Y41750500D01*
X13206814Y41716392D01*
X13206811Y41716390D01*
X13206809Y41716390D01*
X13206798Y41716383D01*
X13206094Y41716066D01*
X13204076Y41714812D01*
X13095240Y41651975D01*
X13095239Y41651975D01*
X13092690Y41650503D01*
X13092688Y41650501D01*
X13092686Y41650500D01*
X12999500Y41557314D01*
X12999498Y41557311D01*
X12999497Y41557310D01*
X12999492Y41557304D01*
X12933611Y41443196D01*
X12933596Y41443159D01*
X12933494Y41442763D01*
X12899500Y41315892D01*
X-13577335Y41315892D01*
X-13500842Y41392385D01*
X-12508809Y42384417D01*
X-12483752Y42402621D01*
X-12461994Y42413708D01*
X-12417047Y42424500D01*
X3612690Y42424500D01*
X3835746Y42456571D01*
X3835750Y42456572D01*
X4051970Y42520060D01*
X4051996Y42520068D01*
X4052505Y42520279D01*
X4053568Y42520788D01*
X4101518Y42542686D01*
X4256985Y42613685D01*
X4319815Y42654063D01*
X4446573Y42735526D01*
X4446583Y42735534D01*
X4613493Y42880162D01*
X4613494Y42880163D01*
X4616882Y42883099D01*
X4616884Y42883101D01*
X4616892Y42883108D01*
X4645298Y42915890D01*
X4764464Y43053415D01*
X4764473Y43053426D01*
X4767736Y43058504D01*
X4784194Y43084110D01*
X4886309Y43243006D01*
X4886313Y43243012D01*
X4886315Y43243015D01*
X4979934Y43448013D01*
X5043427Y43664248D01*
X5058768Y43770944D01*
X5075500Y43887313D01*
X5075500Y45932176D01*
X5542000Y45932176D01*
X5542000Y45567822D01*
X5577708Y45205273D01*
X5648786Y44847934D01*
X5754536Y44499322D01*
X5893961Y44162722D01*
X5893962Y44162720D01*
X5893982Y44162678D01*
X6065701Y43841412D01*
X6268117Y43538479D01*
X6453444Y43312656D01*
X6453445Y43312656D01*
X7136949Y43996160D01*
X7191464Y44023936D01*
X7251896Y44014365D01*
X7295161Y43971100D01*
X7298415Y43964041D01*
X7330446Y43886711D01*
X7386711Y43830446D01*
X7464041Y43798415D01*
X7510567Y43758678D01*
X7524850Y43699183D01*
X7501435Y43642655D01*
X7496171Y43636960D01*
X6812656Y42953445D01*
X6812656Y42953444D01*
X7038479Y42768117D01*
X7341412Y42565701D01*
X7662678Y42393982D01*
X7662720Y42393962D01*
X7662722Y42393961D01*
X7999322Y42254536D01*
X8347934Y42148786D01*
X8621510Y42094369D01*
X8639734Y42084162D01*
X9067822Y42042000D01*
X9067830Y42042000D01*
X9432167Y42042000D01*
X9432170Y42042000D01*
X9550997Y42053703D01*
X9674755Y42065892D01*
X26099500Y42065892D01*
X26099500Y42065890D01*
X26099500Y41934109D01*
X26133608Y41806811D01*
X26133611Y41806803D01*
X26199492Y41692694D01*
X26292691Y41599495D01*
X26349521Y41566684D01*
X26370555Y41543322D01*
X26474452Y41515482D01*
X26474453Y41515483D01*
X26534106Y41499500D01*
X26534108Y41499500D01*
X26534110Y41499500D01*
X26665890Y41499500D01*
X26665891Y41499500D01*
X26665892Y41499500D01*
X26696894Y41507806D01*
X26780731Y41530270D01*
X26780733Y41530271D01*
X26793186Y41533608D01*
X26793190Y41533609D01*
X26907309Y41599496D01*
X26907311Y41599498D01*
X26907314Y41599500D01*
X27000500Y41692686D01*
X27000501Y41692688D01*
X27000503Y41692690D01*
X27000898Y41693238D01*
X27001975Y41695240D01*
X27010425Y41709876D01*
X27066387Y41806803D01*
X27066390Y41806808D01*
X27100500Y41934109D01*
X27100500Y42065890D01*
X27100500Y42065892D01*
X27066392Y42193186D01*
X27066386Y42193196D01*
X27000503Y42307309D01*
X27000502Y42307310D01*
X27000500Y42307314D01*
X26907314Y42400500D01*
X26793189Y42466390D01*
X26793188Y42466390D01*
X26793186Y42466392D01*
X26665892Y42500500D01*
X26665890Y42500500D01*
X26534110Y42500500D01*
X26534108Y42500500D01*
X26406814Y42466392D01*
X26406811Y42466390D01*
X26406809Y42466390D01*
X26406798Y42466383D01*
X26406094Y42466066D01*
X26404076Y42464812D01*
X26295240Y42401975D01*
X26295239Y42401975D01*
X26292690Y42400503D01*
X26292688Y42400501D01*
X26292686Y42400500D01*
X26199500Y42307314D01*
X26199498Y42307311D01*
X26199497Y42307310D01*
X26199492Y42307304D01*
X26133611Y42193196D01*
X26133596Y42193159D01*
X26133494Y42192763D01*
X26099500Y42065892D01*
X9674755Y42065892D01*
X9794725Y42077708D01*
X10152049Y42148783D01*
X10152063Y42148786D01*
X10212490Y42167117D01*
X10212492Y42167118D01*
X10500676Y42254536D01*
X10634119Y42309810D01*
X10837277Y42393961D01*
X10837304Y42393974D01*
X10837310Y42393977D01*
X10837320Y42393982D01*
X11158586Y42565701D01*
X11461519Y42768117D01*
X11481006Y42784109D01*
X11641584Y42915892D01*
X15299500Y42915892D01*
X15299500Y42915890D01*
X15299500Y42784109D01*
X15333608Y42656811D01*
X15333611Y42656803D01*
X15399492Y42542694D01*
X15492691Y42449495D01*
X15549521Y42416684D01*
X15570555Y42393322D01*
X15674452Y42365482D01*
X15674453Y42365483D01*
X15734106Y42349500D01*
X15734108Y42349500D01*
X15734110Y42349500D01*
X15865890Y42349500D01*
X15865891Y42349500D01*
X15865892Y42349500D01*
X15896894Y42357806D01*
X15980731Y42380270D01*
X15980733Y42380271D01*
X15993186Y42383608D01*
X15993190Y42383609D01*
X16107309Y42449496D01*
X16107311Y42449498D01*
X16107314Y42449500D01*
X16200500Y42542686D01*
X16200501Y42542688D01*
X16200503Y42542690D01*
X16200898Y42543238D01*
X16201975Y42545240D01*
X16241492Y42613685D01*
X16266387Y42656803D01*
X16266390Y42656808D01*
X16287483Y42735526D01*
X16300500Y42784108D01*
X16300500Y42915892D01*
X16266392Y43043186D01*
X16260486Y43053415D01*
X16204035Y43151189D01*
X16202639Y43154067D01*
X16202122Y43154853D01*
X16199028Y43159862D01*
X16198277Y43161161D01*
X16191294Y43166519D01*
X16107314Y43250500D01*
X15993189Y43316390D01*
X15993188Y43316390D01*
X15993186Y43316392D01*
X15865892Y43350500D01*
X15865890Y43350500D01*
X15734110Y43350500D01*
X15734108Y43350500D01*
X15606814Y43316392D01*
X15606811Y43316390D01*
X15606809Y43316390D01*
X15606798Y43316383D01*
X15606094Y43316066D01*
X15604076Y43314812D01*
X15495240Y43251975D01*
X15495239Y43251975D01*
X15492690Y43250503D01*
X15492688Y43250501D01*
X15492686Y43250500D01*
X15399500Y43157314D01*
X15399498Y43157311D01*
X15399497Y43157310D01*
X15399492Y43157304D01*
X15333611Y43043196D01*
X15333596Y43043159D01*
X15333494Y43042763D01*
X15299500Y42915892D01*
X11641584Y42915892D01*
X11687342Y42953445D01*
X11003836Y43636950D01*
X10976061Y43691464D01*
X10985632Y43751896D01*
X11028897Y43795161D01*
X11035957Y43798415D01*
X11113288Y43830446D01*
X11113289Y43830447D01*
X11113291Y43830448D01*
X11169552Y43886709D01*
X11169803Y43887314D01*
X11201583Y43964038D01*
X11241319Y44010564D01*
X11300814Y44024848D01*
X11357342Y44001433D01*
X11363050Y43996157D01*
X12046552Y43312656D01*
X12046553Y43312656D01*
X12231883Y43538481D01*
X12339261Y43699183D01*
X12434297Y43841412D01*
X12606016Y44162678D01*
X12606016Y44162679D01*
X12606025Y44162695D01*
X12606038Y44162722D01*
X12745459Y44499314D01*
X12745459Y44499316D01*
X12745462Y44499322D01*
X12851212Y44847933D01*
X12884621Y45015892D01*
X31749500Y45015892D01*
X31749500Y45015890D01*
X31749500Y44884109D01*
X31783608Y44756811D01*
X31783611Y44756803D01*
X31849492Y44642694D01*
X31942690Y44549496D01*
X31994003Y44519869D01*
X31994012Y44519865D01*
X32056810Y44483609D01*
X32056808Y44483609D01*
X32118147Y44467174D01*
X32124517Y44465467D01*
X32124520Y44465466D01*
X32184108Y44449500D01*
X32184110Y44449500D01*
X32315890Y44449500D01*
X32315891Y44449500D01*
X32315892Y44449500D01*
X32346894Y44457806D01*
X32430731Y44480270D01*
X32430733Y44480271D01*
X32443186Y44483608D01*
X32443190Y44483609D01*
X32557309Y44549496D01*
X32557311Y44549498D01*
X32557314Y44549500D01*
X32650500Y44642686D01*
X32650501Y44642688D01*
X32650503Y44642690D01*
X32650898Y44643238D01*
X32651975Y44645240D01*
X32669213Y44675097D01*
X32716387Y44756803D01*
X32716390Y44756808D01*
X32721743Y44776783D01*
X32750500Y44884108D01*
X32750500Y45015892D01*
X32716392Y45143186D01*
X32709834Y45154544D01*
X32654042Y45251178D01*
X32652639Y45254067D01*
X32652122Y45254853D01*
X32649028Y45259862D01*
X32648277Y45261161D01*
X32641294Y45266519D01*
X32557314Y45350500D01*
X32443189Y45416390D01*
X32443188Y45416390D01*
X32443186Y45416392D01*
X32315892Y45450500D01*
X32315890Y45450500D01*
X32184110Y45450500D01*
X32184108Y45450500D01*
X32056814Y45416392D01*
X32056811Y45416390D01*
X32056809Y45416390D01*
X32056798Y45416383D01*
X32056094Y45416066D01*
X32054076Y45414812D01*
X31945240Y45351975D01*
X31945239Y45351975D01*
X31942690Y45350503D01*
X31942688Y45350501D01*
X31942686Y45350500D01*
X31849500Y45257314D01*
X31849498Y45257311D01*
X31849497Y45257310D01*
X31849492Y45257304D01*
X31783611Y45143196D01*
X31783596Y45143159D01*
X31783494Y45142763D01*
X31749500Y45015892D01*
X12884621Y45015892D01*
X12889754Y45041695D01*
X12922290Y45205271D01*
X12922290Y45205273D01*
X12958000Y45567830D01*
X12958000Y45932169D01*
X12922290Y46294729D01*
X12870904Y46553067D01*
X12870904Y46553068D01*
X12868353Y46565892D01*
X22899500Y46565892D01*
X22899500Y46559916D01*
X22899500Y46434108D01*
X22909542Y46396630D01*
X22933610Y46306804D01*
X22999492Y46192694D01*
X23092691Y46099495D01*
X23149521Y46066684D01*
X23170555Y46043322D01*
X23274452Y46015482D01*
X23274453Y46015483D01*
X23334106Y45999500D01*
X23334108Y45999500D01*
X23334110Y45999500D01*
X23465890Y45999500D01*
X23465891Y45999500D01*
X23465892Y45999500D01*
X23496894Y46007806D01*
X23580731Y46030270D01*
X23580733Y46030271D01*
X23593186Y46033608D01*
X23593190Y46033609D01*
X23707309Y46099496D01*
X23707311Y46099498D01*
X23707314Y46099500D01*
X23800500Y46192686D01*
X23800501Y46192688D01*
X23800503Y46192690D01*
X23800898Y46193238D01*
X23801975Y46195240D01*
X23866390Y46306809D01*
X23866390Y46306812D01*
X23866392Y46306814D01*
X23900500Y46434108D01*
X23900500Y46565892D01*
X23866392Y46693186D01*
X23866386Y46693196D01*
X23800503Y46807309D01*
X23800502Y46807310D01*
X23800500Y46807314D01*
X23784337Y46823477D01*
X34964000Y46823477D01*
X34964000Y46818925D01*
X34964000Y46676519D01*
X34990766Y46541961D01*
X34990766Y46541959D01*
X34992667Y46532396D01*
X35048894Y46396651D01*
X35048897Y46396644D01*
X35048910Y46396621D01*
X35130542Y46274452D01*
X35234452Y46170542D01*
X35356621Y46088910D01*
X35356644Y46088897D01*
X35492398Y46032668D01*
X35636519Y46004000D01*
X35783477Y46004000D01*
X35783479Y46004000D01*
X35879558Y46023112D01*
X35918038Y46030766D01*
X35918040Y46030766D01*
X35927602Y46032667D01*
X36063347Y46088894D01*
X36063354Y46088897D01*
X36063377Y46088910D01*
X36185546Y46170542D01*
X36289456Y46274452D01*
X36371088Y46396621D01*
X36371094Y46396630D01*
X36371099Y46396640D01*
X36425986Y46529152D01*
X36426918Y46531195D01*
X36427331Y46532399D01*
X36427332Y46532400D01*
X36456000Y46676525D01*
X36456000Y46823475D01*
X36427332Y46967600D01*
X36371097Y47103364D01*
X36289456Y47225548D01*
X36185548Y47329456D01*
X36063364Y47411097D01*
X35927600Y47467332D01*
X35783475Y47496000D01*
X35783474Y47496000D01*
X35636526Y47496000D01*
X35636525Y47496000D01*
X35492400Y47467332D01*
X35492398Y47467331D01*
X35492393Y47467329D01*
X35491195Y47466918D01*
X35489151Y47465986D01*
X35356651Y47411104D01*
X35356644Y47411101D01*
X35356641Y47411099D01*
X35356640Y47411099D01*
X35356629Y47411093D01*
X35356624Y47411089D01*
X35356621Y47411088D01*
X35234452Y47329456D01*
X35130542Y47225546D01*
X35048910Y47103377D01*
X35048897Y47103354D01*
X35005323Y46998153D01*
X35005323Y46998152D01*
X34992669Y46967603D01*
X34992668Y46967600D01*
X34989113Y46949729D01*
X34989097Y46949649D01*
X34989068Y46949500D01*
X34964000Y46823477D01*
X23784337Y46823477D01*
X23707314Y46900500D01*
X23593189Y46966390D01*
X23593188Y46966390D01*
X23593186Y46966392D01*
X23465892Y47000500D01*
X23465890Y47000500D01*
X23334110Y47000500D01*
X23334108Y47000500D01*
X23206814Y46966392D01*
X23206811Y46966390D01*
X23206809Y46966390D01*
X23206798Y46966383D01*
X23206094Y46966066D01*
X23204076Y46964812D01*
X23095240Y46901975D01*
X23095239Y46901975D01*
X23092690Y46900503D01*
X23092688Y46900501D01*
X23092686Y46900500D01*
X22999500Y46807314D01*
X22999498Y46807311D01*
X22999497Y46807310D01*
X22999492Y46807304D01*
X22933611Y46693196D01*
X22933596Y46693159D01*
X22933494Y46692763D01*
X22899500Y46565892D01*
X12868353Y46565892D01*
X12851213Y46652060D01*
X12851212Y46652064D01*
X12745462Y47000676D01*
X12745460Y47000678D01*
X12745459Y47000685D01*
X12606038Y47337277D01*
X12606025Y47337304D01*
X12585496Y47375713D01*
X12564020Y47415892D01*
X29699500Y47415892D01*
X29699500Y47415890D01*
X29699500Y47284109D01*
X29733608Y47156811D01*
X29733611Y47156803D01*
X29799492Y47042694D01*
X29892691Y46949495D01*
X29949521Y46916684D01*
X29970555Y46893322D01*
X30074452Y46865482D01*
X30074453Y46865483D01*
X30134106Y46849500D01*
X30134108Y46849500D01*
X30134110Y46849500D01*
X30265890Y46849500D01*
X30265891Y46849500D01*
X30265892Y46849500D01*
X30308323Y46860869D01*
X30350755Y46872238D01*
X30350755Y46872237D01*
X30393186Y46883607D01*
X30393190Y46883609D01*
X30434669Y46907557D01*
X30434672Y46907559D01*
X30445959Y46914076D01*
X30445961Y46914076D01*
X30453210Y46918261D01*
X30507307Y46949494D01*
X30507311Y46949498D01*
X30507314Y46949500D01*
X30600500Y47042686D01*
X30600501Y47042688D01*
X30600503Y47042690D01*
X30600898Y47043238D01*
X30601975Y47045240D01*
X30666387Y47156803D01*
X30666390Y47156808D01*
X30668422Y47164389D01*
X30700500Y47284108D01*
X30700500Y47415892D01*
X30666392Y47543186D01*
X30601160Y47656170D01*
X30600503Y47657309D01*
X30599029Y47659863D01*
X30599028Y47659863D01*
X30599017Y47659883D01*
X30598284Y47661153D01*
X30591302Y47666511D01*
X30507314Y47750500D01*
X30393189Y47816390D01*
X30393188Y47816390D01*
X30393186Y47816392D01*
X30265892Y47850500D01*
X30265890Y47850500D01*
X30134110Y47850500D01*
X30134108Y47850500D01*
X30006814Y47816392D01*
X30006811Y47816390D01*
X30006809Y47816390D01*
X30006798Y47816383D01*
X30006094Y47816066D01*
X30004076Y47814812D01*
X29895240Y47751975D01*
X29895239Y47751975D01*
X29892690Y47750503D01*
X29892688Y47750501D01*
X29892686Y47750500D01*
X29799500Y47657314D01*
X29799498Y47657311D01*
X29799497Y47657310D01*
X29799492Y47657304D01*
X29733611Y47543196D01*
X29733596Y47543159D01*
X29733494Y47542763D01*
X29699500Y47415892D01*
X12564020Y47415892D01*
X12434295Y47658589D01*
X12231883Y47961518D01*
X12046553Y48187342D01*
X11363049Y47503838D01*
X11308535Y47476063D01*
X11248103Y47485634D01*
X11204838Y47528899D01*
X11201584Y47535959D01*
X11169553Y47613288D01*
X11169552Y47613291D01*
X11113291Y47669552D01*
X11039782Y47700000D01*
X11039779Y47700000D01*
X11035960Y47701582D01*
X10989433Y47741318D01*
X10975149Y47800813D01*
X10998563Y47857341D01*
X11003840Y47863051D01*
X11658346Y48517557D01*
X11681119Y48529160D01*
X11687343Y48546553D01*
X11461518Y48731883D01*
X11158589Y48934295D01*
X11158588Y48934295D01*
X11158586Y48934297D01*
X11007726Y49014932D01*
X10837304Y49106025D01*
X10837277Y49106038D01*
X10500685Y49245459D01*
X10500678Y49245460D01*
X10500676Y49245462D01*
X10152064Y49351212D01*
X10152061Y49351213D01*
X9878487Y49405629D01*
X9860262Y49415835D01*
X9794728Y49422289D01*
X9794727Y49422290D01*
X9794731Y49422290D01*
X9432170Y49458000D01*
X9432167Y49458000D01*
X9067833Y49458000D01*
X9067830Y49458000D01*
X8705270Y49422290D01*
X8347938Y49351213D01*
X8347936Y49351212D01*
X8347934Y49351212D01*
X7999322Y49245462D01*
X7999316Y49245459D01*
X7999314Y49245459D01*
X7662722Y49106038D01*
X7662695Y49106025D01*
X7662679Y49106016D01*
X7662678Y49106016D01*
X7341412Y48934297D01*
X7207261Y48844659D01*
X7038481Y48731883D01*
X6812656Y48546553D01*
X6812656Y48546552D01*
X7496157Y47863050D01*
X7523934Y47808534D01*
X7514363Y47748102D01*
X7471098Y47704837D01*
X7464038Y47701583D01*
X7386711Y47669553D01*
X7386709Y47669552D01*
X7330448Y47613291D01*
X7330447Y47613289D01*
X7330446Y47613288D01*
X7298415Y47535957D01*
X7258679Y47489431D01*
X7199184Y47475147D01*
X7142656Y47498562D01*
X7136967Y47503819D01*
X6453445Y48187342D01*
X6288471Y47986320D01*
X6268117Y47961519D01*
X6065701Y47658586D01*
X5893982Y47337320D01*
X5893977Y47337310D01*
X5893974Y47337304D01*
X5893961Y47337277D01*
X5836761Y47199183D01*
X5754536Y47000676D01*
X5648786Y46652064D01*
X5577708Y46294725D01*
X5542000Y45932176D01*
X5075500Y45932176D01*
X5075500Y46246364D01*
X5075529Y46248761D01*
X5075530Y46248805D01*
X5075589Y46251237D01*
X5075674Y46253561D01*
X5078617Y46313456D01*
X5092837Y46602922D01*
X5093195Y46607753D01*
X5093670Y46612571D01*
X5094264Y46617384D01*
X5099408Y46652061D01*
X5145040Y46959687D01*
X5145859Y46964405D01*
X5146814Y46969211D01*
X5147871Y46973914D01*
X5147878Y46973942D01*
X5231959Y47309609D01*
X5233238Y47314232D01*
X5234659Y47318918D01*
X5236174Y47323501D01*
X5352744Y47649294D01*
X5354491Y47653824D01*
X5355463Y47656170D01*
X5356361Y47658339D01*
X5358371Y47662841D01*
X5358362Y47662845D01*
X5358364Y47662849D01*
X5506264Y47975558D01*
X5508445Y47979892D01*
X5510745Y47984194D01*
X5513130Y47988402D01*
X5591626Y48119364D01*
X5691025Y48285203D01*
X5693611Y48289285D01*
X5695002Y48291368D01*
X5696318Y48293336D01*
X5699107Y48297296D01*
X5821635Y48462507D01*
X5821639Y48462512D01*
X5905252Y48575250D01*
X5908209Y48579039D01*
X5911312Y48582820D01*
X5914469Y48586479D01*
X5926272Y48599501D01*
X5926272Y48599500D01*
X6132150Y48826652D01*
X6146830Y48842849D01*
X6150179Y48846368D01*
X6153624Y48849813D01*
X6157143Y48853163D01*
X6163381Y48858817D01*
X6210120Y48901178D01*
X6413527Y49085535D01*
X6417195Y49088700D01*
X6417238Y49088735D01*
X6420939Y49091773D01*
X6424767Y49094761D01*
X6702702Y49300891D01*
X6706671Y49303686D01*
X6710713Y49306387D01*
X6714822Y49308989D01*
X7011588Y49486863D01*
X7015809Y49489255D01*
X7020100Y49491549D01*
X7024447Y49493737D01*
X7337236Y49641676D01*
X7341684Y49643647D01*
X7346168Y49645504D01*
X7350696Y49647251D01*
X7676479Y49763819D01*
X7681113Y49765349D01*
X7685768Y49766760D01*
X7690431Y49768050D01*
X8026056Y49852120D01*
X8030801Y49853185D01*
X8035593Y49854138D01*
X8040377Y49854968D01*
X8382596Y49905731D01*
X8387406Y49906325D01*
X8392263Y49906804D01*
X8397121Y49907163D01*
X8746385Y49924322D01*
X8748800Y49924410D01*
X8751228Y49924470D01*
X8753635Y49924500D01*
X36695500Y49924500D01*
X36753691Y49905593D01*
G37*
G04 #@! TD.AperFunction*
G04 #@! TA.AperFunction,Conductor*
G36*
X10664389Y28194817D02*
G01*
X10996156Y27863051D01*
X11023934Y27808534D01*
X11014363Y27748102D01*
X10971098Y27704837D01*
X10964038Y27701583D01*
X10903432Y27676479D01*
X10886709Y27669552D01*
X10830448Y27613291D01*
X10830447Y27613289D01*
X10830446Y27613288D01*
X10798415Y27535957D01*
X10758679Y27489431D01*
X10699184Y27475147D01*
X10642656Y27498562D01*
X10636963Y27503822D01*
X10305177Y27835609D01*
X10277402Y27890123D01*
X10286973Y27950555D01*
X10316989Y27985701D01*
X10321092Y27988682D01*
X10324903Y27991451D01*
X10508549Y28175097D01*
X10514293Y28183003D01*
X10563792Y28218967D01*
X10624978Y28218968D01*
X10664389Y28194817D01*
G37*
G04 #@! TD.AperFunction*
G04 #@! TA.AperFunction,Conductor*
G36*
X7950557Y28213025D02*
G01*
X7985703Y28183007D01*
X7991445Y28175103D01*
X8175103Y27991445D01*
X8183007Y27985703D01*
X8218970Y27936203D01*
X8218969Y27875017D01*
X8194819Y27835609D01*
X7863052Y27503841D01*
X7808535Y27476063D01*
X7748103Y27485634D01*
X7704838Y27528899D01*
X7701584Y27535959D01*
X7673374Y27604063D01*
X7669552Y27613291D01*
X7613291Y27669552D01*
X7562884Y27690431D01*
X7535959Y27701584D01*
X7489433Y27741320D01*
X7475149Y27800815D01*
X7498563Y27857343D01*
X7503841Y27863052D01*
X7835609Y28194819D01*
X7890125Y28222596D01*
X7950557Y28213025D01*
G37*
G04 #@! TD.AperFunction*
G04 #@! TA.AperFunction,Conductor*
G36*
X7857342Y31001433D02*
G01*
X7863051Y30996156D01*
X8194817Y30664389D01*
X8222594Y30609873D01*
X8213023Y30549441D01*
X8183003Y30514293D01*
X8175097Y30508549D01*
X7991451Y30324903D01*
X7991449Y30324900D01*
X7985701Y30316989D01*
X7936199Y30281027D01*
X7875014Y30281030D01*
X7835608Y30305177D01*
X7503836Y30636949D01*
X7476061Y30691464D01*
X7485632Y30751896D01*
X7528897Y30795161D01*
X7535957Y30798415D01*
X7613288Y30830446D01*
X7613289Y30830447D01*
X7613291Y30830448D01*
X7669552Y30886709D01*
X7669553Y30886711D01*
X7701583Y30964038D01*
X7741319Y31010564D01*
X7800814Y31024848D01*
X7857342Y31001433D01*
G37*
G04 #@! TD.AperFunction*
M02*
