G04 #@! TF.GenerationSoftware,KiCad,Pcbnew,10.0.3*
G04 #@! TF.CreationDate,2026-06-23T21:20:56+08:00*
G04 #@! TF.ProjectId,current-sense,63757272-656e-4742-9d73-656e73652e6b,rev?*
G04 #@! TF.SameCoordinates,Original*
G04 #@! TF.FileFunction,Soldermask,Bot*
G04 #@! TF.FilePolarity,Negative*
%FSLAX46Y46*%
G04 Gerber Fmt 4.6, Leading zero omitted, Abs format (unit mm)*
G04 Created by KiCad (PCBNEW 10.0.3) date 2026-06-23 21:20:56*
%MOMM*%
%LPD*%
G01*
G04 APERTURE LIST*
G04 APERTURE END LIST*
G36*
X91467714Y27467705D02*
G01*
X91603548Y27411441D01*
X91725795Y27329758D01*
X91829758Y27225795D01*
X91911441Y27103548D01*
X91967705Y26967714D01*
X91996389Y26823513D01*
X91996389Y26676487D01*
X91967705Y26532286D01*
X91911441Y26396452D01*
X91829758Y26274205D01*
X91725795Y26170242D01*
X91603548Y26088559D01*
X91467714Y26032295D01*
X91323513Y26003611D01*
X91176487Y26003611D01*
X91032286Y26032295D01*
X90896452Y26088559D01*
X90774205Y26170242D01*
X90670242Y26274205D01*
X90588559Y26396452D01*
X90532295Y26532286D01*
X90503611Y26676487D01*
X90503611Y26823513D01*
X90532295Y26967714D01*
X90588559Y27103548D01*
X90670242Y27225795D01*
X90774205Y27329758D01*
X90896452Y27411441D01*
X91032286Y27467705D01*
X91176487Y27496389D01*
X91323513Y27496389D01*
X91467714Y27467705D01*
G37*
G36*
X9420147Y32474919D02*
G01*
X9431108Y32474919D01*
X9507233Y32466341D01*
X9723924Y32444999D01*
X9759559Y32437910D01*
X9791045Y32434363D01*
X9883622Y32413232D01*
X10034819Y32383158D01*
X10093862Y32365247D01*
X10144179Y32353763D01*
X10225329Y32325367D01*
X10338138Y32291147D01*
X10419841Y32257304D01*
X10486067Y32234131D01*
X10549281Y32203688D01*
X10630992Y32169843D01*
X10734962Y32114269D01*
X10812412Y32076972D01*
X10856108Y32049515D01*
X10910524Y32020430D01*
X11038705Y31934782D01*
X11119108Y31884262D01*
X11143877Y31864508D01*
X11174082Y31844327D01*
X11342388Y31706201D01*
X11402299Y31658424D01*
X11410051Y31650671D01*
X11419108Y31643239D01*
X11643239Y31419108D01*
X11650671Y31410051D01*
X11658424Y31402299D01*
X11706201Y31342388D01*
X11844327Y31174082D01*
X11864508Y31143877D01*
X11884262Y31119108D01*
X11934782Y31038705D01*
X12020430Y30910524D01*
X12049515Y30856108D01*
X12076972Y30812412D01*
X12114269Y30734962D01*
X12169843Y30630992D01*
X12203688Y30549281D01*
X12234131Y30486067D01*
X12257304Y30419841D01*
X12291147Y30338138D01*
X12325367Y30225329D01*
X12353763Y30144179D01*
X12365247Y30093862D01*
X12383158Y30034819D01*
X12413232Y29883622D01*
X12434363Y29791045D01*
X12437910Y29759559D01*
X12444999Y29723924D01*
X12466340Y29507238D01*
X12474919Y29431108D01*
X12474919Y29420145D01*
X12476067Y29408490D01*
X12476067Y29091509D01*
X12474919Y29079853D01*
X12474919Y29068892D01*
X12466341Y28992768D01*
X12444999Y28776075D01*
X12437910Y28740438D01*
X12434363Y28708955D01*
X12413234Y28616384D01*
X12383158Y28465180D01*
X12365246Y28406133D01*
X12353763Y28355821D01*
X12325369Y28274676D01*
X12291147Y28161861D01*
X12257302Y28080152D01*
X12234131Y28013933D01*
X12203691Y27950724D01*
X12169843Y27869007D01*
X12114264Y27765027D01*
X12076972Y27687588D01*
X12049519Y27643897D01*
X12020430Y27589475D01*
X11934771Y27461278D01*
X11884262Y27380892D01*
X11864512Y27356127D01*
X11844327Y27325917D01*
X11706173Y27157576D01*
X11658424Y27097701D01*
X11650676Y27089953D01*
X11643239Y27080891D01*
X11419108Y26856760D01*
X11410045Y26849322D01*
X11402299Y26841576D01*
X11342431Y26793833D01*
X11174082Y26655672D01*
X11143869Y26635484D01*
X11119108Y26615738D01*
X11038730Y26565233D01*
X10910524Y26479569D01*
X10856097Y26450477D01*
X10812412Y26423028D01*
X10734981Y26385739D01*
X10630992Y26330156D01*
X10549266Y26296304D01*
X10486067Y26265869D01*
X10419856Y26242701D01*
X10338138Y26208852D01*
X10225308Y26174625D01*
X10144179Y26146237D01*
X10093875Y26134755D01*
X10034819Y26116841D01*
X9883588Y26086759D01*
X9791045Y26065637D01*
X9759571Y26062090D01*
X9723924Y26055000D01*
X9507211Y26033655D01*
X9431108Y26025081D01*
X9420147Y26025081D01*
X9408491Y26023933D01*
X9091509Y26023933D01*
X9079853Y26025081D01*
X9068892Y26025081D01*
X8992790Y26033655D01*
X8776075Y26055000D01*
X8740426Y26062090D01*
X8708955Y26065637D01*
X8616418Y26086757D01*
X8465180Y26116841D01*
X8406120Y26134756D01*
X8355821Y26146237D01*
X8274698Y26174623D01*
X8161861Y26208852D01*
X8080136Y26242703D01*
X8013933Y26265869D01*
X7950739Y26296301D01*
X7869007Y26330156D01*
X7765008Y26385744D01*
X7687588Y26423028D01*
X7643908Y26450473D01*
X7589475Y26479569D01*
X7461252Y26565243D01*
X7380892Y26615738D01*
X7356135Y26635480D01*
X7325917Y26655672D01*
X7157533Y26793861D01*
X7097701Y26841576D01*
X7089958Y26849318D01*
X7080891Y26856760D01*
X6856760Y27080891D01*
X6849318Y27089958D01*
X6841576Y27097701D01*
X6793861Y27157533D01*
X6655672Y27325917D01*
X6635480Y27356135D01*
X6615738Y27380892D01*
X6565243Y27461252D01*
X6479569Y27589475D01*
X6450473Y27643908D01*
X6423028Y27687588D01*
X6385744Y27765008D01*
X6330156Y27869007D01*
X6296301Y27950739D01*
X6265869Y28013933D01*
X6242703Y28080136D01*
X6208852Y28161861D01*
X6174623Y28274698D01*
X6146237Y28355821D01*
X6134756Y28406120D01*
X6116841Y28465180D01*
X6086757Y28616418D01*
X6065637Y28708955D01*
X6062090Y28740426D01*
X6055000Y28776075D01*
X6033655Y28992790D01*
X6025081Y29068892D01*
X6025081Y29079852D01*
X6023933Y29091509D01*
X6023933Y29408490D01*
X6025081Y29420146D01*
X6025081Y29431108D01*
X6033656Y29507216D01*
X6055000Y29723924D01*
X6062090Y29759571D01*
X6065637Y29791045D01*
X6086759Y29883588D01*
X6116841Y30034819D01*
X6134755Y30093875D01*
X6146237Y30144179D01*
X6174625Y30225308D01*
X6208852Y30338138D01*
X6242701Y30419856D01*
X6265869Y30486067D01*
X6296304Y30549266D01*
X6330156Y30630992D01*
X6385739Y30734981D01*
X6423028Y30812412D01*
X6450477Y30856097D01*
X6479569Y30910524D01*
X6565233Y31038730D01*
X6615738Y31119108D01*
X6635484Y31143869D01*
X6655672Y31174082D01*
X6793833Y31342431D01*
X6841576Y31402299D01*
X6849322Y31410045D01*
X6856760Y31419108D01*
X7080891Y31643239D01*
X7089953Y31650676D01*
X7097701Y31658424D01*
X7157576Y31706173D01*
X7325917Y31844327D01*
X7356127Y31864512D01*
X7380892Y31884262D01*
X7461278Y31934771D01*
X7589475Y32020430D01*
X7643897Y32049519D01*
X7687588Y32076972D01*
X7765027Y32114264D01*
X7869007Y32169843D01*
X7950724Y32203691D01*
X8013933Y32234131D01*
X8080152Y32257302D01*
X8161861Y32291147D01*
X8274676Y32325369D01*
X8355821Y32353763D01*
X8406133Y32365246D01*
X8465180Y32383158D01*
X8616384Y32413234D01*
X8708955Y32434363D01*
X8740438Y32437910D01*
X8776075Y32444999D01*
X8992768Y32466341D01*
X9068892Y32474919D01*
X9079853Y32474919D01*
X9091509Y32476067D01*
X9408491Y32476067D01*
X9420147Y32474919D01*
G37*
G36*
X95920147Y32474919D02*
G01*
X95931108Y32474919D01*
X96007233Y32466341D01*
X96223924Y32444999D01*
X96259559Y32437910D01*
X96291045Y32434363D01*
X96383622Y32413232D01*
X96534819Y32383158D01*
X96593862Y32365247D01*
X96644179Y32353763D01*
X96725329Y32325367D01*
X96838138Y32291147D01*
X96919841Y32257304D01*
X96986067Y32234131D01*
X97049281Y32203688D01*
X97130992Y32169843D01*
X97234962Y32114269D01*
X97312412Y32076972D01*
X97356108Y32049515D01*
X97410524Y32020430D01*
X97538705Y31934782D01*
X97619108Y31884262D01*
X97643877Y31864508D01*
X97674082Y31844327D01*
X97842388Y31706201D01*
X97902299Y31658424D01*
X97910051Y31650671D01*
X97919108Y31643239D01*
X98143239Y31419108D01*
X98150671Y31410051D01*
X98158424Y31402299D01*
X98206201Y31342388D01*
X98344327Y31174082D01*
X98364508Y31143877D01*
X98384262Y31119108D01*
X98434782Y31038705D01*
X98520430Y30910524D01*
X98549515Y30856108D01*
X98576972Y30812412D01*
X98614269Y30734962D01*
X98669843Y30630992D01*
X98703688Y30549281D01*
X98734131Y30486067D01*
X98757304Y30419841D01*
X98791147Y30338138D01*
X98825367Y30225329D01*
X98853763Y30144179D01*
X98865247Y30093862D01*
X98883158Y30034819D01*
X98913232Y29883622D01*
X98934363Y29791045D01*
X98937910Y29759559D01*
X98944999Y29723924D01*
X98966340Y29507238D01*
X98974919Y29431108D01*
X98974919Y29420145D01*
X98976067Y29408490D01*
X98976067Y29091509D01*
X98974919Y29079853D01*
X98974919Y29068892D01*
X98966341Y28992768D01*
X98944999Y28776075D01*
X98937910Y28740438D01*
X98934363Y28708955D01*
X98913234Y28616384D01*
X98883158Y28465180D01*
X98865246Y28406133D01*
X98853763Y28355821D01*
X98825369Y28274676D01*
X98791147Y28161861D01*
X98757302Y28080152D01*
X98734131Y28013933D01*
X98703691Y27950724D01*
X98669843Y27869007D01*
X98614264Y27765027D01*
X98576972Y27687588D01*
X98549519Y27643897D01*
X98520430Y27589475D01*
X98434771Y27461278D01*
X98384262Y27380892D01*
X98364512Y27356127D01*
X98344327Y27325917D01*
X98206173Y27157576D01*
X98158424Y27097701D01*
X98150676Y27089953D01*
X98143239Y27080891D01*
X97919108Y26856760D01*
X97910045Y26849322D01*
X97902299Y26841576D01*
X97842431Y26793833D01*
X97674082Y26655672D01*
X97643869Y26635484D01*
X97619108Y26615738D01*
X97538730Y26565233D01*
X97410524Y26479569D01*
X97356097Y26450477D01*
X97312412Y26423028D01*
X97234981Y26385739D01*
X97130992Y26330156D01*
X97049266Y26296304D01*
X96986067Y26265869D01*
X96919856Y26242701D01*
X96838138Y26208852D01*
X96725308Y26174625D01*
X96644179Y26146237D01*
X96593875Y26134755D01*
X96534819Y26116841D01*
X96383588Y26086759D01*
X96291045Y26065637D01*
X96259571Y26062090D01*
X96223924Y26055000D01*
X96007211Y26033655D01*
X95931108Y26025081D01*
X95920147Y26025081D01*
X95908491Y26023933D01*
X95591509Y26023933D01*
X95579853Y26025081D01*
X95568892Y26025081D01*
X95492790Y26033655D01*
X95276075Y26055000D01*
X95240426Y26062090D01*
X95208955Y26065637D01*
X95116418Y26086757D01*
X94965180Y26116841D01*
X94906120Y26134756D01*
X94855821Y26146237D01*
X94774698Y26174623D01*
X94661861Y26208852D01*
X94580136Y26242703D01*
X94513933Y26265869D01*
X94450739Y26296301D01*
X94369007Y26330156D01*
X94265008Y26385744D01*
X94187588Y26423028D01*
X94143908Y26450473D01*
X94089475Y26479569D01*
X93961252Y26565243D01*
X93880892Y26615738D01*
X93856135Y26635480D01*
X93825917Y26655672D01*
X93657533Y26793861D01*
X93597701Y26841576D01*
X93589958Y26849318D01*
X93580891Y26856760D01*
X93356760Y27080891D01*
X93349318Y27089958D01*
X93341576Y27097701D01*
X93293861Y27157533D01*
X93155672Y27325917D01*
X93135480Y27356135D01*
X93115738Y27380892D01*
X93065243Y27461252D01*
X92979569Y27589475D01*
X92950473Y27643908D01*
X92923028Y27687588D01*
X92885744Y27765008D01*
X92830156Y27869007D01*
X92796301Y27950739D01*
X92765869Y28013933D01*
X92742703Y28080136D01*
X92708852Y28161861D01*
X92674623Y28274698D01*
X92646237Y28355821D01*
X92634756Y28406120D01*
X92616841Y28465180D01*
X92586757Y28616418D01*
X92565637Y28708955D01*
X92562090Y28740426D01*
X92555000Y28776075D01*
X92533655Y28992790D01*
X92525081Y29068892D01*
X92525081Y29079852D01*
X92523933Y29091509D01*
X92523933Y29408490D01*
X92525081Y29420146D01*
X92525081Y29431108D01*
X92533656Y29507216D01*
X92555000Y29723924D01*
X92562090Y29759571D01*
X92565637Y29791045D01*
X92586759Y29883588D01*
X92616841Y30034819D01*
X92634755Y30093875D01*
X92646237Y30144179D01*
X92674625Y30225308D01*
X92708852Y30338138D01*
X92742701Y30419856D01*
X92765869Y30486067D01*
X92796304Y30549266D01*
X92830156Y30630992D01*
X92885739Y30734981D01*
X92923028Y30812412D01*
X92950477Y30856097D01*
X92979569Y30910524D01*
X93065233Y31038730D01*
X93115738Y31119108D01*
X93135484Y31143869D01*
X93155672Y31174082D01*
X93293833Y31342431D01*
X93341576Y31402299D01*
X93349322Y31410045D01*
X93356760Y31419108D01*
X93580891Y31643239D01*
X93589953Y31650676D01*
X93597701Y31658424D01*
X93657576Y31706173D01*
X93825917Y31844327D01*
X93856127Y31864512D01*
X93880892Y31884262D01*
X93961278Y31934771D01*
X94089475Y32020430D01*
X94143897Y32049519D01*
X94187588Y32076972D01*
X94265027Y32114264D01*
X94369007Y32169843D01*
X94450724Y32203691D01*
X94513933Y32234131D01*
X94580152Y32257302D01*
X94661861Y32291147D01*
X94774676Y32325369D01*
X94855821Y32353763D01*
X94906133Y32365246D01*
X94965180Y32383158D01*
X95116384Y32413234D01*
X95208955Y32434363D01*
X95240438Y32437910D01*
X95276075Y32444999D01*
X95492768Y32466341D01*
X95568892Y32474919D01*
X95579853Y32474919D01*
X95591509Y32476067D01*
X95908491Y32476067D01*
X95920147Y32474919D01*
G37*
G36*
X35269965Y34839955D02*
G01*
X35438399Y34770187D01*
X35589986Y34668900D01*
X35718900Y34539986D01*
X35820187Y34388399D01*
X35889955Y34219965D01*
X35925522Y34041156D01*
X35925522Y33858844D01*
X35889955Y33680035D01*
X35820187Y33511601D01*
X35718900Y33360014D01*
X35589986Y33231100D01*
X35438399Y33129813D01*
X35269965Y33060045D01*
X35091156Y33024478D01*
X34908844Y33024478D01*
X34730035Y33060045D01*
X34561601Y33129813D01*
X34410014Y33231100D01*
X34281100Y33360014D01*
X34179813Y33511601D01*
X34110045Y33680035D01*
X34074478Y33858844D01*
X34074478Y34041156D01*
X34110045Y34219965D01*
X34179813Y34388399D01*
X34281100Y34539986D01*
X34410014Y34668900D01*
X34561601Y34770187D01*
X34730035Y34839955D01*
X34908844Y34875522D01*
X35091156Y34875522D01*
X35269965Y34839955D01*
G37*
G36*
X87269965Y34839955D02*
G01*
X87438399Y34770187D01*
X87589986Y34668900D01*
X87718900Y34539986D01*
X87820187Y34388399D01*
X87889955Y34219965D01*
X87925522Y34041156D01*
X87925522Y33858844D01*
X87889955Y33680035D01*
X87820187Y33511601D01*
X87718900Y33360014D01*
X87589986Y33231100D01*
X87438399Y33129813D01*
X87269965Y33060045D01*
X87091156Y33024478D01*
X86908844Y33024478D01*
X86730035Y33060045D01*
X86561601Y33129813D01*
X86410014Y33231100D01*
X86281100Y33360014D01*
X86179813Y33511601D01*
X86110045Y33680035D01*
X86074478Y33858844D01*
X86074478Y34041156D01*
X86110045Y34219965D01*
X86179813Y34388399D01*
X86281100Y34539986D01*
X86410014Y34668900D01*
X86561601Y34770187D01*
X86730035Y34839955D01*
X86908844Y34875522D01*
X87091156Y34875522D01*
X87269965Y34839955D01*
G37*
G36*
X93479629Y36083087D02*
G01*
X93651999Y36027081D01*
X93813486Y35944799D01*
X93960112Y35838269D01*
X94088269Y35710112D01*
X94194799Y35563486D01*
X94277081Y35401999D01*
X94333087Y35229629D01*
X94361440Y35050620D01*
X94361440Y34869380D01*
X94333087Y34690371D01*
X94277081Y34518001D01*
X94194799Y34356514D01*
X94088269Y34209888D01*
X93960112Y34081731D01*
X93813486Y33975201D01*
X93651999Y33892919D01*
X93479629Y33836913D01*
X93300620Y33808560D01*
X93119380Y33808560D01*
X92940371Y33836913D01*
X92768001Y33892919D01*
X92606514Y33975201D01*
X92459888Y34081731D01*
X92331731Y34209888D01*
X92225201Y34356514D01*
X92142919Y34518001D01*
X92086913Y34690371D01*
X92058560Y34869380D01*
X92058560Y35050620D01*
X92086913Y35229629D01*
X92142919Y35401999D01*
X92225201Y35563486D01*
X92331731Y35710112D01*
X92459888Y35838269D01*
X92606514Y35944799D01*
X92768001Y36027081D01*
X92940371Y36083087D01*
X93119380Y36111440D01*
X93300620Y36111440D01*
X93479629Y36083087D01*
G37*
G36*
X98559629Y36083087D02*
G01*
X98731999Y36027081D01*
X98893486Y35944799D01*
X99040112Y35838269D01*
X99168269Y35710112D01*
X99274799Y35563486D01*
X99357081Y35401999D01*
X99413087Y35229629D01*
X99441440Y35050620D01*
X99441440Y34869380D01*
X99413087Y34690371D01*
X99357081Y34518001D01*
X99274799Y34356514D01*
X99168269Y34209888D01*
X99040112Y34081731D01*
X98893486Y33975201D01*
X98731999Y33892919D01*
X98559629Y33836913D01*
X98380620Y33808560D01*
X98199380Y33808560D01*
X98020371Y33836913D01*
X97848001Y33892919D01*
X97686514Y33975201D01*
X97539888Y34081731D01*
X97411731Y34209888D01*
X97305201Y34356514D01*
X97222919Y34518001D01*
X97166913Y34690371D01*
X97138560Y34869380D01*
X97138560Y35050620D01*
X97166913Y35229629D01*
X97222919Y35401999D01*
X97305201Y35563486D01*
X97411731Y35710112D01*
X97539888Y35838269D01*
X97686514Y35944799D01*
X97848001Y36027081D01*
X98020371Y36083087D01*
X98199380Y36111440D01*
X98380620Y36111440D01*
X98559629Y36083087D01*
G37*
G36*
X96019629Y38623087D02*
G01*
X96191999Y38567081D01*
X96353486Y38484799D01*
X96500112Y38378269D01*
X96628269Y38250112D01*
X96734799Y38103486D01*
X96817081Y37941999D01*
X96873087Y37769629D01*
X96901440Y37590620D01*
X96901440Y37409380D01*
X96873087Y37230371D01*
X96817081Y37058001D01*
X96734799Y36896514D01*
X96628269Y36749888D01*
X96500112Y36621731D01*
X96353486Y36515201D01*
X96191999Y36432919D01*
X96019629Y36376913D01*
X95840620Y36348560D01*
X95659380Y36348560D01*
X95480371Y36376913D01*
X95308001Y36432919D01*
X95146514Y36515201D01*
X94999888Y36621731D01*
X94871731Y36749888D01*
X94765201Y36896514D01*
X94682919Y37058001D01*
X94626913Y37230371D01*
X94598560Y37409380D01*
X94598560Y37590620D01*
X94626913Y37769629D01*
X94682919Y37941999D01*
X94765201Y38103486D01*
X94871731Y38250112D01*
X94999888Y38378269D01*
X95146514Y38484799D01*
X95308001Y38567081D01*
X95480371Y38623087D01*
X95659380Y38651440D01*
X95840620Y38651440D01*
X96019629Y38623087D01*
G37*
G36*
X93479629Y41163087D02*
G01*
X93651999Y41107081D01*
X93813486Y41024799D01*
X93960112Y40918269D01*
X94088269Y40790112D01*
X94194799Y40643486D01*
X94277081Y40481999D01*
X94333087Y40309629D01*
X94361440Y40130620D01*
X94361440Y39949380D01*
X94333087Y39770371D01*
X94277081Y39598001D01*
X94194799Y39436514D01*
X94088269Y39289888D01*
X93960112Y39161731D01*
X93813486Y39055201D01*
X93651999Y38972919D01*
X93479629Y38916913D01*
X93300620Y38888560D01*
X93119380Y38888560D01*
X92940371Y38916913D01*
X92768001Y38972919D01*
X92606514Y39055201D01*
X92459888Y39161731D01*
X92331731Y39289888D01*
X92225201Y39436514D01*
X92142919Y39598001D01*
X92086913Y39770371D01*
X92058560Y39949380D01*
X92058560Y40130620D01*
X92086913Y40309629D01*
X92142919Y40481999D01*
X92225201Y40643486D01*
X92331731Y40790112D01*
X92459888Y40918269D01*
X92606514Y41024799D01*
X92768001Y41107081D01*
X92940371Y41163087D01*
X93119380Y41191440D01*
X93300620Y41191440D01*
X93479629Y41163087D01*
G37*
G36*
X98559629Y41163087D02*
G01*
X98731999Y41107081D01*
X98893486Y41024799D01*
X99040112Y40918269D01*
X99168269Y40790112D01*
X99274799Y40643486D01*
X99357081Y40481999D01*
X99413087Y40309629D01*
X99441440Y40130620D01*
X99441440Y39949380D01*
X99413087Y39770371D01*
X99357081Y39598001D01*
X99274799Y39436514D01*
X99168269Y39289888D01*
X99040112Y39161731D01*
X98893486Y39055201D01*
X98731999Y38972919D01*
X98559629Y38916913D01*
X98380620Y38888560D01*
X98199380Y38888560D01*
X98020371Y38916913D01*
X97848001Y38972919D01*
X97686514Y39055201D01*
X97539888Y39161731D01*
X97411731Y39289888D01*
X97305201Y39436514D01*
X97222919Y39598001D01*
X97166913Y39770371D01*
X97138560Y39949380D01*
X97138560Y40130620D01*
X97166913Y40309629D01*
X97222919Y40481999D01*
X97305201Y40643486D01*
X97411731Y40790112D01*
X97539888Y40918269D01*
X97686514Y41024799D01*
X97848001Y41107081D01*
X98020371Y41163087D01*
X98199380Y41191440D01*
X98380620Y41191440D01*
X98559629Y41163087D01*
G37*
G36*
X-8532286Y41467705D02*
G01*
X-8396452Y41411441D01*
X-8274205Y41329758D01*
X-8170242Y41225795D01*
X-8088559Y41103548D01*
X-8032295Y40967714D01*
X-8003611Y40823513D01*
X-8003611Y40676487D01*
X-8032295Y40532286D01*
X-8088559Y40396452D01*
X-8170242Y40274205D01*
X-8274205Y40170242D01*
X-8396452Y40088559D01*
X-8532286Y40032295D01*
X-8676487Y40003611D01*
X-8823513Y40003611D01*
X-8967714Y40032295D01*
X-9103548Y40088559D01*
X-9225795Y40170242D01*
X-9329758Y40274205D01*
X-9411441Y40396452D01*
X-9467705Y40532286D01*
X-9496389Y40676487D01*
X-9496389Y40823513D01*
X-9467705Y40967714D01*
X-9411441Y41103548D01*
X-9329758Y41225795D01*
X-9225795Y41329758D01*
X-9103548Y41411441D01*
X-8967714Y41467705D01*
X-8823513Y41496389D01*
X-8676487Y41496389D01*
X-8532286Y41467705D01*
G37*
G36*
X9420147Y48974919D02*
G01*
X9431108Y48974919D01*
X9507233Y48966341D01*
X9723924Y48944999D01*
X9759559Y48937910D01*
X9791045Y48934363D01*
X9883622Y48913232D01*
X10034819Y48883158D01*
X10093862Y48865247D01*
X10144179Y48853763D01*
X10225329Y48825367D01*
X10338138Y48791147D01*
X10419841Y48757304D01*
X10486067Y48734131D01*
X10549281Y48703688D01*
X10630992Y48669843D01*
X10734962Y48614269D01*
X10812412Y48576972D01*
X10856108Y48549515D01*
X10910524Y48520430D01*
X11038705Y48434782D01*
X11119108Y48384262D01*
X11143877Y48364508D01*
X11174082Y48344327D01*
X11342388Y48206201D01*
X11402299Y48158424D01*
X11410051Y48150671D01*
X11419108Y48143239D01*
X11643239Y47919108D01*
X11650671Y47910051D01*
X11658424Y47902299D01*
X11706201Y47842388D01*
X11844327Y47674082D01*
X11864508Y47643877D01*
X11884262Y47619108D01*
X11934782Y47538705D01*
X12020430Y47410524D01*
X12049515Y47356108D01*
X12076972Y47312412D01*
X12114269Y47234962D01*
X12169843Y47130992D01*
X12203688Y47049281D01*
X12234131Y46986067D01*
X12257304Y46919841D01*
X12291147Y46838138D01*
X12325367Y46725329D01*
X12353763Y46644179D01*
X12365247Y46593862D01*
X12383158Y46534819D01*
X12413232Y46383622D01*
X12434363Y46291045D01*
X12437910Y46259559D01*
X12444999Y46223924D01*
X12466340Y46007238D01*
X12474919Y45931108D01*
X12474919Y45920145D01*
X12476067Y45908490D01*
X12476067Y45591509D01*
X12474919Y45579853D01*
X12474919Y45568892D01*
X12466341Y45492768D01*
X12444999Y45276075D01*
X12437910Y45240438D01*
X12434363Y45208955D01*
X12413234Y45116384D01*
X12383158Y44965180D01*
X12365246Y44906133D01*
X12353763Y44855821D01*
X12325369Y44774676D01*
X12291147Y44661861D01*
X12257302Y44580152D01*
X12234131Y44513933D01*
X12203691Y44450724D01*
X12169843Y44369007D01*
X12114264Y44265027D01*
X12076972Y44187588D01*
X12049519Y44143897D01*
X12020430Y44089475D01*
X11934771Y43961278D01*
X11884262Y43880892D01*
X11864512Y43856127D01*
X11844327Y43825917D01*
X11706173Y43657576D01*
X11658424Y43597701D01*
X11650676Y43589953D01*
X11643239Y43580891D01*
X11419108Y43356760D01*
X11410045Y43349322D01*
X11402299Y43341576D01*
X11342431Y43293833D01*
X11174082Y43155672D01*
X11143869Y43135484D01*
X11119108Y43115738D01*
X11038730Y43065233D01*
X10910524Y42979569D01*
X10856097Y42950477D01*
X10812412Y42923028D01*
X10734981Y42885739D01*
X10630992Y42830156D01*
X10549266Y42796304D01*
X10486067Y42765869D01*
X10419856Y42742701D01*
X10338138Y42708852D01*
X10225308Y42674625D01*
X10144179Y42646237D01*
X10093875Y42634755D01*
X10034819Y42616841D01*
X9883588Y42586759D01*
X9791045Y42565637D01*
X9759571Y42562090D01*
X9723924Y42555000D01*
X9507211Y42533655D01*
X9431108Y42525081D01*
X9420147Y42525081D01*
X9408491Y42523933D01*
X9091509Y42523933D01*
X9079853Y42525081D01*
X9068892Y42525081D01*
X8992790Y42533655D01*
X8776075Y42555000D01*
X8740426Y42562090D01*
X8708955Y42565637D01*
X8616418Y42586757D01*
X8465180Y42616841D01*
X8406120Y42634756D01*
X8355821Y42646237D01*
X8274698Y42674623D01*
X8161861Y42708852D01*
X8080136Y42742703D01*
X8013933Y42765869D01*
X7950739Y42796301D01*
X7869007Y42830156D01*
X7765008Y42885744D01*
X7687588Y42923028D01*
X7643908Y42950473D01*
X7589475Y42979569D01*
X7461252Y43065243D01*
X7380892Y43115738D01*
X7356135Y43135480D01*
X7325917Y43155672D01*
X7157533Y43293861D01*
X7097701Y43341576D01*
X7089958Y43349318D01*
X7080891Y43356760D01*
X6856760Y43580891D01*
X6849318Y43589958D01*
X6841576Y43597701D01*
X6793861Y43657533D01*
X6655672Y43825917D01*
X6635480Y43856135D01*
X6615738Y43880892D01*
X6565243Y43961252D01*
X6479569Y44089475D01*
X6450473Y44143908D01*
X6423028Y44187588D01*
X6385744Y44265008D01*
X6330156Y44369007D01*
X6296301Y44450739D01*
X6265869Y44513933D01*
X6242703Y44580136D01*
X6208852Y44661861D01*
X6174623Y44774698D01*
X6146237Y44855821D01*
X6134756Y44906120D01*
X6116841Y44965180D01*
X6086757Y45116418D01*
X6065637Y45208955D01*
X6062090Y45240426D01*
X6055000Y45276075D01*
X6033655Y45492790D01*
X6025081Y45568892D01*
X6025081Y45579852D01*
X6023933Y45591509D01*
X6023933Y45908490D01*
X6025081Y45920146D01*
X6025081Y45931108D01*
X6033656Y46007216D01*
X6055000Y46223924D01*
X6062090Y46259571D01*
X6065637Y46291045D01*
X6086759Y46383588D01*
X6116841Y46534819D01*
X6134755Y46593875D01*
X6146237Y46644179D01*
X6174625Y46725308D01*
X6208852Y46838138D01*
X6242701Y46919856D01*
X6265869Y46986067D01*
X6296304Y47049266D01*
X6330156Y47130992D01*
X6385739Y47234981D01*
X6423028Y47312412D01*
X6450477Y47356097D01*
X6479569Y47410524D01*
X6565233Y47538730D01*
X6615738Y47619108D01*
X6635484Y47643869D01*
X6655672Y47674082D01*
X6793833Y47842431D01*
X6841576Y47902299D01*
X6849322Y47910045D01*
X6856760Y47919108D01*
X7080891Y48143239D01*
X7089953Y48150676D01*
X7097701Y48158424D01*
X7157576Y48206173D01*
X7325917Y48344327D01*
X7356127Y48364512D01*
X7380892Y48384262D01*
X7461278Y48434771D01*
X7589475Y48520430D01*
X7643897Y48549519D01*
X7687588Y48576972D01*
X7765027Y48614264D01*
X7869007Y48669843D01*
X7950724Y48703691D01*
X8013933Y48734131D01*
X8080152Y48757302D01*
X8161861Y48791147D01*
X8274676Y48825369D01*
X8355821Y48853763D01*
X8406133Y48865246D01*
X8465180Y48883158D01*
X8616384Y48913234D01*
X8708955Y48934363D01*
X8740438Y48937910D01*
X8776075Y48944999D01*
X8992768Y48966341D01*
X9068892Y48974919D01*
X9079853Y48974919D01*
X9091509Y48976067D01*
X9408491Y48976067D01*
X9420147Y48974919D01*
G37*
G36*
X95920147Y48974919D02*
G01*
X95931108Y48974919D01*
X96007233Y48966341D01*
X96223924Y48944999D01*
X96259559Y48937910D01*
X96291045Y48934363D01*
X96383622Y48913232D01*
X96534819Y48883158D01*
X96593862Y48865247D01*
X96644179Y48853763D01*
X96725329Y48825367D01*
X96838138Y48791147D01*
X96919841Y48757304D01*
X96986067Y48734131D01*
X97049281Y48703688D01*
X97130992Y48669843D01*
X97234962Y48614269D01*
X97312412Y48576972D01*
X97356108Y48549515D01*
X97410524Y48520430D01*
X97538705Y48434782D01*
X97619108Y48384262D01*
X97643877Y48364508D01*
X97674082Y48344327D01*
X97842388Y48206201D01*
X97902299Y48158424D01*
X97910051Y48150671D01*
X97919108Y48143239D01*
X98143239Y47919108D01*
X98150671Y47910051D01*
X98158424Y47902299D01*
X98206201Y47842388D01*
X98344327Y47674082D01*
X98364508Y47643877D01*
X98384262Y47619108D01*
X98434782Y47538705D01*
X98520430Y47410524D01*
X98549515Y47356108D01*
X98576972Y47312412D01*
X98614269Y47234962D01*
X98669843Y47130992D01*
X98703688Y47049281D01*
X98734131Y46986067D01*
X98757304Y46919841D01*
X98791147Y46838138D01*
X98825367Y46725329D01*
X98853763Y46644179D01*
X98865247Y46593862D01*
X98883158Y46534819D01*
X98913232Y46383622D01*
X98934363Y46291045D01*
X98937910Y46259559D01*
X98944999Y46223924D01*
X98966340Y46007238D01*
X98974919Y45931108D01*
X98974919Y45920145D01*
X98976067Y45908490D01*
X98976067Y45591509D01*
X98974919Y45579853D01*
X98974919Y45568892D01*
X98966341Y45492768D01*
X98944999Y45276075D01*
X98937910Y45240438D01*
X98934363Y45208955D01*
X98913234Y45116384D01*
X98883158Y44965180D01*
X98865246Y44906133D01*
X98853763Y44855821D01*
X98825369Y44774676D01*
X98791147Y44661861D01*
X98757302Y44580152D01*
X98734131Y44513933D01*
X98703691Y44450724D01*
X98669843Y44369007D01*
X98614264Y44265027D01*
X98576972Y44187588D01*
X98549519Y44143897D01*
X98520430Y44089475D01*
X98434771Y43961278D01*
X98384262Y43880892D01*
X98364512Y43856127D01*
X98344327Y43825917D01*
X98206173Y43657576D01*
X98158424Y43597701D01*
X98150676Y43589953D01*
X98143239Y43580891D01*
X97919108Y43356760D01*
X97910045Y43349322D01*
X97902299Y43341576D01*
X97842431Y43293833D01*
X97674082Y43155672D01*
X97643869Y43135484D01*
X97619108Y43115738D01*
X97538730Y43065233D01*
X97410524Y42979569D01*
X97356097Y42950477D01*
X97312412Y42923028D01*
X97234981Y42885739D01*
X97130992Y42830156D01*
X97049266Y42796304D01*
X96986067Y42765869D01*
X96919856Y42742701D01*
X96838138Y42708852D01*
X96725308Y42674625D01*
X96644179Y42646237D01*
X96593875Y42634755D01*
X96534819Y42616841D01*
X96383588Y42586759D01*
X96291045Y42565637D01*
X96259571Y42562090D01*
X96223924Y42555000D01*
X96007211Y42533655D01*
X95931108Y42525081D01*
X95920147Y42525081D01*
X95908491Y42523933D01*
X95591509Y42523933D01*
X95579853Y42525081D01*
X95568892Y42525081D01*
X95492790Y42533655D01*
X95276075Y42555000D01*
X95240426Y42562090D01*
X95208955Y42565637D01*
X95116418Y42586757D01*
X94965180Y42616841D01*
X94906120Y42634756D01*
X94855821Y42646237D01*
X94774698Y42674623D01*
X94661861Y42708852D01*
X94580136Y42742703D01*
X94513933Y42765869D01*
X94450739Y42796301D01*
X94369007Y42830156D01*
X94265008Y42885744D01*
X94187588Y42923028D01*
X94143908Y42950473D01*
X94089475Y42979569D01*
X93961252Y43065243D01*
X93880892Y43115738D01*
X93856135Y43135480D01*
X93825917Y43155672D01*
X93657533Y43293861D01*
X93597701Y43341576D01*
X93589958Y43349318D01*
X93580891Y43356760D01*
X93356760Y43580891D01*
X93349318Y43589958D01*
X93341576Y43597701D01*
X93293861Y43657533D01*
X93155672Y43825917D01*
X93135480Y43856135D01*
X93115738Y43880892D01*
X93065243Y43961252D01*
X92979569Y44089475D01*
X92950473Y44143908D01*
X92923028Y44187588D01*
X92885744Y44265008D01*
X92830156Y44369007D01*
X92796301Y44450739D01*
X92765869Y44513933D01*
X92742703Y44580136D01*
X92708852Y44661861D01*
X92674623Y44774698D01*
X92646237Y44855821D01*
X92634756Y44906120D01*
X92616841Y44965180D01*
X92586757Y45116418D01*
X92565637Y45208955D01*
X92562090Y45240426D01*
X92555000Y45276075D01*
X92533655Y45492790D01*
X92525081Y45568892D01*
X92525081Y45579852D01*
X92523933Y45591509D01*
X92523933Y45908490D01*
X92525081Y45920146D01*
X92525081Y45931108D01*
X92533656Y46007216D01*
X92555000Y46223924D01*
X92562090Y46259571D01*
X92565637Y46291045D01*
X92586759Y46383588D01*
X92616841Y46534819D01*
X92634755Y46593875D01*
X92646237Y46644179D01*
X92674625Y46725308D01*
X92708852Y46838138D01*
X92742701Y46919856D01*
X92765869Y46986067D01*
X92796304Y47049266D01*
X92830156Y47130992D01*
X92885739Y47234981D01*
X92923028Y47312412D01*
X92950477Y47356097D01*
X92979569Y47410524D01*
X93065233Y47538730D01*
X93115738Y47619108D01*
X93135484Y47643869D01*
X93155672Y47674082D01*
X93293833Y47842431D01*
X93341576Y47902299D01*
X93349322Y47910045D01*
X93356760Y47919108D01*
X93580891Y48143239D01*
X93589953Y48150676D01*
X93597701Y48158424D01*
X93657576Y48206173D01*
X93825917Y48344327D01*
X93856127Y48364512D01*
X93880892Y48384262D01*
X93961278Y48434771D01*
X94089475Y48520430D01*
X94143897Y48549519D01*
X94187588Y48576972D01*
X94265027Y48614264D01*
X94369007Y48669843D01*
X94450724Y48703691D01*
X94513933Y48734131D01*
X94580152Y48757302D01*
X94661861Y48791147D01*
X94774676Y48825369D01*
X94855821Y48853763D01*
X94906133Y48865246D01*
X94965180Y48883158D01*
X95116384Y48913234D01*
X95208955Y48934363D01*
X95240438Y48937910D01*
X95276075Y48944999D01*
X95492768Y48966341D01*
X95568892Y48974919D01*
X95579853Y48974919D01*
X95591509Y48976067D01*
X95908491Y48976067D01*
X95920147Y48974919D01*
G37*
G36*
X45242121Y45810160D02*
G01*
X45403298Y45757790D01*
X45554298Y45680851D01*
X45691404Y45581238D01*
X45811238Y45461404D01*
X45910851Y45324298D01*
X45987790Y45173298D01*
X46040160Y45012121D01*
X46066671Y44844736D01*
X46066671Y44675264D01*
X46040160Y44507879D01*
X45987790Y44346702D01*
X45910851Y44195702D01*
X45811238Y44058596D01*
X45691404Y43938762D01*
X45554298Y43839149D01*
X45403298Y43762210D01*
X45242121Y43709840D01*
X45074736Y43683329D01*
X44905264Y43683329D01*
X44737879Y43709840D01*
X44576702Y43762210D01*
X44425702Y43839149D01*
X44288596Y43938762D01*
X44168762Y44058596D01*
X44069149Y44195702D01*
X43992210Y44346702D01*
X43939840Y44507879D01*
X43913329Y44675264D01*
X43913329Y44844736D01*
X43939840Y45012121D01*
X43992210Y45173298D01*
X44069149Y45324298D01*
X44168762Y45461404D01*
X44288596Y45581238D01*
X44425702Y45680851D01*
X44576702Y45757790D01*
X44737879Y45810160D01*
X44905264Y45836671D01*
X45074736Y45836671D01*
X45242121Y45810160D01*
G37*
G36*
X52252121Y45810160D02*
G01*
X52413298Y45757790D01*
X52564298Y45680851D01*
X52701404Y45581238D01*
X52821238Y45461404D01*
X52920851Y45324298D01*
X52997790Y45173298D01*
X53050160Y45012121D01*
X53076671Y44844736D01*
X53076671Y44675264D01*
X53050160Y44507879D01*
X52997790Y44346702D01*
X52920851Y44195702D01*
X52821238Y44058596D01*
X52701404Y43938762D01*
X52564298Y43839149D01*
X52413298Y43762210D01*
X52252121Y43709840D01*
X52084736Y43683329D01*
X51915264Y43683329D01*
X51747879Y43709840D01*
X51586702Y43762210D01*
X51435702Y43839149D01*
X51298596Y43938762D01*
X51178762Y44058596D01*
X51079149Y44195702D01*
X51002210Y44346702D01*
X50949840Y44507879D01*
X50923329Y44675264D01*
X50923329Y44844736D01*
X50949840Y45012121D01*
X51002210Y45173298D01*
X51079149Y45324298D01*
X51178762Y45461404D01*
X51298596Y45581238D01*
X51435702Y45680851D01*
X51586702Y45757790D01*
X51747879Y45810160D01*
X51915264Y45836671D01*
X52084736Y45836671D01*
X52252121Y45810160D01*
G37*
G36*
X59242121Y45810160D02*
G01*
X59403298Y45757790D01*
X59554298Y45680851D01*
X59691404Y45581238D01*
X59811238Y45461404D01*
X59910851Y45324298D01*
X59987790Y45173298D01*
X60040160Y45012121D01*
X60066671Y44844736D01*
X60066671Y44675264D01*
X60040160Y44507879D01*
X59987790Y44346702D01*
X59910851Y44195702D01*
X59811238Y44058596D01*
X59691404Y43938762D01*
X59554298Y43839149D01*
X59403298Y43762210D01*
X59242121Y43709840D01*
X59074736Y43683329D01*
X58905264Y43683329D01*
X58737879Y43709840D01*
X58576702Y43762210D01*
X58425702Y43839149D01*
X58288596Y43938762D01*
X58168762Y44058596D01*
X58069149Y44195702D01*
X57992210Y44346702D01*
X57939840Y44507879D01*
X57913329Y44675264D01*
X57913329Y44844736D01*
X57939840Y45012121D01*
X57992210Y45173298D01*
X58069149Y45324298D01*
X58168762Y45461404D01*
X58288596Y45581238D01*
X58425702Y45680851D01*
X58576702Y45757790D01*
X58737879Y45810160D01*
X58905264Y45836671D01*
X59074736Y45836671D01*
X59242121Y45810160D01*
G37*
G36*
X66252121Y45810160D02*
G01*
X66413298Y45757790D01*
X66564298Y45680851D01*
X66701404Y45581238D01*
X66821238Y45461404D01*
X66920851Y45324298D01*
X66997790Y45173298D01*
X67050160Y45012121D01*
X67076671Y44844736D01*
X67076671Y44675264D01*
X67050160Y44507879D01*
X66997790Y44346702D01*
X66920851Y44195702D01*
X66821238Y44058596D01*
X66701404Y43938762D01*
X66564298Y43839149D01*
X66413298Y43762210D01*
X66252121Y43709840D01*
X66084736Y43683329D01*
X65915264Y43683329D01*
X65747879Y43709840D01*
X65586702Y43762210D01*
X65435702Y43839149D01*
X65298596Y43938762D01*
X65178762Y44058596D01*
X65079149Y44195702D01*
X65002210Y44346702D01*
X64949840Y44507879D01*
X64923329Y44675264D01*
X64923329Y44844736D01*
X64949840Y45012121D01*
X65002210Y45173298D01*
X65079149Y45324298D01*
X65178762Y45461404D01*
X65298596Y45581238D01*
X65435702Y45680851D01*
X65586702Y45757790D01*
X65747879Y45810160D01*
X65915264Y45836671D01*
X66084736Y45836671D01*
X66252121Y45810160D01*
G37*
G36*
X40991100Y46219499D02*
G01*
X41109904Y46150907D01*
X41206907Y46053904D01*
X41275499Y45935100D01*
X41311004Y45802592D01*
X41311004Y45665408D01*
X41275499Y45532900D01*
X41206907Y45414096D01*
X41109904Y45317093D01*
X40991100Y45248501D01*
X40858592Y45212996D01*
X40721408Y45212996D01*
X40588900Y45248501D01*
X40470096Y45317093D01*
X40373093Y45414096D01*
X40304501Y45532900D01*
X40268996Y45665408D01*
X40268996Y45802592D01*
X40304501Y45935100D01*
X40373093Y46053904D01*
X40470096Y46150907D01*
X40588900Y46219499D01*
X40721408Y46255004D01*
X40858592Y46255004D01*
X40991100Y46219499D01*
G37*
G36*
X89164106Y47722563D02*
G01*
X89168316Y47720703D01*
X89171619Y47720269D01*
X89212943Y47700998D01*
X89258238Y47680999D01*
X89330999Y47608238D01*
X89351003Y47562932D01*
X89370268Y47521620D01*
X89370702Y47518319D01*
X89372563Y47514106D01*
X89380000Y47450000D01*
X89380000Y45950000D01*
X89372563Y45885894D01*
X89370703Y45881683D01*
X89370269Y45878380D01*
X89350990Y45837037D01*
X89330999Y45791762D01*
X89258238Y45719001D01*
X89212972Y45699014D01*
X89171620Y45679731D01*
X89168316Y45679296D01*
X89164106Y45677437D01*
X89100000Y45670000D01*
X89097702Y45670000D01*
X87902296Y45670000D01*
X87900000Y45670000D01*
X87835894Y45677437D01*
X87831686Y45679294D01*
X87828380Y45679730D01*
X87786996Y45699027D01*
X87741762Y45719001D01*
X87669001Y45791762D01*
X87649022Y45837008D01*
X87629731Y45878379D01*
X87629295Y45881684D01*
X87627437Y45885894D01*
X87620000Y45950000D01*
X87620000Y47450000D01*
X87627437Y47514106D01*
X87629294Y47518313D01*
X87629730Y47521619D01*
X87649019Y47562984D01*
X87669001Y47608238D01*
X87741762Y47680999D01*
X87787048Y47700995D01*
X87828379Y47720268D01*
X87831680Y47720702D01*
X87835894Y47722563D01*
X87900000Y47730000D01*
X89100000Y47730000D01*
X89164106Y47722563D01*
G37*
G36*
X86255451Y47692107D02*
G01*
X86414829Y47626091D01*
X86558266Y47530249D01*
X86680249Y47408266D01*
X86776091Y47264829D01*
X86842107Y47105451D01*
X86875763Y46936255D01*
X86880000Y46850000D01*
X86880000Y46550000D01*
X86875763Y46463745D01*
X86842107Y46294549D01*
X86776091Y46135171D01*
X86680249Y45991734D01*
X86558266Y45869751D01*
X86414829Y45773909D01*
X86255451Y45707893D01*
X86086255Y45674237D01*
X85913745Y45674237D01*
X85744549Y45707893D01*
X85585171Y45773909D01*
X85441734Y45869751D01*
X85319751Y45991734D01*
X85223909Y46135171D01*
X85157893Y46294549D01*
X85124237Y46463745D01*
X85120000Y46550000D01*
X85120000Y46850000D01*
X85124237Y46936255D01*
X85157893Y47105451D01*
X85223909Y47264829D01*
X85319751Y47408266D01*
X85441734Y47530249D01*
X85585171Y47626091D01*
X85744549Y47692107D01*
X85913745Y47725763D01*
X86086255Y47725763D01*
X86255451Y47692107D01*
G37*
G36*
X72663793Y49248778D02*
G01*
X72832432Y49193984D01*
X72990423Y49113483D01*
X73133876Y49009259D01*
X73259259Y48883876D01*
X73363483Y48740423D01*
X73443984Y48582432D01*
X73498778Y48413793D01*
X73526517Y48238659D01*
X73530000Y48150000D01*
X73530000Y46850000D01*
X73526517Y46761341D01*
X73498778Y46586207D01*
X73443984Y46417568D01*
X73363483Y46259577D01*
X73259259Y46116124D01*
X73133876Y45990741D01*
X72990423Y45886517D01*
X72832432Y45806016D01*
X72663793Y45751222D01*
X72488659Y45723483D01*
X72311341Y45723483D01*
X72136207Y45751222D01*
X71967568Y45806016D01*
X71809577Y45886517D01*
X71666124Y45990741D01*
X71540741Y46116124D01*
X71436517Y46259577D01*
X71356016Y46417568D01*
X71301222Y46586207D01*
X71273483Y46761341D01*
X71270000Y46850000D01*
X71270000Y48150000D01*
X71273483Y48238659D01*
X71301222Y48413793D01*
X71356016Y48582432D01*
X71436517Y48740423D01*
X71540741Y48883876D01*
X71666124Y49009259D01*
X71809577Y49113483D01*
X71967568Y49193984D01*
X72136207Y49248778D01*
X72311341Y49276517D01*
X72488659Y49276517D01*
X72663793Y49248778D01*
G37*
G36*
X80863793Y49248778D02*
G01*
X81032432Y49193984D01*
X81190423Y49113483D01*
X81333876Y49009259D01*
X81459259Y48883876D01*
X81563483Y48740423D01*
X81643984Y48582432D01*
X81698778Y48413793D01*
X81726517Y48238659D01*
X81730000Y48150000D01*
X81730000Y46850000D01*
X81726517Y46761341D01*
X81698778Y46586207D01*
X81643984Y46417568D01*
X81563483Y46259577D01*
X81459259Y46116124D01*
X81333876Y45990741D01*
X81190423Y45886517D01*
X81032432Y45806016D01*
X80863793Y45751222D01*
X80688659Y45723483D01*
X80511341Y45723483D01*
X80336207Y45751222D01*
X80167568Y45806016D01*
X80009577Y45886517D01*
X79866124Y45990741D01*
X79740741Y46116124D01*
X79636517Y46259577D01*
X79556016Y46417568D01*
X79501222Y46586207D01*
X79473483Y46761341D01*
X79470000Y46850000D01*
X79470000Y48150000D01*
X79473483Y48238659D01*
X79501222Y48413793D01*
X79556016Y48582432D01*
X79636517Y48740423D01*
X79740741Y48883876D01*
X79866124Y49009259D01*
X80009577Y49113483D01*
X80167568Y49193984D01*
X80336207Y49248778D01*
X80511341Y49276517D01*
X80688659Y49276517D01*
X80863793Y49248778D01*
G37*
G36*
X75261481Y48777716D02*
G01*
X75271213Y48771213D01*
X75277716Y48761481D01*
X75280000Y48750000D01*
X75280000Y46250000D01*
X75277716Y46238519D01*
X75271213Y46228787D01*
X75261481Y46222284D01*
X75250000Y46220000D01*
X75246551Y46220000D01*
X73753444Y46220000D01*
X73750000Y46220000D01*
X73738519Y46222284D01*
X73728787Y46228787D01*
X73722284Y46238519D01*
X73720000Y46250000D01*
X73720000Y48750000D01*
X73722284Y48761481D01*
X73728787Y48771213D01*
X73738519Y48777716D01*
X73750000Y48780000D01*
X75250000Y48780000D01*
X75261481Y48777716D01*
G37*
G36*
X76726422Y48746413D02*
G01*
X76867689Y48687899D01*
X76994827Y48602948D01*
X77102948Y48494827D01*
X77187899Y48367689D01*
X77246413Y48226422D01*
X77276244Y48076453D01*
X77280000Y48000000D01*
X77280000Y47000000D01*
X77276244Y46923547D01*
X77246413Y46773578D01*
X77187899Y46632311D01*
X77102948Y46505173D01*
X76994827Y46397052D01*
X76867689Y46312101D01*
X76726422Y46253587D01*
X76576453Y46223756D01*
X76423547Y46223756D01*
X76273578Y46253587D01*
X76132311Y46312101D01*
X76005173Y46397052D01*
X75897052Y46505173D01*
X75812101Y46632311D01*
X75753587Y46773578D01*
X75723756Y46923547D01*
X75720000Y47000000D01*
X75720000Y48000000D01*
X75723756Y48076453D01*
X75753587Y48226422D01*
X75812101Y48367689D01*
X75897052Y48494827D01*
X76005173Y48602948D01*
X76132311Y48687899D01*
X76273578Y48746413D01*
X76423547Y48776244D01*
X76576453Y48776244D01*
X76726422Y48746413D01*
G37*
G36*
X78726422Y48746413D02*
G01*
X78867689Y48687899D01*
X78994827Y48602948D01*
X79102948Y48494827D01*
X79187899Y48367689D01*
X79246413Y48226422D01*
X79276244Y48076453D01*
X79280000Y48000000D01*
X79280000Y47000000D01*
X79276244Y46923547D01*
X79246413Y46773578D01*
X79187899Y46632311D01*
X79102948Y46505173D01*
X78994827Y46397052D01*
X78867689Y46312101D01*
X78726422Y46253587D01*
X78576453Y46223756D01*
X78423547Y46223756D01*
X78273578Y46253587D01*
X78132311Y46312101D01*
X78005173Y46397052D01*
X77897052Y46505173D01*
X77812101Y46632311D01*
X77753587Y46773578D01*
X77723756Y46923547D01*
X77720000Y47000000D01*
X77720000Y48000000D01*
X77723756Y48076453D01*
X77753587Y48226422D01*
X77812101Y48367689D01*
X77897052Y48494827D01*
X78005173Y48602948D01*
X78132311Y48687899D01*
X78273578Y48746413D01*
X78423547Y48776244D01*
X78576453Y48776244D01*
X78726422Y48746413D01*
G37*
G36*
X35911100Y47235499D02*
G01*
X36029904Y47166907D01*
X36126907Y47069904D01*
X36195499Y46951100D01*
X36231004Y46818592D01*
X36231004Y46681408D01*
X36195499Y46548900D01*
X36126907Y46430096D01*
X36029904Y46333093D01*
X35911100Y46264501D01*
X35778592Y46228996D01*
X35641408Y46228996D01*
X35508900Y46264501D01*
X35390096Y46333093D01*
X35293093Y46430096D01*
X35224501Y46548900D01*
X35188996Y46681408D01*
X35188996Y46818592D01*
X35224501Y46951100D01*
X35293093Y47069904D01*
X35390096Y47166907D01*
X35508900Y47235499D01*
X35641408Y47271004D01*
X35778592Y47271004D01*
X35911100Y47235499D01*
G37*
G36*
X55717714Y47717705D02*
G01*
X55853548Y47661441D01*
X55975795Y47579758D01*
X56079758Y47475795D01*
X56161441Y47353548D01*
X56217705Y47217714D01*
X56246389Y47073513D01*
X56246389Y46926487D01*
X56217705Y46782286D01*
X56161441Y46646452D01*
X56079758Y46524205D01*
X55975795Y46420242D01*
X55853548Y46338559D01*
X55717714Y46282295D01*
X55573513Y46253611D01*
X55426487Y46253611D01*
X55282286Y46282295D01*
X55146452Y46338559D01*
X55024205Y46420242D01*
X54920242Y46524205D01*
X54838559Y46646452D01*
X54782295Y46782286D01*
X54753611Y46926487D01*
X54753611Y47073513D01*
X54782295Y47217714D01*
X54838559Y47353548D01*
X54920242Y47475795D01*
X55024205Y47579758D01*
X55146452Y47661441D01*
X55282286Y47717705D01*
X55426487Y47746389D01*
X55573513Y47746389D01*
X55717714Y47717705D01*
G37*
G36*
X46512708Y48116031D02*
G01*
X46676614Y48048139D01*
X46824126Y47949574D01*
X46949574Y47824126D01*
X47048139Y47676614D01*
X47116031Y47512708D01*
X47150642Y47338706D01*
X47150642Y47161294D01*
X47116031Y46987292D01*
X47048139Y46823386D01*
X46949574Y46675874D01*
X46824126Y46550426D01*
X46676614Y46451861D01*
X46512708Y46383969D01*
X46338706Y46349358D01*
X46161294Y46349358D01*
X45987292Y46383969D01*
X45823386Y46451861D01*
X45675874Y46550426D01*
X45550426Y46675874D01*
X45451861Y46823386D01*
X45383969Y46987292D01*
X45349358Y47161294D01*
X45349358Y47338706D01*
X45383969Y47512708D01*
X45451861Y47676614D01*
X45550426Y47824126D01*
X45675874Y47949574D01*
X45823386Y48048139D01*
X45987292Y48116031D01*
X46161294Y48150642D01*
X46338706Y48150642D01*
X46512708Y48116031D01*
G37*
G36*
X51012708Y48116031D02*
G01*
X51176614Y48048139D01*
X51324126Y47949574D01*
X51449574Y47824126D01*
X51548139Y47676614D01*
X51616031Y47512708D01*
X51650642Y47338706D01*
X51650642Y47161294D01*
X51616031Y46987292D01*
X51548139Y46823386D01*
X51449574Y46675874D01*
X51324126Y46550426D01*
X51176614Y46451861D01*
X51012708Y46383969D01*
X50838706Y46349358D01*
X50661294Y46349358D01*
X50487292Y46383969D01*
X50323386Y46451861D01*
X50175874Y46550426D01*
X50050426Y46675874D01*
X49951861Y46823386D01*
X49883969Y46987292D01*
X49849358Y47161294D01*
X49849358Y47338706D01*
X49883969Y47512708D01*
X49951861Y47676614D01*
X50050426Y47824126D01*
X50175874Y47949574D01*
X50323386Y48048139D01*
X50487292Y48116031D01*
X50661294Y48150642D01*
X50838706Y48150642D01*
X51012708Y48116031D01*
G37*
G36*
X60512708Y48116031D02*
G01*
X60676614Y48048139D01*
X60824126Y47949574D01*
X60949574Y47824126D01*
X61048139Y47676614D01*
X61116031Y47512708D01*
X61150642Y47338706D01*
X61150642Y47161294D01*
X61116031Y46987292D01*
X61048139Y46823386D01*
X60949574Y46675874D01*
X60824126Y46550426D01*
X60676614Y46451861D01*
X60512708Y46383969D01*
X60338706Y46349358D01*
X60161294Y46349358D01*
X59987292Y46383969D01*
X59823386Y46451861D01*
X59675874Y46550426D01*
X59550426Y46675874D01*
X59451861Y46823386D01*
X59383969Y46987292D01*
X59349358Y47161294D01*
X59349358Y47338706D01*
X59383969Y47512708D01*
X59451861Y47676614D01*
X59550426Y47824126D01*
X59675874Y47949574D01*
X59823386Y48048139D01*
X59987292Y48116031D01*
X60161294Y48150642D01*
X60338706Y48150642D01*
X60512708Y48116031D01*
G37*
G36*
X65012708Y48116031D02*
G01*
X65176614Y48048139D01*
X65324126Y47949574D01*
X65449574Y47824126D01*
X65548139Y47676614D01*
X65616031Y47512708D01*
X65650642Y47338706D01*
X65650642Y47161294D01*
X65616031Y46987292D01*
X65548139Y46823386D01*
X65449574Y46675874D01*
X65324126Y46550426D01*
X65176614Y46451861D01*
X65012708Y46383969D01*
X64838706Y46349358D01*
X64661294Y46349358D01*
X64487292Y46383969D01*
X64323386Y46451861D01*
X64175874Y46550426D01*
X64050426Y46675874D01*
X63951861Y46823386D01*
X63883969Y46987292D01*
X63849358Y47161294D01*
X63849358Y47338706D01*
X63883969Y47512708D01*
X63951861Y47676614D01*
X64050426Y47824126D01*
X64175874Y47949574D01*
X64323386Y48048139D01*
X64487292Y48116031D01*
X64661294Y48150642D01*
X64838706Y48150642D01*
X65012708Y48116031D01*
G37*
G36*
X40991100Y48251499D02*
G01*
X41109904Y48182907D01*
X41206907Y48085904D01*
X41275499Y47967100D01*
X41311004Y47834592D01*
X41311004Y47697408D01*
X41275499Y47564900D01*
X41206907Y47446096D01*
X41109904Y47349093D01*
X40991100Y47280501D01*
X40858592Y47244996D01*
X40721408Y47244996D01*
X40588900Y47280501D01*
X40470096Y47349093D01*
X40373093Y47446096D01*
X40304501Y47564900D01*
X40268996Y47697408D01*
X40268996Y47834592D01*
X40304501Y47967100D01*
X40373093Y48085904D01*
X40470096Y48182907D01*
X40588900Y48251499D01*
X40721408Y48287004D01*
X40858592Y48287004D01*
X40991100Y48251499D01*
G37*
M02*
